<?xml version="1.0" encoding="utf-8"?>
<!-- Generator: Adobe Illustrator 18.1.1, SVG Export Plug-In . SVG Version: 6.00 Build 0)  -->
<svg version="1.1" xmlns="http://www.w3.org/2000/svg" xmlns:xlink="http://www.w3.org/1999/xlink" x="0px" y="0px"
	 viewBox="0 0 792 612" enable-background="new 0 0 792 612" xml:space="preserve">
<g id="Layer_1" display="none">
	<path display="inline" fill="#EF3E40" d="M379.6,475.4C379.6,475.4,379.6,476.2,379.6,475.4c-1.8,0.9-5.3,1.8-8,1.8
		c-0.9,0-2.7-0.9-4.4-1.8c-2.7,0-5.3,0-8-0.9h-1.8v-0.9h-1.8v-0.9h-1.8v-0.9c-0.9,0-2.7,0-3.6-0.9c-1.8-0.9-2.7-3.6-4.4-4.4
		c-0.9-0.9-2.7-0.9-3.6-1.8c-0.9-0.9-0.9-1.8-1.8-2.7h-1.8c-0.9-0.9-1.8-2.7-2.7-3.6s-1.8-0.9-2.7-2.7c-0.9-0.9-0.9-1.8-1.8-2.7
		c-0.9-0.9-2.7-2.7-4.4-3.6c-1.8-1.8-2.7-2.7-4.4-4.4c-1.8-1.8-3.6-3.6-5.3-5.3c0,0-0.9,0-0.9-0.9s-5.3-5.3-7.1-7.1
		c-0.9-0.9-1.8-1.8-2.7-2.7s-5.3-2.7-5.3-4.4c0-0.9-2.7-2.7-3.6-3.6l-1.8-0.9v-1.8c-1.8-1.8-4.4-3.6-7.1-6.2
		c-1.8-1.8-2.7-4.4-4.4-6.2c-0.9-0.9-1.8-2.7-2.7-3.6l-1.8-0.9c0,0,0-0.9,0-1.8c-0.9-0.9-1.8-1.8-2.7-2.7c0-0.9-0.9-0.9-0.9-1.8
		c-0.9-0.9-2.7-1.8-2.7-3.6c0-0.9-1.8-0.9-1.8-1.8c0,0,0-0.9,0-1.8l-1.8-0.9c-0.9-1.8-0.9-2.7-1.8-4.4c0,0-0.9,0-0.9-0.9
		c0-1.8-2.7-2.7-3.6-3.6v-1.8c-0.9-0.9-1.8-0.9-2.7-2.7c-0.9-0.9-2.7-1.8-2.7-3.6c0-0.9-1.8-0.9-1.8-1.8c0,0,0-0.9,0-1.8l-1.8-0.9
		v-1.8c-0.9-0.9-1.8-0.9-2.7-1.8v-1.8c-0.9-0.9-0.9-0.9-1.8-1.8l-1.8-0.9c-0.9-0.9,0-1.8-0.9-3.6c0,0-0.9,0-0.9-0.9
		c0-1.8-2.7-3.6-4.4-5.3s-2.7-4.4-4.4-6.2c-0.9-0.9-2.7-3.6-3.6-5.3c-0.9-0.9-0.9-1.8-1.8-2.7c-0.9-0.9-0.9-1.8-1.8-2.7
		c-0.9,0-0.9-1.8-0.9-2.7c-3.6-2.7-7.1-9.8-10.7-14.2c-0.9-0.9-1.8-1.8-2.7-2.7v-1.8l-1.8-0.9v-1.8c-0.9-0.9-1.8-1.8-2.7-3.6
		c-0.9-0.9-0.9-1.8-1.8-2.7c-0.9-0.9-0.9-1.8-1.8-2.7c-0.9,0-0.9-1.8-0.9-2.7h-0.9v-1.8c-0.9-0.9-0.9-0.9-1.8-1.8l-0.9-0.9
		c-0.9-0.9,0-1.8-0.9-3.6c0,0-1.8,0-1.8-0.9c0,0,0-0.9,0-1.8c-0.9-0.9-3.6-0.9-3.6-3.6c0-0.9-1.8-0.9-1.8-2.7c0-0.9-1.8-0.9-1.8-2.7
		c0-0.9-2.7-2.7-3.6-3.6l-1.8-0.9v-1.8c-0.9-0.9-1.8-1.8-2.7-2.7l-1.8-0.9c0,0,0-0.9,0-1.8c-0.9-0.9-1.8-0.9-2.7-2.7
		c0-0.9-0.9-0.9-0.9-1.8c-0.9-0.9-0.9-1.8-1.8-2.7s-0.9-1.8-1.8-2.7c-0.9-0.9-1.8-2.7-2.7-3.6l-1.8-0.9c0,0,0-0.9,0-1.8l-1.8-0.9
		v-1.8c-0.9-0.9-1.8-0.9-2.7-1.8v-1.8c-1.8-0.9-2.7-3.6-4.4-5.3l-0.9-0.9c-0.9-0.9,0-2.7-0.9-3.6c-0.9-0.9-1.8-1.8-2.7-2.7
		c-1.8-1.8-3.6-5.3-5.3-8c0,0-0.9,0-0.9-0.9c0,0-0.9-1.8-0.9-2.7l-1.8-0.9c-0.9-1.8-0.9-2.7-1.8-4.4c0,0-0.9,0-0.9-0.9
		c0-0.9-2.7-2.7-3.6-3.6c-0.9-0.9-0.9-1.8-1.8-2.7c-0.9-1.8-3.6-2.7-4.4-3.6V201c-0.9-0.9-0.9-0.9-1.8-1.8l-1.8-0.9v-1.8
		c-1.8-1.8-3.6-2.7-4.4-3.6c-2.7-2.7-5.3-7.1-8-10.7c-0.9-0.9-1.8-1.8-2.7-2.7c-1.8-1.8-2.7-4.4-4.4-6.2c0-0.9-0.9-0.9-0.9-0.9
		c-1.8-1.8-2.7-4.4-3.6-5.3c-0.9-1.8-3.6-2.7-4.4-3.6c-0.9-0.9-0.9-2.7-1.8-3.6l-1.8-0.9c0,0,0-0.9,0-1.8l-1.8-0.9
		c-0.9-0.9,0-1.8-0.9-3.6c0,0-0.9,0-0.9-0.9c-0.9-1.8,0-5.3-0.9-7.1c0-2.7-0.9-4.4-0.9-5.3c0-4.4,5.3-11.5,8.9-15.1l0.9-1.8
		c0,0,0.9,0,1.8,0c0.9,0,0.9-1.8,1.8-1.8c1.8-0.9,4.4-0.9,7.1-1.8c4.4-0.9,7.1-2.7,12.4-1.8c1.8,0,2.7,0.9,4.4,1.8
		c3.6,0.9,6.2,0.9,8.9,0.9c0.9,0,3.6,0,4.4,0.9c0.9,0.9,3.6,1.8,7.1,1.8h1.8c0.9,0.9,0.9,0.9,2.7,0.9h1.8c0.9,0.9,7.1,2.7,8.9,2.7
		c4.4,0.9,9.8,1.8,15.1,3.6h1.8c0.9,0.9,6.2,0.9,8.9,1.8c0,0,0,0.9,0.9,0.9c0.9,0,1.8,0,2.7,0.9c1.8,0.9,4.4,1.8,7.1,1.8
		c0.9,0,3.6,0.9,5.3,1.8c0,0,0,0.9,0.9,0.9s1.8,0,2.7,0.9c0.9,0,2.7,0.9,4.4,1.8c4.4,0.9,10.7,2.7,15.1,4.4
		c2.7,1.8,9.8,3.6,13.3,5.3c5.3,1.8,11.5,3.6,16.9,5.3c0.9,0,1.8,0,3.6,0.9c0,0,0,0.9,0.9,0.9s3.6,0.9,5.3,1.8c0,0,0,0.9,0.9,0.9
		c0.9,0,2.7,0.9,4.4,1.8l0.9,0.9c0.9,0.9,1.8,0,3.6,0.9l0.9,1.8c0.9,0.9,1.8,0,3.6,0.9c0,0,0,0.9,0.9,0.9c0,0,1.8,0.9,2.7,0.9
		s1.8,0.9,4.4,1.8c0.9,0,0.9,0,1.8,0.9c0,0,2.7,0,2.7,0.9v0.9h1.8c0.9,0.9,0.9,0.9,1.8,1.8c0,0,2.7,0,2.7,0.9v0.9h1.8
		c1.8,1.8,5.3,1.8,8.9,3.6c0.9,0,2.7,0.9,4.4,1.8c0.9,0,3.6,0.9,5.3,1.8c0,0,0,0.9,0.9,0.9c0.9,0,1.8,0,2.7,0.9
		c0.9,0.9,2.7,0.9,5.3,1.8c0,0,0,0.9,0.9,0.9c0,0,0.9,0.9,1.8,0.9c-4.4,6.2-1.8,6.2,0.9,7.1c0,0,0,0.9,0.9,0.9
		c0.9,0,2.7,0.9,3.6,1.8c0,0,2.7,0,2.7,0.9v0.9h1.8v0.9c0.9,0.9,1.8,0,3.6,0.9c0,0,0,0.9,0.9,0.9c0,0,1.8,0.9,2.7,0.9l0.9,1.8
		c0.9,0.9,1.8,0,3.6,0.9c0,0,0,0.9,0.9,0.9s0.9,0.9,1.8,1.8c1.8,0.9,2.7,0.9,4.4,1.8c0.9,0,0,0.9,0.9,0.9s1.8,1.8,2.7,1.8
		c0.9,0,1.8,1.8,3.6,1.8c0.9,0,1.8,1.8,2.7,1.8s1.8,1.8,2.7,1.8c0.9,0,1.8,1.8,2.7,1.8s0.9,0.9,1.8,1.8c0.9,0.9,1.8,0,3.6,0.9
		c0,0,0,0.9,0.9,0.9c0.9,0,2.7,0.9,5.3,1.8c6.2,0,10.7-2.7,15.1-5.3h1.8v-0.9c1.8-0.9,3.6-0.9,5.3-0.9c0,0,0-0.9,0.9-0.9
		s1.8-1.8,3.6-1.8c1.8-0.9,4.4-1.8,6.2-2.7c5.3-2.7,10.7-4.4,15.1-7.1c0.9,0,0.9-1.8,1.8-1.8h1.8c0,0,3.6-2.7,4.4-2.7
		c2.7-0.9,5.3-2.7,8.9-3.6h1.8v-0.9h1.8v-0.9h1.8c0-0.9,2.7-1.8,3.6-2.7h1.8V193h1.8v-0.9c7.1-3.6,14.2-7.1,21.3-11.5
		c1.8-0.9,3.6-2.7,4.4-2.7c0.9,0,4.4-2.7,5.3-2.7c0.9,0,0.9-0.9,1.8-1.8h1.8c0.9-0.9,0.9-1.8,1.8-2.7h1.8V170h1.8v-0.9h1.8
		c0.9-0.9,0.9-0.9,1.8-0.9l2.7-0.9v-0.9c-1.8-7.1,0.9-7.1,1.8-7.1c0,0,0.9-1.8,1.8-1.8s1.8,0,2.7,0c0,0,0-0.9,0.9-0.9
		c0.9,0,1.8-1.8,3.6-1.8c2.7-0.9,4.4-1.8,7.1-2.7c1.8-0.9,3.6,0,5.3-0.9c0,0,0-0.9,0.9-0.9c0.9,0,4.4-1.8,6.2-2.7
		c0.9,0,1.8-0.9,2.7-0.9h1.8c0.9-0.9,2.7-0.9,4.4-1.8c0,0,0-0.9,0.9-0.9s1.8-0.9,2.7-0.9c3.6-0.9,6.2-1.8,9.8-2.7
		c0.9,0,0.9-0.9,2.7-0.9c1.8,0,4.4,0,6.2-0.9c4.4-1.8,8-4.4,13.3-7.1h1.8v-0.9h1.8V130h1.8v-0.9h1.8v-0.9c0.9-0.9,2.7-0.9,4.4-0.9
		c0,0,0-0.9,0.9-0.9c1.8,0,1.8-0.9,4.4-0.9c5.3-0.9,12.4,0,17.8,1.8c0.9,0,1.8,0,2.7,0.9c0.9,0,0,0.9,0.9,0.9s3.6,2.7,4.4,4.4
		c0,0,0.9,0,0.9,0.9v0.9c0,0.9,0,1.8,0.9,4.4c0,0,0.9,0,0.9,0.9v0.9c0.9,1.8,1.8,4.4,2.7,7.1c0.9,2.7,0.9,5.3,0,8.9
		c-0.9,2.7-2.7,4.4-2.7,8.9c0,0.9,0,0.9,0,1.8c0,0.9-0.9,2.7-0.9,5.3c0,0.9,0,0.9,0,1.8c0,0.9-0.9,2.7-1.8,4.4l-1.8,0.9
		c0,0.9,0,0.9,0,1.8l-1.8,0.9c-0.9,0.9,0,2.7-0.9,5.3c0,0-0.9,0-0.9,0.9c0,0.9-0.9,2.7-1.8,3.6c0,0.9-0.9,2.7-1.8,4.4
		c0,0.9-0.9,1.8-1.8,2.7c-5.3,11.5-12.4,20.4-17.8,31.1c0,0.9,0,0.9-0.9,1.8c-0.9,0.9-0.9,1.8-1.8,2.7c-0.9,0.9-0.9,1.8-1.8,2.7
		c-0.9,0.9-0.9,1.8-1.8,2.7c-0.9,0.9-0.9,1.8-1.8,2.7c0,0.9-1.8,1.8-2.7,3.6c-0.9,0.9-0.9,1.8-1.8,2.7l-1.8,0.9c0,0,0,0.9,0,1.8
		c-0.9,1.8-2.7,2.7-3.6,4.4c-0.9,1.8-2.7,2.7-3.6,4.4c-3.6,4.4-8,8.9-11.5,13.3c-1.8,1.8-3.6,4.4-5.3,7.1c0,0.9-0.9,0-0.9,0.9
		c0,0.9-3.6,4.4-4.4,6.2c-0.9,1.8-2.7,2.7-3.6,4.4c-1.8,1.8-2.7,2.7-3.6,4.4c-4.4,4.4-8.9,9.8-14.2,15.1l-0.9,1.8h-1.8
		c-0.9,0.9-2.7,2.7-3.6,4.4c-0.9,1.8-2.7,2.7-3.6,4.4c-2.7,2.7-4.4,6.2-7.1,9.8c-0.9,1.8-2.7,2.7-3.6,4.4s-2.7,2.7-3.6,4.4
		c-7.1,8-16,17.8-23.1,26.6c-9.8,11.5-20.4,23.1-32,34.6c-5.3,5.3-9.8,11.5-15.1,17.8c-2.7,2.7-6.2,5.3-8.9,8
		c-1.8,1.8-2.7,2.7-3.6,4.4c-0.9,0.9-1.8,0.9-2.7,1.8l-0.9,1.8h-1.8c-1.8,1.8-2.7,2.7-3.6,4.4c-0.9,1.8-2.7,2.7-3.6,4.4
		c-2.7,2.7-5.3,6.2-8,8.9c-2.7,2.7-5.3,5.3-8.9,8c-1.8,1.8-3.6,3.6-6.2,6.2c-1.8,1.8-3.6,2.7-6.2,4.4h-1.8l-0.9,1.8
		c-0.9,0.9-1.8,0-2.7,0.9s-0.9,1.8-1.8,2.7c-0.9,0.9-1.8,0.9-2.7,0.9s-0.9,1.8-1.8,1.8C382.3,474.5,382.3,474.5,379.6,475.4z
		 M376,423.9l1.8-0.9c0.9-0.9,0-1.8,0.9-2.7s2.7-1.8,3.6-2.7c0.9-0.9,2.7-2.7,2.7-3.6h1.8c1.8-1.8,2.7-3.6,3.6-5.3
		c0.9-0.9,2.7-1.8,3.6-2.7c1.8-2.7,3.6-4.4,5.3-6.2c1.8-1.8,2.7-3.6,3.6-4.4c0.9-0.9,1.8,0,2.7-0.9c1.8-1.8,3.6-4.4,5.3-6.2
		c4.4-4.4,8-8,11.5-11.5c3.6-3.6,7.1-8,10.7-12.4c6.2-6.2,12.4-11.5,16.9-17.8c1.8-1.8,2.7-4.4,4.4-7.1c1.8-1.8,4.4-3.6,6.2-5.3
		c1.8-1.8,3.6-4.4,5.3-7.1c7.1-8,14.2-16.9,21.3-24.9c10.7-12.4,22.2-24.9,32.8-37.3c1.8-2.7,5.3-5.3,7.1-7.1
		c2.7-1.8,4.4-4.4,5.3-6.2c0.9-0.9,0.9-0.9,1.8-1.8c2.7-3.6,5.3-7.1,8-9.8c3.6-4.4,9.8-7.1,11.5-12.4c1.8,0,3.6-2.7,4.4-3.6
		c2.7-2.7,3.6-5.3,5.3-8c0.9-1.8,2.7-2.7,3.6-4.4c0.9-0.9,0.9-2.7,1.8-3.6c0.9-0.9,1.8-0.9,2.7-1.8c0,0,0-0.9,0-1.8l1.8-0.9l0.9-1.8
		c0-1.8,1.8-1.8,2.7-2.7v-1.8c0.9-1.8,2.7-2.7,3.6-4.4s2.7-3.6,0.9-6.2c-11.5,0.9-22.2,4.4-29.3,8.9h-0.9c-0.9,0-0.9,0.9-0.9,0.9
		c-2.7,0.9-5.3,0.9-7.1,1.8v0.9h-1.8c-0.9,0-0.9,1.8-1.8,1.8c-1.8,0.9-3.6,0.9-4.4,1.8c0,0-0.9,1.8-1.8,1.8s-0.9,0-1.8,0
		s-0.9,0.9-0.9,0.9c-5.3,2.7-9.8,3.6-14.2,6.2c-1.8,0.9-2.7,1.8-3.6,2.7c-0.9,0.9-2.7,1.8-3.6,1.8c-0.9,0-0.9,0-1.8,0
		c0,0-0.9,1.8-1.8,1.8c-0.9,0-0.9,0-1.8,0c-1.8,0-2.7,0.9-3.6,1.8c-0.9,0-0.9,1.8-1.8,1.8c-0.9,0.9-3.6,0.9-4.4,1.8
		c0,0-0.9,1.8-1.8,1.8c-0.9,0.9-1.8,0.9-2.7,0.9c-1.8,0.9-3.6,0.9-4.4,1.8c0,0-0.9,1.8-1.8,1.8c-0.9,0.9-1.8,0.9-2.7,0.9
		c-1.8,0.9-3.6,0.9-4.4,1.8c0,0-0.9,1.8-1.8,1.8c-0.9,0.9-1.8,0.9-2.7,0.9c0,4.4-0.9,4.4-1.8,4.4c-0.9,0-0.9,0.9-0.9,0.9
		c-2.7,0.9-6.2,0.9-8,1.8c-0.9,0-0.9,1.8-1.8,1.8c-1.8,0.9-3.6,0.9-4.4,1.8c-8.9,4.4-18.6,8-27.5,12.4c-1.8,0.9-2.7,1.8-3.6,1.8
		c-0.9,0-1.8,0.9-2.7,0.9c-0.9,0-0.9,0-1.8,0c0,0-0.9,1.8-1.8,1.8c-0.9,0-0.9,0-1.8,0c-0.9,0-0.9,0.9-0.9,0.9
		c-2.7,0.9-5.3,1.8-7.1,2.7c0,0-0.9,1.8-1.8,1.8c-0.9,0.9-1.8,0.9-2.7,0.9c-1.8,0.9-2.7,1.8-4.4,1.8c-8.9,1.8-15.1-1.8-23.1,0
		c-1.8-1.8-5.3-1.8-7.1-2.7c-0.9,0-0.9-0.9-1.8-1.8c-0.9,0-1.8,0-2.7-0.9c-0.9,0-0.9-0.9-1.8-1.8c-0.9-0.9-2.7-1.8-4.4-2.7
		c-5.3-2.7-11.5-6.2-16.9-8.9c-0.9,0-1.8,0-2.7-0.9c-0.9,0-0.9-0.9-1.8-1.8c-0.9,0-1.8,0-2.7-0.9c-0.9,0-0.9-0.9-1.8-1.8
		c-1.8-0.9-3.6-0.9-5.3-1.8c-0.9,0-0.9-0.9-1.8-1.8c-0.9,0-1.8,0-2.7-0.9c-3.6-1.8-6.2-2.7-9.8-3.6c-1.8-0.9-5.3-1.8-6.2-1.8
		s-1.8-0.9-2.7-0.9s-1.8-0.9-2.7-0.9c-0.9,0-1.8-0.9-2.7-0.9s-0.9,0-1.8,0c0,0-0.9-1.8-1.8-1.8c-0.9,0-0.9,0-1.8,0s-0.9-0.9-0.9-0.9
		c-2.7-0.9-6.2-0.9-8-1.8c-0.9,0-0.9-0.9-1.8-1.8c-1.8-0.9-3.6-0.9-5.3-1.8c-0.9,0-0.9-0.9-1.8-1.8c-0.9-0.9-1.8,0-2.7-0.9
		c-0.9,0-0.9-0.9-1.8-1.8c-1.8-0.9-3.6-0.9-5.3-1.8c-0.9,0-0.9-1.8-1.8-1.8c-0.9,0-0.9,0-1.8,0c-0.9,0-0.9-0.9-0.9-0.9
		c-2.7-0.9-3.6-0.9-5.3-1.8c-0.9,0-0.9-0.9-1.8-1.8c-1.8-0.9-3.6-0.9-5.3-1.8c-0.9,0-0.9-0.9-1.8-1.8c-0.9,0-1.8,0-2.7-0.9
		c-5.3-1.8-9.8-3.6-13.3-6.2c-1.8-0.9-1.8-2.7-3.6-2.7c-0.9,0-0.9-0.9-0.9-0.9c-1.8-0.9-3.6-0.9-5.3-1.8c-1.8-0.9-3.6-1.8-4.4-1.8
		c-0.9,0-0.9-0.9-0.9-0.9c-1.8-0.9-2.7,0-4.4-0.9c-0.9,0-0.9-0.9-0.9-0.9c-1.8-0.9-3.6-0.9-6.2-0.9c0,0-0.9-1.8-1.8-1.8
		c-0.9,0-1.8,0-2.7-0.9c-2.7-0.9-4.4-1.8-7.1-1.8c-2.7-0.9-6.2-3.6-9.8-1.8c-1.8,3.6,1.8,6.2,2.7,8c0.9,0.9,1.8,2.7,2.7,3.6
		c0,0.9,1.8,0.9,1.8,1.8c6.2,11.5,6.2,12.4,7.1,13.3h0.9v1.8c0,0.9,0.9,0.9,1.8,1.8c0.9,1.8,1.8,2.7,2.7,3.6c0,0.9,1.8,0.9,1.8,1.8
		c0.9,0.9,0,1.8,0.9,2.7c0,0.9,1.8,0.9,1.8,1.8c0.9,0.9,0.9,1.8,0.9,2.7c1.8,1.8,2.7,4.4,3.6,5.3c0,0.9,1.8,0.9,1.8,1.8
		c0.9,1.8,1.8,2.7,2.7,3.6c0.9,0.9,0.9,0.9,1.8,1.8c0.9,0.9,0,1.8,0.9,2.7s2.7,0.9,3.6,2.7c0.9-0.9,0.9,0,0.9,0.9
		c0,0.9,1.8,0.9,1.8,1.8c0.9,0.9,1.8,2.7,2.7,3.6c0.9,0.9,2.7,1.8,3.6,3.6c1.8,2.7,3.6,4.4,5.3,7.1c0.9,0.9,1.8,2.7,2.7,3.6
		c0.9,0.9,3.6,2.7,3.6,3.6c0,0.9,1.8,2.7,1.8,3.6c0.9,0.9,1.8,2.7,2.7,3.6c0,0.9,1.8,0.9,1.8,1.8c0.9,1.8,1.8,2.7,2.7,3.6
		c0,0.9,1.8,1.8,1.8,2.7c0,0.9,0.9,0,0.9,0.9c0.9,1.8,1.8,2.7,2.7,3.6c0.9,0.9,0,1.8,0.9,2.7c0.9,0.9,1.8,2.7,2.7,3.6
		c0.9,0.9,2.7,1.8,3.6,3.6c0.9,0.9,0.9,1.8,0.9,2.7s1.8,0.9,1.8,1.8c0.9,0.9,0.9,0.9,1.8,1.8c0.9,0.9,0,1.8,0.9,2.7
		c0,0.9,1.8,0.9,1.8,1.8c0.9,0.9,0.9,1.8,0.9,2.7s1.8,0.9,1.8,1.8c0.9,0.9,0.9,1.8,0.9,2.7h0.9v1.8c0,0.9,1.8,0.9,1.8,1.8
		c0.9,0.9,0.9,1.8,0.9,2.7c0.9,1.8,1.8,2.7,2.7,3.6c0,0.9,1.8,0.9,1.8,1.8c0.9,0.9,0.9,1.8,0.9,2.7s1.8,1.8,1.8,2.7
		c0,0.9,0.9,0,0.9,0.9c0.9,1.8,1.8,2.7,2.7,3.6c0,0.9,1.8,0.9,1.8,1.8c0.9,0.9,0,1.8,0.9,2.7c0,0,1.8,0.9,1.8,1.8
		c0.9,0.9,1.8,2.7,2.7,3.6c0,0,1.8,0,1.8,0.9c0.9,0.9,0,1.8,0.9,2.7c0.9,0.9,2.7,1.8,3.6,2.7c0.9,0.9,0.9,1.8,0.9,2.7
		s1.8,0.9,1.8,1.8c0.9,0.9,1.8,2.7,2.7,3.6c2.7,2.7,5.3,6.2,7.1,8.9c0.9,1.8,1.8,2.7,2.7,3.6c0,0.9,1.8,0.9,1.8,1.8s0.9,0.9,0.9,1.8
		c1.8,2.7,3.6,2.7,5.3,4.4c0.9,0.9,0.9,1.8,0.9,2.7c0.9,0.9,0.9,0.9,1.8,1.8c0.9,0.9,2.7,1.8,3.6,3.6c4.4,4.4,8,8.9,12.4,13.3
		c0.9,0.9,1.8,1.8,2.7,3.6c1.8,2.7,5.3,4.4,7.1,6.2c0.9,0.9,1.8,2.7,2.7,3.6c1.8,1.8,4.4,3.6,5.3,4.4c0.9,1.8,1.8,3.6,2.7,3.6
		c0.9,0.9,1.8,0,2.7,0.9c1.8,0.9,0.9,1.8,2.7,2.7c0.9,0,1.8,0,2.7,0C376,426.5,375.2,424.8,376,423.9z"/>
</g>
<g id="Layer_3">
	<path fill="#FFFFFF" d="M538,523.9c-5.8-9.9-21.6-58.6-24.5-66.2c-2.9-7.6-6.6-10.5-10.7-10.1s-47.9-91.4-55.5-110.4
		s20.1-56.4,23.9-63.4s6-4.4,7.2-3.9s2.5-1.5,3.5-3.5c48.1-96.2,77.5-200,65.5-227.5s-43-2.5-43-2.5s-104.8,84.7-155.8,115.7
		s-123.7,96-148.7,125.7c-25,29.7,7,59.3,10.3,63c61.9,68.1,241.7,204,288.7,225.5S543.8,533.8,538,523.9z M475.6,507.4
		c-25-17.3-148-132-165-144.7c-17-12.7-65.3-57-65.3-57s-9.7-6.3,3.3-18c13-11.7,173.7-133.7,186.3-147.7c0,0,56.3-42.3,48-23
		c-8.3,19.3-51,120.7-60,144.3s-37.7,40.3-18,76.3s47.9,101.4,62.7,126.3C473.9,474.7,500.6,524.7,475.6,507.4z"/>
</g>
</svg>
