<?xml version="1.0" encoding="UTF-8" standalone="no"?>
<svg
   xmlns:dc="http://purl.org/dc/elements/1.1/"
   xmlns:cc="http://creativecommons.org/ns#"
   xmlns:rdf="http://www.w3.org/1999/02/22-rdf-syntax-ns#"
   xmlns:svg="http://www.w3.org/2000/svg"
   xmlns="http://www.w3.org/2000/svg"
   viewBox="0 0 1000.6667 309.76001"
   height="309.76001"
   width="1000.6667"
   xml:space="preserve"
   version="1.1"
   id="svg2"><metadata
     id="metadata8"><rdf:RDF><cc:Work
         rdf:about=""><dc:format>image/svg+xml</dc:format><dc:type
           rdf:resource="http://purl.org/dc/dcmitype/StillImage" /></cc:Work></rdf:RDF></metadata><defs
     id="defs6" /><g
     transform="matrix(1.3333333,0,0,-1.3333333,0,309.76)"
     id="g10"><g
       transform="scale(0.1)"
       id="g12"><path
         id="path14"
         style="fill:#ffffff;fill-opacity:1;fill-rule:evenodd;stroke:none"
         d="m 916.27,1841.37 c -8.379,3.3 -15.489,8.3 -11.856,20.06 7.52,24.62 22.723,80.73 11.473,98.51 -3.653,5.76 -28.055,45.87 -29.344,52.09 -1.934,7.24 -2.285,14.32 -0.637,21.2 -2.508,-10.96 25.266,67.48 50.5,131.13 15.664,39.69 33.535,84.32 33.66,84.3 12.442,-4.12 3.938,-26.46 -7.871,-63.73 -8.699,-27.34 -24.011,-76.29 -32.117,-102.5 -2.363,-7.21 -5.449,-21.45 6.375,-25.08 11.496,-3.48 16.379,8.58 19.328,16.96 9.336,26.28 24.442,72.87 32.996,99.45 12.263,36.81 18.743,63.42 25.823,61.29 7.67,-2.31 -1.37,-24.61 -13.38,-65.94 -7.314,-25.29 -22.521,-74.95 -29.95,-100.13 -1.836,-6.05 -5.293,-21.66 7.402,-25.52 l -0.051,0.06 c 13.508,-4.12 18.254,10.98 20.109,17.08 7.95,25.01 23.11,74.69 31.15,99.78 13.21,40.92 18.13,64.41 25.77,62.12 7.08,-2.2 -2.41,-27.93 -12.84,-65.29 -7.75,-26.79 -21.31,-73.86 -28.28,-100.9 -2.19,-8.61 -4.88,-21.3 6.62,-24.86 11.81,-3.55 17.21,9.91 19.24,17.22 7.98,26.28 22.6,75.4 30.72,102.95 11.02,37.5 16.49,60.81 29.1,57.25 0.13,-0.08 -10.05,-47.05 -19.19,-88.73 -14.73,-66.85 -35.55,-147.46 -31.49,-136.93 -2.48,-6.65 -6.75,-12.31 -12.38,-17.26 -4.55,-4.36 -47.228,-23.99 -53.478,-26.79 -19.238,-8.43 -37.063,-63.72 -44.57,-88.35 -3.586,-11.73 -12.297,-11.93 -21.075,-9.95 l -1.757,0.51" /><path
         id="path16"
         style="fill:#ffffff;fill-opacity:1;fill-rule:evenodd;stroke:none"
         d="m 701.387,1840.91 c -8.821,-1.78 -17.481,-1.45 -20.879,10.41 -7.082,24.7 -24.883,80.05 -43.996,88.81 -6.219,2.84 -48.543,23.28 -53.016,27.73 -5.527,5.02 -9.699,10.78 -12.082,17.46 3.879,-10.61 -15.535,70.33 -29.051,137.41 -8.449,41.83 -17.812,89.06 -17.695,89.09 12.695,3.32 17.754,-20.09 28.133,-57.74 7.617,-27.67 21.457,-77.08 28.867,-103.51 1.984,-7.31 7.109,-20.89 18.996,-17.46 11.582,3.3 9.109,16.06 7.031,24.69 -6.523,27.09 -19.218,74.45 -26.484,101.36 -9.824,37.57 -18.859,63.42 -11.758,65.5 7.723,2.24 12.266,-21.37 24.707,-62.58 7.645,-25.19 21.914,-75.15 29.375,-100.29 1.777,-6.09 7.363,-21.09 20.184,-17.41 l -0.125,0.02 c 13.582,3.91 9.344,19.17 7.597,25.26 -6.964,25.37 -21.328,75.28 -28.183,100.67 -11.301,41.59 -19.961,63.93 -12.285,66.14 7.129,2.03 13.203,-24.68 24.773,-61.75 8.098,-26.65 22.395,-73.58 31.223,-100.03 2.851,-8.38 7.519,-20.51 19.101,-17.22 11.825,3.43 9.004,17.65 6.778,24.91 -7.649,26.38 -22.11,75.59 -30.344,103.08 -11.141,37.42 -19.266,59.97 -6.727,63.83 0.125,0.07 17.168,-44.86 32.215,-84.85 24.043,-64.06 50.528,-143.01 48.164,-131.97 1.524,-6.9 1.047,-14.01 -1.015,-21.2 -1.414,-6.15 -26.453,-45.88 -30.243,-51.59 -11.543,-17.54 3.661,-73.7 10.743,-98.38 3.379,-11.81 -3.782,-16.71 -12.227,-19.85 l -1.777,-0.54" /><path
         id="path18"
         style="fill:#ffffff;fill-opacity:1;fill-rule:evenodd;stroke:none"
         d="m 431.445,1487.37 c -1.035,-8.93 -4.004,-17.06 -16.269,-16.63 -25.723,0.89 -83.887,1.02 -98.156,-14.39 -4.618,-5.03 -37.098,-38.97 -42.704,-41.87 -6.504,-3.71 -13.222,-5.92 -20.312,-6.12 11.25,0.43 -71.75,6.98 -139.746,14.85 -42.3947,4.88 -90.1564,10.59 -90.1564,10.72 0.7617,13.15 24.5898,10.66 63.6132,8.89 28.6522,-1.33 79.9222,-3.43 107.3442,-4.5 7.539,-0.38 22.078,0.28 22.519,12.62 0.399,12.06 -12.5,13.66 -21.328,14.34 -27.812,2.16 -76.73,4.7 -104.6289,6.1 -38.75,2.33 -66.1133,1.73 -65.8906,9.09 0.2851,8.02 24.1211,5.08 67.1601,4.19 26.2974,-0.59 78.2224,-2.39 104.4724,-3.05 6.317,-0.2 22.344,0.43 22.774,13.76 l -0.078,-0.05 c 0.507,14.09 -15.364,14.78 -21.68,15 -26.25,1.17 -78.176,2.95 -104.4532,4.27 -43.0078,2.11 -66.9531,0.79 -66.6992,8.79 0.2812,7.41 27.5781,4.87 66.3945,4.48 27.8519,-0.55 76.8479,-1.44 104.7769,-1.18 8.868,0.04 21.836,0.75 22.293,12.82 0.403,12.31 -14.062,14.01 -21.629,14.14 -27.421,0.84 -78.652,2.33 -107.394,3.02 -39.0235,0.91 -62.9571,0.15 -62.7618,13.3 -0.0195,0.13 47.9883,2.47 90.6448,4.37 68.34,3.12 151.621,3.88 140.39,5.08 7.059,-0.69 13.633,-3.36 19.864,-7.55 5.398,-3.24 35.41,-39.34 39.675,-44.68 13.176,-16.38 71.223,-19.3 96.907,-20.21 12.324,-0.43 14.726,-8.74 15.117,-17.74 l -0.059,-1.86" /><path
         id="path20"
         style="fill:#ffffff;fill-opacity:1;fill-rule:evenodd;stroke:none"
         d="m 684.297,1121.39 c 8.172,-3.73 15,-9.06 10.808,-20.69 -8.835,-24.12 -26.933,-79.39 -16.648,-97.75 3.348,-5.962 25.586,-47.348 26.582,-53.571 1.543,-7.277 1.523,-14.391 -0.488,-21.199 3.125,10.871 -28.77,-66.059 -57.278,-128.258 -17.742,-38.852 -37.929,-82.512 -38.054,-82.461 -12.207,4.789 -2.539,26.66 11.219,63.219 10.078,26.91 27.96,74.968 37.453,100.742 2.714,7.027 6.523,21.066 -5.059,25.308 -11.32,4.11 -16.828,-7.671 -20.207,-15.871 -10.711,-25.769 -28.25,-71.468 -38.152,-97.621 -14.172,-36.097 -22.043,-62.379 -29.004,-59.84 -7.559,2.723 2.644,24.5 16.816,65.172 8.633,24.828 26.406,73.629 35.137,98.391 2.187,5.961 6.445,21.398 -6.047,25.891 l 0.051,-0.051 c -13.281,4.828 -18.84,-10.031 -20.996,-15.992 -9.219,-24.629 -26.934,-73.379 -36.328,-98 -15.293,-40.25 -21.457,-63.43 -28.965,-60.758 -6.965,2.539 3.828,27.75 16.25,64.57 9.129,26.32 25.125,72.609 33.504,99.258 2.668,8.43 6.015,21 -5.301,25.141 -11.582,4.242 -17.676,-9.008 -20.137,-16.122 -9.316,-25.847 -26.504,-74.136 -36.055,-101.25 -12.968,-36.839 -19.628,-59.847 -32.07,-55.597 -0.098,0.07 12.5,46.41 23.867,87.539 18.184,66.012 43.164,145.398 38.594,135.109 2.82,6.481 7.363,11.942 13.262,16.591 4.765,4.11 48.379,21.5 54.785,23.91 19.668,7.44 40.371,61.77 49.148,85.94 4.192,11.55 12.844,11.25 21.582,8.86 l 1.731,-0.61" /><path
         id="path22"
         style="fill:#ffffff;fill-opacity:1;fill-rule:evenodd;stroke:none"
         d="m 1110.49,1248.71 c 6.09,6.68 13.31,11.51 22.99,3.92 20.25,-15.84 67.22,-50.12 87.84,-46.06 6.67,1.4 52.94,9.75 59.18,8.76 7.41,-0.76 14.14,-2.97 20.01,-6.98 -9.38,6.3 53.92,-47.78 104.26,-94.12 31.46,-28.89 66.75,-61.56 66.66,-61.67 -8.29,-10.12 -26.11,5.82 -56.65,30.19 -22.45,17.9 -62.69,49.76 -84.19,66.7 -5.86,4.8 -18.05,12.77 -25.72,3.04 -7.36,-9.44 2.16,-18.33 8.89,-24.12 21.2,-18.15 59.29,-48.92 81.04,-66.44 30,-24.63 52.5,-40.24 47.93,-46.08 -4.9,-6.3 -22.42,10.08 -56.74,36.1 -20.97,15.95 -61.85,47.94 -82.72,63.85 -5,3.89 -18.35,12.78 -26.5,2.29 l 0.05,0 c -8.66,-11.09 3.79,-21 8.76,-24.93 20.53,-16.35 61.43,-48.31 81.98,-64.82 33.53,-26.96 53.69,-39.988 48.77,-46.328 -4.57,-5.84 -25.16,12.258 -56.31,35.388 -22.27,16.86 -61.37,46.36 -84.09,62.58 -7.24,5.11 -18.16,12.16 -25.57,2.69 -7.57,-9.69 3.1,-19.59 9.19,-24.12 21.66,-16.8 62.29,-48.11 85.1,-65.55 31.05,-23.738 50.84,-37.172 42.99,-47.68 -0.08,-0.129 -40.3,26.231 -75.94,49.711 -57.13,37.699 -124.94,85.989 -116.56,78.459 -5.31,4.69 -9.07,10.71 -11.65,17.76 -2.47,5.77 -5.51,52.69 -5.84,59.47 -0.99,21.02 -46.26,57.5 -66.52,73.32 -9.7,7.54 -6.76,15.74 -1.77,23.23 l 1.13,1.44" /><path
         id="path24"
         style="fill:#ffffff;fill-opacity:1;fill-rule:evenodd;stroke:none"
         d="m 1121.05,1693.48 c -4.44,7.79 -6.77,16.17 3.4,23.03 21.31,14.34 68.46,48.44 70.94,69.31 0.79,6.8 7.09,53.34 9.96,58.97 3.05,6.78 7.29,12.57 12.81,16.89 -8.82,-6.98 62.16,36.55 121.82,70.12 37.13,20.95 79.14,44.43 79.19,44.31 7.14,-11.05 -13.58,-23.03 -46.18,-44.56 -23.99,-15.8 -66.72,-44.23 -89.49,-59.46 -6.38,-4.14 -17.73,-13.2 -10.82,-23.43 6.75,-10.04 18.1,-3.69 25.7,0.89 23.75,14.59 64.86,41.3 88.22,56.56 32.73,20.94 54.48,37.5 58.61,31.4 4.51,-6.65 -16.5,-18.27 -51.86,-42.82 -21.57,-15.06 -64.66,-44.06 -86.32,-58.98 -5.2,-3.56 -17.77,-13.51 -10.31,-24.51 l 0.03,0.09 c 7.87,-11.69 21.12,-2.93 26.37,0.63 21.94,14.47 64.98,43.54 86.99,57.88 36.05,23.59 54.66,38.72 59.15,32.12 4.12,-6.17 -19.45,-20.18 -51.08,-42.65 -22.93,-15.97 -63.04,-44 -85.5,-60.63 -7.07,-5.26 -17.17,-13.46 -10.44,-23.41 6.88,-10.28 19.58,-3.18 25.75,1.2 22.71,15.43 65.04,44.37 88.7,60.67 32.06,22.22 51.06,36.89 58.6,26.15 0.07,-0.13 -37.46,-30.21 -70.74,-56.79 -53.53,-42.73 -120.44,-92.29 -110.66,-86.65 -6.1,-3.59 -13.01,-5.33 -20.47,-5.59 -6.27,-0.56 -51.8,11.04 -58.39,12.82 -20.31,5.54 -68.96,-26.27 -90.26,-40.62 -10.2,-6.88 -17.04,-1.53 -22.64,5.54 l -1.08,1.52" /><path
         id="path26"
         style="fill:#ffffff;fill-opacity:1;fill-rule:evenodd;stroke:none"
         d="m 497.305,1691.88 c -5.762,-6.91 -12.676,-12.17 -22.727,-5.08 -21.043,14.73 -69.766,46.54 -90.125,41.38 -6.66,-1.7 -52.355,-12.49 -58.652,-11.85 -7.442,0.4 -14.317,2.28 -20.332,5.96 9.617,-5.84 -56.418,44.87 -109.102,88.53 -32.902,27.17 -69.863,57.97 -69.785,58.09 7.793,10.57 26.406,-4.44 58.184,-27.16 23.308,-16.71 65.156,-46.44 87.566,-62.28 6.125,-4.44 18.711,-11.76 25.793,-1.65 6.883,9.88 -3.125,18.23 -10.098,23.61 -22.109,17.01 -61.797,45.78 -84.445,62.16 -31.23,23.02 -54.512,37.37 -50.273,43.46 4.601,6.57 22.961,-8.89 58.546,-33.06 21.786,-14.8 64.336,-44.63 85.977,-59.49 5.176,-3.6 18.984,-11.72 26.602,-0.8 l -0.098,0 c 8.094,11.47 -4.824,20.74 -10.039,24.37 -21.328,15.28 -63.867,45.06 -85.227,60.45 -34.91,25.23 -55.73,37.17 -51.132,43.69 4.21,6.09 25.773,-10.92 58.097,-32.37 23.125,-15.66 63.672,-43.08 87.227,-58.06 7.441,-4.78 18.738,-11.25 25.644,-1.4 7.059,10.08 -4.113,19.42 -10.383,23.61 -22.546,15.67 -64.734,44.81 -88.457,61.06 -32.214,22.01 -52.703,34.45 -45.398,45.32 0.059,0.13 41.59,-24.07 78.406,-45.65 59.035,-34.65 129.278,-79.39 120.539,-72.26 5.516,-4.41 9.61,-10.25 12.578,-17.1 2.715,-5.65 8.223,-52.31 8.907,-59.11 2.09,-20.97 49.226,-55.02 70.254,-69.74 10.097,-7.04 7.586,-15.37 2.988,-23.11 l -1.035,-1.52" /><path
         id="path28"
         style="fill:#ffffff;fill-opacity:1;fill-rule:evenodd;stroke:none"
         d="m 510.02,1247.25 c 4.824,-7.62 7.617,-15.8 -2.18,-23.21 -20.535,-15.49 -65.828,-51.95 -67.207,-72.94 -0.43,-6.78 -4.305,-53.63 -6.883,-59.41 -2.656,-6.98 -6.543,-12.87 -11.926,-17.52 8.477,7.36 -60.144,-39.73 -117.957,-76.42 -35.996,-22.852 -76.679,-48.539 -76.777,-48.391 -7.637,10.629 12.39,23.711 43.828,46.942 23.105,17.009 64.305,47.609 86.27,64.029 6.113,4.44 16.933,14.17 9.539,24 -7.254,9.64 -18.27,2.66 -25.567,-2.29 -23.027,-15.79 -62.656,-44.61 -85.203,-61.06 -31.562,-22.601 -52.402,-40.289 -56.875,-34.429 -4.863,6.371 15.547,19.069 49.59,45.479 20.762,16.12 62.226,47.42 83.047,63.41 5.058,3.81 17.058,14.4 9.043,25.01 l 0.019,-0.12 c -8.508,11.3 -21.269,1.82 -26.347,-1.99 -21.133,-15.53 -62.59,-46.84 -83.809,-62.37 -34.766,-25.39 -52.559,-41.51 -57.383,-35.12 -4.472,5.92 18.301,21.15 48.77,45.27 22.039,17.14 60.625,47.22 82.168,65 6.843,5.61 16.465,14.34 9.238,23.96 -7.422,9.86 -19.727,2.11 -25.676,-2.59 -21.824,-16.55 -62.656,-47.73 -85.379,-65.24 -30.898,-23.87 -49.023,-39.48 -57.179,-29.2 -0.067,0.12 35.8,32.19 67.687,60.5 51.211,45.42 115.418,98.43 105.977,92.29 5.886,3.86 12.695,5.97 20.105,6.65 6.27,0.86 52.356,-8.3 59.004,-9.78 20.566,-4.49 67.512,29.84 88.047,45.27 9.797,7.41 16.906,2.46 22.902,-4.31 l 1.114,-1.42" /><path
         id="path30"
         style="fill:#ffffff;fill-opacity:1;fill-rule:evenodd;stroke:none"
         d="m 936.816,1121.9 c 8.75,2.28 17.411,2.39 21.426,-9.27 8.379,-24.27 29.043,-78.63 48.568,-86.37 6.34,-2.54 49.71,-20.69 54.38,-24.96 5.78,-4.691 10.28,-10.198 12.97,-16.761 -4.41,10.371 19.22,-69.457 36.21,-135.75 10.66,-41.328 22.46,-87.969 22.34,-87.969 -12.52,-4.011 -18.78,19.102 -31.13,56.16 -9.01,27.239 -25.41,75.86 -34.25,101.809 -2.31,7.191 -8.17,20.52 -19.85,16.5 -11.41,-3.93 -8.22,-16.551 -5.71,-25 7.9,-26.789 23.02,-73.379 31.76,-99.91 11.72,-36.988 22.11,-62.328 15.13,-64.738 -7.59,-2.621 -13.33,20.691 -27.96,61.187 -8.9,24.75 -25.82,73.883 -34.6,98.633 -2.06,5.969 -8.42,20.641 -20.99,16.328 l 0.09,-0.078 c -13.376,-4.57 -8.325,-19.652 -6.266,-25.641 8.306,-24.879 25.246,-74.011 33.466,-99.019 13.4,-40.871 23.22,-62.762 15.67,-65.379 -7.02,-2.41 -14.46,24 -27.98,60.359 -9.5,26.219 -26.184,72.25 -36.418,98.27 -3.274,8.179 -8.555,20.058 -19.953,16.179 -11.68,-4.058 -8.094,-18.16 -5.477,-25.191 9.031,-25.969 26.043,-74.34 35.664,-101.398 13.124,-36.789 22.404,-58.879 10.074,-63.371 -0.11,-0.079 -19.468,43.921 -36.558,83.039 -27.414,62.742 -57.93,140.179 -55.059,129.261 -1.855,6.852 -1.73,13.961 -0.078,21.2 1.094,6.218 24.043,47.218 27.5,53.14 10.633,18.15 -7.519,73.37 -15.879,97.67 -3.984,11.67 2.899,16.88 11.172,20.49 l 1.738,0.58" /><path
         id="path32"
         style="fill:#ffffff;fill-opacity:1;fill-rule:evenodd;stroke:none"
         d="m 1187.91,1489.1 c 0.55,9.01 3.09,17.26 15.38,17.51 25.74,0.44 83.81,3.31 97.27,19.48 4.31,5.28 35.01,40.87 40.46,44.05 6.25,4.06 12.91,6.55 19.94,7.18 -11.19,-1.01 72.05,-3.25 140.29,-7.56 42.64,-2.62 90.64,-5.77 90.64,-5.97 -0.07,-13.12 -23.99,-11.93 -63.09,-12.18 -28.68,-0.18 -79.97,-0.77 -107.39,-1.15 -7.54,0 -22.04,-1.44 -21.84,-13.76 0.23,-12.06 13.2,-12.95 22.04,-13.2 27.9,-0.76 76.91,-0.71 104.83,-0.64 38.79,-0.25 66.08,1.73 66.26,-5.58 0.15,-8.07 -23.81,-6.35 -66.82,-7.69 -26.33,-0.89 -78.24,-1.78 -104.49,-2.47 -6.33,-0.12 -22.27,-1.59 -22.02,-14.92 l 0.04,0.07 c 0.26,-14.09 16.14,-13.96 22.45,-13.89 26.28,0.23 78.2,1.12 104.53,1.25 43.03,0.12 66.89,2.66 67.08,-5.33 0.06,-7.42 -27.3,-6.35 -66.07,-7.92 -27.93,-0.89 -76.85,-2.62 -104.72,-4.32 -8.81,-0.51 -21.76,-1.9 -21.59,-13.97 0.26,-12.31 14.78,-13.27 22.33,-12.97 27.44,0.56 78.73,1.8 107.41,2.62 39.02,1.09 62.89,3.12 63.4,-10.03 0.03,-0.13 -47.8,-4.95 -90.3,-9.14 -68.11,-6.65 -151.2,-11.73 -139.93,-12.37 -7.09,0.31 -13.81,2.59 -20.23,6.48 -5.57,2.92 -37.42,37.44 -41.99,42.55 -13.97,15.72 -72.11,15.51 -97.84,15.13 -12.3,-0.25 -15.12,7.95 -16.01,16.89 l -0.02,1.85" /><path
         id="path34"
         style="fill:#ffffff;fill-opacity:1;fill-rule:nonzero;stroke:none"
         d="m 106.445,1251.76 2.918,-8.88 c -0.613,-8.76 -9.4216,-32.37 -22.6442,-44.36 -6.1133,-5.53 -13.0274,-8.88 -18.5547,-11.04 l -27.6563,84.67 c 5.918,1.57 13.4375,2.84 21.6289,1.96 17.668,-1.83 38.7693,-15.87 44.3083,-22.35 z m 252.743,157.29 28.761,-58.14 -272.676,-88.79 c -10.625,10.84 -33.6519,23.41 -51.8355,25.39 -23.9453,2.21 -43.0078,-8.58 -43.8008,-9.22 l 0.1094,-0.12 c -2.4609,-0.94 -3.6328,-3.61 -2.8711,-5.97 l 32.1875,-98.69 c 0.9375,-2.86 3.4375,-4.13 5.8398,-3.37 l -0.0976,0 c 1.0156,0.13 22.9687,2.36 40.7422,18.66 12.8011,11.55 24.1011,33.97 26.9141,49.33 l 273.289,88.99 10.441,-62.28 c 0,0 96.719,31.3 101.063,32.62 74.621,24.37 78.195,101.38 77.238,104.3 -0.937,2.67 -58.32,62 -124.23,40.52 -3.836,-1.17 -101.074,-33.23 -101.074,-33.23" /><path
         id="path36"
         style="fill:#ffffff;fill-opacity:1;fill-rule:nonzero;stroke:none"
         d="m 806.191,737.012 9.317,0.066 c 8.144,-3.297 27.89,-18.988 35.234,-35.238 3.301,-7.539 4.363,-15.16 4.727,-21.07 l -89.043,-0.129 c 0.332,6.121 1.394,13.66 4.824,21.199 7.234,16.199 27.07,31.941 34.941,35.172 z M 734.715,1026 l 64.211,9.45 0.176,-286.759 c -13.692,-6.781 -32.727,-24.812 -40.168,-41.511 -9.571,-22.02 -5.184,-43.551 -4.793,-44.489 l 0.117,0.047 c 0.137,-2.578 2.324,-4.59 4.824,-4.508 l 103.77,0.071 c 3.027,-0.02 5.027,1.98 5,4.519 l -0.051,-0.101 c 0.254,0.992 4.933,22.57 -5.125,44.531 -7.012,15.66 -24.864,33.391 -38.594,40.801 l -0.195,287.449 62.449,-9.37 c 0,0 0.176,101.69 0.207,106.26 -0.137,78.5 -72.207,105.67 -75.273,105.67 -2.852,-0.13 -77.032,-36.31 -76.954,-105.62 -0.039,-4.07 0.399,-106.44 0.399,-106.44" /><path
         id="path38"
         style="fill:#ffffff;fill-opacity:1;fill-rule:nonzero;stroke:none"
         d="m 1511.91,1243.51 2.86,8.84 c 5.65,6.73 26.67,20.69 44.45,22.64 8.17,0.84 15.71,-0.5 21.47,-2.03 l -27.39,-84.72 c -5.71,2.21 -12.52,5.59 -18.66,11.09 -13.2,11.94 -22.04,35.63 -22.73,44.18 z m -296.91,21.3 10.89,63.96 272.8,-88.43 c 2.19,-15.11 13.48,-38.77 27.06,-51.03 17.98,-15.87 39.82,-18.33 40.83,-18.33 l -0.03,0.18 c 2.54,-0.69 5.11,0.76 5.79,3.14 l 32,98.77 c 0.95,2.89 -0.32,5.35 -2.72,6.11 l 0.04,-0.05 c -0.88,0.56 -19.92,11.61 -43.92,8.89 -17.13,-1.85 -39.48,-13.33 -50.77,-24.12 l -273.4,88.66 28.19,56.49 c 0,0 -96.65,31.61 -100.97,33 -74.7,24.12 -122.83,-35.97 -123.77,-38.89 -0.79,-2.75 10.73,-84.5 76.67,-105.88 3.84,-1.21 101.31,-32.47 101.31,-32.47" /><path
         id="path40"
         style="fill:#ffffff;fill-opacity:1;fill-rule:nonzero;stroke:none"
         d="m 1248.33,2071.18 -7.51,5.44 c -4.68,7.51 -11.46,31.76 -7.82,49.23 1.75,8.04 5.36,14.85 8.52,19.85 l 72.19,-52.22 c -3.89,-4.77 -9.14,-10.23 -16.33,-14.35 -15.41,-8.86 -40.7,-9.95 -49.05,-7.95 z m -111.98,-275.77 -57.46,30.14 168.35,232.05 c 15.05,-2.53 41.1,0.84 56.92,9.98 20.69,12.19 29.78,32.17 30.04,33.19 l -0.16,0 c 1.43,2.23 0.84,5.07 -1.19,6.54 l -84.04,60.94 c -2.46,1.7 -5.2,1.32 -6.68,-0.71 l 0.08,0 c -0.78,-0.64 -17.24,-15.36 -22.03,-39.02 -3.56,-16.84 0.47,-41.64 7.23,-55.73 l -168.76,-232.64 -45.07,44.25 c 0,0 -59.861,-82.13 -62.584,-85.81 -46.027,-63.55 -3.703,-127.96 -1.23,-129.74 2.382,-1.6 83.674,-15.87 124.374,40.24 2.33,3.23 62.21,86.32 62.21,86.32" /><path
         id="path42"
         style="fill:#ffffff;fill-opacity:1;fill-rule:nonzero;stroke:none"
         d="m 379.707,2076.29 -7.492,-5.49 c -8.535,-2.12 -33.719,-1.06 -49.258,7.82 -7.059,4.12 -12.41,9.65 -16.172,14.22 l 71.985,52.48 c 3.3,-5.12 6.855,-11.86 8.523,-19.98 3.684,-17.36 -3.094,-41.76 -7.586,-49.05 z m 227.715,-191.76 -46.387,-45.32 -168.769,231.85 c 7.089,13.53 11.894,39.3 8.125,57.12 -5.227,23.49 -21.399,38.29 -22.239,38.92 l -0.105,-0.2 c -1.594,2.11 -4.59,2.36 -6.543,0.84 l -83.906,-61.06 c -2.461,-1.78 -2.903,-4.52 -1.446,-6.55 l 0.039,0.08 c 0.391,-0.97 9.278,-21.16 30.293,-33.01 14.961,-8.58 39.735,-12.39 55.274,-10.36 l 169.043,-232.36 -56.016,-29.19 c 0,0 59.649,-82.34 62.285,-86.02 46.25,-63.47 120.547,-43.09 123.008,-41.26 2.254,1.73 40.996,74.65 0.195,130.7 -2.355,3.23 -62.851,85.82 -62.851,85.82" /><path
         id="path44"
         style="fill:#ffffff;fill-opacity:1;fill-rule:nonzero;stroke:none"
         d="m 870.516,1244.66 c 47.402,-65.25 88.125,-79.47 91.964,-80.92 21.981,-9.11 36.278,-16.5 55.42,-11.8 8.53,2.16 18.68,-5.16 21.71,-9.14 2.41,-3.36 139.33,-194.788 147.23,-206.8 25.72,-39.199 75.38,-124.859 85.41,-138.621 8.63,-11.93 19.6,-16.117 31.35,-10.539 5.76,2.801 8.89,6.531 8.89,6.531 9.06,10.34 8.37,21.149 -0.25,33.078 -10.03,13.762 -77.44,87.141 -105.95,123.699 -8.84,11.293 -148.07,201.072 -150.51,204.382 -2.87,4.13 -6.7,16.06 -1.95,23.51 10.41,16.72 7.61,32.54 5.74,56.21 -0.21,4.13 -1.17,47.3 -48.57,112.47 -52.25,71.98 -123.422,104.73 -162.895,77.18 l -0.031,0.08 c -0.105,-0.13 -0.203,-0.21 -0.332,-0.26 -0.066,-0.12 -0.203,-0.2 -0.301,-0.25 l 0,-0.03 c -38.437,-29.04 -29.199,-106.81 23.075,-178.78" /><path
         id="path46"
         style="fill:#ffffff;fill-opacity:1;fill-rule:nonzero;stroke:none"
         d="m 1046.77,1462.74 c 76.67,24.96 102.8,59.28 105.39,62.46 15.44,18.1 26.88,29.43 28.31,49.08 0.58,8.81 10.71,16.17 15.46,17.82 3.88,1.27 228.27,72.36 242.11,76.11 45.26,12.37 142.05,33.14 158.25,38.4 14.06,4.51 21.37,13.65 19.7,26.58 -0.87,6.29 -3.43,10.48 -3.43,10.48 -7.01,11.81 -17.52,14.47 -31.54,9.9 -16.2,-5.25 -106.8,-46.64 -150.38,-62.48 -13.5,-4.92 -237,-78.68 -240.93,-79.95 -4.81,-1.5 -17.32,-1.42 -22.95,5.41 -12.7,15.03 -28.57,17.26 -51.67,22.77 -4.02,1.15 -45.34,13.54 -122.024,-11.35 -84.589,-27.49 -137.754,-85.04 -123.742,-131.13 l -0.047,0 c 0.098,-0.13 0.157,-0.25 0.176,-0.38 0.078,-0.13 0.078,-0.26 0.098,-0.38 l 0.027,0 c 15.742,-45.52 92.57,-60.81 177.192,-33.34" /><path
         id="path48"
         style="fill:#ffffff;fill-opacity:1;fill-rule:nonzero;stroke:none"
         d="m 893.809,1697.79 c 0,80.61 -24.61,116.08 -26.836,119.51 -12.442,20.31 -19.661,34.7 -37.911,42.09 -8.183,3.31 -12.109,15.16 -12.187,20.19 0,4.11 1.746,239.47 2.41,253.81 2.258,46.84 12.414,145.3 12.414,162.36 0.028,14.78 -6.398,24.58 -19.16,26.96 -6.309,1.17 -11.055,-0.05 -11.055,-0.05 -13.398,-3.04 -19.191,-12.18 -19.191,-26.91 0,-17.01 11.379,-115.98 12.98,-162.36 0.508,-14.34 1.543,-249.7 1.59,-253.81 -0.066,-5.03 -4.011,-16.88 -12.234,-20.19 -18.203,-7.36 -25.254,-21.78 -37.676,-42.09 -2.285,-3.43 -26.836,-38.97 -26.836,-119.51 -0.019,-88.98 38.309,-157.28 86.426,-158.25 l 0.019,0 c 0.137,0 0.254,0 0.411,0 0.125,0 0.254,0 0.379,0 l 0.031,0 c 48.133,0.97 86.426,69.27 86.426,158.25" /><path
         id="path50"
         style="fill:#ffffff;fill-opacity:1;fill-rule:nonzero;stroke:none"
         d="m 623.008,1624.93 c -76.68,24.93 -118.008,12.49 -121.973,11.42 -23.105,-5.58 -39.043,-7.99 -51.769,-23.05 -5.633,-6.78 -18.153,-6.85 -22.918,-5.33 -3.918,1.27 -227.207,75.63 -240.664,80.73 -43.868,16.58 -134.3871,56.7 -150.559,61.95 -14.0312,4.62 -25.35938,1.53 -31.58203,-9.9 -3.046876,-5.63 -3.406251,-10.54 -3.406251,-10.54 -1.210939,-13.63 5.664061,-22.01 19.687481,-26.55 16.1914,-5.26 113.8358,-25.04 158.4178,-37.8 13.809,-3.99 237.996,-75.69 241.903,-76.93 4.726,-1.65 14.855,-9.07 15.382,-17.88 1.426,-19.62 12.95,-30.75 28.418,-48.82 2.586,-3.25 28.739,-37.57 105.391,-62.46 84.617,-27.54 161.445,-12.18 177.187,33.26 l 0.02,0 c 0.027,0.13 0.059,0.29 0.105,0.43 0.032,0.13 0.098,0.26 0.149,0.39 l -0.02,0 c 13.985,46.08 -39.179,103.58 -123.769,131.08" /><path
         id="path52"
         style="fill:#ffffff;fill-opacity:1;fill-rule:nonzero;stroke:none"
         d="m 608.633,1344.89 c -47.422,-65.25 -48.34,-108.36 -48.567,-112.47 -1.855,-23.71 -4.472,-39.61 5.911,-56.34 4.726,-7.46 0.898,-19.4 -2.004,-23.51 -2.411,-3.3 -142.149,-192.699 -151.161,-203.898 -29.328,-36.613 -95.468,-110.293 -105.41,-124.07 -8.742,-11.93 -9.316,-23.614 -0.332,-33.063 4.395,-4.648 8.907,-6.469 8.907,-6.469 12.644,-5.41 22.695,-1.422 31.355,10.461 10.031,13.809 59.004,100.539 84.934,139 8.066,11.891 145.527,202.929 147.879,206.279 3.019,4.02 13.203,11.33 21.789,9.15 19.089,-4.73 33.261,2.79 55.214,11.87 3.868,1.53 44.59,15.77 91.961,80.92 52.297,71.98 61.496,149.79 23.079,178.86 l 0.027,0 c -0.125,0.09 -0.254,0.13 -0.379,0.21 -0.098,0.13 -0.176,0.18 -0.285,0.3 l -0.047,-0.05 c -39.473,27.55 -110.566,-5.2 -162.871,-77.18" /><path
         id="path54"
         style="fill:#ffffff;fill-opacity:1;fill-rule:nonzero;stroke:none"
         d="m 2097.47,1526.32 c 0,-83.15 -44.79,-130.08 -119.27,-130.08 -76.78,0 -114.37,49.26 -114.37,149.65 l 0,135.66 c 0,100.33 37.59,149.73 114.37,149.73 75.27,0 119.27,-47.01 119.27,-134.14 l 0,-18.73 -75.32,0 0,28.98 c 0,39.26 -11.78,57.25 -40.03,57.25 -28.18,0 -39.92,-17.99 -39.92,-57.25 l 0,-186.52 c 0,-39.28 11.74,-58.03 39.92,-58.03 28.25,0 40.03,18.75 40.03,58.03 l 0,29.72 75.32,0 0,-24.27" /><path
         id="path56"
         style="fill:#ffffff;fill-opacity:1;fill-rule:nonzero;stroke:none"
         d="m 2265.96,1764.64 c -28.28,0 -40,-17.99 -40,-57.25 l 0,-186.52 c 0,-39.28 11.72,-58.03 40,-58.03 28.21,0 39.93,18.75 39.93,58.03 l 0,186.52 c 0,39.26 -11.72,57.25 -39.93,57.25 z m 118.36,-218.75 c 0,-101.16 -36.84,-149.65 -118.36,-149.65 -81.62,0 -118.43,48.49 -118.43,149.65 l 0,135.66 c 0,101.17 36.81,149.73 118.43,149.73 80.68,0 118.36,-48.56 118.36,-149.73 l 0,-135.66" /><path
         id="path58"
         style="fill:#ffffff;fill-opacity:1;fill-rule:nonzero;stroke:none"
         d="m 2447.04,1824.99 73.65,0 0,-51.68 c 28.22,36.05 56.54,57.97 81.57,57.97 32.92,0 52.53,-21.92 61.13,-57.97 28.25,36.05 57.2,57.97 82.33,57.97 53.32,0 65.83,-44.67 65.83,-129.3 l 0,-298.05 -77.69,0 0,301.14 c 0,36.05 -7.67,51.79 -28.07,51.79 -10.99,0 -24.35,-9.45 -36.85,-28.24 l 0,-324.69 -78.44,0 0,301.14 c 0,36.05 -7.88,51.79 -28.24,51.79 -10.99,0 -24.29,-9.45 -36.77,-28.24 l 0,-324.69 -78.45,0 0,421.06" /><path
         id="path60"
         style="fill:#ffffff;fill-opacity:1;fill-rule:nonzero;stroke:none"
         d="m 2890.75,1824.99 73.64,0 0,-51.68 c 28.28,36.05 56.45,57.97 81.62,57.97 32.86,0 52.51,-21.92 61.03,-57.97 28.32,36.05 57.26,57.97 82.38,57.97 53.32,0 65.92,-44.67 65.92,-129.3 l 0,-298.05 -77.7,0 0,301.14 c 0,36.05 -7.81,51.79 -28.24,51.79 -10.96,0 -24.24,-9.45 -36.78,-28.24 l 0,-324.69 -78.42,0 0,301.14 c 0,36.05 -7.9,51.79 -28.23,51.79 -10.99,0 -24.26,-9.45 -36.83,-28.24 l 0,-324.69 -78.39,0 0,421.06" /><path
         id="path62"
         style="fill:#ffffff;fill-opacity:1;fill-rule:nonzero;stroke:none"
         d="m 3561.61,1403.93 -72.78,0 0,51.8 c -29.84,-36.84 -59.72,-55.66 -87.11,-55.66 -58,0 -71.36,40.78 -71.36,127.07 l 0,297.85 78.43,0 0,-301.06 c 0,-36.79 7.82,-53.32 31.37,-53.32 13.32,0 29.77,10.26 43.91,29.87 l 0,324.51 77.54,0 0,-421.06" /><path
         id="path64"
         style="fill:#ffffff;fill-opacity:1;fill-rule:nonzero;stroke:none"
         d="m 3637.86,1824.99 73.71,0 0,-51.68 c 29.84,36.87 59.61,57.97 87.03,57.97 57.26,0 71.37,-43.13 71.37,-129.3 l 0,-298.05 -78.44,0 0,301.14 c 0,36.85 -7.78,53.26 -31.33,53.26 -12.54,0 -29.84,-10.2 -43.87,-29.71 l 0,-324.69 -78.47,0 0,421.06" /><path
         id="path66"
         style="fill:#ffffff;fill-opacity:1;fill-rule:nonzero;stroke:none"
         d="m 3949.3,1824.99 77.62,0 0,-421.06 -77.62,0 0,421.06 z m 0.35,145.84 77.62,0 0,-79.16 -77.62,0 0,79.16" /><path
         id="path68"
         style="fill:#ffffff;fill-opacity:1;fill-rule:nonzero;stroke:none"
         d="m 4115.86,1759.13 -45.5,0 0,65.86 45.5,0 0,112.89 78.4,0 0,-112.89 55.67,0 0,-65.86 -55.67,0 0,-231.99 c 0,-41.64 3.13,-60.39 32.15,-60.39 7.81,0 15.66,0.76 25,1.56 l 0,-63.6 c -14.06,-4.64 -28.12,-6.95 -43.05,-6.95 -75.23,0 -92.5,36.04 -92.5,134.03 l 0,227.34" /><path
         id="path70"
         style="fill:#ffffff;fill-opacity:1;fill-rule:nonzero;stroke:none"
         d="m 4278.99,1338.97 c 7.07,-1.6 14.22,-2.4 20.43,-2.4 34.53,0 51.05,22.75 51.05,69.06 0,23.44 -7.15,57.97 -15.74,101.08 l -65.9,318.28 76.1,0 49.33,-352.81 38.4,352.81 74.53,0 -80.74,-429.57 c -17.3,-89.38 -49.22,-128.61 -125.31,-128.61 -6.96,0 -14.77,0.8 -25.08,1.56 l 2.93,70.6" /><path
         id="path72"
         style="fill:#ffffff;fill-opacity:1;fill-rule:nonzero;stroke:none"
         d="m 4653.75,1759.95 -46.25,0 0,65.04 46.25,0 0,53.36 c 0,72.03 14.57,97.17 81.33,97.17 l 40.71,0 6.56,-63.54 -17.23,0 c -28.2,0 -33.71,-11.8 -33.71,-43.87 l 0,-43.12 48.59,0 0,-65.04 -48.59,0 0,-356.02 -77.66,0 0,356.02" /><path
         id="path74"
         style="fill:#ffffff;fill-opacity:1;fill-rule:nonzero;stroke:none"
         d="m 4928.44,1764.64 c -28.2,0 -39.92,-17.99 -39.92,-57.25 l 0,-186.52 c 0,-39.28 11.72,-58.03 39.92,-58.03 28.24,0 40.04,18.75 40.04,58.03 l 0,186.52 c 0,39.26 -11.8,57.25 -40.04,57.25 z m 118.4,-218.75 c 0,-101.16 -36.87,-149.65 -118.4,-149.65 -81.52,0 -118.32,48.49 -118.32,149.65 l 0,135.66 c 0,101.17 36.8,149.73 118.32,149.73 80.78,0 118.4,-48.56 118.4,-149.73 l 0,-135.66" /><path
         id="path76"
         style="fill:#ffffff;fill-opacity:1;fill-rule:nonzero;stroke:none"
         d="m 5223.21,1764.64 c -28.13,0 -39.85,-17.99 -39.85,-57.25 l 0,-186.52 c 0,-39.28 11.72,-58.03 39.85,-58.03 28.28,0 40.08,18.75 40.08,58.03 l 0,186.52 c 0,39.26 -11.8,57.25 -40.08,57.25 z m 118.36,-218.75 c 0,-101.16 -36.76,-149.65 -118.36,-149.65 -81.53,0 -118.32,48.49 -118.32,149.65 l 0,135.66 c 0,101.17 36.79,149.73 118.32,149.73 80.86,0 118.36,-48.56 118.36,-149.73 l 0,-135.66" /><path
         id="path78"
         style="fill:#ffffff;fill-opacity:1;fill-rule:nonzero;stroke:none"
         d="m 5511.76,1758.33 c -25.04,0 -32.85,-21.94 -32.85,-68.93 l 0,-136.46 c 0,-58.01 4.61,-83.11 30.55,-83.11 13.36,0 25.94,7.87 41.56,22.79 l 0,246.12 c -14.1,12.54 -27.46,19.59 -39.26,19.59 z m 117.66,-354.4 -78.4,0 0,37.7 c -23.59,-29.79 -48.59,-44.67 -76.09,-44.67 -52.5,0 -75.32,44.67 -75.32,134.08 l 0,171.72 c 0,86.13 25.94,128.52 79.3,128.52 25.9,0 48.52,-14.14 72.11,-43.91 l -6.6,183.46 78.44,0 6.56,-566.9" /><path
         id="path80"
         style="fill:#ffffff;fill-opacity:1;fill-rule:nonzero;stroke:none"
         d="m 6018.21,1526.32 c 0,-83.15 -44.69,-130.08 -119.18,-130.08 -76.88,0 -114.46,49.26 -114.46,149.65 l 0,135.66 c 0,100.33 37.58,149.73 114.46,149.73 75.31,0 119.18,-47.01 119.18,-134.14 l 0,-18.73 -75.28,0 0,28.98 c 0,39.26 -11.75,57.25 -39.96,57.25 -28.2,0 -40,-17.99 -40,-57.25 l 0,-186.52 c 0,-39.28 11.8,-58.03 40,-58.03 28.21,0 39.96,18.75 39.96,58.03 l 0,29.72 75.28,0 0,-24.27" /><path
         id="path82"
         style="fill:#ffffff;fill-opacity:1;fill-rule:nonzero;stroke:none"
         d="m 6146.76,1665.83 80.04,0 0,41.56 c 0,39.26 -11.76,57.25 -40.04,57.25 -28.16,0 -40,-17.99 -40,-57.25 l 0,-41.56 z m 155.31,-139.51 c 0,-83.15 -44.72,-130.08 -119.25,-130.08 -76.72,0 -114.42,49.26 -114.42,149.65 l 0,135.66 c 0,101.17 36.88,149.73 119.18,149.73 79.96,0 119.1,-55.67 119.1,-167.78 l 0,-63.51 -159.92,0 0,-79.12 c 0,-39.28 11.84,-58.03 40,-58.03 28.28,0 40.04,18.75 40.04,58.03 l 0,29.72 75.27,0 0,-24.27" /><path
         id="path84"
         style="fill:#ffffff;fill-opacity:1;fill-rule:nonzero;stroke:none"
         d="m 6359.34,1824.99 73.67,0 0,-51.68 c 29.73,36.87 59.49,57.97 86.99,57.97 57.19,0 71.29,-43.13 71.29,-129.3 l 0,-298.05 -78.39,0 0,301.14 c 0,36.85 -7.78,53.26 -31.37,53.26 -12.58,0 -29.77,-10.2 -43.87,-29.71 l 0,-324.69 -78.32,0 0,421.06" /><path
         id="path86"
         style="fill:#ffffff;fill-opacity:1;fill-rule:nonzero;stroke:none"
         d="m 6666.61,1759.13 -45.59,0 0,65.86 45.59,0 0,112.89 78.36,0 0,-112.89 55.66,0 0,-65.86 -55.66,0 0,-231.99 c 0,-41.64 3.08,-60.39 32.1,-60.39 7.82,0 15.71,0.76 25.12,1.56 l 0,-63.6 c -14.1,-4.64 -28.2,-6.95 -43.08,-6.95 -75.36,0 -92.5,36.04 -92.5,134.03 l 0,227.34" /><path
         id="path88"
         style="fill:#ffffff;fill-opacity:1;fill-rule:nonzero;stroke:none"
         d="m 6842.15,1824.99 72.93,0 0,-55.65 c 21.17,40.84 47.82,59.52 90.9,61.94 l 0,-84.63 c -10.98,3.08 -22.69,3.85 -35.27,3.85 -42.27,0 -50.12,-23.52 -50.12,-75.16 l 0,-271.41 -78.44,0 0,421.06" /><path
         id="path90"
         style="fill:#ffffff;fill-opacity:1;fill-rule:nonzero;stroke:none"
         d="m 7093.09,1665.83 79.92,0 0,41.56 c 0,39.26 -11.79,57.25 -39.96,57.25 -28.32,0 -39.96,-17.99 -39.96,-57.25 l 0,-41.56 z m 155.16,-139.51 c 0,-83.15 -44.73,-130.08 -119.18,-130.08 -76.8,0 -114.38,49.26 -114.38,149.65 l 0,135.66 c 0,101.17 36.84,149.73 119.14,149.73 79.96,0 119.14,-55.67 119.14,-167.78 l 0,-63.51 -159.88,0 0,-79.12 c 0,-39.28 11.64,-58.03 39.96,-58.03 28.17,0 39.96,18.75 39.96,58.03 l 0,29.72 75.24,0 0,-24.27" /><path
         id="path92"
         style="fill:#ffffff;fill-opacity:1;fill-rule:nonzero;stroke:none"
         d="m 7360.9,1526.32 c 0,-1.61 0,-2.39 0,-3.97 0,-40.76 13.28,-61.11 36.84,-61.11 19.49,0 34.45,16.46 34.45,42.38 0,29.77 -24.29,57.19 -62.77,94.84 -39.96,39.97 -69.73,69.75 -69.73,130.94 0,65.82 37.66,101.88 102.74,101.88 59.49,0 97.97,-39.22 101.87,-110.55 l -68.16,-5.43 c -1.68,37.54 -11.06,54.84 -33.71,54.84 -20.39,0 -32.19,-11.81 -32.19,-34.57 0,-33.59 21.21,-53.26 50.98,-82.26 50.93,-48.6 83.82,-87.03 83.82,-146.6 0,-65.86 -43.12,-109.75 -105,-109.75 -69.76,0 -106.6,41.54 -108.2,123.03 l 69.06,6.33" /><path
         id="path94"
         style="fill:#ffffff;fill-opacity:1;fill-rule:nonzero;stroke:none"
         d="m 1940.15,971.078 c -54.9,0 -74.62,35.592 -74.62,110.632 l 0,100.8 c 0,75.06 19.72,110.64 74.62,110.64 48.46,0 74.62,-32.59 74.62,-95.21 l 0,-15.43 -46.74,0 0,24.43 c 0,31.31 -7.72,46.76 -27.88,46.76 -20.16,0 -27.87,-15.45 -27.87,-46.76 l 0,-149.67 c 0,-31.3 7.71,-46.73 27.87,-46.73 20.16,0 27.88,15.43 27.88,46.73 l 0,29.59 46.74,0 0,-19.72 c 0,-63.05 -25.73,-96.062 -74.62,-96.062" /><path
         id="path96"
         style="fill:#ffffff;fill-opacity:1;fill-rule:nonzero;stroke:none"
         d="m 2160.95,1080.85 -17.14,180.14 -2.16,0 -17.99,-180.14 37.29,0 z m -48.46,206.29 59.62,0 47.59,-310.062 -46.74,0 -7.72,62.602 -45.88,0 -7.29,-62.602 -45.03,0 45.45,310.062" /><path
         id="path98"
         style="fill:#ffffff;fill-opacity:1;fill-rule:nonzero;stroke:none"
         d="m 2281.42,1287.14 44.18,0 69.47,-239.3 c -7.71,74.61 -11.16,146.68 -11.16,216.56 0,7.31 0,15.02 0,22.74 l 41.18,0 0,-310.062 -38.6,0 -75.91,263.752 c 7.3,-86.19 11.15,-174.12 12.01,-263.752 l -41.17,0 0,310.062" /><path
         id="path100"
         style="fill:#ffffff;fill-opacity:1;fill-rule:nonzero;stroke:none"
         d="m 2585.43,1080.85 -17.15,180.14 -2.15,0 -18.01,-180.14 37.31,0 z m -48.45,206.29 59.59,0 47.61,-310.062 -46.75,0 -7.71,62.602 -45.89,0 -7.29,-62.602 -45.03,0 45.47,310.062" /><path
         id="path102"
         style="fill:#ffffff;fill-opacity:1;fill-rule:nonzero;stroke:none"
         d="m 2765.08,1017.39 c 29.57,0 39.45,16.31 39.45,55.33 l 0,129.07 c 0,34.31 -8.59,45.89 -39.03,45.89 l -13.3,0 0,-230.29 12.88,0 z m -58.76,269.75 48.89,0 c 70.32,0 96.06,-18.87 96.06,-87.05 l 0,-138.54 c 0,-58.32 -23.16,-84.472 -77.62,-84.472 l -67.33,0 0,310.062" /><path
         id="path104"
         style="fill:#ffffff;fill-opacity:1;fill-rule:nonzero;stroke:none"
         d="m 3007.75,1080.85 -17.16,180.14 -2.14,0 -18.02,-180.14 37.32,0 z m -48.46,206.29 59.62,0 47.61,-310.062 -46.76,0 -7.72,62.602 -45.88,0 -7.3,-62.602 -45.03,0 45.46,310.062" /><path
         id="path106"
         style="fill:#ffffff;fill-opacity:1;fill-rule:nonzero;stroke:none"
         d="m 3450.78,1094.28 30.8,0 17.2,-65 20.2,65.4 26.2,0 20.4,-65.6 17.6,65.2 30.2,0 -33.4,-107.999 -27.4,0 -20.6,65.799 -21,-65.799 -27.2,0 -33,107.999" /><path
         id="path108"
         style="fill:#ffffff;fill-opacity:1;fill-rule:nonzero;stroke:none"
         d="m 3622.98,1094.28 30.8,0 17.2,-65 20.2,65.4 26.2,0 20.4,-65.6 17.6,65.2 30.2,0 -33.4,-107.999 -27.4,0 -20.6,65.799 -21,-65.799 -27.2,0 -33,107.999" /><path
         id="path110"
         style="fill:#ffffff;fill-opacity:1;fill-rule:nonzero;stroke:none"
         d="m 3795.18,1094.28 30.8,0 17.19,-65 20.2,65.4 26.2,0 20.4,-65.6 17.61,65.2 30.2,0 -33.41,-107.999 -27.39,0 -20.6,65.799 -21,-65.799 -27.21,0 -32.99,107.999" /><path
         id="path112"
         style="fill:#ffffff;fill-opacity:1;fill-rule:nonzero;stroke:none"
         d="m 3974.98,987.078 32.1992,0 0,32 -32.1992,0 0,-32 z" /><path
         id="path114"
         style="fill:#ffffff;fill-opacity:1;fill-rule:nonzero;stroke:none"
         d="m 4083.97,984.68 c -7.99,0 -15.43,1.468 -22.3,4.398 -6.87,2.934 -12.76,6.902 -17.7,11.902 -4.93,5 -8.79,10.86 -11.6,17.6 -2.8,6.73 -4.2,13.9 -4.2,21.5 l 0,0.4 c 0,7.6 1.4,14.8 4.2,21.6 2.81,6.8 6.67,12.73 11.6,17.8 4.94,5.06 10.83,9.06 17.7,12 6.87,2.93 14.44,4.4 22.7,4.4 10.14,0 18.53,-1.6 25.2,-4.8 6.67,-3.2 12.53,-7.6 17.61,-13.2 l -18.61,-20 c -3.46,3.6 -7.03,6.47 -10.69,8.6 -3.67,2.13 -8.24,3.2 -13.71,3.2 -3.86,0 -7.36,-0.77 -10.49,-2.3 -3.14,-1.53 -5.87,-3.63 -8.21,-6.3 -2.33,-2.67 -4.13,-5.77 -5.4,-9.3 -1.26,-3.54 -1.9,-7.3 -1.9,-11.3 l 0,-0.4 c 0,-4.13 0.64,-8 1.9,-11.6 1.27,-3.6 3.1,-6.73 5.51,-9.4 2.39,-2.67 5.26,-4.77 8.59,-6.3 3.33,-1.53 7.07,-2.3 11.21,-2.3 5.06,0 9.49,1.03 13.3,3.1 3.79,2.06 7.56,4.83 11.29,8.29 l 17.8,-17.99 c -5.2,-5.741 -11.13,-10.428 -17.8,-14.108 -6.66,-3.66 -15.33,-5.492 -26,-5.492" /><path
         id="path116"
         style="fill:#ffffff;fill-opacity:1;fill-rule:nonzero;stroke:none"
         d="m 4152.77,1068.28 -12.59,0 0,25 12.59,0 0,6.8 c 0,11.6 2.87,20.26 8.61,26 5.59,5.6 13.8,8.4 24.6,8.4 4.8,0 8.89,-0.27 12.3,-0.8 3.39,-0.54 6.49,-1.27 9.29,-2.2 l 0,-25.2 c -2.26,0.8 -4.47,1.43 -6.59,1.9 -2.14,0.46 -4.54,0.7 -7.21,0.7 -7.33,0 -11,-3.87 -11,-11.61 l 0,-4.19 24.6,0 0,-24.8 -24.2,0 0,-81.202 -30.4,0 0,81.202" /><path
         id="path118"
         style="fill:#ffffff;fill-opacity:1;fill-rule:nonzero;stroke:none"
         d="m 4274.57,984.68 c -7.99,0 -15.43,1.468 -22.3,4.398 -6.87,2.934 -12.76,6.902 -17.7,11.902 -4.93,5 -8.79,10.86 -11.6,17.6 -2.79,6.73 -4.2,13.9 -4.2,21.5 l 0,0.4 c 0,7.6 1.41,14.8 4.2,21.6 2.81,6.8 6.67,12.73 11.6,17.8 4.94,5.06 10.83,9.06 17.7,12 6.87,2.93 14.44,4.4 22.7,4.4 10.14,0 18.53,-1.6 25.2,-4.8 6.67,-3.2 12.53,-7.6 17.61,-13.2 l -18.61,-20 c -3.46,3.6 -7.03,6.47 -10.7,8.6 -3.66,2.13 -8.23,3.2 -13.7,3.2 -3.86,0 -7.36,-0.77 -10.49,-2.3 -3.14,-1.53 -5.87,-3.63 -8.21,-6.3 -2.33,-2.67 -4.13,-5.77 -5.4,-9.3 -1.26,-3.54 -1.9,-7.3 -1.9,-11.3 l 0,-0.4 c 0,-4.13 0.64,-8 1.9,-11.6 1.27,-3.6 3.1,-6.73 5.51,-9.4 2.39,-2.67 5.26,-4.77 8.59,-6.3 3.33,-1.53 7.07,-2.3 11.21,-2.3 5.06,0 9.49,1.03 13.29,3.1 3.8,2.06 7.57,4.83 11.3,8.29 l 17.8,-17.99 c -5.2,-5.741 -11.13,-10.428 -17.8,-14.108 -6.67,-3.66 -15.33,-5.492 -26,-5.492" /><path
         id="path120"
         style="fill:#ffffff;fill-opacity:1;fill-rule:nonzero;stroke:none"
         d="m 4388.77,984.68 c -7.99,0 -15.43,1.468 -22.29,4.398 -6.88,2.934 -12.77,6.902 -17.71,11.902 -4.93,5 -8.8,10.86 -11.6,17.6 -2.8,6.73 -4.2,13.9 -4.2,21.5 l 0,0.4 c 0,7.6 1.4,14.8 4.2,21.6 2.8,6.8 6.67,12.73 11.6,17.8 4.94,5.06 10.83,9.06 17.71,12 6.86,2.93 14.42,4.4 22.69,4.4 10.13,0 18.54,-1.6 25.21,-4.8 6.66,-3.2 12.53,-7.6 17.6,-13.2 l -18.61,-20 c -3.46,3.6 -7.03,6.47 -10.7,8.6 -3.66,2.13 -8.23,3.2 -13.69,3.2 -3.88,0 -7.37,-0.77 -10.51,-2.3 -3.13,-1.53 -5.87,-3.63 -8.19,-6.3 -2.34,-2.67 -4.14,-5.77 -5.4,-9.3 -1.27,-3.54 -1.91,-7.3 -1.91,-11.3 l 0,-0.4 c 0,-4.13 0.64,-8 1.91,-11.6 1.26,-3.6 3.09,-6.73 5.5,-9.4 2.4,-2.67 5.26,-4.77 8.6,-6.3 3.33,-1.53 7.06,-2.3 11.19,-2.3 5.07,0 9.5,1.03 13.3,3.1 3.8,2.06 7.57,4.83 11.3,8.29 l 17.8,-17.99 c -5.19,-5.741 -11.13,-10.428 -17.8,-14.108 -6.66,-3.66 -15.33,-5.492 -26,-5.492" /><path
         id="path122"
         style="fill:#ffffff;fill-opacity:1;fill-rule:nonzero;stroke:none"
         d="m 4491.98,1006.08 c 7.19,0 12.96,1.73 17.29,5.2 4.34,3.47 6.51,8 6.51,13.6 l 0,5.4 c -2.67,1.2 -5.64,2.16 -8.91,2.9 -3.26,0.74 -6.77,1.1 -10.5,1.1 -6.53,0 -11.67,-1.27 -15.4,-3.8 -3.73,-2.53 -5.59,-6.2 -5.59,-11 l 0,-0.4 c 0,-4.14 1.53,-7.33 4.59,-9.6 3.07,-2.27 7.07,-3.4 12.01,-3.4 z m -9.2,-20.998 c -5.07,0 -9.84,0.699 -14.31,2.098 -4.46,1.398 -8.37,3.5 -11.7,6.3 -3.33,2.801 -5.96,6.231 -7.9,10.3 -1.93,4.06 -2.9,8.77 -2.9,14.1 l 0,0.4 c 0,5.87 1.07,10.93 3.2,15.2 2.13,4.26 5.1,7.8 8.9,10.6 3.8,2.8 8.33,4.9 13.6,6.3 5.27,1.4 11.11,2.1 17.5,2.1 5.47,0 10.24,-0.4 14.3,-1.2 4.07,-0.8 8.04,-1.87 11.91,-3.2 l 0,1.8 c 0,6.4 -1.94,11.26 -5.81,14.6 -3.86,3.33 -9.6,5 -17.19,5 -5.87,0 -11.04,-0.5 -15.51,-1.5 -4.46,-1 -9.16,-2.43 -14.09,-4.3 l -7.61,23.2 c 5.87,2.53 12,4.6 18.41,6.2 6.39,1.6 14.13,2.4 23.19,2.4 8.4,0 15.57,-1.04 21.51,-3.1 5.92,-2.07 10.83,-5.04 14.69,-8.9 4.01,-4 6.94,-8.9 8.8,-14.7 1.87,-5.8 2.8,-12.3 2.8,-19.5 l 0,-62.202 -29.4,0 0,11.602 c -3.73,-4.141 -8.19,-7.43 -13.4,-9.899 -5.19,-2.461 -11.53,-3.699 -18.99,-3.699" /><path
         id="path124"
         style="fill:#ffffff;fill-opacity:1;fill-rule:nonzero;stroke:none"
         d="m 4570.78,1094.28 30.4,0 0,-15.33 c 1.72,2.29 3.62,4.47 5.69,6.55 2.07,2.09 4.36,3.92 6.9,5.53 2.53,1.63 5.34,2.89 8.4,3.83 3.07,0.95 6.54,1.42 10.4,1.42 11.6,0 20.57,-3.54 26.91,-10.6 6.33,-7.07 9.49,-16.8 9.49,-29.2 l 0,-69.402 -30.4,0 0,59.652 c 0,7.19 -1.59,12.6 -4.8,16.26 -3.2,3.66 -7.73,5.49 -13.6,5.49 -5.87,0 -10.5,-1.83 -13.9,-5.49 -3.39,-3.66 -5.09,-9.07 -5.09,-16.26 l 0,-59.652 -30.4,0 0,107.202" /><path
         id="path126"
         style="fill:#ffffff;fill-opacity:1;fill-rule:nonzero;stroke:none"
         d="m 4734.97,1006.08 c 7.2,0 12.96,1.73 17.3,5.2 4.34,3.47 6.5,8 6.5,13.6 l 0,5.4 c -2.66,1.2 -5.63,2.16 -8.9,2.9 -3.26,0.74 -6.77,1.1 -10.5,1.1 -6.53,0 -11.67,-1.27 -15.4,-3.8 -3.73,-2.53 -5.6,-6.2 -5.6,-11 l 0,-0.4 c 0,-4.14 1.54,-7.33 4.6,-9.6 3.07,-2.27 7.06,-3.4 12,-3.4 z m -9.19,-20.998 c -5.07,0 -9.84,0.699 -14.31,2.098 -4.46,1.398 -8.37,3.5 -11.7,6.3 -3.33,2.801 -5.97,6.231 -7.9,10.3 -1.93,4.06 -2.9,8.77 -2.9,14.1 l 0,0.4 c 0,5.87 1.06,10.93 3.2,15.2 2.13,4.26 5.1,7.8 8.9,10.6 3.8,2.8 8.33,4.9 13.6,6.3 5.27,1.4 11.11,2.1 17.5,2.1 5.47,0 10.24,-0.4 14.3,-1.2 4.07,-0.8 8.04,-1.87 11.9,-3.2 l 0,1.8 c 0,6.4 -1.93,11.26 -5.8,14.6 -3.86,3.33 -9.6,5 -17.19,5 -5.87,0 -11.04,-0.5 -15.51,-1.5 -4.47,-1 -9.16,-2.43 -14.09,-4.3 l -7.61,23.2 c 5.87,2.53 12,4.6 18.41,6.2 6.39,1.6 14.13,2.4 23.19,2.4 8.4,0 15.57,-1.04 21.5,-3.1 5.93,-2.07 10.83,-5.04 14.7,-8.9 4,-4 6.93,-8.9 8.8,-14.7 1.87,-5.8 2.8,-12.3 2.8,-19.5 l 0,-62.202 -29.4,0 0,11.602 c -3.73,-4.141 -8.2,-7.43 -13.4,-9.899 -5.2,-2.461 -11.53,-3.699 -18.99,-3.699" /><path
         id="path128"
         style="fill:#ffffff;fill-opacity:1;fill-rule:nonzero;stroke:none"
         d="m 4865.57,1010.88 c 3.6,0 6.96,0.7 10.1,2.1 3.13,1.4 5.87,3.4 8.2,6 2.34,2.6 4.2,5.73 5.6,9.4 1.4,3.66 2.1,7.7 2.1,12.1 l 0,0.4 c 0,4.4 -0.7,8.43 -2.1,12.1 -1.4,3.67 -3.26,6.79 -5.6,9.4 -2.33,2.6 -5.07,4.6 -8.2,6 -3.14,1.39 -6.5,2.1 -10.1,2.1 -3.6,0 -6.97,-0.71 -10.1,-2.1 -3.13,-1.4 -5.9,-3.4 -8.3,-6 -2.4,-2.61 -4.3,-5.7 -5.7,-9.3 -1.4,-3.6 -2.1,-7.67 -2.1,-12.2 l 0,-0.4 c 0,-4.4 0.7,-8.44 2.1,-12.1 1.4,-3.67 3.3,-6.8 5.7,-9.4 2.4,-2.6 5.17,-4.6 8.3,-6 3.13,-1.4 6.5,-2.1 10.1,-2.1 z m -7.8,-25.798 c -6.27,0 -12.34,1.199 -18.2,3.598 -5.86,2.398 -11.07,5.968 -15.6,10.699 -4.53,4.731 -8.16,10.531 -10.9,17.401 -2.73,6.86 -4.1,14.76 -4.1,23.7 l 0,0.4 c 0,8.93 1.37,16.83 4.1,23.7 2.74,6.86 6.33,12.67 10.8,17.4 4.46,4.73 9.63,8.3 15.5,10.69 5.87,2.41 12,3.61 18.4,3.61 8.13,0 14.83,-1.6 20.1,-4.8 5.27,-3.2 9.7,-6.94 13.3,-11.2 l 0,52.8 30.4,0 0,-146.002 -30.4,0 0,15.402 c -3.73,-5.07 -8.24,-9.242 -13.5,-12.5 -5.27,-3.261 -11.9,-4.898 -19.9,-4.898" /><path
         id="path130"
         style="fill:#ffffff;fill-opacity:1;fill-rule:nonzero;stroke:none"
         d="m 4988.36,1006.08 c 7.2,0 12.96,1.73 17.3,5.2 4.33,3.47 6.5,8 6.5,13.6 l 0,5.4 c -2.66,1.2 -5.63,2.16 -8.9,2.9 -3.27,0.74 -6.77,1.1 -10.5,1.1 -6.54,0 -11.67,-1.27 -15.4,-3.8 -3.73,-2.53 -5.6,-6.2 -5.6,-11 l 0,-0.4 c 0,-4.14 1.54,-7.33 4.6,-9.6 3.07,-2.27 7.06,-3.4 12,-3.4 z m -9.2,-20.998 c -5.06,0 -9.83,0.699 -14.3,2.098 -4.47,1.398 -8.37,3.5 -11.7,6.3 -3.33,2.801 -5.97,6.231 -7.9,10.3 -1.94,4.06 -2.9,8.77 -2.9,14.1 l 0,0.4 c 0,5.87 1.06,10.93 3.2,15.2 2.13,4.26 5.1,7.8 8.9,10.6 3.8,2.8 8.33,4.9 13.6,6.3 5.26,1.4 11.1,2.1 17.5,2.1 5.47,0 10.24,-0.4 14.3,-1.2 4.07,-0.8 8.03,-1.87 11.9,-3.2 l 0,1.8 c 0,6.4 -1.93,11.26 -5.8,14.6 -3.87,3.33 -9.6,5 -17.2,5 -5.87,0 -11.03,-0.5 -15.5,-1.5 -4.47,-1 -9.16,-2.43 -14.1,-4.3 l -7.6,23.2 c 5.87,2.53 12,4.6 18.41,6.2 6.39,1.6 14.13,2.4 23.19,2.4 8.4,0 15.56,-1.04 21.5,-3.1 5.93,-2.07 10.83,-5.04 14.7,-8.9 4,-4 6.93,-8.9 8.8,-14.7 1.86,-5.8 2.8,-12.3 2.8,-19.5 l 0,-62.202 -29.4,0 0,11.602 c -3.73,-4.141 -8.2,-7.43 -13.4,-9.899 -5.2,-2.461 -11.53,-3.699 -19,-3.699" /><path
         id="path132"
         style="fill:#ffffff;fill-opacity:1;fill-rule:nonzero;stroke:none"
         d="m 5065.97,987.078 32.2031,0 0,32 -32.2031,0 0,-32 z" /><path
         id="path134"
         style="fill:#ffffff;fill-opacity:1;fill-rule:nonzero;stroke:none"
         d="m 5174.97,984.68 c -8,0 -15.43,1.468 -22.3,4.398 -6.87,2.934 -12.77,6.902 -17.7,11.902 -4.94,5 -8.8,10.86 -11.61,17.6 -2.79,6.73 -4.2,13.9 -4.2,21.5 l 0,0.4 c 0,7.6 1.41,14.8 4.2,21.6 2.81,6.8 6.67,12.73 11.61,17.8 4.93,5.06 10.83,9.06 17.7,12 6.87,2.93 14.42,4.4 22.7,4.4 10.12,0 18.53,-1.6 25.2,-4.8 6.66,-3.2 12.53,-7.6 17.6,-13.2 l -18.61,-20 c -3.46,3.6 -7.03,6.47 -10.7,8.6 -3.66,2.13 -8.23,3.2 -13.69,3.2 -3.88,0 -7.37,-0.77 -10.51,-2.3 -3.13,-1.53 -5.87,-3.63 -8.19,-6.3 -2.33,-2.67 -4.14,-5.77 -5.4,-9.3 -1.27,-3.54 -1.91,-7.3 -1.91,-11.3 l 0,-0.4 c 0,-4.13 0.64,-8 1.91,-11.6 1.26,-3.6 3.09,-6.73 5.5,-9.4 2.4,-2.67 5.26,-4.77 8.6,-6.3 3.33,-1.53 7.06,-2.3 11.19,-2.3 5.07,0 9.5,1.03 13.3,3.1 3.8,2.06 7.57,4.83 11.3,8.29 l 17.8,-17.99 c -5.19,-5.741 -11.13,-10.428 -17.8,-14.108 -6.66,-3.66 -15.33,-5.492 -25.99,-5.492" /><path
         id="path136"
         style="fill:#ffffff;fill-opacity:1;fill-rule:nonzero;stroke:none"
         d="m 5278.17,1006.08 c 7.2,0 12.96,1.73 17.29,5.2 4.34,3.47 6.51,8 6.51,13.6 l 0,5.4 c -2.67,1.2 -5.64,2.16 -8.91,2.9 -3.26,0.74 -6.77,1.1 -10.5,1.1 -6.53,0 -11.67,-1.27 -15.4,-3.8 -3.73,-2.53 -5.59,-6.2 -5.59,-11 l 0,-0.4 c 0,-4.14 1.53,-7.33 4.6,-9.6 3.06,-2.27 7.06,-3.4 12,-3.4 z m -9.2,-20.998 c -5.07,0 -9.83,0.699 -14.31,2.098 -4.46,1.398 -8.37,3.5 -11.7,6.3 -3.33,2.801 -5.96,6.231 -7.9,10.3 -1.93,4.06 -2.9,8.77 -2.9,14.1 l 0,0.4 c 0,5.87 1.07,10.93 3.21,15.2 2.12,4.26 5.09,7.8 8.89,10.6 3.8,2.8 8.33,4.9 13.61,6.3 5.26,1.4 11.1,2.1 17.5,2.1 5.46,0 10.23,-0.4 14.29,-1.2 4.07,-0.8 8.04,-1.87 11.91,-3.2 l 0,1.8 c 0,6.4 -1.94,11.26 -5.8,14.6 -3.87,3.33 -9.6,5 -17.2,5 -5.87,0 -11.04,-0.5 -15.51,-1.5 -4.46,-1 -9.16,-2.43 -14.09,-4.3 l -7.61,23.2 c 5.87,2.53 12,4.6 18.41,6.2 6.4,1.6 14.13,2.4 23.19,2.4 8.4,0 15.57,-1.04 21.51,-3.1 5.92,-2.07 10.83,-5.04 14.69,-8.9 4.01,-4 6.94,-8.9 8.8,-14.7 1.87,-5.8 2.81,-12.3 2.81,-19.5 l 0,-62.202 -29.41,0 0,11.602 c -3.73,-4.141 -8.19,-7.43 -13.4,-9.899 -5.19,-2.461 -11.53,-3.699 -18.99,-3.699" /></g></g></svg>