<?xml version="1.0" encoding="utf-8"?>
<!-- Generator: Adobe Illustrator 18.1.1, SVG Export Plug-In . SVG Version: 6.00 Build 0)  -->
<svg version="1.1" id="Layer_1" xmlns="http://www.w3.org/2000/svg" xmlns:xlink="http://www.w3.org/1999/xlink" x="0px" y="0px"
	 viewBox="0 0 792 612" enable-background="new 0 0 792 612" xml:space="preserve">
<g>
	<path fill="#E54042" d="M201.1,366.9c-5.5,0-12.3,0.3-20.4,1c-8.2,0.6-14,1-17.5,1c-11.9,0-23.1-2.9-33.6-8.7
		c-3.8-2.2-5.8-6.4-5.8-12.5c0-3.2,0.5-7,1.4-11.3c1-4.3,2-8,3.1-11.1c1.1-3.1,2.5-6.6,4.1-10.6c1.6-4,2.6-6.3,2.9-7
		c9-26.3,23.9-51.4,44.7-75.4c6.4-7.4,15.7-21.3,27.9-41.8c0.3-0.6,0.8-1.4,1.4-2.4c0.6-1,1.2-1.8,1.7-2.6c0.5-0.8,0.9-1.5,1.2-2.2
		c1.3-3.2,8.2-14.7,20.7-34.6c4.2-6.7,11.1-16.5,20.7-29.3c2.6-3.5,7.7-12.5,15.4-26.9c5.1-9.9,12.3-18.3,21.6-25
		c3.5-2.6,6.7-3.8,9.6-3.8c4.8,0,9.6,1.9,14.4,5.8c4.8,3.8,8.3,7.8,10.6,12c3.5,6.4,9,15.1,16.6,26c7.5,10.9,12.7,18.9,15.6,24
		c1.6,2.6,3.7,6.2,6.2,11.1c2.6,4.8,5,9.1,7.2,13c2.2,3.8,4.5,7.4,6.7,10.6c2.2,3.2,5.8,9,10.8,17.5c5,8.5,9,14.8,12.3,19
		c2.2,2.9,6.9,10.9,13.9,24c2.6,4.5,8.8,17.6,18.7,39.4c9.9,21.8,17.9,37,24,45.7c5.1,7.4,8.7,11.7,10.6,13c1.3,1,3.4,4.2,6.5,9.6
		c3,5.4,4.6,9.4,4.6,12c0,1-0.2,1.6-0.5,1.9c-0.6,1.3-1.1,3.7-1.4,7.2c-0.3,3.5-1.4,5.6-3.4,6.2c-4.8,1.6-7.9,2.4-9.1,2.4
		c-1.6,0-2.7-0.2-3.4-0.5c-4.2-1.3-8.8-1.9-13.9-1.9H440h-1.9C386.5,361.6,307.5,363.3,201.1,366.9z M408.3,325.5
		c2.9,0,4.3-0.8,4.3-2.4c0-1.3-0.6-2.8-1.7-4.6c-1.1-1.8-2.5-3.6-4.1-5.5c-1.6-1.9-2.6-3.1-2.9-3.4c-2.6-4.2-5.5-8-8.7-11.5
		c-5.5-5.1-11.8-15.9-19-32.4c-7.2-16.5-12.6-27-16.1-31.5c-3.5-4.2-7.2-11-11.1-20.4c-3.8-9.5-6.2-15.3-7.2-17.5
		c-3.5-6.7-8.7-16.5-15.4-29.3c-6.7-12.8-11.9-22.4-15.4-28.8c-7.1-13.1-10.9-20.2-11.5-21.1c-1.3-1.3-2.1-1.9-2.4-1.9
		c-1.3,0-2.1,0.6-2.4,1.9c-4.5,9.3-7.2,14.9-8.2,16.8c-4.5,10.9-10.1,22.8-16.8,35.8c-6.7,13-12.3,23.1-16.6,30.5
		c-4.3,7.4-11.3,19.1-20.9,35.3c-9.6,16.2-15.7,26.3-18.3,30.5c-0.6,1-1.6,2.1-2.9,3.4c-9,12.8-13.8,19.7-14.4,20.7l-11.5,24.5
		c-1.6,3.8-2.4,6.1-2.4,6.7c0,1.6,1.6,2.4,4.8,2.4h3.8c0.3,0,1.1-0.1,2.4-0.2c1.3-0.2,2.2-0.2,2.9-0.2c2.6,0,7,0.2,13.2,0.5
		c6.2,0.3,10.8,0.5,13.7,0.5c1,0,2.2-0.1,3.8-0.2c1.6-0.2,2.7-0.2,3.4-0.2c7.4,0,23.1-0.2,47.1-0.7s41.8-0.7,53.3-0.7
		C358,322.2,383.6,323.3,408.3,325.5z"/>
</g>
<g>
	<path fill="#19ADA8" d="M426.5,506.7c-4.3,0-9.6,0.2-16.1,0.8c-6.4,0.5-11,0.8-13.8,0.8c-9.3,0-18.1-2.3-26.4-6.8
		c-3-1.8-4.5-5-4.5-9.8c0-2.5,0.4-5.5,1.1-8.9c0.8-3.4,1.6-6.3,2.5-8.7c0.9-2.4,1.9-5.2,3.2-8.3c1.3-3.2,2-5,2.3-5.5
		c7-20.7,18.8-40.4,35.1-59.3c5-5.8,12.3-16.8,21.9-32.9c0.2-0.5,0.6-1.1,1.1-1.9c0.5-0.8,0.9-1.5,1.3-2.1c0.4-0.6,0.7-1.2,0.9-1.7
		c1-2.5,6.4-11.6,16.2-27.2c3.3-5.3,8.7-13,16.2-23c2-2.8,6-9.8,12.1-21.2c4-7.8,9.7-14.4,17-19.6c2.8-2,5.3-3,7.6-3
		c3.8,0,7.6,1.5,11.3,4.5c3.8,3,6.5,6.2,8.3,9.4c2.8,5,7.1,11.8,13,20.4c5.9,8.6,10,14.9,12.3,18.9c1.3,2,2.9,4.9,4.9,8.7
		c2,3.8,3.9,7.2,5.7,10.2c1.8,3,3.5,5.8,5.3,8.3c1.8,2.5,4.6,7.1,8.5,13.8c3.9,6.7,7.1,11.6,9.6,14.9c1.8,2.3,5.4,8.6,11,18.9
		c2,3.5,6.9,13.8,14.7,31c7.8,17.1,14.1,29.1,18.9,35.9c4,5.8,6.8,9.2,8.3,10.2c1,0.8,2.7,3.3,5.1,7.6c2.4,4.3,3.6,7.4,3.6,9.4
		c0,0.8-0.1,1.3-0.4,1.5c-0.5,1-0.9,2.9-1.1,5.7c-0.3,2.8-1.1,4.4-2.6,4.9c-3.8,1.3-6.2,1.9-7.2,1.9c-1.3,0-2.1-0.1-2.6-0.4
		c-3.3-1-6.9-1.5-11-1.5h-5.7h-1.5C572.2,502.6,510.2,503.9,426.5,506.7z M589.4,474.2c2.3,0,3.4-0.6,3.4-1.9c0-1-0.4-2.2-1.3-3.6
		c-0.9-1.4-2-2.8-3.2-4.3c-1.3-1.5-2-2.4-2.3-2.6c-2-3.3-4.3-6.3-6.8-9.1c-4.3-4-9.3-12.5-14.9-25.5c-5.7-13-9.9-21.2-12.7-24.7
		c-2.8-3.3-5.7-8.6-8.7-16.1c-3-7.4-4.9-12-5.7-13.8c-2.8-5.3-6.8-13-12.1-23c-5.3-10.1-9.3-17.6-12.1-22.7
		c-5.5-10.3-8.6-15.9-9.1-16.6c-1-1-1.6-1.5-1.9-1.5c-1,0-1.6,0.5-1.9,1.5c-3.5,7.3-5.7,11.7-6.4,13.2c-3.5,8.6-7.9,17.9-13.2,28.1
		c-5.3,10.2-9.6,18.2-13,24c-3.4,5.8-8.9,15-16.4,27.8c-7.6,12.7-12.3,20.7-14.4,24c-0.5,0.8-1.3,1.6-2.3,2.6
		c-7.1,10.1-10.8,15.5-11.3,16.2l-9.1,19.3c-1.3,3-1.9,4.8-1.9,5.3c0,1.3,1.3,1.9,3.8,1.9h3c0.2,0,0.9-0.1,1.9-0.2
		c1-0.1,1.8-0.2,2.3-0.2c2,0,5.5,0.1,10.4,0.4c4.9,0.2,8.5,0.4,10.8,0.4c0.8,0,1.8-0.1,3-0.2c1.3-0.1,2.1-0.2,2.6-0.2
		c5.8,0,18.1-0.2,37-0.6s32.9-0.6,41.9-0.6C549.8,471.6,570,472.5,589.4,474.2z"/>
</g>
</svg>
