<?xml version="1.0" encoding="UTF-8" standalone="no"?>
<svg
   xmlns:dc="http://purl.org/dc/elements/1.1/"
   xmlns:cc="http://creativecommons.org/ns#"
   xmlns:rdf="http://www.w3.org/1999/02/22-rdf-syntax-ns#"
   xmlns:svg="http://www.w3.org/2000/svg"
   xmlns="http://www.w3.org/2000/svg"
   viewBox="0 0 360.35999 234.93333"
   height="234.93333"
   width="360.35999"
   xml:space="preserve"
   version="1.1"
   id="svg2"><metadata
     id="metadata8"><rdf:RDF><cc:Work
         rdf:about=""><dc:format>image/svg+xml</dc:format><dc:type
           rdf:resource="http://purl.org/dc/dcmitype/StillImage" /></cc:Work></rdf:RDF></metadata><defs
     id="defs6"><clipPath
       id="clipPath18"
       clipPathUnits="userSpaceOnUse"><path
         id="path20"
         d="m 0,0 2702.71,0 0,1762 L 0,1762 0,0 Z" /></clipPath><clipPath
       id="clipPath58"
       clipPathUnits="userSpaceOnUse"><path
         id="path60"
         d="M 18.4727,1208.55 18.4727,0 2272.03,0 l 0,1208.55 -2253.5573,0 z" /></clipPath><clipPath
       id="clipPath70"
       clipPathUnits="userSpaceOnUse"><path
         id="path72"
         d="m 0,0 0,1762 2703,0 L 2703,0 0,0 Z" /></clipPath><clipPath
       id="clipPath82"
       clipPathUnits="userSpaceOnUse"><path
         id="path84"
         d="M 18.4727,1208.55 18.4727,0 2272.03,0 l 0,1208.55 -2253.5573,0 z" /></clipPath><clipPath
       id="clipPath92"
       clipPathUnits="userSpaceOnUse"><path
         id="path94"
         d="m 0,0 0,1762 2703,0 L 2703,0 0,0 Z" /></clipPath></defs><g
     transform="matrix(1.3333333,0,0,-1.3333333,0,234.93333)"
     id="g10"><g
       transform="scale(0.1)"
       id="g12"><g
         id="g14"><g
           clip-path="url(#clipPath18)"
           id="g16"><path
             id="path22"
             style="fill:#40bbaa;fill-opacity:1;fill-rule:nonzero;stroke:none"
             d="m 216.816,892.68 c 19.34,-21.301 31.875,-37.668 37.59,-49.102 1.852,-3.07 3.391,-6.324 4.625,-9.762 0.836,-2.5 1.27,-3.91 1.293,-4.234 0.176,-2.23 -1.262,-4.437 -4.301,-6.602 -6.406,-4.359 -13.281,-6.828 -20.625,-7.402 -3.519,-0.277 -8.539,0.293 -15.074,1.707 -12.832,3.813 -21.672,7.942 -26.515,12.379 -0.723,0.906 -6.34,4.965 -16.864,12.176 -4.777,3.48 -7.914,6.605 -9.41,9.383 -0.371,0.609 -1.015,1.605 -1.922,2.98 -0.91,1.375 -1.726,2.59 -2.457,3.664 -0.73,1.063 -1.445,2.055 -2.16,2.961 -4.551,4.777 -12.223,16.551 -23.012,35.309 -2.609,4.613 -4.144,7.699 -4.582,9.281 -0.343,0.285 -0.722,0.906 -1.109,1.84 l -0.594,1.398 c -2.113,2.403 -3.222,4.242 -3.324,5.524 l -0.035,0.476 c -2.836,3.309 -5.961,8.367 -9.387,15.172 -5.027,6.668 -7.902,10.621 -8.641,11.852 -1.777,2.101 -4.664,6.215 -8.679,12.332 -4.0197,6.109 -7.8244,11.593 -11.4103,16.457 -3.5938,4.851 -6.9297,8.445 -10.0039,10.781 -0.9571,-0.074 -1.5821,-1.328 -1.875,-3.762 -0.2891,-2.433 -0.4376,-5.742 -0.4258,-9.914 l -0.0274,-5.785 c 0.3946,-33.707 0.9805,-55.516 1.7578,-65.41 l 0.3008,-3.832 0.1485,-1.918 c 0.375,-4.789 0.5781,-11.445 0.6015,-19.953 0.0196,-8.516 0.1524,-14.207 0.375,-17.082 0.3086,-12.192 0.7227,-21.473 1.2227,-27.86 l 0.6758,-8.621 c 0.3007,-3.832 0.9218,-7.711 1.8789,-11.66 0.9531,-3.937 1.5546,-7.508 1.8046,-10.703 l 0.1876,-2.395 c 0.1992,-2.55 -0.7032,-6.394 -2.711,-11.539 -2.0039,-5.132 -3.9531,-7.937 -5.8437,-8.41 -1.2539,-0.414 -3.0039,-0.718 -5.2344,-0.894 l -0.957,-0.074 -5.2696,-0.415 c -1.2773,-0.097 -3.3476,-0.335 -6.207,-0.726 -2.8633,-0.383 -5.0899,-0.641 -6.6875,-0.766 -1.918,-0.152 -4.8164,-0.054 -8.6992,0.281 -3.2422,0.395 -5.5352,0.856 -6.8555,1.387 -5.2851,1.84 -8.3398,8.024 -9.168,18.563 -0.125,1.601 -0.2461,4.078 -0.3437,7.445 -0.1016,3.363 -0.2188,5.848 -0.3438,7.441 l -0.0351,0.481 c -1.4805,2.461 -2.2813,4.48 -2.4063,6.078 l -0.0742,0.957 c 0.2617,0.668 0.3906,1.16 0.3672,1.473 0.5547,5.179 0.6328,10.328 0.2344,15.441 l -1.0156,12.934 c -0.1641,6.086 -0.1368,16.054 0.0664,29.886 0.5625,17.399 0.7695,31.067 0.6367,41.02 0.2187,17.684 0.1914,28.285 -0.086,31.805 -0.0625,4.812 -0.0351,11.722 0.0625,20.726 0.0899,9 -0.0312,15.739 -0.3828,20.215 -0.4453,17.956 -0.6445,28.696 -0.6015,32.246 0.3867,3.23 0.4257,7.82 0.125,13.75 -0.3008,5.91 -0.3829,10 -0.2383,12.27 0.7773,18.69 0.6484,34.75 -0.4063,48.16 -0.5507,7.02 -0.7148,17.3 -0.4883,30.81 0.2188,13.51 0.1016,23.3 -0.375,29.37 -0.164,10.27 0.6211,18.68 2.3555,25.25 1.3203,3.63 3.0391,6.34 5.1485,8.12 6.1093,4 11.5625,6.2 16.3515,6.58 0.3125,0.02 0.9649,-0.01 1.9336,-0.09 0.9727,-0.09 1.6172,-0.11 1.9375,-0.09 1.6211,-0.2 4.0274,-0.16 7.2227,0.08 2.2265,0.18 5.5547,0.76 9.9843,1.76 5.0508,1.03 12.6914,1.95 22.918,2.76 10.2192,0.8 17.9062,1.07 23.0662,0.84 8.988,0.06 15.754,-0.21 20.309,-0.82 11.379,-1.68 25.808,-7.45 43.289,-17.32 1.297,-0.23 3.984,-1.62 8.043,-4.19 15.297,-10.69 26.519,-22.67 33.664,-35.92 0.738,-1.23 2.875,-5 6.43,-11.3 3.546,-6.32 6.109,-11.33 7.687,-15.07 2.367,-5.59 3.774,-11.27 4.227,-17.02 0.777,-9.9 -0.942,-18.71 -5.157,-26.43 -5.019,-9.71 -11.164,-17.43 -18.425,-23.13 -3.953,-2.89 -9.172,-8.12 -15.641,-15.69 -2.035,-2.73 -7.027,-6.66 -14.98,-11.77 -2.161,-1.14 -5.235,-2.99 -9.204,-5.55 -3.976,-2.56 -7.039,-4.57 -9.168,-6.02 -3.07,-1.85 -5.488,-3.8 -7.25,-5.87 -0.882,-1.03 -2.566,-2.126 -5.046,-3.286 -2.485,-1.16 -3.668,-2.383 -3.567,-3.653 l 0.11,-1.437 0.039,-0.481 c 15.355,-19.687 26.261,-35.859 32.726,-48.519 7.164,-13.586 16.434,-27.316 27.813,-41.199 2.117,-2.41 4.14,-5.782 6.093,-10.125 l 0,0 z m -78.128,172.68 c 10.246,8.52 17.761,15.21 22.523,20.09 5.934,6.25 8.664,12.4 8.187,18.47 -0.152,1.92 -0.816,4.28 -2,7.07 -0.796,1.87 -1.566,4.62 -2.336,8.26 -0.765,3.63 -1.667,6.85 -2.683,9.66 -1.027,2.82 -2.422,5.27 -4.195,7.39 -8.59,11.21 -19.289,18.56 -32.094,22.06 -10.817,2.68 -22.289,3.55 -34.4259,2.6 -7.3516,-0.57 -12.75,-1.32 -16.211,-2.23 -5.3633,-1.39 -7.8203,-4.8 -7.3945,-10.22 l 0.1914,-2.4 c 0.4883,-2.21 0.9297,-5.71 1.3047,-10.5 0.1992,-2.56 0.4453,-6.71 0.7383,-12.47 0.2812,-5.76 0.5351,-9.93 0.7343,-12.48 0.4024,-5.11 0.6797,-12.71 0.8282,-22.82 0.1445,-10.12 0.4257,-17.73 0.8281,-22.84 l 0.1875,-2.39 0.8633,-11.02 0.5664,-7.18 c 0.2734,-3.52 1.6836,-5.17 4.2422,-4.97 0.3164,0.02 1.414,0.42 3.2812,1.22 0.6133,0.36 1.5274,1 2.7422,1.9 1.207,0.89 2.3555,1.63 3.4414,2.2 1.082,0.57 2.2578,0.9 3.5352,1 3.4648,0.91 6.3906,2.43 8.801,4.54 0.883,1.04 3.527,2.04 7.957,3.04 15.101,4.08 25.226,8.08 30.387,12.02 l 0,0" /><path
             id="path24"
             style="fill:#40bbaa;fill-opacity:1;fill-rule:nonzero;stroke:none"
             d="m 427.277,873.273 c 14.414,-8.972 25.465,-18.261 33.153,-27.871 2.882,-3.207 4.324,-6.246 4.324,-9.129 0,-1.921 -0.961,-4.804 -2.883,-8.648 -5.766,-10.887 -15.543,-17.133 -29.309,-18.738 -28.832,-3.199 -53.175,-4.805 -73.035,-4.805 -9.929,0 -21.625,-0.797 -35.078,-2.406 l -6.726,0 c -16.336,0 -29.789,7.855 -40.364,23.547 -0.961,1.597 -2.722,4 -5.285,7.207 -5.125,6.078 -7.687,13.453 -7.687,22.101 0,4.805 0.64,9.129 1.922,12.973 1.277,5.121 1.921,8.808 1.921,11.055 l 0,2.882 c -0.32,1.274 -0.48,3.196 -0.48,5.766 0,3.844 0.641,9.922 1.922,18.258 0.961,7.363 1.758,18.738 2.402,34.113 1.922,32.676 3.043,57.18 3.364,73.522 l 0,27.38 c 0,3.52 0.16,8.57 0.484,15.14 0.312,6.56 0.476,11.45 0.476,14.66 l 0,3.36 c 0,1.27 -0.164,2.24 -0.476,2.88 -1.926,4.16 -2.887,10.41 -2.887,18.74 l 0,14.9 c -1.922,6.08 -2.883,12.32 -2.883,18.73 0,3.85 0.16,6.89 0.481,9.14 0.961,8.65 1.441,13.13 1.441,13.45 0,6.73 -0.801,12.49 -2.402,17.3 -0.649,2.56 -0.961,4.64 -0.961,6.24 0,8.33 4.805,14.25 14.418,17.78 6.726,2.24 12.172,3.37 16.336,3.37 4.156,0 8.961,-0.81 14.414,-2.4 3.523,-0.97 8.566,-1.53 15.137,-1.69 6.558,-0.17 10.968,-0.4 13.211,-0.72 4.804,0 11.609,-0.08 20.421,-0.24 8.809,-0.17 15.618,-0.24 20.422,-0.24 l 9.129,0 c 7.043,0 13.137,-2.4 18.262,-7.21 2.562,-2.24 6.797,-4.97 12.73,-8.17 5.926,-3.2 9.532,-5.12 10.813,-5.76 5.117,-2.88 8.48,-6.73 10.09,-11.53 0.961,-2.89 1.441,-5.46 1.441,-7.69 0,-4.81 -1.609,-8.89 -4.805,-12.25 -3.203,-3.37 -7.527,-5.22 -12.972,-5.53 -2.242,-0.32 -5.606,-0.48 -10.09,-0.48 -0.648,0 -1.609,0.07 -2.887,0.24 -1.277,0.16 -2.238,0.24 -2.879,0.24 -3.207,0.31 -8.011,0.48 -14.418,0.48 l -11.531,0 c -7.687,0 -13.453,0.32 -17.297,0.96 -22.75,2.89 -37.164,5.29 -43.246,7.21 -0.644,0 -1.441,0.16 -2.402,0.48 -0.961,0.31 -1.848,0.56 -2.641,0.72 -0.801,0.16 -1.523,0.24 -2.164,0.24 -2.242,0 -4.012,-0.48 -5.285,-1.44 0,-0.96 -0.32,-1.44 -0.961,-1.44 0,-0.33 -0.082,-0.89 -0.238,-1.68 -0.168,-0.81 -0.242,-1.37 -0.242,-1.68 0,-1.61 0.312,-4.33 0.961,-8.17 0.64,-5.46 1.203,-13.46 1.679,-24.03 0.481,-10.57 0.723,-16.98 0.723,-19.22 0.64,-1.61 1.441,-6.24 2.402,-13.94 1.274,-8.96 2.563,-15.53 3.844,-19.69 2.234,-7.06 3.68,-14.59 4.324,-22.59 0.641,-4.49 2.402,-8.01 5.285,-10.57 3.844,0 11.692,-1.13 23.547,-3.36 9.61,-1.61 15.207,-2.4 16.817,-2.4 6.078,0 11.691,0.96 16.816,2.88 1.922,0.64 3.523,0.96 4.805,0.96 1.922,0 3.523,-0.65 4.804,-1.92 0.641,-0.33 3.68,-2.65 9.129,-6.97 5.446,-4.32 9.446,-7.925 12.016,-10.812 4.156,-4.805 6.246,-8.649 6.246,-11.531 0,-0.649 -0.32,-1.922 -0.961,-3.844 -2.883,-6.414 -8.172,-10.571 -15.859,-12.492 -6.727,-1.61 -14.735,-2.403 -24.024,-2.403 l -12.011,0 c -3.532,0 -8.891,0.157 -16.098,0.481 -7.207,0.312 -12.57,0.48 -16.098,0.48 l -0.48,0 c -4.489,0 -6.727,-2.246 -6.727,-6.726 l 0.481,-0.481 0,-0.48 c 0.316,-5.129 0.48,-12.973 0.48,-23.543 l 0,-43.727 c 0,-1.285 -0.078,-3.051 -0.238,-5.285 -0.168,-2.246 -0.242,-4.012 -0.242,-5.285 0,-5.453 2.562,-8.649 7.687,-9.61 5.77,-0.96 11.535,-1.445 17.301,-1.445 3.195,0 8.328,0.317 15.375,0.965 7.039,0.637 12.492,0.961 16.336,0.961 0.641,0 1.683,-0.086 3.125,-0.242 1.441,-0.168 2.476,-0.239 3.121,-0.239 1.922,0.961 4.965,1.442 9.129,1.442 l 3.363,0 c 2.238,0 4.008,0.156 5.285,0.476 1.922,0.965 3.848,1.446 5.77,1.446 2.562,0 5.117,-0.805 7.687,-2.403 l 0,0" /><path
             id="path26"
             style="fill:#40bbaa;fill-opacity:1;fill-rule:nonzero;stroke:none"
             d="m 605.543,987.035 c 2.234,-5.129 4.32,-13.14 6.246,-24.023 1.273,-6.09 1.922,-12.973 1.922,-20.66 0,-9.614 -1.609,-23.711 -4.809,-42.286 -2.566,-13.777 -7.047,-26.425 -13.453,-37.961 -1.281,-4.167 -3.527,-8.011 -6.726,-11.531 -0.649,-2.246 -1.61,-4.168 -2.883,-5.765 -12.18,-16.012 -24.024,-28.989 -35.555,-38.922 -3.203,-2.559 -5.125,-4.801 -5.765,-6.727 -0.325,-0.961 -1.61,-2.234 -3.848,-3.844 -5.125,-4.48 -8.008,-7.039 -8.649,-7.687 -1.281,-1.922 -2.882,-2.883 -4.804,-2.883 -2.242,0 -3.844,0.168 -4.805,0.481 -0.961,0.324 -3.289,1.128 -6.965,2.402 -3.683,1.285 -6.656,2.09 -8.89,2.402 -0.961,0 -1.762,0.168 -2.403,0.481 -1.281,0.648 -3.445,1.441 -6.488,2.402 -3.051,0.961 -5.606,2.008 -7.688,3.125 -2.089,1.129 -3.601,2.965 -4.566,5.523 -4.16,11.536 -6.242,18.583 -6.242,21.145 0,6.09 -1.442,12.012 -4.328,17.777 0,0.313 -0.239,0.961 -0.719,1.922 -0.48,0.961 -0.723,1.598 -0.723,1.922 0,1.598 0.797,2.883 2.407,3.844 2.879,8.324 10.402,13.609 22.582,15.855 5.117,0.961 9.289,3.043 12.492,6.246 12.492,12.172 21.621,23.86 27.387,35.079 5.765,10.882 9.128,19.535 10.093,25.945 l 0,4.328 c 0,4.48 0.641,11.207 1.922,20.18 1.274,8.961 1.922,15.687 1.922,20.179 0,0.637 -0.082,1.442 -0.242,2.403 -0.168,0.961 -0.238,1.597 -0.238,1.922 0,3.519 -1.129,6.558 -3.364,9.129 -3.843,4.16 -6.726,7.207 -8.648,9.128 -17.945,15.694 -29.961,27.394 -36.039,35.074 -4.164,5.45 -6.727,9.29 -7.688,11.54 -7.047,15.05 -10.574,29.14 -10.574,42.28 l 0,3.84 c 0.316,11.54 1.926,25.15 4.809,40.85 0.961,4.15 2.402,8.17 4.324,12.01 8.648,18.89 21.141,34.91 37.476,48.05 9.614,7.69 20.016,12.97 31.235,15.86 1.273,0.31 3.043,0.48 5.285,0.48 4.156,0 6.887,-3.21 8.168,-9.61 0,-0.65 0.312,-1.61 0.961,-2.89 0.961,-1.92 1.441,-4.01 1.441,-6.25 0,-2.88 -1.281,-6.57 -3.843,-11.05 -8.969,-15.06 -17.946,-26.9 -26.907,-35.55 -6.726,-6.41 -11.851,-14.58 -15.379,-24.51 -1.605,-4.8 -2.402,-9.13 -2.402,-12.97 0,-8.34 3.199,-16.18 9.609,-23.54 2.239,-2.57 4.727,-5.22 7.45,-7.93 2.714,-2.73 5.765,-5.7 9.129,-8.89 3.363,-3.21 6.007,-5.77 7.929,-7.69 14.727,-14.74 24.336,-26.43 28.828,-35.08 3.2,-6.09 7.207,-17.94 12.016,-35.555 l 0,0" /><path
             id="path28"
             style="fill:#40bbaa;fill-opacity:1;fill-rule:nonzero;stroke:none"
             d="m 700.68,1185 c 0.961,0.32 15.851,2.4 44.683,6.25 8.332,0.96 17.461,3.2 27.391,6.73 0.316,0.31 1.605,0.48 3.844,0.48 13.136,0 22.582,-1.61 28.351,-4.81 4.481,-2.57 7.363,-8.89 8.645,-18.98 1.277,-10.09 2.234,-16.1 2.886,-18.02 1.602,-4.17 2.403,-8.33 2.403,-12.49 0,-4.8 -0.645,-9.13 -1.922,-12.98 -0.965,-3.52 -3.531,-5.61 -7.688,-6.24 -3.535,-0.65 -8.168,-1.29 -13.937,-1.92 -5.766,-0.97 -11.699,-2.49 -17.777,-4.57 -6.086,-2.09 -12.176,-3.29 -18.262,-3.6 -6.41,-0.33 -16.817,-1.13 -31.231,-2.4 -3.843,-0.33 -6.328,-0.97 -7.449,-1.93 -1.125,-0.96 -1.676,-3.36 -1.676,-7.2 l 0,-0.96 c 0,-5.46 0.067,-13.94 0.235,-25.47 0.16,-11.53 0.242,-20.03 0.242,-25.47 l 0,-1.44 c 0.961,-4.49 1.441,-8.65 1.441,-12.49 0,-2.57 -0.168,-6.42 -0.48,-11.53 -0.317,-5.13 -0.481,-8.98 -0.481,-11.53 l 0,-4.33 c 0.313,-3.84 0.481,-10.09 0.481,-18.741 0,-8.648 0.312,-15.375 0.965,-20.179 1.918,-2.246 2.879,-5.285 2.879,-9.129 l 0,-3.844 c -0.317,-4.492 -1.043,-10.738 -2.161,-18.738 -1.128,-8.016 -1.851,-13.781 -2.164,-17.301 -0.648,-24.023 -1.761,-39.566 -3.367,-46.606 -1.277,-18.585 -2.715,-32.039 -4.316,-40.363 -0.324,-1.285 -1.043,-3.769 -2.168,-7.449 -1.125,-3.676 -1.68,-6.641 -1.68,-8.887 l 0,-1.441 c 0,-2.563 -1.762,-4.961 -5.285,-7.207 -1.926,-1.277 -4.969,-4.328 -9.129,-9.129 -3.844,-4.809 -8.012,-7.211 -12.492,-7.211 -3.203,0 -7.211,1.922 -12.012,5.766 -1.281,1.285 -1.926,2.57 -1.926,3.843 0,0.961 0.161,1.766 0.481,2.403 1.926,4.168 2.887,9.613 2.887,16.34 0,3.207 1.75,17.609 5.285,43.242 0.636,3.843 0.961,9.445 0.961,16.82 l 0,18.738 c 0,13.453 -0.325,33.633 -0.961,60.543 0,5.442 -0.406,13.61 -1.199,24.504 -0.805,10.887 -1.372,19.056 -1.684,24.506 0,9.61 -0.801,18.09 -2.402,25.47 l 0,2.4 c 0.308,4.48 0.718,11.21 1.199,20.18 0.476,8.96 0.719,15.69 0.719,20.18 0,1.28 0.16,2.08 0.484,2.4 0,0.32 0.074,0.72 0.238,1.2 0.164,0.48 0.242,0.88 0.242,1.21 l 0,25.94 c 0,4.48 -1.761,7.37 -5.285,8.65 -15.695,6.73 -32.035,11.21 -49.011,13.46 -2.883,0.31 -8.969,2.08 -18.262,5.28 -4.488,1.28 -7.047,4.64 -7.688,10.09 0,2.24 -0.168,3.85 -0.48,4.81 0,0.31 -0.078,0.79 -0.238,1.44 -0.168,0.64 -0.243,1.12 -0.243,1.44 0,2.88 1.204,6.49 3.606,10.81 2.402,4.33 3.762,6.8 4.086,7.45 1.918,5.12 8,8.32 18.258,9.61 2.562,0.31 6.886,0.63 12.972,0.96 6.082,0.32 10.731,0.8 13.938,1.44 l 1.918,0 c 1.926,0 3.359,-0.32 4.328,-0.96 4.48,-2.88 10.09,-4.33 16.816,-4.33 2.235,0 6.246,0.32 12.008,0.97 6.731,0.96 10.25,1.44 10.57,1.44 l 2.403,0 c 0.644,0.96 3.047,1.92 7.211,2.88 l 0,0" /><path
             id="path30"
             style="fill:#40bbaa;fill-opacity:1;fill-rule:nonzero;stroke:none"
             d="m 908.422,900.293 c -1.602,3.844 -3.844,5.766 -6.723,5.766 l -3.367,0 c -24.672,-4.168 -38.762,-6.414 -42.281,-6.727 -4.805,-0.324 -7.528,-3.844 -8.172,-10.57 -1.609,-26.274 -4.641,-51.414 -9.129,-75.438 -0.316,-1.609 -1.129,-4.012 -2.402,-7.211 -1.61,-3.519 -4.489,-5.285 -8.649,-5.285 l -2.398,0 c -7.688,0.649 -16.028,5.77 -24.989,15.379 -9.609,9.922 -17.14,20.492 -22.582,31.711 -2.246,4.48 -3.367,8.324 -3.367,11.531 0,0.317 0.075,0.641 0.242,0.961 0.161,0.317 0.243,0.641 0.243,0.965 0,0.313 -0.082,0.793 -0.243,1.437 -0.167,0.641 -0.242,1.122 -0.242,1.446 0,3.519 0.965,6.402 2.887,8.648 5.766,7.039 9.445,16.168 11.047,27.387 1.601,10.883 8.652,39.715 21.144,86.488 1.278,5.121 3.438,14.659 6.489,28.589 3.043,13.93 5.687,24.75 7.925,32.43 1.606,5.45 3.129,11.3 4.563,17.54 1.441,6.25 2.961,13.05 4.57,20.43 1.602,7.36 2.883,13.12 3.844,17.29 5.445,22.42 12.973,42.77 22.578,61.03 3.531,6.72 8.488,10.09 14.899,10.09 7.367,0 12.808,-3.69 16.336,-11.06 3.523,-6.72 5.769,-13.62 6.726,-20.66 3.524,-23.71 7.524,-42.93 12.016,-57.66 3.843,-12.49 6.722,-25.15 8.648,-37.96 0.637,-4.48 4.805,-21.94 12.492,-52.371 7.371,-32.672 11.844,-53.981 13.453,-63.907 1.606,-9.605 4.879,-22.75 9.848,-39.398 4.965,-16.66 8.094,-27.711 9.371,-33.156 0.645,-1.606 1.278,-4.649 1.926,-9.129 0,-0.324 0.07,-0.805 0.238,-1.441 0.16,-0.645 0.239,-1.129 0.239,-1.442 0,-6.726 -3.528,-10.09 -10.571,-10.09 l -3.843,0 c -2.571,0.637 -5.844,1.754 -9.848,3.364 -4.012,1.597 -6.809,2.714 -8.414,3.363 -3.199,0.961 -5.446,3.519 -6.723,7.687 -2.566,7.043 -4.324,12.492 -5.285,16.336 -0.648,3.199 -4.809,14.418 -12.496,33.637 l 0,0 z m -52.371,37 c 0,-0.324 -0.082,-0.481 -0.242,-0.481 -0.168,0 -0.243,-0.167 -0.243,-0.484 0,-3.203 2.411,-4.805 7.211,-4.805 l 0.477,0 c 17.301,3.524 27.551,5.77 30.758,6.731 3.523,0.961 5.281,3.039 5.281,6.246 0,1.273 -0.16,2.402 -0.477,3.363 -4.804,21.453 -7.855,33.946 -9.128,37.477 -3.844,13.769 -6.571,25.62 -8.172,35.56 -0.961,7.69 -2.723,19.22 -5.286,34.59 -0.644,2.24 -1.605,3.37 -2.878,3.37 -1.282,0 -2.247,-1.13 -2.887,-3.37 -0.32,-1.28 -0.723,-3.2 -1.199,-5.76 -0.485,-2.57 -0.891,-4.89 -1.2,-6.97 -0.324,-2.09 -0.484,-4.08 -0.484,-6.01 -0.32,-6.72 -1.918,-22.9 -4.805,-48.527 -3.207,-26.907 -5.453,-43.891 -6.726,-50.93 l 0,0" /><path
             id="path32"
             style="fill:#40bbaa;fill-opacity:1;fill-rule:nonzero;stroke:none"
             d="m 1248.34,790.457 c -2.24,-4.16 -5.28,-6.246 -9.12,-6.246 -0.65,0 -2.25,0.32 -4.81,0.961 -1.61,0.32 -4.01,0.48 -7.21,0.48 l -2.4,0 c -7.04,0 -11.22,3.364 -12.49,10.09 -1.28,6.09 -2.24,15.219 -2.89,27.387 -0.64,10.258 -0.96,25.625 -0.96,46.129 0,5.765 0.08,14.488 0.25,26.187 0.16,11.688 0.23,20.422 0.23,26.188 l 0,4.324 c 0,3.844 -0.07,9.527 -0.23,17.059 -0.17,7.519 -0.25,13.211 -0.25,17.054 l 0,5.77 c 0,11.844 0.17,29.547 0.48,53.09 0.32,23.55 0.48,41.24 0.48,53.1 0,27.22 1.12,52.68 3.36,76.4 l 1.45,15.85 c 0.31,6.41 3.53,12.33 9.61,17.78 6.08,5.44 11.85,8.96 17.3,10.57 0.31,0 0.72,0.08 1.2,0.25 0.48,0.15 0.88,0.23 1.2,0.23 0.31,0 0.96,-0.16 1.92,-0.48 1.28,-0.65 3.2,-0.96 5.77,-0.96 3.19,0 7.04,1.28 11.53,3.85 4.15,2.23 9.61,3.36 16.34,3.36 2.88,0 7.04,0.24 12.49,0.72 5.44,0.48 9.61,0.72 12.49,0.72 l 3.36,0 c 2.24,0.31 3.37,0.31 3.37,0 34.27,-3.84 58.45,-19.06 72.55,-45.65 6.73,-12.81 10.1,-24.98 10.1,-36.51 0,-7.69 -1.14,-15.07 -3.37,-22.11 -7.69,-24.98 -17.94,-47.73 -30.75,-68.23 -8.01,-12.49 -17.78,-22.58 -29.31,-30.269 -0.96,-0.649 -2.33,-1.61 -4.08,-2.883 -1.77,-1.285 -2.97,-2.246 -3.61,-2.883 -4.16,-3.207 -8.82,-5.285 -13.94,-6.246 -5.12,-0.648 -12.49,-2.246 -22.09,-4.805 -3.21,-0.961 -4.81,-2.726 -4.81,-5.289 0,-0.957 0.31,-2.398 0.96,-4.32 0.31,-0.648 0.96,-1.852 1.92,-3.605 0.96,-1.766 1.44,-3.29 1.44,-4.567 0.96,-2.242 3.05,-5.765 6.25,-10.57 3.2,-4.805 5.45,-8.649 6.73,-11.531 6.73,-8.973 12.32,-17.622 16.82,-25.946 3.84,-4.168 6.72,-8.336 8.64,-12.496 l 1.44,-1.441 c 3.85,-6.086 9.93,-15.063 18.26,-26.907 8.33,-11.855 15.62,-22.667 21.87,-32.433 6.24,-9.766 11.77,-19.293 16.57,-28.59 1.61,-3.195 2.4,-6.246 2.4,-9.129 0,-6.402 -3.52,-10.887 -10.57,-13.453 -1.28,-0.641 -2.72,-1.203 -4.32,-1.684 -1.61,-0.48 -3.45,-0.961 -5.53,-1.441 -2.08,-0.48 -3.6,-0.879 -4.56,-1.199 -0.96,-0.317 -2.24,-0.481 -3.84,-0.481 -3.54,0 -7.38,1.766 -11.53,5.286 -7.38,7.05 -14.11,15.058 -20.19,24.023 -11.21,12.816 -17.77,20.664 -19.7,23.547 -2.88,4.156 -7.29,10.246 -13.21,18.258 -5.93,8 -10.33,13.933 -13.21,17.777 -1.29,1.922 -3.37,4.805 -6.25,8.648 -2.88,3.844 -4.98,6.727 -6.24,8.649 -1.61,1.598 -2.73,2.402 -3.37,2.402 l -0.96,0 c -0.96,-0.644 -1.77,-2.09 -2.4,-4.324 l -0.49,-0.961 c 0,-0.648 0,-1.125 0,-1.441 0,-0.325 0.08,-0.481 0.25,-0.481 0.16,0 0.24,-0.168 0.24,-0.48 0.31,-4.493 0.72,-12.012 1.2,-22.582 0.47,-10.571 1.03,-18.582 1.68,-24.028 0.31,-1.922 0.48,-4.636 0.48,-8.168 0,-7.039 -1.92,-12.972 -5.76,-17.777 -1.29,-1.922 -1.93,-3.676 -1.93,-5.285 0,-3.844 -2.09,-9.922 -6.25,-18.258 l 0,0 z m 4.81,233.043 c 0.31,-5.77 2.08,-8.65 5.28,-8.65 1.61,0 2.89,0.15 3.85,0.48 3.52,0.96 8.48,2.32 14.9,4.08 6.4,1.76 12.25,3.37 17.53,4.81 5.29,1.44 10.33,2.8 15.14,4.08 2.56,0.32 4.96,1.92 7.21,4.81 6.08,7.04 10.4,12.97 12.97,17.78 4.48,7.68 6.88,13.93 7.21,18.73 0.31,3.85 0.96,16.02 1.92,36.52 l 0,1.45 c 0,9.28 -3.53,16.49 -10.57,21.62 -13.46,9.28 -25.95,16.01 -37.48,20.18 -7.38,2.88 -16.5,4.32 -27.39,4.32 l -0.48,0 c -3.85,0 -6.49,-0.72 -7.93,-2.16 -1.44,-1.44 -2.33,-4.25 -2.64,-8.41 -1.61,-16.66 -2.41,-31.4 -2.41,-44.2 l 0,-6.73 c 0,-1.61 -0.07,-4.17 -0.23,-7.69 -0.17,-3.53 -0.24,-6.09 -0.24,-7.69 0,-3.53 0.16,-6.09 0.47,-7.69 0,-0.64 0.97,-15.85 2.89,-45.64 l 0,0" /><path
             id="path34"
             style="fill:#40bbaa;fill-opacity:1;fill-rule:nonzero;stroke:none"
             d="m 1555.86,928.418 c 0.96,-8.652 3.37,-20.832 7.21,-36.52 3.84,-15.699 6.24,-26.91 7.21,-33.636 0.64,-3.207 0.96,-5.766 0.96,-7.688 0,-3.844 -1.93,-6.57 -5.77,-8.168 -0.96,-0.648 -1.44,-2.246 -1.44,-4.804 -0.32,-4.168 -1.76,-10.407 -4.32,-18.739 -1.61,-4.484 -4.5,-6.726 -8.65,-6.726 l -0.96,0 c -4.17,0 -7.38,2.086 -9.61,6.246 -3.21,7.051 -5.61,14.894 -7.21,23.543 -4.17,25.301 -6.89,42.922 -8.17,52.855 -0.65,4.481 -2.57,6.727 -5.77,6.727 -1.6,0 -2.88,-0.324 -3.84,-0.961 -14.74,-7.375 -24.5,-11.375 -29.31,-12.012 -1.28,0 -3.45,-0.324 -6.48,-0.961 -3.06,-0.648 -5.37,-1.129 -6.97,-1.441 -5.13,-0.961 -8.34,-4.168 -9.61,-9.613 -8.65,-36.204 -14.42,-57.657 -17.3,-64.383 -0.32,-1.278 -0.96,-1.922 -1.93,-1.922 -0.31,0 -1.12,0.238 -2.4,0.719 -1.28,0.48 -2.4,0.722 -3.36,0.722 -0.65,0 -1.61,-0.316 -2.88,-0.965 -8.33,-1.273 -14.1,-1.921 -17.3,-1.921 -6.42,0 -11.7,1.609 -15.86,4.808 -2.24,1.922 -3.36,4.164 -3.36,6.727 l 0,0.961 c 0,6.726 -0.65,12.648 -1.92,17.777 -0.32,0.961 -0.48,2.402 -0.48,4.324 0,0.961 0.31,2.715 0.96,5.285 0.64,2.235 3.2,15.375 7.69,39.403 1.27,7.039 3.36,17.695 6.24,31.953 2.89,14.246 5.12,24.902 6.73,31.953 1.6,7.687 4.56,18.57 8.89,32.672 4.32,14.094 7.28,24.507 8.89,31.237 1.92,8.65 5.36,21.21 10.33,37.72 4.96,16.49 8.41,28.59 10.33,36.27 5.76,27.55 10.73,47.89 14.89,61.03 3.2,10.88 7.69,21.29 13.46,31.23 1.92,3.2 4.33,4.8 7.21,4.8 0.96,0 1.75,-0.16 2.4,-0.48 0.31,-0.32 2,-0.72 5.05,-1.2 3.04,-0.48 5.35,-1.36 6.96,-2.64 4.49,-3.53 7.52,-8.82 9.13,-15.86 8,-33.63 12.32,-51.58 12.97,-53.81 0.32,-1.61 1.85,-9.37 4.57,-23.31 2.71,-13.93 5.36,-26.03 7.93,-36.28 0,-0.96 0.55,-3.77 1.68,-8.4 1.12,-4.65 1.68,-8.26 1.68,-10.82 0,-0.32 -0.08,-0.8 -0.24,-1.44 -0.17,-0.64 -0.24,-1.13 -0.24,-1.44 0,-0.65 0.56,-7.2 1.68,-19.7 1.12,-12.493 2,-21.946 2.65,-28.349 0.63,-6.089 1.92,-15.218 3.84,-27.386 1.92,-12.18 3.19,-21.309 3.84,-27.387 l 0,0 z m -54.77,11.051 c 5.44,2.883 9.77,4.636 12.97,5.285 3.2,0.637 4.8,2.715 4.8,6.246 l 0,1.441 c 0,0.961 -0.31,2.715 -0.96,5.286 -0.64,2.558 -0.96,4.636 -0.96,6.246 l 0,4.324 c 0,3.844 -0.16,6.726 -0.48,8.648 -1.92,13.453 -3.2,22.899 -3.84,28.355 -3.53,39.4 -6.73,66.79 -9.61,82.16 -0.32,1.6 -0.89,4.16 -1.68,7.69 -0.8,3.52 -1.37,6.24 -1.69,8.17 -0.64,2.88 -1.61,4.32 -2.88,4.32 l -0.48,0 c -0.96,0 -1.76,-1.44 -2.4,-4.32 0,-1.61 -0.32,-4.09 -0.96,-7.45 -0.65,-3.36 -0.96,-5.85 -0.96,-7.45 -0.96,-9.3 -2.88,-22.27 -5.77,-38.92 -2.88,-16.66 -4.65,-27.39 -5.28,-32.19 -0.33,-2.88 -0.96,-6.97 -1.93,-12.26 -0.96,-5.28 -1.76,-10.085 -2.4,-14.409 -0.64,-4.325 -1.13,-8.411 -1.44,-12.254 0,-0.325 -0.08,-0.719 -0.24,-1.199 -0.16,-0.481 -0.24,-0.891 -0.24,-1.204 0,-0.648 0.08,-1.765 0.24,-3.363 0.16,-1.609 0.24,-2.726 0.24,-3.363 0,-1.922 -0.32,-4.168 -0.96,-6.727 -0.65,-3.207 -1.13,-7.773 -1.44,-13.695 -0.33,-5.934 -0.65,-10.172 -0.96,-12.734 l 0,-1.918 c 0,-3.207 1.44,-4.809 4.32,-4.809 0.31,0 0.64,0.074 0.96,0.242 0.31,0.156 0.64,0.238 0.96,0.238 5.77,1.922 9.92,3.364 12.49,4.329 1.61,0.632 5.12,2.402 10.58,5.285 l 0,0" /><path
             id="path36"
             style="fill:#40bbaa;fill-opacity:1;fill-rule:nonzero;stroke:none"
             d="m 1845.01,1050.35 c -0.32,-2.25 -0.48,-5.46 -0.48,-9.61 0,-4.17 -0.17,-7.93 -0.48,-11.29 -0.32,-3.37 -1.13,-6.49 -2.4,-9.37 -0.65,-1.92 -0.96,-3.53 -0.96,-4.81 0,-0.65 0.07,-1.52 0.24,-2.64 0.15,-1.13 0.23,-2.01 0.23,-2.64 l 0,-5.29 c 0,-10.571 -0.64,-19.864 -1.92,-27.868 -0.32,-1.609 -0.48,-4.168 -0.48,-7.687 0,-3.844 0.32,-6.727 0.97,-8.649 0.31,-0.961 0.47,-2.402 0.47,-4.324 0,-0.961 -0.08,-2.57 -0.24,-4.805 -0.17,-2.246 -0.23,-4.012 -0.23,-5.285 0,-1.609 -0.08,-3.93 -0.24,-6.969 -0.17,-3.051 -0.25,-5.367 -0.25,-6.968 0,-15.7 0.49,-31.555 1.45,-47.567 0,-0.324 0.07,-0.805 0.24,-1.441 0.15,-0.649 0.23,-1.129 0.23,-1.442 l 0,-1.922 c -0.64,-5.765 -0.96,-10.418 -0.96,-13.937 0,-5.449 0.49,-13.211 1.45,-23.305 0.96,-10.09 1.44,-17.371 1.44,-21.859 0,-1.277 0.31,-3.125 0.96,-5.527 0.64,-2.403 0.96,-3.918 0.96,-4.563 0.31,-1.602 0.48,-4.16 0.48,-7.691 0,-8.649 -3.53,-15.375 -10.57,-20.18 -7.69,-6.078 -12.01,-9.609 -12.98,-10.57 -1.92,-2.235 -4.48,-3.364 -7.68,-3.364 -0.33,0 -0.72,0.082 -1.2,0.239 -0.48,0.168 -0.89,0.242 -1.21,0.242 -8.96,0.961 -16.02,3.531 -21.14,7.687 -0.96,0.961 -2.88,2.328 -5.76,4.082 -2.89,1.77 -4.97,3.293 -6.25,4.567 -4.8,3.207 -11.05,9.297 -18.74,18.258 -1.92,2.246 -4.16,6.25 -6.72,12.015 -9.3,18.258 -18.58,39.879 -27.88,64.867 -1.28,3.196 -2.24,8.325 -2.88,15.375 -0.96,4.157 -1.44,6.403 -1.44,6.727 -3.53,8 -7.69,21.937 -12.49,41.805 -1.28,4.804 -3.53,11.687 -6.73,20.66 -11.53,30.105 -20.5,50.769 -26.91,61.989 -1.28,2.23 -2.4,5.28 -3.36,9.12 -2.25,6.73 -4.97,14.09 -8.17,22.11 -0.64,0.31 -1.44,0.48 -2.4,0.48 -2.24,0 -3.36,-1.45 -3.36,-4.33 l 0,-3.36 c 0,-4.17 0.47,-8.49 1.43,-12.97 0.32,-2.57 0.56,-5.29 0.73,-8.17 0.16,-2.88 0.31,-6.01 0.48,-9.37 0.16,-3.37 0.24,-6.01 0.24,-7.93 0,-2.57 0.07,-6.33 0.24,-11.29 0.16,-4.975 0.31,-9.455 0.48,-13.455 0.16,-4.012 0.4,-7.773 0.72,-11.293 0.64,-8.336 1.36,-20.266 2.16,-35.797 0.8,-15.543 1.36,-25.875 1.68,-30.992 0.65,-9.934 1.28,-23.867 1.93,-41.805 0.63,-17.945 1.12,-30.426 1.44,-37.476 l 2.88,-47.571 0,-3.363 c 0,-2.234 -0.17,-3.844 -0.48,-4.805 -1.28,-5.117 -4.16,-7.843 -8.65,-8.168 -4.49,-0.312 -8.33,-1.753 -11.53,-4.324 -2.57,-2.242 -5.45,-3.359 -8.65,-3.359 -2.57,0 -5.61,1.117 -9.13,3.359 -2.24,1.61 -4.97,4.324 -8.17,8.168 -2.57,3.531 -4.8,5.934 -6.72,7.207 -5.13,4.492 -11.06,13.297 -17.79,26.426 -0.96,1.922 -1.43,4.012 -1.43,6.25 0,2.242 0.79,4.645 2.4,7.203 l 0,0.485 c 0,1.921 0.48,3.527 1.44,4.804 3.2,5.129 4.8,11.856 4.8,20.18 l 0,5.285 c -0.32,7.043 -0.48,17.453 -0.48,31.234 l 0,2.883 c 0,3.196 0.16,8 0.48,14.414 0.32,6.403 0.49,11.207 0.49,14.414 l 0,22.102 c 0,1.922 -0.08,5.047 -0.24,9.371 -0.17,4.324 -0.25,7.605 -0.25,9.852 l 0,1.921 c 0,2.559 0.25,6.403 0.72,11.532 0.49,5.117 0.73,8.961 0.73,11.531 l 0,3.363 c -0.32,4.481 -0.49,11.207 -0.49,20.184 l 0,31.71 c 0,9.29 0.32,23.54 0.96,42.77 l 0,11.53 c 0,6.72 -0.31,11.84 -0.96,15.37 0,0.32 -0.08,0.88 -0.24,1.68 -0.16,0.8 -0.23,1.36 -0.23,1.69 0,0.96 0.07,2.23 0.23,3.84 0.16,1.6 0.24,2.71 0.24,3.36 l 0,1.44 c -0.64,7.69 -2.08,14.09 -4.32,19.23 -0.65,1.27 -0.96,2.4 -0.96,3.36 l 0,0.48 c 0.64,14.09 2.56,25.14 5.77,33.15 5.12,11.85 14.57,17.78 28.35,17.78 4.16,0 8,-0.64 11.53,-1.92 0.96,-0.33 1.99,-0.72 3.12,-1.2 1.12,-0.48 2.32,-1.13 3.61,-1.92 1.27,-0.81 2.23,-1.37 2.87,-1.69 2.89,-1.6 4.97,-4.48 6.26,-8.64 10.88,-33.96 18.57,-55.91 23.06,-65.83 2.56,-5.77 8.48,-21.47 17.78,-47.09 0.96,-2.89 2.71,-7.21 5.28,-12.98 0.96,-1.6 8.81,-20.5 23.55,-56.694 1.27,-3.532 3.43,-8.817 6.48,-15.856 3.04,-7.051 5.36,-12.336 6.97,-15.855 2.23,-5.766 5.69,-13.696 10.33,-23.785 4.64,-10.09 7.61,-16.579 8.89,-19.461 1.6,-4.168 2.71,-6.727 3.36,-7.688 0.64,-1.922 1.61,-2.883 2.89,-2.883 l 0.96,0 c 1.27,0.313 1.92,1.754 1.92,4.324 0,0.961 0.16,2.321 0.48,4.086 0.32,1.754 0.55,3.364 0.72,4.801 0.16,1.446 0.24,2.801 0.24,4.086 l 0,1.922 c 0,0.316 -0.08,1.117 -0.24,2.402 -0.17,1.278 -0.24,2.239 -0.24,2.883 0,2.563 0.24,6.563 0.72,12.016 0.48,5.441 0.72,9.441 0.72,12.012 0.31,5.765 1.13,14.414 2.41,25.945 0.31,3.844 1.12,9.765 2.4,17.777 1.27,8.008 2.08,14.098 2.4,18.258 0.64,8 2.32,20.66 5.04,37.96 2.72,17.3 4.25,30.75 4.57,40.36 0.31,4.48 1.12,10.89 2.4,19.22 1.27,8.33 2.08,14.73 2.41,19.23 0.63,9.6 0.96,16.81 0.96,21.62 0,6.4 -0.8,13.61 -2.41,21.62 -1.28,2.23 -1.92,4.8 -1.92,7.69 0,1.92 0.31,4.8 0.96,8.64 0.64,4.49 4,7.05 10.09,7.69 l 3.85,0 c 1.59,0 4.15,-0.08 7.68,-0.24 3.53,-0.16 6.25,-0.24 8.17,-0.24 l 4.33,0 c 4.8,0 8.24,-0.96 10.33,-2.88 2.08,-1.92 3.91,-5.93 5.52,-12.01 0.96,-2.57 1.45,-5.13 1.45,-7.69 l 0,-10.57 c 0,-1.29 0.47,-4.65 1.44,-10.09 0.64,-2.57 0.96,-6.57 0.96,-12.01 l 0,-3.85 c -0.32,-7.05 -0.48,-17.62 -0.48,-31.71 0,-1.29 -0.33,-2.88 -0.96,-4.81 -1.29,-5.13 -2.24,-10.65 -2.89,-16.57 -0.64,-5.94 -1.2,-12.58 -1.68,-19.94 -0.48,-7.38 -0.89,-12.98 -1.2,-16.82 l 0,0" /><path
             id="path38"
             style="fill:#40bbaa;fill-opacity:1;fill-rule:nonzero;stroke:none"
             d="m 2086.64,1123.5 c -1.28,-1.93 -5.45,-2.89 -12.49,-2.89 -3.2,0 -5.12,0.16 -5.77,0.48 -6.08,1.28 -13.29,1.93 -21.62,1.93 l -13.45,0 c -2.57,-1.29 -4.33,-1.93 -5.29,-1.93 -0.96,0 -2.09,0.32 -3.36,0.96 -1.28,0.32 -3.05,0.49 -5.29,0.49 l -0.47,0 c -4.5,0 -6.73,-2.25 -6.73,-6.73 -0.32,-6.09 -0.49,-15.38 -0.49,-27.87 l 0,-21.14 c 0,-8.65 -0.16,-15.06 -0.47,-19.22 -0.32,-4.17 -0.73,-10.42 -1.21,-18.74 -0.48,-8.34 -0.88,-14.58 -1.2,-18.74 0,-33.635 -0.64,-58.788 -1.92,-75.44 -0.96,-14.101 -1.44,-28.035 -1.44,-41.801 0,-6.089 0.31,-15.543 0.96,-28.347 0.31,-2.571 0.48,-6.414 0.48,-11.535 0,-3.844 -0.8,-15.375 -2.4,-34.594 -0.65,-4.16 -2.4,-7.207 -5.29,-9.129 l -14.41,-8.652 c -4.17,-0.637 -8.17,-0.961 -12.02,-0.961 -5.45,0 -8.64,0.804 -9.6,2.402 -2.25,4.809 -3.37,15.699 -3.37,32.676 0,7.039 0.24,16.816 0.72,29.308 0.48,12.493 0.72,20.184 0.72,23.067 l 0,2.883 c 0,0.961 -0.08,2.402 -0.24,4.324 -0.17,1.922 -0.23,3.363 -0.23,4.324 0,5.117 0.23,12.168 0.71,21.141 0.49,8.964 0.72,15.691 0.72,20.179 0,8.328 -0.31,14.899 -0.96,19.703 -0.64,4.805 -0.96,12.325 -0.96,22.582 0,14.415 -0.32,25.15 -0.96,32.2 -0.65,7.03 -0.96,12.64 -0.96,16.81 0,4.16 0.16,10.4 0.48,18.74 0.32,8.33 0.48,14.57 0.48,18.74 0,7.04 -0.16,12.17 -0.48,15.38 -0.32,2.88 -0.48,7.2 -0.48,12.97 0,3.84 0.31,9.61 0.96,17.3 l 0,1.44 c 0,4.16 -1.92,6.4 -5.77,6.73 -3.2,0.31 -7.85,0.48 -13.93,0.48 l -7.69,0 c -9.61,0 -16.98,0.63 -22.1,1.92 -0.96,0.31 -3.2,0.48 -6.73,0.48 l -10.57,0 c -5.45,0 -8.65,0.15 -9.61,0.48 -5.77,2.24 -8.64,9.61 -8.64,22.1 0,0.96 0.06,2.16 0.23,3.61 0.16,1.44 0.24,2.47 0.24,3.12 l 0,0.96 c 0,1.6 -0.16,3.76 -0.47,6.49 -0.33,2.71 -0.49,4.72 -0.49,6 0,4.16 1.44,6.89 4.33,8.17 5.76,2.56 16.17,4.64 31.23,6.25 6.08,0.63 15.37,1.12 27.87,1.44 12.49,0.32 21.78,0.8 27.87,1.44 1.92,0.32 9.92,1.28 24.02,2.88 14.1,1.6 24.82,2.57 32.2,2.89 l 24.5,0 c 10.88,0 19.05,0.15 24.51,0.48 l 0.96,0.48 0.96,0 c 1.92,0 4.48,-0.32 7.68,-0.96 8.01,-1.93 12.98,-6.89 14.9,-14.9 0.96,-4.17 1.45,-8.65 1.45,-13.45 0,-5.13 -0.81,-10.57 -2.41,-16.34 -4.49,-14.74 -6.89,-22.42 -7.21,-23.06 l 0,0" /><path
             id="path40"
             style="fill:#40bbaa;fill-opacity:1;fill-rule:nonzero;stroke:none"
             d="m 94.0977,617.5 c -0.5665,0 -1.4024,-0.07 -2.5118,-0.199 -1.1132,-0.141 -1.9492,-0.199 -2.5078,-0.199 l -20.4804,0 c -4.1797,0 -6.2696,-1.614 -6.2696,-4.821 l 0,-2 c 1.9453,-7.769 3.1992,-21.422 3.7617,-40.941 0.5586,-13.11 1.8125,-24.078 3.7618,-32.91 0.5586,-2.68 1.2539,-4.481 2.0898,-5.418 0.8359,-0.942 2.5078,-1.403 5.0156,-1.403 l 2.0899,0 c 8.3593,0 17.4101,-3.211 27.1721,-9.629 4.453,-2.949 7.664,-7.628 9.613,-14.05 0.559,-1.61 0.836,-2.68 0.836,-3.211 0,-2.949 -1.531,-5.617 -4.598,-8.028 -4.461,-3.48 -9.613,-5.211 -15.4645,-5.211 -0.2813,0 -0.836,0.059 -1.6758,0.192 -0.832,0.137 -1.5313,0.207 -2.0859,0.207 -1.4024,0 -3.5547,0.133 -6.4805,0.402 -2.9258,0.258 -5.086,0.399 -6.4805,0.399 l -2.0898,0 c -4.4571,0 -6.6875,-2.149 -6.6875,-6.418 l 0,-1.614 c 0.2734,-1.867 0.4804,-5.359 0.6289,-10.429 0.1367,-5.09 0.3476,-9.367 0.625,-12.848 0.2734,-3.473 0.9765,-6.82 2.0898,-10.031 1.1094,-4.281 1.6719,-8.969 1.6719,-14.039 l 0,-9.231 c 0,-9.91 -0.8359,-18.199 -2.5078,-24.89 -0.5625,-2.141 -0.836,-5.489 -0.836,-10.032 0,-1.339 0.0625,-3.41 0.211,-6.218 0.1367,-2.809 0.207,-4.879 0.207,-6.219 l 0,-1.211 c 0,-6.141 -3.4883,-12.57 -10.4492,-19.262 -3.0703,-2.937 -8.0859,-5.75 -15.0469,-8.418 -6.9687,-2.679 -11.0156,-4.422 -12.1211,-5.218 -0.5664,-0.274 -1.4023,-0.403 -2.5117,-0.403 -2.2344,0 -4.1797,1.071 -5.8516,3.211 -2.7851,3.481 -4.1796,6.961 -4.1796,10.43 0,0.269 0.0664,0.742 0.2109,1.398 0.1367,0.684 0.207,1.153 0.207,1.41 0.836,6.422 1.2539,12.711 1.2539,18.864 0,6.957 -0.1445,12.297 -0.4179,16.047 0,0.812 -0.0703,2.281 -0.2071,4.421 -0.1445,2.141 -0.2109,3.61 -0.2109,4.411 0,2.949 0.1406,7.23 0.418,12.839 0.2734,5.622 0.4179,9.77 0.4179,12.45 0,0.8 -0.0703,2.058 -0.207,3.808 -0.1445,1.742 -0.2109,3.012 -0.2109,3.813 l 0,22.879 c 0,6.422 -0.1446,11.23 -0.418,14.449 0,0.262 -0.0703,0.73 -0.207,1.402 -0.1446,0.66 -0.211,1.129 -0.211,1.41 0,1.598 0.1407,3.868 0.418,6.821 0.2734,2.937 0.418,5.218 0.418,6.82 l 0,4.809 c 0,3.48 -0.2774,6.031 -0.836,7.629 -0.2773,0.531 -0.4179,1.609 -0.4179,3.21 0,1.34 0.1406,2.27 0.4179,2.809 0.836,2.941 1.2539,7.492 1.2539,13.641 l 0,16.058 c 1.1094,4.282 1.6719,7.223 1.6719,8.832 0,3.739 -0.8359,7.219 -2.5078,10.43 -0.2773,0.539 -0.418,1.34 -0.418,2.41 l 0,1.602 c 0.5586,2.41 0.836,6.16 0.836,11.238 l 0,4.422 c 0,3.469 0.1406,6.148 0.4179,8.027 l 0,2.813 c 0,4.008 -0.6953,7.347 -2.0898,10.027 -1.3984,3.211 -2.0899,7.223 -2.0899,12.043 0,1.059 0.0665,2.668 0.211,4.809 0.1367,2.14 0.207,3.75 0.207,4.82 0,1.059 0.0664,2.41 0.2109,4.008 0.1368,1.613 0.2071,2.812 0.2071,3.621 0,1.601 -0.2774,3.469 -0.836,5.609 l 0,1.61 c 0,3.472 1.3204,6.953 3.9727,10.429 2.6484,3.481 5.6406,5.621 8.9844,6.422 3.6172,1.07 7.7968,1.61 12.5429,1.61 l 2.0899,0 c 2.2266,-0.27 5.5703,-0.399 10.0312,-0.399 10.0313,0 19.0821,0.93 27.168,2.809 2.2305,0.531 4.0352,0.8 5.4336,0.8 2.5117,0 5.4375,-0.671 8.7812,-2.011 3.0628,-1.34 7.9418,-3.078 14.6288,-5.207 4.18,-1.082 7.586,-3.551 10.242,-7.43 2.645,-3.883 3.969,-7.961 3.969,-12.242 0,-1.602 -0.144,-2.809 -0.418,-3.61 -0.836,-2.949 -3.07,-5.089 -6.687,-6.421 -1.95,-0.797 -6.414,-1.477 -13.375,-2.008 -1.672,0 -4.043,-0.141 -7.11,-0.403 -3.0701,-0.269 -5.2927,-0.398 -6.6833,-0.398 l 0,0" /><path
             id="path42"
             style="fill:#40bbaa;fill-opacity:1;fill-rule:nonzero;stroke:none"
             d="m 290.973,590.211 c 0.558,-12.313 0.836,-21.672 0.836,-28.09 l 0,-9.641 c 0,-1.871 0.062,-4.609 0.207,-8.23 0.14,-3.602 0.211,-6.352 0.211,-8.219 0,-0.543 -0.071,-1.199 -0.211,-2.011 -0.145,-0.801 -0.207,-1.469 -0.207,-2 -0.563,-10.711 -1.114,-18.731 -1.672,-24.079 0,-1.082 -0.278,-2.152 -0.836,-3.211 -0.836,-1.609 -2.367,-7.5 -4.598,-17.66 -1.672,-7.5 -3.207,-13.25 -4.598,-17.261 -1.117,-3.481 -2.371,-12.18 -3.761,-26.079 0,-0.808 -0.149,-1.949 -0.418,-3.421 -0.281,-1.469 -0.567,-2.477 -0.836,-3.008 l 0,-4.813 c 0.555,-2.148 0.836,-3.609 0.836,-4.418 0,-2.148 -0.418,-4.41 -1.254,-6.82 -0.836,-2.68 -1.742,-6.621 -2.719,-11.84 -0.98,-5.219 -1.742,-8.898 -2.301,-11.039 -2.785,-8.562 -7.101,-14.18 -12.957,-16.851 -5.578,-2.411 -10.031,-3.622 -13.375,-3.622 l -1.254,0 c -17.836,0.543 -30.242,1.872 -37.203,4.024 -4.742,1.609 -11.847,4.269 -21.316,8.019 -5.578,2.149 -11.703,6.957 -18.391,14.45 -11.148,12.05 -18.808,23.679 -22.992,34.918 -1.113,2.671 -2.652,9.492 -4.598,20.472 -0.836,5.071 -1.816,13.649 -2.925,25.68 -1.114,10.168 -1.672,17.66 -1.672,22.48 0,0.797 0.062,2.071 0.211,3.809 0.136,1.738 0.207,3.012 0.207,3.809 0,0.531 0.062,1.402 0.211,2.613 0.136,1.199 0.207,2.066 0.207,2.609 l 0,1.61 c 0,0.257 -0.071,0.66 -0.207,1.199 -0.149,0.531 -0.211,0.93 -0.211,1.199 0,5.082 1.527,13.781 4.597,26.09 0.836,2.41 1.883,6.082 3.137,11.031 1.254,4.949 2.152,8.762 2.715,11.442 1.672,6.949 4.18,13.378 7.523,19.269 0.559,1.059 1.528,3.867 2.926,8.418 1.945,8.832 4.738,16.191 8.363,22.082 0.836,1.328 2.508,5.078 5.016,11.231 4.18,10.968 10.449,20.07 18.809,27.296 3.617,3.211 9.336,6.012 17.136,8.422 5.02,1.871 11.145,3.211 18.395,4.02 l 2.926,0 c 3.898,0 7.941,-0.809 12.121,-2.41 10.304,-4.02 16.574,-6.692 18.808,-8.032 15.606,-8.828 24.664,-18.726 27.172,-29.699 0.274,-0.801 0.481,-2.469 0.625,-5.008 0.141,-2.55 0.485,-4.363 1.047,-5.421 0.274,-1.34 0.766,-3.282 1.461,-5.821 0.691,-2.551 1.32,-4.48 1.883,-5.82 1.394,-4.547 2.363,-11.777 2.926,-21.668 l 0,0 z m -33.442,-78.66 c 0.559,10.16 0.836,17.789 0.836,22.879 l 0,9.218 c 0,6.434 -1.254,19 -3.762,37.731 -2.234,15.781 -5.851,29.703 -10.867,41.742 -2.508,6.68 -6.965,11.231 -13.375,13.641 -1.672,0.808 -3.343,1.207 -5.015,1.207 -2.235,0 -4.18,-0.668 -5.852,-2.008 -1.117,-0.801 -2.719,-1.949 -4.808,-3.41 -2.09,-1.481 -3.7,-2.61 -4.805,-3.41 -2.238,-1.61 -4.184,-3.481 -5.856,-5.621 -5.851,-8.571 -9.054,-14.989 -9.613,-19.27 0,-0.27 -0.277,-0.941 -0.836,-2 -0.562,-1.34 -1.324,-3.281 -2.297,-5.82 -0.98,-2.551 -1.742,-4.489 -2.301,-5.821 -1.671,-4.007 -3.488,-13.507 -5.433,-28.488 -1.672,-13.391 -3.906,-25.562 -6.688,-36.531 -3.07,-11.77 -4.597,-23.141 -4.597,-34.11 l 0,-0.8 c 0,-8.571 0.14,-14.989 0.418,-19.27 0.558,-9.359 2.226,-18.191 5.015,-26.48 0.559,-1.879 1.395,-3.348 2.508,-4.418 5.289,-6.153 11.977,-10.301 20.063,-12.442 4.179,-1.07 8.632,-1.601 13.379,-1.601 8.914,0 17.554,2.41 25.914,7.222 3.617,2.141 5.851,5.079 6.687,8.829 4.18,17.921 6.543,28.89 7.106,32.91 0.558,4.269 1.109,7.351 1.671,9.23 1.11,3.469 1.946,12.442 2.508,26.891 l 0,0" /><path
             id="path44"
             style="fill:#40bbaa;fill-opacity:1;fill-rule:nonzero;stroke:none"
             d="m 346.566,333.762 c -1.949,-3.473 -4.597,-5.223 -7.941,-5.223 -0.563,0 -1.953,0.27 -4.18,0.813 -1.398,0.269 -3.492,0.398 -6.269,0.398 l -2.09,0 c -6.133,0 -9.762,2.809 -10.871,8.422 -1.113,5.09 -1.949,12.719 -2.508,22.879 -0.562,8.57 -0.836,21.398 -0.836,38.531 0,4.809 0.067,12.098 0.211,21.867 0.141,9.762 0.207,17.063 0.207,21.871 l 0,3.61 c 0,3.218 -0.066,7.961 -0.207,14.25 -0.144,6.281 -0.211,11.039 -0.211,14.25 l 0,4.82 c 0,9.891 0.141,24.672 0.418,44.34 0.273,19.66 0.418,34.449 0.418,44.351 0,22.731 0.977,44 2.926,63.809 l 1.254,13.238 c 0.273,5.352 3.066,10.301 8.359,14.852 5.289,4.551 10.309,7.488 15.051,8.832 0.273,0 0.625,0.058 1.043,0.199 0.418,0.129 0.765,0.199 1.047,0.199 0.273,0 0.836,-0.14 1.672,-0.398 1.109,-0.543 2.781,-0.801 5.015,-0.801 2.781,0 6.125,1.059 10.031,3.207 3.618,1.871 8.36,2.813 14.211,2.813 2.508,0 6.125,0.199 10.872,0.597 4.734,0.403 8.359,0.602 10.867,0.602 l 2.925,0 c 1.946,0.262 2.926,0.262 2.926,0 29.817,-3.211 50.852,-15.918 63.117,-38.121 5.852,-10.707 8.778,-20.867 8.778,-30.5 0,-6.43 -0.981,-12.578 -2.926,-18.457 -6.687,-20.883 -15.609,-39.883 -26.75,-56.992 -6.969,-10.438 -15.469,-18.872 -25.5,-25.29 -0.836,-0.539 -2.027,-1.339 -3.551,-2.41 -1.535,-1.07 -2.578,-1.871 -3.136,-2.398 -3.622,-2.684 -7.668,-4.422 -12.122,-5.223 -4.461,-0.539 -10.871,-1.879 -19.226,-4.008 -2.789,-0.812 -4.184,-2.281 -4.184,-4.421 0,-0.801 0.274,-2.008 0.836,-3.61 0.274,-0.539 0.836,-1.539 1.672,-3.012 0.84,-1.468 1.258,-2.75 1.258,-3.808 0.836,-1.879 2.644,-4.82 5.433,-8.828 2.782,-4.024 4.735,-7.231 5.848,-9.641 5.856,-7.492 10.727,-14.711 14.633,-21.672 3.344,-3.469 5.852,-6.961 7.523,-10.429 l 1.254,-1.2 c 3.344,-5.09 8.633,-12.59 15.883,-22.48 7.246,-9.899 13.586,-18.93 19.02,-27.09 5.433,-8.16 10.242,-16.109 14.422,-23.879 1.39,-2.672 2.089,-5.211 2.089,-7.621 0,-5.352 -3.07,-9.09 -9.195,-11.238 -1.117,-0.532 -2.371,-1 -3.762,-1.41 -1.398,-0.403 -2.996,-0.793 -4.808,-1.204 -1.817,-0.398 -3.133,-0.726 -3.973,-1 -0.836,-0.269 -1.949,-0.398 -3.344,-0.398 -3.07,0 -6.414,1.469 -10.031,4.41 -6.414,5.891 -12.266,12.578 -17.555,20.07 -9.757,10.7 -15.464,17.258 -17.136,19.661 -2.508,3.48 -6.34,8.558 -11.496,15.257 -5.161,6.672 -8.989,11.633 -11.497,14.84 -1.113,1.614 -2.925,4.024 -5.433,7.231 -2.508,3.203 -4.324,5.609 -5.434,7.222 -1.398,1.329 -2.367,2.008 -2.925,2.008 l -0.836,0 c -0.836,-0.539 -1.532,-1.75 -2.09,-3.621 l -0.418,-0.797 c 0,-0.543 0,-0.941 0,-1.199 0,-0.273 0.062,-0.41 0.211,-0.41 0.136,0 0.207,-0.133 0.207,-0.391 0.273,-3.75 0.629,-10.043 1.047,-18.871 0.418,-8.82 0.898,-15.519 1.461,-20.07 0.273,-1.602 0.418,-3.86 0.418,-6.82 0,-5.879 -1.672,-10.829 -5.016,-14.848 -1.113,-1.602 -1.672,-3.07 -1.672,-4.41 0,-3.211 -1.816,-8.293 -5.434,-15.25 l 0,0 z m 4.18,194.636 c 0.274,-4.808 1.813,-7.218 4.598,-7.218 1.394,0 2.508,0.129 3.344,0.402 3.066,0.809 7.378,1.938 12.957,3.406 5.574,1.473 10.66,2.813 15.257,4.024 4.598,1.199 8.989,2.328 13.168,3.41 2.231,0.258 4.321,1.598 6.27,4.008 5.289,5.879 9.051,10.84 11.285,14.851 3.902,6.418 5.992,11.641 6.27,15.649 0.273,3.211 0.835,13.371 1.671,30.5 l 0,1.211 c 0,7.75 -3.07,13.769 -9.195,18.058 -11.703,7.75 -22.57,13.371 -32.601,16.852 -6.418,2.41 -14.36,3.609 -23.829,3.609 l -0.418,0 c -3.343,0 -5.64,-0.601 -6.894,-1.801 -1.258,-1.211 -2.027,-3.55 -2.301,-7.019 -1.398,-13.918 -2.09,-26.231 -2.09,-36.93 l 0,-5.621 c 0,-1.34 -0.07,-3.469 -0.211,-6.41 -0.144,-2.957 -0.207,-5.09 -0.207,-6.43 0,-2.949 0.141,-5.09 0.418,-6.418 0,-0.543 0.836,-13.242 2.508,-38.133 l 0,0" /><path
             id="path46"
             style="fill:#ef2e33;fill-opacity:1;fill-rule:nonzero;stroke:none"
             d="m 587.391,606.852 c 5.531,8.089 12.781,14.91 21.726,20.449 32.371,22.148 57.93,35.359 76.684,39.621 11.5,2.558 23,3.84 34.508,3.84 12.777,0 24.281,-1.711 34.503,-5.121 6.391,-1.7 10.442,-4.903 12.141,-9.582 1.277,-0.86 2.336,-2.778 3.195,-5.75 0,-0.43 0.102,-1.071 0.325,-1.918 0.207,-0.86 0.312,-1.5 0.312,-1.922 0,-6.387 -1.699,-13.637 -5.109,-21.719 -3.418,-8.102 -7.887,-13.418 -13.422,-15.98 -27.699,-13.211 -45.152,-21.309 -52.395,-24.282 -30.257,-13.636 -51.121,-35.148 -62.625,-64.539 -5.539,-15.34 -8.531,-24.289 -8.945,-26.84 l -1.918,-5.75 c -11.504,-21.73 -19.809,-50.277 -24.922,-85.629 0,-0.859 -0.105,-1.71 -0.32,-2.558 -0.219,-0.863 -0.317,-1.711 -0.317,-2.551 0,-0.43 0.098,-1.18 0.317,-2.242 0.215,-1.07 0.32,-1.82 0.32,-2.231 0,-3.839 -0.859,-7.457 -2.554,-10.867 l 0,-5.75 c 1.277,-1.281 1.917,-2.781 1.917,-4.472 l 0,-0.637 c -0.425,-0.434 -0.64,-0.863 -0.64,-1.281 2.973,-11.93 8.945,-26.422 17.89,-43.45 6.809,-13.64 18.536,-27.269 35.149,-40.902 13.633,-10.66 34.082,-17.891 61.34,-21.719 10.226,-1.711 18.105,-4.48 23.644,-8.308 6.395,-5.114 9.59,-13.012 9.59,-23.653 0,-8.089 -2.555,-14.699 -7.668,-19.8 -1.703,-1.7 -3.832,-2.559 -6.39,-2.559 l -1.282,0 c -9.371,0.859 -16.195,1.281 -20.449,1.281 -7.664,0 -17.887,-0.851 -30.672,-2.562 l -3.832,0 c -5.109,0 -11.082,1.5 -17.89,4.48 -2.145,1.27 -5.43,2.871 -9.907,4.789 -4.472,1.91 -7.992,3.293 -10.547,4.153 -4.691,0 -11.5,3.191 -20.445,9.589 -5.113,4.239 -10.863,8.079 -17.254,11.5 -5.972,2.551 -11.5,7.231 -16.613,14.051 -17.039,23.86 -27.266,42.391 -30.672,55.598 -13.207,36.633 -21.09,61.551 -23.644,74.769 -1.704,9.364 -2.555,16.813 -2.555,22.364 0,5.527 0.414,13.828 1.277,24.918 0.414,4.679 1.172,11.601 2.235,20.769 1.058,9.153 1.812,15.86 2.238,20.133 2.555,33.227 12.992,66.668 31.312,100.328 2.973,5.52 10.438,16.18 22.364,31.942 l 0,0" /><path
             id="path48"
             style="fill:#ef2e33;fill-opacity:1;fill-rule:nonzero;stroke:none"
             d="m 1033.79,182.832 c 0,-0.422 0.22,-1.051 0.64,-1.91 l 0,-1.281 c 0.02,-7.243 -4.03,-14.911 -12.1,-23.032 -2.14,-2.121 -4.47,-3.199 -7.03,-3.199 -4.26,-0.012 -7.67,2.551 -10.23,7.66 -6.84,13.2 -10.902,22.559 -12.183,28.09 -5.571,21.719 -8.578,34.5 -9.004,38.328 -2.582,17.891 -4.528,36.633 -5.832,56.231 -0.871,7.66 -1.301,13.191 -1.309,16.613 l 0,1.918 c 0,2.121 -1.922,6.16 -5.765,12.129 -5.973,0.41 -14.704,0.621 -26.204,0.601 -7.668,-0.011 -19.168,-0.25 -34.507,-0.691 -15.332,-0.461 -26.832,-0.68 -34.5,-0.687 -6.395,-0.012 -10.008,-3.641 -10.852,-10.883 -1.684,-11.09 -4.226,-18.758 -7.633,-23.02 -1.273,-3.41 -2.328,-11.5 -3.164,-24.277 0.016,-4.274 -0.519,-11.731 -1.558,-22.371 -1.051,-10.66 -1.571,-18.75 -1.567,-24.289 l 0.008,-1.274 0,-0.636 c 0.02,-15.34 -7.855,-26.852 -23.598,-34.543 -3.414,-1.289 -6.168,-1.93 -8.297,-1.93 -5.113,-0.008 -9.273,1.691 -12.472,5.09 -3.203,3.422 -4.805,7.883 -4.813,13.41 l -0.004,3.203 c -0.011,10.219 1.02,21.727 3.145,34.508 1.684,8.09 2.746,14.699 3.168,19.808 0.41,2.133 0.633,5.332 0.621,9.59 -0.008,7.242 -1.297,14.473 -3.863,21.723 -3.852,11.07 -5.789,24.051 -5.809,38.969 -0.004,0.851 0.094,2.558 0.313,5.109 0.211,2.563 0.312,4.481 0.308,5.75 1.239,26.852 1.836,53.473 1.801,79.883 l -0.062,43.457 -0.012,7.031 -0.055,40.891 c -0.008,1.281 0.094,2.98 0.309,5.121 0.211,2.129 0.316,3.828 0.308,5.109 -0.011,10.649 -0.894,26.61 -2.625,47.93 -0.425,3.391 -0.648,8.508 -0.66,15.328 -0.008,7.231 0.195,12.563 0.617,15.973 1.68,11.929 2.528,21.297 2.516,28.129 l 0,1.269 c 0,0.422 -0.227,1.059 -0.645,1.918 -0.011,9.363 1.25,18.531 3.793,27.481 0.848,3.41 1.27,5.761 1.27,7.031 l -0.004,4.48 c 0,0.41 -0.113,1.16 -0.324,2.231 -0.223,1.058 -0.321,1.808 -0.328,2.238 -0.008,4.68 1.261,11.711 3.804,21.09 4.664,15.762 14.024,26 28.075,30.723 2.128,0.847 5.113,1.277 8.941,1.289 11.082,0.007 17.902,-5.313 20.477,-15.95 0,-0.429 0.644,-4.691 1.929,-12.781 1.711,-9.801 3.227,-17.879 4.516,-24.269 0.851,-3.84 1.285,-9.813 1.297,-17.891 l 0.015,-5.75 c 0.004,-5.551 0.219,-9.59 0.657,-12.141 0.418,-2.14 0.64,-5.55 0.648,-10.23 0.012,-7.668 -1.242,-19.598 -3.781,-35.789 -6.321,-45.602 -9.473,-77.551 -9.442,-95.86 l 0.008,-7.671 c 0.008,-2.559 0.11,-6.61 0.34,-12.137 0.223,-5.551 0.336,-9.59 0.336,-12.141 0.004,-4.269 -0.09,-11.09 -0.285,-20.453 -0.211,-9.379 -0.297,-16.199 -0.293,-20.449 1.281,-2.559 1.926,-5.328 1.926,-8.309 l 0.007,-3.191 0.004,-3.828 c 0.86,-5.121 2.145,-8.531 3.852,-10.219 l 1.918,0 c 11.074,0.02 24.492,1.52 40.246,4.527 0.422,0 2.449,0.332 6.07,0.969 3.61,0.641 6.489,0.973 8.625,0.973 4.684,1.699 14.266,2.988 28.75,3.879 l 13.418,1.929 c 6.391,1.289 9.578,5.129 9.571,11.52 l -0.004,4.473 c -0.008,2.558 -0.121,6.277 -0.34,11.179 -0.231,4.891 -0.328,8.629 -0.336,11.188 0,1.269 0.094,3.191 0.308,5.75 0.211,2.551 0.317,4.472 0.317,5.75 l -0.008,3.203 0,1.269 -0.012,5.75 c 0.844,6.809 1.266,12.149 1.258,15.981 -0.008,4.68 -0.234,8.09 -0.656,10.219 l -0.008,5.121 c 0,0.41 0.633,7.027 1.891,19.808 0,0.41 0.097,1.27 0.312,2.559 0.211,1.269 0.317,2.121 0.317,2.551 l -0.012,7.672 c -0.004,5.527 0.625,9.789 1.898,12.777 0,0.422 -0.218,1.492 -0.64,3.203 0,1.27 0.211,2.328 0.629,3.188 -0.012,10.23 0.386,25.562 1.214,46.019 1.661,25.133 3.133,43.231 4.395,54.32 0.836,10.223 4.215,25.563 10.156,46.02 1.684,5.531 5.954,11.082 12.754,16.633 4.68,3.41 8.72,5.129 12.14,5.129 5.96,0.007 10.23,-4.461 12.8,-13.403 1.7,-6.816 2.57,-11.718 2.57,-14.687 l 0.01,-1.922 c -2.08,-40.481 -3.1,-64.969 -3.09,-73.488 0.01,-6.821 -0.3,-16.84 -0.92,-30.039 -0.62,-13.211 -0.92,-23 -0.91,-29.391 l 0.02,-10.231 c 0,-1.71 0.09,-4.261 0.32,-7.66 0.22,-3.422 0.33,-5.968 0.34,-7.672 0.01,-9.808 -0.51,-24.597 -1.54,-44.418 -1.03,-19.8 -1.54,-34.621 -1.53,-44.41 l 0,-5.109 c 0.02,-10.652 0.46,-27.063 1.36,-49.199 0.01,-5.121 1.5,-10.223 4.49,-15.332 2.57,-5.11 3.85,-10.008 3.86,-14.692 0.01,-5.117 -1.05,-9.168 -3.18,-12.148 -1.28,-2.141 -1.91,-5.75 -1.9,-10.871 l 0,-2.547 c -2.94,-25.992 -4.4,-48.363 -4.37,-67.113 l 0.02,-11.5 c 0.42,-4.688 0.75,-14.278 0.99,-28.75 0.24,-14.489 0.78,-25.559 1.65,-33.227 l 0,0" /><path
             id="path50"
             style="fill:#ef2e33;fill-opacity:1;fill-rule:nonzero;stroke:none"
             d="m 1272.42,347.219 c 1.27,-11.508 4.47,-27.699 9.58,-48.571 5.11,-20.878 8.31,-35.789 9.59,-44.726 0.84,-4.274 1.27,-7.672 1.27,-10.231 0,-5.109 -2.55,-8.73 -7.67,-10.859 -1.27,-0.863 -1.91,-2.98 -1.91,-6.391 -0.43,-5.543 -2.35,-13.832 -5.75,-24.921 -2.14,-5.961 -5.97,-8.95 -11.51,-8.95 l -1.27,0 c -5.54,0 -9.81,2.782 -12.78,8.309 -4.26,9.383 -7.46,19.812 -9.59,31.312 -5.54,33.649 -9.17,57.079 -10.87,70.289 -0.86,5.961 -3.41,8.95 -7.66,8.95 -2.14,0 -3.84,-0.43 -5.11,-1.282 -19.6,-9.796 -32.59,-15.128 -38.98,-15.968 -1.71,0 -4.58,-0.442 -8.63,-1.282 -4.06,-0.867 -7.13,-1.5 -9.26,-1.918 -6.82,-1.281 -11.09,-5.539 -12.78,-12.781 -11.5,-48.148 -19.17,-76.679 -23.01,-85.629 -0.43,-1.691 -1.28,-2.558 -2.56,-2.558 -0.42,0 -1.5,0.328 -3.19,0.957 -1.7,0.64 -3.2,0.961 -4.48,0.961 -0.86,0 -2.13,-0.41 -3.83,-1.27 -11.08,-1.699 -18.75,-2.558 -23,-2.558 -8.53,0 -15.56,2.136 -21.09,6.386 -2.98,2.563 -4.47,5.543 -4.47,8.942 l 0,1.289 c 0,8.941 -0.86,16.82 -2.56,23.64 -0.43,1.282 -0.64,3.192 -0.64,5.75 0,1.282 0.42,3.61 1.28,7.032 0.85,2.968 4.25,20.449 10.22,52.398 1.7,9.359 4.48,23.531 8.31,42.492 3.84,18.949 6.81,33.117 8.95,42.489 2.13,10.23 6.07,24.71 11.82,43.46 5.75,18.739 9.68,32.59 11.82,41.54 2.56,11.5 7.13,28.21 13.74,50.16 6.6,21.929 11.19,38.019 13.74,48.242 7.66,36.637 14.27,63.68 19.81,81.16 4.25,14.469 10.22,28.316 17.89,41.527 2.55,4.25 5.75,6.391 9.59,6.391 1.28,0 2.33,-0.219 3.19,-0.629 0.42,-0.441 2.65,-0.961 6.71,-1.601 4.05,-0.641 7.13,-1.821 9.26,-3.52 5.97,-4.691 10.01,-11.719 12.15,-21.078 10.64,-44.742 16.39,-68.602 17.25,-71.57 0.41,-2.141 2.45,-12.461 6.07,-31 3.61,-18.532 7.13,-34.614 10.54,-48.243 0,-1.281 0.74,-5.019 2.24,-11.179 1.5,-6.192 2.24,-10.981 2.24,-14.379 0,-0.442 -0.11,-1.071 -0.32,-1.922 -0.23,-0.859 -0.32,-1.5 -0.32,-1.91 0,-0.867 0.74,-9.59 2.24,-26.199 1.49,-16.622 2.65,-29.188 3.51,-37.711 0.85,-8.098 2.56,-20.239 5.11,-36.418 2.56,-16.2 4.26,-28.34 5.12,-36.422 l 0,0 z m -72.85,14.691 c 7.24,3.84 12.99,6.168 17.25,7.031 4.25,0.848 6.39,3.61 6.39,8.309 l 0,1.922 c 0,1.269 -0.42,3.609 -1.28,7.019 -0.86,3.411 -1.28,6.168 -1.28,8.309 l 0,5.75 c 0,5.109 -0.21,8.949 -0.64,11.512 -2.55,17.879 -4.25,30.437 -5.11,37.699 -4.69,52.391 -8.94,88.82 -12.77,109.269 -0.43,2.129 -1.19,5.532 -2.24,10.219 -1.07,4.68 -1.82,8.313 -2.24,10.86 -0.86,3.839 -2.14,5.75 -3.84,5.75 l -0.63,0 c -1.28,0 -2.34,-1.911 -3.2,-5.75 0,-2.129 -0.43,-5.418 -1.27,-9.899 -0.87,-4.469 -1.28,-7.781 -1.28,-9.898 -1.28,-12.371 -3.84,-29.621 -7.67,-51.762 -3.84,-22.16 -6.18,-36.43 -7.03,-42.82 -0.43,-3.828 -1.28,-9.258 -2.56,-16.289 -1.28,-7.032 -2.34,-13.422 -3.2,-19.172 -0.86,-5.75 -1.49,-11.188 -1.91,-16.297 0,-0.434 -0.1,-0.953 -0.32,-1.602 -0.22,-0.64 -0.32,-1.172 -0.32,-1.59 0,-0.871 0.1,-2.351 0.32,-4.468 0.22,-2.153 0.32,-3.633 0.32,-4.481 0,-2.562 -0.43,-5.543 -1.28,-8.941 -0.86,-4.27 -1.5,-10.34 -1.91,-18.219 -0.43,-7.891 -0.86,-13.531 -1.28,-16.93 l 0,-2.55 c 0,-4.27 1.92,-6.403 5.75,-6.403 0.42,0 0.85,0.102 1.28,0.321 0.41,0.211 0.85,0.32 1.27,0.32 7.67,2.551 13.2,4.473 16.62,5.762 2.13,0.839 6.81,3.187 14.06,7.019 l 0,0" /><path
             id="path52"
             style="fill:#ef2e33;fill-opacity:1;fill-rule:nonzero;stroke:none"
             d="m 1647.32,519.102 c -0.42,-2.793 -0.64,-6.77 -0.64,-11.93 0,-5.184 -0.22,-9.852 -0.64,-14.024 -0.42,-4.179 -1.49,-8.058 -3.19,-11.636 -0.86,-2.391 -1.28,-4.383 -1.28,-5.973 0,-0.801 0.1,-1.891 0.32,-3.277 0.21,-1.403 0.32,-2.492 0.32,-3.282 l 0,-6.57 c 0,-13.121 -0.86,-24.672 -2.55,-34.601 -0.43,-2 -0.65,-5.18 -0.65,-9.547 0,-4.774 0.42,-8.352 1.28,-10.742 0.42,-1.192 0.64,-2.981 0.64,-5.372 0,-1.187 -0.1,-3.187 -0.32,-5.968 -0.22,-2.782 -0.32,-4.969 -0.32,-6.559 0,-2 -0.1,-4.883 -0.32,-8.652 -0.22,-3.789 -0.31,-6.668 -0.31,-8.649 0,-19.5 0.63,-39.191 1.91,-59.07 0,-0.41 0.1,-1 0.32,-1.789 0.21,-0.813 0.32,-1.41 0.32,-1.801 l 0,-2.379 c -0.86,-7.16 -1.28,-12.929 -1.28,-17.312 0,-6.758 0.64,-16.41 1.92,-28.93 1.27,-12.527 1.91,-21.578 1.91,-27.148 0,-1.59 0.42,-3.879 1.28,-6.871 0.86,-2.981 1.28,-4.86 1.28,-5.661 0.42,-1.988 0.64,-5.16 0.64,-9.55 0,-10.739 -4.7,-19.09 -14.06,-25.059 -10.22,-7.551 -15.98,-11.93 -17.25,-13.129 -2.56,-2.769 -5.98,-4.172 -10.23,-4.172 -0.42,0 -0.96,0.102 -1.59,0.289 -0.64,0.211 -1.19,0.301 -1.6,0.301 -11.93,1.191 -21.31,4.391 -28.12,9.551 -1.28,1.199 -3.83,2.89 -7.66,5.07 -3.84,2.192 -6.62,4.09 -8.31,5.672 -6.4,3.977 -14.7,11.539 -24.93,22.668 -2.55,2.801 -5.53,7.762 -8.94,14.922 -12.36,22.668 -24.71,49.527 -37.07,80.547 -1.7,3.972 -2.97,10.34 -3.83,19.09 -1.28,5.171 -1.92,7.961 -1.92,8.363 -4.69,9.93 -10.22,27.238 -16.61,51.91 -1.7,5.969 -4.7,14.52 -8.94,25.656 -15.34,37.383 -27.27,63.043 -35.79,76.973 -1.7,2.769 -3.2,6.559 -4.47,11.34 -2.99,8.347 -6.62,17.488 -10.86,27.437 -0.87,0.391 -1.92,0.602 -3.2,0.602 -2.98,0 -4.47,-1.789 -4.47,-5.371 l 0,-4.18 c 0,-5.168 0.63,-10.539 1.91,-16.109 0.42,-3.192 0.74,-6.559 0.96,-10.141 0.21,-3.578 0.42,-7.457 0.64,-11.629 0.21,-4.18 0.32,-7.461 0.32,-9.851 0,-3.188 0.1,-7.86 0.32,-14.02 0.21,-6.18 0.41,-11.738 0.64,-16.711 0.21,-4.976 0.53,-9.648 0.96,-14.019 0.85,-10.348 1.8,-25.161 2.87,-44.45 1.06,-19.308 1.81,-32.129 2.24,-38.488 0.85,-12.34 1.7,-29.641 2.56,-51.91 0.84,-22.289 1.49,-37.789 1.91,-46.539 l 3.84,-59.07 0,-4.18 c 0,-2.774 -0.23,-4.774 -0.64,-5.973 -1.71,-6.347 -5.54,-9.738 -11.51,-10.14 -5.97,-0.387 -11.08,-2.18 -15.33,-5.368 -3.42,-2.781 -7.25,-4.179 -11.51,-4.179 -3.41,0 -7.45,1.398 -12.14,4.179 -2.98,2 -6.61,5.368 -10.86,10.149 -3.42,4.379 -6.39,7.359 -8.94,8.949 -6.82,5.57 -14.7,16.5 -23.65,32.813 -1.28,2.386 -1.92,4.98 -1.92,7.757 0,2.789 1.06,5.77 3.2,8.95 l 0,0.589 c 0,2.391 0.64,4.391 1.92,5.973 4.25,6.367 6.38,14.719 6.38,25.059 l 0,6.558 c -0.42,8.75 -0.63,21.684 -0.63,38.793 l 0,3.578 c 0,3.973 0.21,9.942 0.63,17.903 0.43,7.949 0.65,13.918 0.65,17.898 l 0,27.442 c 0,2.386 -0.11,6.269 -0.32,11.636 -0.23,5.371 -0.33,9.453 -0.33,12.231 l 0,2.39 c 0,3.18 0.33,7.961 0.96,14.321 0.64,6.351 0.96,11.129 0.96,14.32 l 0,4.18 c -0.42,5.558 -0.63,13.91 -0.63,25.058 l 0,39.383 c 0,11.527 0.41,29.238 1.27,53.098 l 0,14.332 c 0,8.347 -0.42,14.699 -1.27,19.09 0,0.39 -0.11,1.078 -0.33,2.089 -0.22,0.981 -0.31,1.68 -0.31,2.079 0,1.203 0.09,2.781 0.31,4.781 0.22,1.98 0.33,3.371 0.33,4.172 l 0,1.789 c -0.86,9.551 -2.78,17.5 -5.75,23.871 -0.87,1.578 -1.29,2.976 -1.29,4.18 l 0,0.589 c 0.86,17.5 3.41,31.231 7.67,41.18 6.81,14.711 19.39,22.07 37.7,22.07 5.53,0 10.65,-0.8 15.34,-2.382 1.28,-0.411 2.66,-0.899 4.16,-1.5 1.49,-0.59 3.09,-1.399 4.79,-2.379 1.69,-1 2.97,-1.7 3.83,-2.09 3.84,-2 6.6,-5.578 8.31,-10.738 14.47,-42.172 24.7,-69.422 30.67,-81.75 3.41,-7.153 11.28,-26.653 23.65,-58.473 1.27,-3.578 3.61,-8.949 7.02,-16.109 1.28,-2 11.72,-25.461 31.32,-70.411 1.69,-4.39 4.56,-10.949 8.62,-19.687 4.05,-8.75 7.13,-15.32 9.27,-19.692 2.97,-7.16 7.56,-17.011 13.74,-29.531 6.17,-12.539 10.12,-20.59 11.82,-24.168 2.13,-5.172 3.61,-8.351 4.47,-9.551 0.85,-2.378 2.13,-3.582 3.83,-3.582 l 1.29,0 c 1.69,0.391 2.55,2.184 2.55,5.383 0,1.18 0.21,2.867 0.64,5.071 0.41,2.168 0.74,4.168 0.96,5.957 0.21,1.793 0.32,3.48 0.32,5.07 l 0,2.391 c 0,0.39 -0.11,1.39 -0.32,2.98 -0.22,1.59 -0.32,2.781 -0.32,3.578 0,3.184 0.32,8.152 0.96,14.922 0.63,6.762 0.96,11.73 0.96,14.922 0.41,7.156 1.49,17.898 3.19,32.219 0.41,4.769 1.49,12.129 3.19,22.07 1.7,9.937 2.78,17.5 3.2,22.68 0.85,9.941 3.09,25.66 6.71,47.14 3.61,21.481 5.64,38.18 6.07,50.117 0.42,5.563 1.49,13.512 3.19,23.864 1.7,10.34 2.78,18.289 3.2,23.867 0.85,11.941 1.28,20.891 1.28,26.851 0,7.95 -1.07,16.899 -3.19,26.852 -1.71,2.777 -2.56,5.969 -2.56,9.547 0,2.391 0.41,5.973 1.27,10.742 0.86,5.559 5.33,8.738 13.42,9.551 l 5.12,0 c 2.13,0 5.53,-0.113 10.22,-0.301 4.69,-0.211 8.31,-0.301 10.86,-0.301 l 5.75,0 c 6.4,0 10.97,-1.191 13.75,-3.582 2.76,-2.386 5.2,-7.367 7.34,-14.918 1.28,-3.191 1.92,-6.371 1.92,-9.539 l 0,-13.133 c 0,-1.597 0.64,-5.769 1.91,-12.527 0.86,-3.191 1.29,-8.16 1.29,-14.922 l 0,-4.769 c -0.43,-8.758 -0.64,-21.879 -0.64,-39.379 0,-1.602 -0.43,-3.582 -1.28,-5.969 -1.7,-6.371 -2.99,-13.23 -3.83,-20.594 -0.86,-7.359 -1.6,-15.609 -2.24,-24.758 -0.64,-9.152 -1.18,-16.109 -1.6,-20.878 l 0,0" /></g></g><g
         id="g54"><g
           clip-path="url(#clipPath58)"
           id="g56"><path
             id="path62"
             style="fill:#ef2e33;fill-opacity:1;fill-rule:nonzero;stroke:none"
             d="m 1914.62,189.18 c -7.25,-6.809 -17.89,-12.149 -31.95,-15.981 -18.75,-4.679 -34.09,-7.027 -46.01,-7.027 l -9.58,0 c -17.48,1.707 -35.79,6.398 -54.96,14.058 -12.78,5.11 -27.9,16.622 -45.37,34.508 -10.22,10.223 -19.39,26.203 -27.48,47.922 -0.42,0.852 -0.63,2.129 -0.63,3.84 -1.7,1.691 -2.56,3.199 -2.56,4.469 l 0.64,1.281 0,1.281 c -2.98,6.809 -4.47,11.071 -4.47,12.778 l 0,1.269 c -1.28,1.293 -1.92,2.981 -1.92,5.121 l 0,1.922 c -0.43,0.41 -0.64,1.051 -0.64,1.91 l 0.64,0.641 0,0.637 c -7.25,23.851 -10.86,47.492 -10.86,70.929 0,1.282 0.1,3.614 0.31,7.032 0.22,3.402 0.33,5.75 0.33,7.031 0.85,11.918 1.28,21.078 1.28,27.48 0,3.828 -0.43,10 -1.28,18.528 l 0,6.39 c 0,6.813 1.28,16.18 3.83,28.121 6.81,32.789 18.11,69.43 33.87,109.899 2.13,5.543 4.89,11.402 8.3,17.582 3.41,6.168 7.45,12.879 12.15,20.129 4.68,7.23 8.08,12.781 10.22,16.609 6.39,11.5 10.64,18.102 12.78,19.813 2.13,1.699 4.57,5 7.35,9.91 2.77,4.886 4.79,8.187 6.07,9.898 12.78,14.91 25.34,25.34 37.7,31.309 9.37,4.25 18.11,6.39 26.2,6.39 5.53,0 11.92,-1.07 19.17,-3.187 6.81,-1.711 11.5,-2.563 14.06,-2.563 2.13,0 3.84,0.211 5.11,0.641 0.42,0 1.06,0.102 1.92,0.32 0.85,0.211 1.49,0.321 1.92,0.321 3.4,0 6.16,-1.711 8.31,-5.11 0.84,-1.281 1.27,-2.992 1.27,-5.121 0,-2.129 -0.86,-4.898 -2.56,-8.301 -3.41,-8.531 -9.16,-12.777 -17.25,-12.777 -14.48,0 -28.75,-8.531 -42.81,-25.562 -14.92,-18.329 -26.63,-36.43 -35.15,-54.321 -12.36,-33.23 -22.58,-74.117 -30.67,-122.687 0,-3.422 -0.22,-8.633 -0.64,-15.66 -0.43,-7.024 -0.86,-12.25 -1.28,-15.653 -0.86,-17.051 -1.28,-29.621 -1.28,-37.699 0,-21.73 1.7,-41.328 5.12,-58.789 2.97,-18.75 7.66,-34.301 14.05,-46.652 11.51,-22.161 30.46,-36.637 56.87,-43.45 3.41,-0.859 6.93,-1.507 10.55,-1.918 3.61,-0.429 7.57,-0.75 11.82,-0.961 4.26,-0.218 7.67,-0.539 10.23,-0.96 l 1.91,0 c 5.97,0 11.72,2.128 17.26,6.39 3.83,2.559 5.96,6.172 6.39,10.871 0.85,4.25 1.28,10.641 1.28,19.168 0.41,5.52 0.85,13.731 1.27,24.602 0.42,10.859 0.86,19.058 1.28,24.597 l 0,2.551 c 0,2.129 -0.42,4.481 -1.28,7.039 -1.27,5.524 -4.05,8.301 -8.3,8.301 l -0.64,0 c -1.28,0 -3.19,-0.109 -5.75,-0.32 -2.56,-0.219 -4.27,-0.309 -5.11,-0.309 -2.15,0 -5.22,0.09 -9.27,0.309 -4.06,0.211 -7.14,0.32 -9.27,0.32 -8.53,0 -16.19,-0.859 -23,-2.551 -1.28,-0.437 -2.99,-0.636 -5.12,-0.636 -5.97,0 -12.13,2.558 -18.53,7.66 -5.11,3.84 -9.8,7.879 -14.06,12.148 -2.55,2.551 -3.83,5.75 -3.83,9.578 0,2.133 0.21,3.844 0.64,5.114 4.25,15.757 13.63,24.277 28.12,25.558 25.56,1.699 44.94,3.621 58.15,5.75 16.18,2.559 29.39,3.84 39.62,3.84 l 5.11,0 c 4.25,0 11.07,-0.859 20.45,-2.551 9.36,-1.711 15.11,-7.258 17.25,-16.621 0.85,-4.269 1.28,-7.668 1.28,-10.219 l 0,-1.277 c 0,-0.434 -0.11,-1.07 -0.32,-1.922 -0.22,-0.859 -0.32,-1.5 -0.32,-1.922 0,-1.699 0.21,-2.769 0.64,-3.187 2.55,-5.969 3.84,-13.641 3.84,-23.012 0,-2.988 -0.23,-7.457 -0.65,-13.418 -0.42,-5.973 -0.64,-10.441 -0.64,-13.422 0,-11.5 -0.42,-28.328 -1.27,-50.48 l 0,-5.11 c 1.7,-4.687 2.56,-9.808 2.56,-15.328 0,-2.992 -0.43,-7.672 -1.29,-14.07 -0.86,-6.379 -1.27,-11.082 -1.27,-14.051 0,-5.531 -2.78,-9.59 -8.31,-12.14 -17.04,-7.668 -30.9,-16.622 -41.54,-26.84 l 0,0" /><path
             id="path64"
             style="fill:#ef2e33;fill-opacity:1;fill-rule:nonzero;stroke:none"
             d="m 2034.85,692.48 c 5.95,1.352 26.71,2.879 62.26,4.598 35.54,1.723 60.99,2.684 76.33,2.871 8.95,0.11 14.7,-0.039 17.26,-0.429 3.84,-0.809 9.17,-1.161 15.99,-1.079 l 14.06,0.168 c 12.78,0.161 22.83,-3.769 30.18,-11.757 4.31,-4.641 6.62,-19.09 6.93,-43.372 l 0.03,-3.199 c -0.33,-7.25 -4.74,-12.422 -13.22,-15.5 -3.82,-1.761 -8.5,-2.66 -14.03,-2.73 l -2.56,-0.031 c -1.27,-0.02 -3.62,0.05 -7.03,0.23 -3.41,0.172 -6.17,0.238 -8.3,0.219 -5.54,-0.071 -26.2,-0.438 -61.98,-1.09 -35.78,-0.668 -56.65,-1.02 -62.62,-1.098 -11.08,-0.133 -18.53,-0.019 -22.37,0.367 l -1.28,-0.019 c -6.39,-0.078 -9.54,-3.738 -9.44,-10.981 l 0.08,-6.386 c 0.29,-24.282 0.73,-42.602 1.32,-54.953 1.02,-14.469 1.58,-24.899 1.66,-31.289 l -0.66,1.91 c 0,-0.43 -0.09,-1.18 -0.29,-2.239 -0.21,-1.07 -0.3,-1.82 -0.29,-2.242 0.02,-2.14 0.69,-4.679 2.01,-7.64 1.31,-2.969 2.62,-5.508 3.92,-7.618 l 1.95,-2.531 c 0.42,0 1.06,0.11 1.91,0.34 0.85,0.219 1.49,0.34 1.92,0.34 3.4,0.89 10.85,1.41 22.35,1.558 14.47,0.184 38.03,-1.027 70.66,-3.597 32.62,-2.582 50.65,-5.352 54.1,-8.281 2.6,-3.379 4.21,-12.731 4.82,-28.051 0.61,-15.34 1.15,-24.071 1.6,-26.188 0.44,-1.699 0.7,-4.043 0.73,-7.019 0.07,-5.973 -3.49,-10.492 -10.7,-13.551 -5.08,-2.199 -9.76,-3.32 -14.01,-3.371 l -2.56,-0.031 c -0.85,-0.45 -7.02,-0.731 -18.52,-0.868 -11.93,-0.152 -31.74,-0.082 -59.44,0.219 -27.7,0.301 -42.4,0.43 -44.09,0.41 l -1.28,-0.011 c -4.7,-0.489 -7.88,-1.489 -9.56,-3 -1.68,-1.52 -2.5,-4.18 -2.45,-8.02 l 0.04,-3.187 c 0.49,-5.973 0.83,-15.332 0.98,-28.114 l 0.36,-28.109 0.15,-12.777 0.01,-0.641 c 0.06,-4.699 -0.53,-8.961 -1.76,-12.813 l 0.05,-3.828 c 0.04,-2.98 1.77,-5.73 5.22,-8.238 0.85,0.008 2.13,-0.082 3.84,-0.281 1.69,-0.192 3.19,-0.27 4.47,-0.262 4.25,0.051 24.49,0.52 60.69,1.402 36.2,0.86 56.87,1.34 61.97,1.399 11.5,0.14 19.19,-0.399 23.03,-1.629 2.14,-0.84 6.3,-1.199 12.48,-1.121 6.16,0.07 10.12,-0.309 11.83,-1.129 5.14,-1.652 9.36,-7.141 12.67,-16.461 3.31,-9.34 6.32,-20.16 9.03,-32.48 2.71,-12.321 4.72,-20.168 6.04,-23.571 0.43,-0.84 0.67,-2.117 0.69,-3.828 0.04,-2.973 -0.99,-5.973 -3.09,-8.98 -5.02,-7.313 -11.57,-11.653 -19.64,-13.032 -8.51,-1.379 -38.31,-3.449 -89.4,-6.218 -51.09,-2.762 -80.04,-4.602 -86.84,-5.551 l -1.28,-0.02 c -0.85,-0.429 -1.91,-0.66 -3.19,-0.672 l -2.55,-0.027 c -2.13,-0.883 -5.1,-1.351 -8.93,-1.402 -1.7,-0.02 -4.05,0.062 -7.03,0.242 -2.98,0.18 -5.12,0.25 -6.39,0.238 -0.43,-0.008 -1.07,0.09 -1.92,0.289 -0.87,0.223 -1.51,0.301 -1.93,0.301 l -2.55,-0.027 c -11.51,-0.153 -20.76,6.988 -27.75,21.379 -8.76,18.648 -13.47,37.961 -14.13,57.98 -0.08,5.961 -0.75,16.18 -1.99,30.649 -1.24,14.46 -1.91,25.75 -2.01,33.851 l -0.59,47.277 c -0.11,8.512 0.04,14.704 0.41,18.543 -0.06,5.528 0.05,13.629 0.34,24.289 0.28,10.641 0.41,18.54 0.34,23.641 -0.1,8.52 -0.4,14.91 -0.87,19.168 -2.77,50.66 -4.6,78.961 -5.53,84.93 -1.4,10.203 -2.17,20.633 -2.3,31.281 -0.1,7.672 0.17,19.172 0.85,34.52 -0.08,6.39 1.34,11.73 4.27,16.031 1.26,2.14 1.87,4.07 1.85,5.769 l -0.05,4.481 c -0.04,2.121 0.16,3.609 0.58,4.48 l -0.01,0.641 -0.05,3.828 c -0.02,2.129 0.59,3.84 1.85,5.141 0.39,2.558 3.52,7.918 9.39,16.089 9.66,11.192 20.64,18.36 32.96,21.5 l 0,0" /></g></g><g
         id="g66"><g
           clip-path="url(#clipPath70)"
           id="g68"><path
             id="path74"
             style="fill:#40bbaa;fill-opacity:1;fill-rule:nonzero;stroke:none"
             d="m 1015.82,1036.89 c 2.18,-28.41 3.27,-46.824 3.27,-55.253 l 0,-6.09 c 0,-12.488 1.72,-28.41 5.15,-47.766 3.12,-20.605 5.78,-36.058 7.97,-46.363 1.55,-7.492 5.15,-18.109 10.77,-31.844 4.06,-9.672 10.92,-14.519 20.61,-14.519 0.3,0 0.93,0.164 1.87,0.468 4.99,0.633 8.27,2.813 9.83,6.555 8.12,19.672 12.33,32.621 12.65,38.871 0.31,3.746 0.77,9.672 1.4,17.797 0.62,8.117 1.09,14.051 1.41,17.797 1.24,10.926 2.34,18.566 3.27,22.945 0.63,4.051 1.18,9.989 1.64,17.793 0.47,7.801 0.71,12.649 0.71,14.52 1.24,16.226 1.87,28.569 1.87,36.999 0,6.86 -0.16,12.01 -0.47,15.45 -0.31,6.25 -1.09,15.76 -2.34,28.57 -1.25,12.8 -2.03,22.31 -2.34,28.56 -0.32,5.62 -0.47,14.21 -0.47,25.76 0,15.92 1.09,30.91 3.28,44.96 1.56,11.54 2.81,18.42 3.74,20.6 3.44,8.43 9.52,13.27 18.27,14.52 10.3,1.56 16.54,2.97 18.73,4.22 0.62,0.3 1.4,0.46 2.34,0.46 3.12,0 5.46,-1.71 7.02,-5.15 1.25,-2.81 2.19,-5.78 2.81,-8.89 0.63,-5.32 1.72,-12.88 3.28,-22.72 1.56,-9.83 2.65,-16.46 3.28,-19.9 4.06,-28.41 7.03,-48.24 8.9,-59.47 2.81,-15.3 4.37,-24.99 4.69,-29.04 l 0,-9.84 c 0,-6.55 -0.48,-11.4 -1.41,-14.51 -2.19,-7.81 -3.28,-16.09 -3.28,-24.821 l 0,-12.176 c 0,-10.938 -0.94,-27.328 -2.81,-49.172 -0.32,-4.059 -0.79,-11.238 -1.41,-21.543 -0.62,-10.305 -1.25,-18.266 -1.87,-23.883 -2.5,-20.605 -5.62,-35.902 -9.37,-45.894 -5.31,-14.676 -12.8,-25.594 -22.47,-32.782 -4.06,-3.113 -8.9,-5.152 -14.52,-6.089 -0.32,0 -3.36,-0.465 -9.13,-1.407 -5.78,-0.933 -10.07,-1.402 -12.88,-1.402 l -2.81,0 c -2.19,0 -4.53,-1.242 -7.02,-3.746 -5.62,-5.926 -12.81,-8.899 -21.55,-8.899 l -3.74,0 c -17.8,1.25 -31.7,11.082 -41.68,29.504 -0.94,1.25 -4.85,11.551 -11.71,30.907 -3.437,9.367 -6.87,22.168 -10.3,38.402 -0.633,3.746 -1.332,9.055 -2.109,15.922 -0.782,6.859 -1.332,11.242 -1.645,13.113 -1.558,9.992 -2.336,25.125 -2.336,45.426 0,6.859 -0.472,17.164 -1.406,30.906 -0.934,13.734 -1.406,24.044 -1.406,30.914 0,0.62 0.074,1.47 0.238,2.57 0.152,1.09 0.234,1.95 0.234,2.58 0.618,27.46 1.242,48.39 1.868,62.75 0,0.94 0.074,2.18 0.238,3.74 0.152,1.57 0.234,2.82 0.234,3.75 l 0,1.41 c 0,5.62 0.152,9.83 0.469,12.64 1.242,9.99 1.867,17.49 1.867,22.48 0,0.63 -0.078,1.56 -0.226,2.81 -0.161,1.24 -0.235,2.18 -0.235,2.81 l 0,1.41 c 0,8.11 4.68,18.1 14.045,29.97 1.56,1.87 3.12,2.81 4.68,2.81 1.88,0 3.59,-0.94 5.15,-2.81 1.88,-2.19 2.81,-5.32 2.81,-9.37 l 0,-12.64 c 0,-3.12 -0.16,-7.73 -0.46,-13.82 -0.32,-6.09 -0.47,-10.7 -0.47,-13.81 0,-4.69 0.15,-8.28 0.47,-10.78 0.3,-1.24 0.46,-3.44 0.46,-6.55 0,-0.94 -0.08,-2.34 -0.23,-4.22 -0.16,-1.87 -0.23,-3.44 -0.23,-4.68 l 0,-6.09 c 0,-12.17 0.93,-30.75 2.81,-55.73 l 0,0" /><path
             id="path76"
             style="fill:#40bbaa;fill-opacity:1;fill-rule:nonzero;stroke:none"
             d="m 2169.93,1171.22 c 3.31,0.99 6.64,1.49 9.97,1.49 0.99,0 2.91,0.08 5.74,0.25 2.81,0.16 5.05,0.25 6.72,0.25 8.64,0 14.29,-1.17 16.96,-3.49 3.65,-2.67 11.79,-9.31 24.43,-19.94 2.31,-2 4.49,-4.74 6.48,-8.23 1.99,-3.49 3.49,-6.48 4.49,-8.97 0.99,-2.49 2.31,-6.24 3.98,-11.22 1.66,-4.98 2.66,-7.98 2.99,-8.98 2.32,-6.65 3.49,-13.29 3.49,-19.94 0,-3.66 -0.49,-6.48 -1.49,-8.48 -1.34,-2.32 -5.66,-5.16 -12.97,-8.47 -1.99,-1 -4.48,-1.75 -7.47,-2.24 -2.99,-0.5 -5.33,-1.09 -6.99,-1.75 l -1.49,0 c -2.66,0 -6.82,1.99 -12.46,5.98 -4.99,3.66 -7.65,10.47 -7.98,20.45 -0.34,6.3 -2.58,12.21 -6.73,17.69 -4.17,5.49 -8.73,8.89 -13.71,10.22 -3.33,0.67 -5.66,1 -6.98,1 -11.65,0 -20.94,-7.48 -27.92,-22.43 -2.33,-4.66 -3.5,-9.15 -3.5,-13.46 0,-8.98 4.91,-17.21 14.72,-24.68 9.8,-7.48 21.43,-15.13 34.9,-22.94 13.46,-7.81 22.84,-15.04 28.17,-21.69 14.62,-18.62 23.1,-36.07 25.42,-52.347 2.66,-17.949 5.15,-30.09 7.48,-36.398 3.32,-8.649 5.15,-15.129 5.48,-19.446 0,-1.668 0.26,-3.324 0.75,-4.984 0.5,-1.668 1.08,-4.238 1.75,-7.727 0.66,-3.492 1.32,-6.73 1.99,-9.722 0.33,-1.672 0.5,-4.325 0.5,-7.981 0,-12.637 -3.66,-24.101 -10.97,-34.398 -9.3,-12.641 -16.95,-20.117 -22.93,-22.438 -3.66,-1.332 -6.23,-2.668 -7.73,-3.988 -1.5,-1.332 -2.58,-3.492 -3.24,-6.481 -1.33,-4.988 -5.98,-8.476 -13.96,-10.472 -3.33,-0.996 -6.98,-1.496 -10.97,-1.496 l -1.99,0 c -3.33,0 -9.15,-0.172 -17.45,-0.496 l -1,0 c -9.31,0 -19.78,2.566 -31.41,7.726 -11.64,5.149 -21.44,13.039 -29.42,23.684 -16.63,20.941 -26.1,41.207 -28.42,60.828 -0.67,4.648 -1.41,8.973 -2.24,12.961 -0.83,3.988 -1.67,7.805 -2.49,11.469 -0.84,3.652 -1.42,6.144 -1.75,7.476 -0.99,4.985 -1.5,9.473 -1.5,13.465 0,0.66 0.08,1.656 0.26,2.988 0.16,1.325 0.25,2.157 0.25,2.492 0,3.989 1.65,7.805 4.98,11.469 6.31,6.981 12.79,11.965 19.45,14.957 2.65,1.324 5.31,1.996 7.97,1.996 2.66,0 5.15,-1.496 7.48,-4.488 4.65,-6.32 7.14,-12.141 7.48,-17.449 0.33,-5.66 1.99,-13.137 4.99,-22.438 3.31,-10.644 5.64,-18.621 6.97,-23.929 2,-7.653 4.99,-14.137 8.98,-19.446 3.65,-4.66 6.65,-9.808 8.97,-15.457 2.99,-7.316 10.3,-11.304 21.94,-11.965 1,0 2.16,-0.089 3.49,-0.25 1.33,-0.175 2.16,-0.25 2.5,-0.25 1.99,0 4.81,0.5 8.47,1.497 3.99,1.32 6.81,5.984 8.47,13.96 0.33,0.997 0.51,1.993 0.51,2.993 0,0.996 0,1.82 0,2.492 0,0.66 0.07,1.16 0.24,1.496 0.17,0.324 0.26,0.66 0.26,0.996 0.32,0.324 0.57,0.91 0.74,1.742 0.17,0.828 0.25,1.41 0.25,1.746 0,0.664 0.16,1.496 0.5,2.493 0.33,1 0.5,1.66 0.5,1.996 0,0.324 0,0.91 0,1.746 0,0.824 0.16,1.57 0.5,2.242 l 0.5,1 c 0,0.66 0,1.156 0,1.492 l 0,0.5 c 0,1.656 0.16,2.992 0.49,3.988 0.33,0.996 0.58,2.657 0.75,4.989 0.17,2.316 0.25,3.812 0.25,4.484 0.33,1.324 0.5,3.652 0.5,6.981 0,0.66 -0.09,1.324 -0.25,1.996 -0.17,0.66 -0.25,1.16 -0.25,1.496 0,0.66 -0.17,1.496 -0.5,2.492 0,0.996 -0.17,1.82 -0.5,2.492 -0.33,0.324 -0.49,1.16 -0.49,2.492 0,1.324 0,2.492 0,3.489 -0.68,2.992 -1.34,8.976 -2,17.949 -0.34,3.656 -1.83,7.394 -4.48,11.218 -2.67,3.817 -6.41,8.227 -11.23,13.215 -4.82,4.985 -8.4,8.973 -10.71,11.965 -5.66,7.305 -15.63,16.118 -29.92,26.428 -14.29,10.29 -23.93,18.11 -28.91,23.43 -11.97,13.29 -17.95,29.74 -17.95,49.36 0,14.62 3.49,28.92 10.46,42.88 4.99,9.63 11.47,18.45 19.45,26.42 4.65,4.65 17.78,9.97 39.39,15.96 l 0,0" /></g></g><g
         id="g78"><g
           clip-path="url(#clipPath82)"
           id="g80"><path
             id="path86"
             style="fill:#40bbaa;fill-opacity:1;fill-rule:nonzero;stroke:none"
             d="m 419.211,232.66 c 16.949,-4.262 27.48,-12.191 31.551,-23.789 1.355,-6.172 2.035,-9.473 2.035,-9.859 0,-2.321 -1.371,-4.063 -4.07,-5.211 -2.715,-1.172 -8.497,-2.699 -17.301,-4.653 -16.965,-3.468 -34.266,-5.796 -51.91,-6.949 -14.246,-1.168 -35.621,-1.738 -64.118,-1.738 -17.656,0 -43.425,0.391 -77.351,1.16 l -79.387,1.731 -33.59,0 c -12.211,0 -24.425,0.589 -36.6364,1.738 -14.25,1.172 -28.5,3.879 -42.7461,8.121 -17.6563,5.801 -26.4648,13.34 -26.4648,22.621 l 0,3.477 c 1.3593,8.902 4.7343,16.82 10.1796,23.781 6.1055,7.34 15.2657,11.019 27.4805,11.019 l 8.1406,0 c 21.711,-1.937 41.3746,-2.898 59.0316,-2.898 17.64,0 30.871,0.187 39.691,0.578 5.43,0.383 14.25,0.77 26.465,1.16 12.215,0.383 21.019,0.582 26.461,0.582 l 38.676,0.578 6.105,0 c 6.109,1.539 13.235,2.321 21.375,2.321 10.18,0 26.11,-1.942 47.836,-5.801 10.844,-1.527 26.461,-4.25 46.816,-8.117 12.215,-2.703 26.11,-5.992 41.731,-9.852 l 0,0" /></g></g><g
         id="g88"><g
           clip-path="url(#clipPath92)"
           id="g90"><path
             id="path96"
             style="fill:#b3b3b0;fill-opacity:1;fill-rule:nonzero;stroke:none"
             d="m 1450.89,1209.46 c 20.39,14.12 107.22,125.69 120.41,150.18 13.19,24.49 83.66,116.08 83.66,116.08 l 65.88,106.67 c 0,0 74.78,106.66 123.4,-37.65 23.96,-71.1 122.56,-198.67 133.86,-226.93 11.3,-28.26 39.71,-51.96 51.01,-74.57 6.87,-13.73 54.24,-3.5 94.67,-14.7 20.34,-5.63 36.6,0 28.34,15.82 -33.55,64.13 -55.17,110.55 -96.62,165.81 -41.44,55.26 -140.66,194.67 -153.22,226.07 -12.56,31.4 -64.87,143.69 -139.19,123.34 -74.32,-20.35 -138.38,-93.2 -171.03,-152.23 -32.66,-59.03 -135.65,-211 -162.02,-251.19 -26.38,-40.19 -58.99,-79.37 -67.4,-103.04 -3.45,-9.71 17.61,-9.41 55.26,-26.14 14.42,-6.41 25.94,-22.41 32.99,-17.52" /><path
             id="path98"
             style="fill:#65686d;fill-opacity:1;fill-rule:nonzero;stroke:none"
             d="m 73.0195,66.1992 c 0,0.9102 0.8203,1.6328 1.7344,1.6328 l 2.2734,0 36.3357,-34.9609 0.098,0 0,32.3281 c 0,0.9102 0.727,1.7305 1.727,1.7305 l 10.933,0 c 0.906,0 1.727,-0.8203 1.727,-1.7305 l 0,-61.28904 C 127.848,3 127.027,2.26172 126.121,2.26172 l -1.461,0 c -0.273,0 -1.004,0.26953 -1.183,0.45703 l -35.9731,36.16015 -0.0898,0 0,-33.98046 c 0,-0.91016 -0.7305,-1.71875 -1.7344,-1.71875 l -10.8359,0 c -0.9102,0 -1.7305,0.80859 -1.7305,1.71875 l -0.0938,61.30076 0,0" /><path
             id="path100"
             style="fill:#65686d;fill-opacity:1;fill-rule:nonzero;stroke:none"
             d="m 177.246,65.1992 c 0,0.9102 0.816,1.7305 1.727,1.7305 l 10.925,0 c 0.914,0 1.735,-0.8203 1.735,-1.7305 l 0,-60.30076 c 0,-0.91016 -0.821,-1.71875 -1.735,-1.71875 l -10.925,0 c -0.911,0 -1.727,0.80859 -1.727,1.71875 l 0,60.30076" /><path
             id="path102"
             style="fill:#65686d;fill-opacity:1;fill-rule:nonzero;stroke:none"
             d="m 212.98,66.1992 c 0,0.9102 0.817,1.6328 1.735,1.6328 l 2.269,0 36.344,-34.9609 0.09,0 0,32.3281 c 0,0.9102 0.73,1.7305 1.727,1.7305 l 10.933,0 c 0.91,0 1.727,-0.8203 1.727,-1.7305 l 0,-61.28904 C 267.805,3 266.988,2.26172 266.078,2.26172 l -1.461,0 c -0.269,0 -1,0.26953 -1.179,0.45703 l -35.977,36.16015 -0.09,0 0,-33.98046 c 0,-0.91016 -0.726,-1.71875 -1.73,-1.71875 l -10.84,0 c -0.906,0 -1.727,0.80859 -1.727,1.71875 l -0.094,61.30076 0,0" /><path
             id="path104"
             style="fill:#65686d;fill-opacity:1;fill-rule:nonzero;stroke:none"
             d="m 289.336,65.1992 c 0,0.9102 0.82,1.7305 1.726,1.7305 l 10.93,0 c 0.914,0 1.735,-0.8203 1.735,-1.7305 l 0,-60.30076 c 0,-0.91016 -0.821,-1.71875 -1.735,-1.71875 l -10.93,0 c -0.906,0 -1.726,0.80859 -1.726,1.71875 l 0,60.30076" /><path
             id="path106"
             style="fill:#65686d;fill-opacity:1;fill-rule:nonzero;stroke:none"
             d="m 332.773,53.5391 -13.023,0 c -0.996,0 -1.727,0.8203 -1.727,1.7304 l 0,9.9297 c 0,0.9102 0.731,1.7305 1.727,1.7305 l 40.441,0 c 1,0 1.727,-0.8203 1.727,-1.7305 l 0,-9.9297 c 0,-0.9101 -0.727,-1.7304 -1.727,-1.7304 l -13.023,0 0,-48.64066 c 0,-0.91016 -0.82,-1.71875 -1.734,-1.71875 l -10.926,0 c -0.91,0 -1.735,0.80859 -1.735,1.71875 l 0,48.64066" /><path
             id="path108"
             style="fill:#65686d;fill-opacity:1;fill-rule:nonzero;stroke:none"
             d="m 376.297,65.1992 c 0,0.9102 0.82,1.7305 1.726,1.7305 l 10.93,0 c 0.914,0 1.735,-0.8203 1.735,-1.7305 l 0,-60.30076 c 0,-0.91016 -0.821,-1.71875 -1.735,-1.71875 l -10.93,0 c -0.906,0 -1.726,0.80859 -1.726,1.71875 l 0,60.30076" /><path
             id="path110"
             style="fill:#65686d;fill-opacity:1;fill-rule:nonzero;stroke:none"
             d="m 404.305,5.55078 28.504,61.28902 c 0.273,0.5508 0.914,0.9922 1.546,0.9922 l 0.911,0 c 0.64,0 1.273,-0.4414 1.546,-0.9922 L 465.324,5.55078 c 0.543,-1.1914 -0.183,-2.37109 -1.551,-2.37109 l -10.109,0 c -1.637,0 -2.367,0.53906 -3.187,2.26953 l -3.274,7.19918 -24.777,0 -3.278,-7.28902 c -0.457,-1.08985 -1.457,-2.17969 -3.281,-2.17969 l -10.019,0 c -1.364,0 -2.09,1.17969 -1.543,2.37109 l 0,0 z m 37.429,19.48042 -6.922,15.0274 -0.093,0 -6.824,-15.0274 13.839,0 0,0" /><path
             id="path112"
             style="fill:#65686d;fill-opacity:1;fill-rule:nonzero;stroke:none"
             d="m 483.051,53.5391 -13.024,0 c -0.996,0 -1.726,0.8203 -1.726,1.7304 l 0,9.9297 c 0,0.9102 0.73,1.7305 1.726,1.7305 l 40.442,0 c 1,0 1.726,-0.8203 1.726,-1.7305 l 0,-9.9297 c 0,-0.9101 -0.726,-1.7304 -1.726,-1.7304 l -13.024,0 0,-48.64066 c 0,-0.91016 -0.82,-1.71875 -1.734,-1.71875 l -10.926,0 c -0.91,0 -1.734,0.80859 -1.734,1.71875 l 0,48.64066" /><path
             id="path114"
             style="fill:#65686d;fill-opacity:1;fill-rule:nonzero;stroke:none"
             d="m 526.574,65.1992 c 0,0.9102 0.821,1.7305 1.727,1.7305 l 10.929,0 c 0.915,0 1.735,-0.8203 1.735,-1.7305 l 0,-60.30076 c 0,-0.91016 -0.82,-1.71875 -1.735,-1.71875 l -10.929,0 c -0.906,0 -1.727,0.80859 -1.727,1.71875 l 0,60.30076" /><path
             id="path116"
             style="fill:#65686d;fill-opacity:1;fill-rule:nonzero;stroke:none"
             d="m 554.582,64.5586 c -0.547,1.1797 0.18,2.3711 1.543,2.3711 l 12.113,0 c 0.731,0 1.367,-0.5508 1.551,-1 l 15.027,-33.25 0.547,0 15.032,33.25 c 0.175,0.4492 0.816,1 1.543,1 l 12.113,0 c 1.367,0 2.094,-1.1914 1.551,-2.3711 L 587.004,3.26953 c -0.274,-0.55078 -0.82,-1.00781 -1.551,-1.00781 l -0.906,0 c -0.731,0 -1.277,0.45703 -1.551,1.00781 l -28.414,61.28907 0,0" /><path
             id="path118"
             style="fill:#65686d;fill-opacity:1;fill-rule:nonzero;stroke:none"
             d="m 629.289,65.1992 c 0,0.9102 0.723,1.7305 1.727,1.7305 l 37.703,0 c 1.004,0 1.734,-0.8203 1.734,-1.7305 l 0,-9.9297 c 0,-0.9101 -0.73,-1.7304 -1.734,-1.7304 l -25.227,0 0,-11.2891 20.77,0 c 0.91,0 1.726,-0.8281 1.726,-1.7383 l 0,-9.9219 c 0,-1 -0.816,-1.7304 -1.726,-1.7304 l -20.77,0 0,-12.3008 25.227,0 c 1.004,0 1.734,-0.8086 1.734,-1.7266 l 0,-9.93356 c 0,-0.91016 -0.73,-1.71875 -1.734,-1.71875 l -37.703,0 c -1.004,0 -1.727,0.80859 -1.727,1.71875 l 0,60.30076" /><path
             id="path120"
             style="fill:#65686d;fill-opacity:1;fill-rule:nonzero;stroke:none"
             d="m 744.441,67.832 c 18.215,0 32.789,-14.6601 32.789,-32.8711 0,-18.2226 -14.574,-32.69918 -32.789,-32.69918 -18.211,0 -32.691,14.47658 -32.691,32.69918 0,18.211 14.48,32.8711 32.691,32.8711 l 0,0 z m 0,-50.9922 c 10.016,0 18.215,8.1914 18.215,18.1211 0,10.0196 -8.199,18.3086 -18.215,18.3086 -9.921,0 -18.121,-8.289 -18.121,-18.3086 0,-9.9297 8.2,-18.1211 18.121,-18.1211 l 0,0" /><path
             id="path122"
             style="fill:#65686d;fill-opacity:1;fill-rule:nonzero;stroke:none"
             d="m 794.484,65.1992 c 0,0.9102 0.719,1.7305 1.727,1.7305 l 37.703,0 c 1,0 1.731,-0.8203 1.731,-1.7305 l 0,-9.9297 c 0,-0.9101 -0.731,-1.7304 -1.731,-1.7304 l -25.23,0 0,-13.1172 20.765,0 c 0.914,0 1.731,-0.8125 1.731,-1.7227 l 0,-9.9375 c 0,-0.9101 -0.817,-1.7226 -1.731,-1.7226 l -20.765,0 0,-22.14066 c 0,-0.91016 -0.817,-1.71875 -1.727,-1.71875 l -10.746,0 c -1.008,0 -1.727,0.80859 -1.727,1.71875 l 0,60.30076" /><path
             id="path124"
             style="fill:#80cc2a;fill-opacity:1;fill-rule:nonzero;stroke:none"
             d="m 907.723,67.832 c 9.105,0 15.843,-2.8125 22.039,-8.4609 0.816,-0.7305 0.816,-1.832 0.097,-2.5508 l -7.105,-7.3789 c -0.645,-0.6406 -1.637,-0.6406 -2.281,0 -3.364,3.0078 -7.832,4.6406 -12.293,4.6406 -10.289,0 -17.852,-8.5508 -17.852,-18.75 0,-10.1211 7.652,-18.4922 17.942,-18.4922 4.277,0 8.921,1.5391 12.203,4.3711 0.644,0.5391 1.824,0.5391 2.371,-0.1015 l 7.097,-7.5508 c 0.637,-0.6367 0.555,-1.8203 -0.082,-2.457 -6.203,-6.01176 -14.027,-8.83988 -22.136,-8.83988 -18.219,0 -32.879,14.47658 -32.879,32.69918 0,18.211 14.66,32.8711 32.879,32.8711 l 0,0" /><path
             id="path126"
             style="fill:#80cc2a;fill-opacity:1;fill-rule:nonzero;stroke:none"
             d="m 973.52,67.832 c 18.21,0 32.78,-14.6601 32.78,-32.8711 0,-18.2226 -14.57,-32.69918 -32.78,-32.69918 -18.215,0 -32.696,14.47658 -32.696,32.69918 0,18.211 14.481,32.8711 32.696,32.8711 l 0,0 z m 0,-50.9922 c 10.011,0 18.21,8.1914 18.21,18.1211 0,10.0196 -8.199,18.3086 -18.21,18.3086 -9.926,0 -18.125,-8.289 -18.125,-18.3086 0,-9.9297 8.199,-18.1211 18.125,-18.1211 l 0,0" /><path
             id="path128"
             style="fill:#80cc2a;fill-opacity:1;fill-rule:nonzero;stroke:none"
             d="m 1028.95,66.3789 c 0.1,0.8203 0.91,1.4531 1.64,1.4531 l 1.46,0 c 0.46,0 1.27,-0.3515 1.55,-0.9023 l 21.13,-39.3516 0.18,0 21.13,39.3516 c 0.27,0.5508 1.09,0.9023 1.55,0.9023 l 1.46,0 c 0.72,0 1.54,-0.6328 1.64,-1.4531 l 10.28,-61.19921 c 0.19,-1.19141 -0.63,-2 -1.72,-2 l -10.76,0 c -0.81,0 -1.63,0.73047 -1.72,1.44922 l -4.11,28.14059 -0.17,0 -15.3,-29.49997 c -0.27,-0.55078 -1.09,-1.00781 -1.55,-1.00781 l -1.64,0 c -0.55,0 -1.27,0.45703 -1.55,1.00781 l -15.39,29.49997 -0.19,0 -4,-28.14059 c -0.09,-0.71875 -0.82,-1.44922 -1.73,-1.44922 l -10.75,0 c -1.09,0 -1.91,0.80859 -1.73,2 l 10.29,61.19921 0,0" /><path
             id="path130"
             style="fill:#80cc2a;fill-opacity:1;fill-rule:nonzero;stroke:none"
             d="m 1115.04,66.3789 c 0.09,0.8203 0.91,1.4531 1.63,1.4531 l 1.47,0 c 0.45,0 1.27,-0.3515 1.54,-0.9023 l 21.14,-39.3516 0.17,0 21.13,39.3516 c 0.27,0.5508 1.09,0.9023 1.55,0.9023 l 1.46,0 c 0.73,0 1.54,-0.6328 1.64,-1.4531 l 10.29,-61.19921 c 0.18,-1.19141 -0.64,-2 -1.73,-2 l -10.75,0 c -0.82,0 -1.63,0.73047 -1.72,1.44922 l -4.11,28.14059 -0.18,0 -15.3,-29.49997 c -0.27,-0.55078 -1.09,-1.00781 -1.55,-1.00781 l -1.63,0 c -0.55,0 -1.28,0.45703 -1.55,1.00781 l -15.4,29.49997 -0.18,0 -4.01,-28.14059 c -0.09,-0.71875 -0.81,-1.44922 -1.72,-1.44922 l -10.75,0 c -1.09,0 -1.91,0.80859 -1.73,2 l 10.29,61.19921 0,0" /><path
             id="path132"
             style="fill:#80cc2a;fill-opacity:1;fill-rule:nonzero;stroke:none"
             d="m 1193.17,65.1992 c 0,0.9102 0.83,1.7305 1.74,1.7305 l 11.2,0 c 1,0 1.73,-0.8203 1.73,-1.7305 l 0,-36.8906 c 0,-6.3789 4.73,-11.4688 11.21,-11.4688 6.55,0 11.38,5.0899 11.38,11.4688 l 0,36.8906 c 0,0.9102 0.72,1.7305 1.72,1.7305 l 11.21,0 c 0.91,0 1.73,-0.8203 1.73,-1.7305 l 0,-37.6211 c 0,-13.8398 -11.66,-25.31638 -26.04,-25.31638 -14.3,0 -25.88,11.47658 -25.88,25.31638 l 0,37.6211" /><path
             id="path134"
             style="fill:#80cc2a;fill-opacity:1;fill-rule:nonzero;stroke:none"
             d="m 1265.78,66.1992 c 0,0.9102 0.82,1.6328 1.73,1.6328 l 2.27,0 36.34,-34.9609 0.09,0 0,32.3281 c 0,0.9102 0.74,1.7305 1.74,1.7305 l 10.93,0 c 0.9,0 1.73,-0.8203 1.73,-1.7305 l 0,-61.28904 c 0,-0.91016 -0.83,-1.64844 -1.73,-1.64844 l -1.47,0 c -0.26,0 -1,0.26953 -1.18,0.45703 l -35.97,36.16015 -0.09,0 0,-33.98046 c 0,-0.91016 -0.73,-1.71875 -1.73,-1.71875 l -10.84,0 c -0.91,0 -1.73,0.80859 -1.73,1.71875 l -0.09,61.30076 0,0" /><path
             id="path136"
             style="fill:#80cc2a;fill-opacity:1;fill-rule:nonzero;stroke:none"
             d="m 1342.14,65.1992 c 0,0.9102 0.81,1.7305 1.72,1.7305 l 10.93,0 c 0.92,0 1.73,-0.8203 1.73,-1.7305 l 0,-60.30076 c 0,-0.91016 -0.81,-1.71875 -1.73,-1.71875 l -10.93,0 c -0.91,0 -1.72,0.80859 -1.72,1.71875 l 0,60.30076" /><path
             id="path138"
             style="fill:#80cc2a;fill-opacity:1;fill-rule:nonzero;stroke:none"
             d="m 1385.58,53.5391 -13.03,0 c -1,0 -1.73,0.8203 -1.73,1.7304 l 0,9.9297 c 0,0.9102 0.73,1.7305 1.73,1.7305 l 40.44,0 c 1,0 1.73,-0.8203 1.73,-1.7305 l 0,-9.9297 c 0,-0.9101 -0.73,-1.7304 -1.73,-1.7304 l -13.03,0 0,-48.64066 c 0,-0.91016 -0.81,-1.71875 -1.73,-1.71875 l -10.93,0 c -0.9,0 -1.72,0.80859 -1.72,1.71875 l 0,48.64066" /><path
             id="path140"
             style="fill:#80cc2a;fill-opacity:1;fill-rule:nonzero;stroke:none"
             d="m 1445.23,33.8711 -20.13,30.4101 c -0.73,1.1876 0,2.6485 1.46,2.6485 l 11.84,0 c 0.73,0 1.19,-0.4609 1.46,-0.8203 l 12.65,-18.668 12.66,18.668 c 0.28,0.3594 0.65,0.8203 1.46,0.8203 l 11.84,0 c 1.46,0 2.19,-1.4609 1.46,-2.6485 l -20.4,-30.3203 0,-29.06246 c 0,-0.91016 -0.82,-1.71875 -1.73,-1.71875 l -10.85,0 c -0.99,0 -1.72,0.80859 -1.72,1.71875 l 0,28.97266" /><path
             id="path142"
             style="fill:#80cc2a;fill-opacity:1;fill-rule:nonzero;stroke:none"
             d="m 1520.96,65.1992 c 0,0.9102 0.72,1.7305 1.73,1.7305 l 37.7,0 c 1,0 1.73,-0.8203 1.73,-1.7305 l 0,-9.9297 c 0,-0.9101 -0.73,-1.7304 -1.73,-1.7304 l -25.23,0 0,-13.1172 20.77,0 c 0.91,0 1.73,-0.8125 1.73,-1.7227 l 0,-9.9375 c 0,-0.9101 -0.82,-1.7226 -1.73,-1.7226 l -20.77,0 0,-22.14066 c 0,-0.91016 -0.82,-1.71875 -1.73,-1.71875 l -10.74,0 c -1.01,0 -1.73,0.80859 -1.73,1.71875 l 0,60.30076" /><path
             id="path144"
             style="fill:#80cc2a;fill-opacity:1;fill-rule:nonzero;stroke:none"
             d="m 1605.29,67.832 c 18.22,0 32.79,-14.6601 32.79,-32.8711 0,-18.2226 -14.57,-32.69918 -32.79,-32.69918 -18.21,0 -32.69,14.47658 -32.69,32.69918 0,18.211 14.48,32.8711 32.69,32.8711 l 0,0 z m 0,-50.9922 c 10.02,0 18.22,8.1914 18.22,18.1211 0,10.0196 -8.2,18.3086 -18.22,18.3086 -9.92,0 -18.12,-8.289 -18.12,-18.3086 0,-9.9297 8.2,-18.1211 18.12,-18.1211 l 0,0" /><path
             id="path146"
             style="fill:#80cc2a;fill-opacity:1;fill-rule:nonzero;stroke:none"
             d="m 1683.87,67.832 c 18.21,0 32.78,-14.6601 32.78,-32.8711 0,-18.2226 -14.57,-32.69918 -32.78,-32.69918 -18.22,0 -32.7,14.47658 -32.7,32.69918 0,18.211 14.48,32.8711 32.7,32.8711 l 0,0 z m 0,-50.9922 c 10.02,0 18.21,8.1914 18.21,18.1211 0,10.0196 -8.19,18.3086 -18.21,18.3086 -9.93,0 -18.13,-8.289 -18.13,-18.3086 0,-9.9297 8.2,-18.1211 18.13,-18.1211 l 0,0" /><path
             id="path148"
             style="fill:#80cc2a;fill-opacity:1;fill-rule:nonzero;stroke:none"
             d="m 1733.9,65.1992 c 0,0.9102 0.72,1.7305 1.64,1.7305 l 22.22,0 c 17.58,0 31.96,-14.3008 31.96,-31.7891 0,-17.6718 -14.38,-31.96091 -31.96,-31.96091 l -22.22,0 c -0.92,0 -1.64,0.80859 -1.64,1.71875 l 0,60.30076 z m 22.95,-48.539 c 10.29,0 17.75,8.1015 17.75,18.4804 0,10.3008 -7.46,18.3985 -17.75,18.3985 l -8.75,0 0,-36.8789 8.75,0 0,0" /><path
             id="path150"
             style="fill:#80cc2a;fill-opacity:1;fill-rule:nonzero;stroke:none"
             d="m 1862.79,67.832 c 9.11,0 15.86,-2.8125 22.04,-8.4609 0.82,-0.7305 0.82,-1.832 0.1,-2.5508 l -7.11,-7.3789 c -0.63,-0.6406 -1.63,-0.6406 -2.28,0 -3.36,3.0078 -7.82,4.6406 -12.28,4.6406 -10.3,0 -17.86,-8.5508 -17.86,-18.75 0,-10.1211 7.65,-18.4922 17.94,-18.4922 4.28,0 8.93,1.5391 12.2,4.3711 0.65,0.5391 1.83,0.5391 2.37,-0.1015 l 7.11,-7.5508 c 0.63,-0.6367 0.55,-1.8203 -0.09,-2.457 -6.2,-6.01176 -14.03,-8.83988 -22.14,-8.83988 -18.21,0 -32.87,14.47658 -32.87,32.69918 0,18.211 14.66,32.8711 32.87,32.8711 l 0,0" /><path
             id="path152"
             style="fill:#80cc2a;fill-opacity:1;fill-rule:nonzero;stroke:none"
             d="m 1901.39,65.1992 c 0,0.9102 0.71,1.7305 1.72,1.7305 l 37.7,0 c 1.01,0 1.74,-0.8203 1.74,-1.7305 l 0,-9.9297 c 0,-0.9101 -0.73,-1.7304 -1.74,-1.7304 l -25.23,0 0,-11.2891 20.77,0 c 0.91,0 1.73,-0.8281 1.73,-1.7383 l 0,-9.9219 c 0,-1 -0.82,-1.7304 -1.73,-1.7304 l -20.77,0 0,-12.3008 25.23,0 c 1.01,0 1.74,-0.8086 1.74,-1.7266 l 0,-9.93356 c 0,-0.91016 -0.73,-1.71875 -1.74,-1.71875 l -37.7,0 c -1.01,0 -1.72,0.80859 -1.72,1.71875 l 0,60.30076" /><path
             id="path154"
             style="fill:#80cc2a;fill-opacity:1;fill-rule:nonzero;stroke:none"
             d="m 1961.36,66.1992 c 0,0.9102 0.83,1.6328 1.74,1.6328 l 2.27,0 36.34,-34.9609 0.09,0 0,32.3281 c 0,0.9102 0.73,1.7305 1.73,1.7305 l 10.93,0 c 0.91,0 1.73,-0.8203 1.73,-1.7305 l 0,-61.28904 c 0,-0.91016 -0.82,-1.64844 -1.73,-1.64844 l -1.46,0 c -0.27,0 -1,0.26953 -1.18,0.45703 l -35.97,36.16015 -0.09,0 0,-33.98046 c 0,-0.91016 -0.73,-1.71875 -1.74,-1.71875 l -10.83,0 c -0.91,0 -1.73,0.80859 -1.73,1.71875 l -0.1,61.30076 0,0" /><path
             id="path156"
             style="fill:#80cc2a;fill-opacity:1;fill-rule:nonzero;stroke:none"
             d="m 2045.36,53.5391 -13.03,0 c -0.99,0 -1.73,0.8203 -1.73,1.7304 l 0,9.9297 c 0,0.9102 0.74,1.7305 1.73,1.7305 l 40.44,0 c 1.01,0 1.73,-0.8203 1.73,-1.7305 l 0,-9.9297 c 0,-0.9101 -0.72,-1.7304 -1.73,-1.7304 l -13.02,0 0,-48.64066 c 0,-0.91016 -0.82,-1.71875 -1.74,-1.71875 l -10.92,0 c -0.91,0 -1.73,0.80859 -1.73,1.71875 l 0,48.64066" /><path
             id="path158"
             style="fill:#80cc2a;fill-opacity:1;fill-rule:nonzero;stroke:none"
             d="m 2088.89,65.1992 c 0,0.9102 0.72,1.7305 1.72,1.7305 l 27.23,0 c 10.93,0 19.86,-8.8281 19.86,-19.6797 0,-8.3711 -5.55,-15.1211 -13.48,-18.3008 L 2136.7,5.80859 c 0.63,-1.17968 0,-2.6289 -1.56,-2.6289 l -12.11,0 c -0.72,0 -1.27,0.44922 -1.45,0.80859 l -12.11,24.14062 -6.29,0 0,-23.23046 c 0,-0.91016 -0.82,-1.71875 -1.73,-1.71875 l -10.84,0 c -1,0 -1.72,0.80859 -1.72,1.71875 l 0,60.30076 z m 27.77,-25.5 c 3.73,0 6.92,3.461 6.92,7.2813 0,3.8281 -3.19,6.9179 -6.92,6.9179 l -13.48,0 0,-14.1992 13.48,0 0,0" /><path
             id="path160"
             style="fill:#80cc2a;fill-opacity:1;fill-rule:nonzero;stroke:none"
             d="m 2155.84,65.1992 c 0,0.9102 0.73,1.7305 1.73,1.7305 l 37.7,0 c 1.01,0 1.74,-0.8203 1.74,-1.7305 l 0,-9.9297 c 0,-0.9101 -0.73,-1.7304 -1.74,-1.7304 l -25.22,0 0,-11.2891 20.77,0 c 0.91,0 1.73,-0.8281 1.73,-1.7383 l 0,-9.9219 c 0,-1 -0.82,-1.7304 -1.73,-1.7304 l -20.77,0 0,-12.3008 25.22,0 c 1.01,0 1.74,-0.8086 1.74,-1.7266 l 0,-9.93356 c 0,-0.91016 -0.73,-1.71875 -1.74,-1.71875 l -37.7,0 c -1,0 -1.73,0.80859 -1.73,1.71875 l 0,60.30076" /><path
             id="path162"
             style="fill:#80cc2a;fill-opacity:1;fill-rule:nonzero;stroke:none"
             d="m 2212.46,11.8203 4.28,7.5703 c 0.74,1.1797 2.46,1 3.1,0.5391 0.36,-0.1797 6.92,-5.0078 12.93,-5.0078 3.64,0 6.29,2.2773 6.29,5.4687 0,3.8203 -3.19,6.7383 -9.38,9.1992 -7.84,3.0899 -17.67,9.1993 -17.67,20.1211 0,9.0196 7.01,18.1211 21.03,18.1211 9.48,0 16.76,-4.8203 19.49,-6.8203 1.1,-0.6406 0.92,-2.2812 0.55,-2.9101 l -4.64,-7.0196 c -0.64,-1.0039 -2.28,-1.8203 -3.1,-1.1836 -0.82,0.4532 -7.46,5.461 -13.02,5.461 -3.28,0 -5.74,-2.1875 -5.74,-4.6485 0,-3.3711 2.73,-5.9218 9.93,-8.832 7.1,-2.8203 18.39,-8.3789 18.39,-20.7695 0,-9.3711 -8.11,-18.84768 -21.49,-18.84768 -11.84,0 -18.4,4.91797 -20.49,7.00781 -0.91,0.92187 -1.18,1.28127 -0.46,2.55077 l 0,0" /><path
             id="path164"
             style="fill:#80cc2a;fill-opacity:1;fill-rule:nonzero;stroke:none"
             d="m 2327.99,67.832 c 9.11,0 15.84,-2.8125 22.04,-8.4609 0.81,-0.7305 0.81,-1.832 0.09,-2.5508 l -7.1,-7.3789 c -0.65,-0.6406 -1.65,-0.6406 -2.28,0 -3.37,3.0078 -7.83,4.6406 -12.3,4.6406 -10.29,0 -17.85,-8.5508 -17.85,-18.75 0,-10.1211 7.65,-18.4922 17.94,-18.4922 4.28,0 8.93,1.5391 12.21,4.3711 0.63,0.5391 1.81,0.5391 2.37,-0.1015 l 7.1,-7.5508 c 0.63,-0.6367 0.54,-1.8203 -0.09,-2.457 -6.2,-6.01176 -14.02,-8.83988 -22.13,-8.83988 -18.22,0 -32.88,14.47658 -32.88,32.69918 0,18.211 14.66,32.8711 32.88,32.8711 l 0,0" /><path
             id="path166"
             style="fill:#80cc2a;fill-opacity:1;fill-rule:nonzero;stroke:none"
             d="m 2360.53,5.55078 28.51,61.28902 c 0.26,0.5508 0.91,0.9922 1.54,0.9922 l 0.91,0 c 0.64,0 1.27,-0.4414 1.55,-0.9922 l 28.51,-61.28902 c 0.55,-1.1914 -0.19,-2.37109 -1.55,-2.37109 l -10.11,0 c -1.63,0 -2.37,0.53906 -3.19,2.26953 l -3.27,7.19918 -24.77,0 -3.29,-7.28902 c -0.45,-1.08985 -1.45,-2.17969 -3.28,-2.17969 l -10.02,0 c -1.36,0 -2.08,1.17969 -1.54,2.37109 l 0,0 z m 37.43,19.48042 -6.92,15.0274 -0.09,0 -6.83,-15.0274 13.84,0 0,0" /><path
             id="path168"
             style="fill:#80cc2a;fill-opacity:1;fill-rule:nonzero;stroke:none"
             d="m 2435.14,66.1992 c 0,0.9102 0.82,1.6328 1.74,1.6328 l 2.27,0 36.33,-34.9609 0.1,0 0,32.3281 c 0,0.9102 0.73,1.7305 1.73,1.7305 l 10.93,0 c 0.91,0 1.73,-0.8203 1.73,-1.7305 l 0,-61.28904 c 0,-0.91016 -0.82,-1.64844 -1.73,-1.64844 l -1.46,0 c -0.27,0 -1,0.26953 -1.18,0.45703 l -35.97,36.16015 -0.09,0 0,-33.98046 c 0,-0.91016 -0.73,-1.71875 -1.74,-1.71875 l -10.83,0 c -0.91,0 -1.73,0.80859 -1.73,1.71875 l -0.1,61.30076 0,0" /><path
             id="path170"
             style="fill:#80cc2a;fill-opacity:1;fill-rule:nonzero;stroke:none"
             d="m 2503.7,5.55078 28.51,61.28902 c 0.27,0.5508 0.91,0.9922 1.54,0.9922 l 0.91,0 c 0.65,0 1.28,-0.4414 1.55,-0.9922 l 28.51,-61.28902 c 0.55,-1.1914 -0.19,-2.37109 -1.55,-2.37109 l -10.11,0 c -1.63,0 -2.37,0.53906 -3.18,2.26953 l -3.28,7.19918 -24.78,0 -3.27,-7.28902 c -0.46,-1.08985 -1.46,-2.17969 -3.29,-2.17969 l -10.01,0 c -1.37,0 -2.09,1.17969 -1.55,2.37109 l 0,0 z m 37.44,19.48042 -6.92,15.0274 -0.1,0 -6.82,-15.0274 13.84,0 0,0" /><path
             id="path172"
             style="fill:#80cc2a;fill-opacity:1;fill-rule:nonzero;stroke:none"
             d="m 2578.4,65.1992 c 0,0.9102 0.73,1.7305 1.64,1.7305 l 22.23,0 c 17.57,0 31.96,-14.3008 31.96,-31.7891 0,-17.6718 -14.39,-31.96091 -31.96,-31.96091 l -22.23,0 c -0.91,0 -1.64,0.80859 -1.64,1.71875 l 0,60.30076 z m 22.95,-48.539 c 10.29,0 17.76,8.1015 17.76,18.4804 0,10.3008 -7.47,18.3985 -17.76,18.3985 l -8.74,0 0,-36.8789 8.74,0 0,0" /><path
             id="path174"
             style="fill:#80cc2a;fill-opacity:1;fill-rule:nonzero;stroke:none"
             d="m 2640.71,5.55078 28.51,61.28902 c 0.27,0.5508 0.92,0.9922 1.55,0.9922 l 0.91,0 c 0.64,0 1.27,-0.4414 1.54,-0.9922 l 28.51,-61.28902 c 0.55,-1.1914 -0.18,-2.37109 -1.54,-2.37109 l -10.12,0 c -1.63,0 -2.36,0.53906 -3.18,2.26953 l -3.28,7.19918 -24.77,0 -3.28,-7.28902 c -0.45,-1.08985 -1.46,-2.17969 -3.28,-2.17969 l -10.02,0 c -1.37,0 -2.09,1.17969 -1.55,2.37109 l 0,0 z m 37.44,19.48042 -6.92,15.0274 -0.1,0 -6.82,-15.0274 13.84,0 0,0" /><path
             id="path176"
             style="fill:#65686d;fill-opacity:1;fill-rule:nonzero;stroke:none"
             d="M 0.183594,5.55078 28.6836,66.8398 c 0.2734,0.5508 0.9141,0.9922 1.5508,0.9922 l 0.9062,0 c 0.6446,0 1.2774,-0.4414 1.5508,-0.9922 L 61.1992,5.55078 C 61.7461,4.35938 61.0156,3.17969 59.6523,3.17969 l -10.1093,0 c -1.6368,0 -2.3672,0.53906 -3.1875,2.26953 l -3.2774,7.19918 -24.7734,0 -3.2774,-7.28902 C 14.5703,4.26953 13.5664,3.17969 11.7461,3.17969 l -10.01954,0 c -1.367185,0 -2.089841,1.17969 -1.542966,2.37109 l 0,0 z M 37.6133,25.0312 l -6.9219,15.0274 -0.0937,0 -6.8282,-15.0274 13.8438,0 0,0" /><path
             id="path178"
             style="fill:#b3b3b0;fill-opacity:1;fill-rule:nonzero;stroke:none"
             d="m 2314.88,776.246 c -11.68,-25.598 43.43,-96.836 69.64,-136.164 26.22,-39.32 59.65,-123.672 72.76,-142.402 13.11,-18.719 76.92,-135.121 82.11,-166.301 4.61,-27.649 -145.05,-24.949 -197.48,-24.949 -52.43,0 16.59,-104.36 63.4,-98.739 46.81,5.618 125.51,4.161 150.71,7.27 23.83,2.949 61.92,-6.41 77.7,-7.012 20.79,-0.801 74.32,1.09 68.56,34.301 -5.42,31.18 5.13,34.219 -4.9,64.18 -10.02,29.961 -46.06,87.429 -84.75,129.871 -38.7,42.449 -126.86,226.418 -141.84,252.64 -14.98,26.207 -112.78,283.997 -131.82,227.543 -1.49,-4.425 15.38,-53.742 -24.09,-140.238" /></g></g></g></g></svg>