<?xml version="1.0" encoding="UTF-8" standalone="no"?>
<svg
   xmlns:dc="http://purl.org/dc/elements/1.1/"
   xmlns:cc="http://creativecommons.org/ns#"
   xmlns:rdf="http://www.w3.org/1999/02/22-rdf-syntax-ns#"
   xmlns:svg="http://www.w3.org/2000/svg"
   xmlns="http://www.w3.org/2000/svg"
   viewBox="0 0 1122.52 793.70667"
   height="793.70667"
   width="1122.52"
   xml:space="preserve"
   version="1.1"
   id="svg2"><metadata
     id="metadata8"><rdf:RDF><cc:Work
         rdf:about=""><dc:format>image/svg+xml</dc:format><dc:type
           rdf:resource="http://purl.org/dc/dcmitype/StillImage" /></cc:Work></rdf:RDF></metadata><defs
     id="defs6"><clipPath
       id="clipPath18"
       clipPathUnits="userSpaceOnUse"><path
         id="path20"
         d="M 0,5952.8 0,0 l 8418.9,0 0,5952.8 -8418.9,0 z" /></clipPath><clipPath
       id="clipPath58"
       clipPathUnits="userSpaceOnUse"><path
         id="path60"
         d="m 656.066,4001.62 0,-3229.819 6022.614,0 0,3229.819 -6022.614,0 z" /></clipPath><clipPath
       id="clipPath70"
       clipPathUnits="userSpaceOnUse"><path
         id="path72"
         d="M 0,5952.8 0,0 l 8418.9,0 0,5952.8 -8418.9,0 z" /></clipPath><clipPath
       id="clipPath82"
       clipPathUnits="userSpaceOnUse"><path
         id="path84"
         d="m 656.066,4001.62 0,-3229.819 6022.614,0 0,3229.819 -6022.614,0 z" /></clipPath><clipPath
       id="clipPath92"
       clipPathUnits="userSpaceOnUse"><path
         id="path94"
         d="M 0,5952.8 0,0 l 8418.9,0 0,5952.8 -8418.9,0 z" /></clipPath></defs><g
     transform="matrix(1.3333333,0,0,-1.3333333,0,793.70667)"
     id="g10"><g
       transform="scale(0.1)"
       id="g12"><g
         id="g14"><g
           clip-path="url(#clipPath18)"
           id="g16"><path
             id="path22"
             style="fill:#ffffff;fill-opacity:1;fill-rule:nonzero;stroke:none"
             d="m 1186.15,3157.47 c 51.67,-56.93 85.18,-100.67 100.46,-131.23 4.93,-8.21 9.05,-16.9 12.35,-26.08 2.24,-6.68 3.39,-10.46 3.46,-11.32 0.47,-5.96 -3.38,-11.86 -11.5,-17.65 -17.12,-11.64 -35.49,-18.24 -55.12,-19.78 -9.4,-0.73 -22.82,0.79 -40.29,4.57 -34.29,10.19 -57.91,21.22 -70.86,33.08 -1.93,2.43 -16.95,13.26 -45.06,32.53 -12.77,9.31 -21.15,17.67 -25.15,25.08 -0.99,1.63 -2.72,4.29 -5.14,7.97 -2.43,3.67 -4.62,6.92 -6.56,9.79 -1.96,2.84 -3.87,5.49 -5.77,7.92 -12.17,12.77 -32.67,44.23 -61.505,94.36 -6.981,12.33 -11.078,20.58 -12.25,24.8 -0.918,0.76 -1.926,2.42 -2.961,4.92 l -1.582,3.74 c -5.656,6.41 -8.617,11.33 -8.887,14.75 l -0.101,1.29 c -7.582,8.84 -15.922,22.35 -25.079,40.54 -13.437,17.81 -21.117,28.38 -23.093,31.67 -4.75,5.62 -12.465,16.61 -23.196,32.96 -10.742,16.32 -20.91,30.98 -30.5,43.98 -9.601,12.97 -18.515,22.57 -26.734,28.81 -2.559,-0.2 -4.227,-3.55 -5.008,-10.05 -0.777,-6.5 -1.172,-15.35 -1.14,-26.49 l -0.075,-15.47 c 1.059,-90.08 2.625,-148.37 4.7,-174.8 l 0.8,-10.25 0.403,-5.12 c 1.004,-12.8 1.543,-30.59 1.609,-53.33 0.051,-22.76 0.402,-37.96 1.004,-45.64 0.82,-32.59 1.926,-57.4 3.266,-74.46 l 1.808,-23.04 c 0.805,-10.24 2.457,-20.61 5.02,-31.16 2.543,-10.53 4.148,-20.06 4.82,-28.61 l 0.504,-6.4 c 0.535,-6.82 -1.883,-17.09 -7.242,-30.84 -5.363,-13.72 -10.574,-21.21 -15.625,-22.47 -3.348,-1.11 -8.028,-1.92 -13.981,-2.39 l -2.562,-0.2 -14.082,-1.11 c -3.414,-0.26 -8.946,-0.89 -16.594,-1.94 -7.645,-1.02 -13.602,-1.71 -17.871,-2.05 -5.121,-0.4 -12.867,-0.14 -23.242,0.76 -8.672,1.05 -14.797,2.28 -18.324,3.71 -14.125,4.91 -22.293,21.44 -24.504,49.6 -0.336,4.29 -0.657,10.9 -0.914,19.89 -0.278,9 -0.582,15.64 -0.918,19.9 l -0.098,1.28 c -3.953,6.58 -6.094,11.98 -6.43,16.24 l -0.199,2.56 c 0.699,1.79 1.043,3.1 0.977,3.94 1.492,13.84 1.699,27.6 0.628,41.27 l -2.714,34.56 c -0.434,16.27 -0.36,42.9 0.175,79.88 1.504,46.48 2.055,83.01 1.704,109.62 0.585,47.25 0.511,75.58 -0.227,84.99 -0.168,12.87 -0.098,31.33 0.16,55.4 0.246,24.05 -0.078,42.05 -1.015,54.02 -1.188,47.98 -1.723,76.7 -1.61,86.17 1.039,8.65 1.133,20.9 0.34,36.74 -0.813,15.81 -1.027,26.75 -0.641,32.8 2.075,49.95 1.731,92.87 -1.086,128.72 -1.468,18.76 -1.906,46.22 -1.304,82.33 0.582,36.11 0.265,62.27 -1.004,78.5 -0.438,27.43 1.664,49.91 6.297,67.47 3.531,9.71 8.117,16.93 13.754,21.69 16.336,10.72 30.902,16.59 43.703,17.6 0.836,0.06 2.578,-0.03 5.172,-0.24 2.593,-0.25 4.316,-0.31 5.172,-0.24 4.332,-0.53 10.765,-0.44 19.3,0.22 5.957,0.47 14.856,2.01 26.684,4.67 13.504,2.77 33.922,5.24 61.25,7.39 27.308,2.14 47.859,2.88 61.648,2.26 24.016,0.14 42.106,-0.56 54.27,-2.19 30.41,-4.5 68.97,-19.93 115.7,-46.31 3.46,-0.59 10.64,-4.31 21.49,-11.19 40.88,-28.58 70.87,-60.58 89.96,-95.99 1.98,-3.29 7.69,-13.37 17.18,-30.21 9.48,-16.87 16.33,-30.27 20.55,-40.25 6.33,-14.96 10.09,-30.12 11.3,-45.48 2.07,-26.47 -2.52,-50.02 -13.78,-70.64 -13.42,-25.97 -29.84,-46.58 -49.25,-61.83 -10.56,-7.71 -24.51,-21.69 -41.79,-41.92 -5.44,-7.31 -18.79,-17.8 -40.04,-31.48 -5.77,-3.03 -13.99,-7.98 -24.6,-14.81 -10.63,-6.85 -18.81,-12.22 -24.5,-16.09 -8.2,-4.95 -14.66,-10.16 -19.38,-15.69 -2.36,-2.76 -6.85,-5.69 -13.48,-8.78 -6.64,-3.1 -9.8,-6.37 -9.54,-9.77 l 0.31,-3.84 0.1,-1.28 c 41.03,-52.61 70.18,-95.83 87.45,-129.67 19.15,-36.3 43.93,-73 74.33,-110.1 5.66,-6.44 11.07,-15.45 16.3,-27.06 l 0,0 z m -208.81,461.5 c 27.39,22.75 47.47,40.63 60.19,53.66 15.86,16.71 23.16,33.16 21.89,49.38 -0.4,5.12 -2.19,11.42 -5.35,18.9 -2.13,4.99 -4.19,12.33 -6.24,22.05 -2.05,9.7 -4.46,18.33 -7.18,25.85 -2.73,7.51 -6.47,14.08 -11.21,19.73 -22.96,29.95 -51.545,49.6 -85.768,58.96 -28.902,7.17 -59.567,9.49 -92,6.95 -19.649,-1.54 -34.07,-3.54 -43.324,-5.98 -14.328,-3.7 -20.895,-12.81 -19.754,-27.31 l 0.5,-6.4 c 1.304,-5.92 2.484,-15.26 3.492,-28.06 0.535,-6.85 1.191,-17.94 1.969,-33.34 0.761,-15.39 1.437,-26.51 1.972,-33.33 1.071,-13.67 1.809,-33.99 2.211,-61.01 0.383,-27.02 1.141,-47.38 2.207,-61.01 l 0.504,-6.4 2.309,-29.45 1.508,-19.2 c 0.738,-9.41 4.5,-13.82 11.347,-13.28 0.836,0.07 3.774,1.14 8.758,3.26 1.645,0.97 4.086,2.68 7.332,5.09 3.227,2.38 6.293,4.36 9.199,5.87 2.887,1.52 6.036,2.41 9.45,2.67 9.253,2.44 17.078,6.5 23.519,12.15 2.359,2.77 9.43,5.45 21.262,8.11 40.363,10.9 67.418,21.59 81.207,32.14 l 0,0" /><path
             id="path24"
             style="fill:#ffffff;fill-opacity:1;fill-rule:nonzero;stroke:none"
             d="m 1748.59,3105.6 c 38.53,-23.98 68.06,-48.8 88.61,-74.48 7.7,-8.57 11.55,-16.69 11.55,-24.4 0,-5.13 -2.56,-12.84 -7.7,-23.11 -15.41,-29.09 -41.54,-45.78 -78.33,-50.08 -77.05,-8.54 -142.11,-12.84 -195.19,-12.84 -26.54,0 -57.78,-2.13 -93.74,-6.42 l -17.98,0 c -43.66,0 -79.61,20.99 -107.86,62.92 -2.57,4.27 -7.28,10.69 -14.13,19.26 -13.7,16.25 -20.55,35.96 -20.55,59.07 0,12.84 1.72,24.4 5.14,34.67 3.41,13.68 5.14,23.54 5.14,29.54 l 0,7.7 c -0.86,3.41 -1.29,8.54 -1.29,15.41 0,10.27 1.72,26.52 5.14,48.8 2.57,19.68 4.69,50.08 6.42,91.17 5.14,87.32 8.13,152.81 8.99,196.47 l 0,73.2 c 0,9.4 0.43,22.89 1.28,40.45 0.84,17.53 1.29,30.59 1.29,39.16 l 0,8.99 c 0,3.41 -0.45,5.98 -1.29,7.71 -5.13,11.11 -7.7,27.8 -7.7,50.08 l 0,39.8 c -5.14,16.25 -7.71,32.95 -7.71,50.09 0,10.27 0.43,18.39 1.29,24.39 2.57,23.12 3.85,35.09 3.85,35.96 0,17.98 -2.14,33.39 -6.42,46.23 -1.73,6.84 -2.57,12.39 -2.57,16.69 0,22.25 12.84,38.08 38.53,47.51 17.97,5.98 32.53,8.99 43.65,8.99 11.12,0 23.96,-2.15 38.53,-6.42 9.42,-2.57 22.9,-4.07 40.45,-4.49 17.53,-0.45 29.32,-1.09 35.31,-1.93 12.84,0 31.02,-0.22 54.58,-0.64 23.54,-0.45 41.73,-0.64 54.57,-0.64 l 24.4,0 c 18.82,0 35.1,-6.42 48.8,-19.26 6.85,-6.01 18.17,-13.29 34.03,-21.83 15.84,-8.57 25.47,-13.71 28.89,-15.41 13.68,-7.71 22.67,-17.98 26.97,-30.82 2.57,-7.71 3.85,-14.57 3.85,-20.55 0,-12.84 -4.3,-23.76 -12.84,-32.74 -8.56,-8.99 -20.12,-13.93 -34.67,-14.77 -6,-0.87 -14.98,-1.29 -26.97,-1.29 -1.73,0 -4.3,0.2 -7.7,0.65 -3.43,0.42 -6,0.64 -7.71,0.64 -8.56,0.84 -21.4,1.28 -38.52,1.28 l -30.82,0 c -20.55,0 -35.96,0.84 -46.23,2.57 -60.8,7.71 -99.32,14.13 -115.57,19.26 -1.73,0 -3.85,0.42 -6.42,1.29 -2.57,0.84 -4.94,1.48 -7.06,1.92 -2.14,0.42 -4.07,0.65 -5.78,0.65 -6,0 -10.72,-1.29 -14.13,-3.86 0,-2.57 -0.85,-3.85 -2.57,-3.85 0,-0.87 -0.21,-2.37 -0.64,-4.49 -0.44,-2.15 -0.64,-3.66 -0.64,-4.5 0,-4.3 0.84,-11.56 2.57,-21.83 1.71,-14.57 3.21,-35.95 4.49,-64.2 1.29,-28.25 1.93,-45.4 1.93,-51.37 1.71,-4.3 3.85,-16.69 6.42,-37.24 3.41,-23.98 6.85,-41.54 10.27,-52.65 5.98,-18.84 9.83,-38.97 11.56,-60.35 1.71,-12 6.42,-21.41 14.12,-28.25 10.28,0 31.25,-3.02 62.93,-8.99 25.68,-4.3 40.64,-6.42 44.94,-6.42 16.25,0 31.25,2.57 44.94,7.7 5.14,1.71 9.42,2.57 12.85,2.57 5.13,0 9.41,-1.73 12.84,-5.14 1.71,-0.86 9.82,-7.06 24.4,-18.62 14.55,-11.55 25.23,-21.18 32.1,-28.89 11.11,-12.84 16.69,-23.11 16.69,-30.82 0,-1.73 -0.85,-5.14 -2.57,-10.27 -7.7,-17.14 -21.83,-28.25 -42.37,-33.39 -17.98,-4.3 -39.38,-6.42 -64.21,-6.42 l -32.1,0 c -9.44,0 -23.76,0.42 -43.02,1.29 -19.26,0.83 -33.6,1.28 -43.02,1.28 l -1.28,0 c -12.01,0 -17.98,-6 -17.98,-17.98 l 1.28,-1.28 0,-1.29 c 0.84,-13.7 1.29,-34.67 1.29,-62.92 l 0,-116.85 c 0,-3.44 -0.22,-8.15 -0.64,-14.13 -0.45,-6 -0.65,-10.72 -0.65,-14.12 0,-14.58 6.85,-23.12 20.55,-25.69 15.41,-2.56 30.82,-3.85 46.23,-3.85 8.54,0 22.26,0.84 41.09,2.57 18.82,1.7 33.39,2.57 43.66,2.57 1.71,0 4.5,-0.23 8.35,-0.65 3.85,-0.44 6.62,-0.64 8.34,-0.64 5.14,2.57 13.27,3.86 24.4,3.86 l 8.99,0 c 5.98,0 10.7,0.41 14.13,1.28 5.13,2.57 10.27,3.85 15.41,3.85 6.85,0 13.68,-2.15 20.54,-6.42 l 0,0" /><path
             id="path26"
             style="fill:#ffffff;fill-opacity:1;fill-rule:nonzero;stroke:none"
             d="m 2225,3409.64 c 5.98,-13.71 11.56,-35.12 16.7,-64.21 3.4,-16.28 5.13,-34.67 5.13,-55.22 0,-25.68 -4.3,-63.36 -12.84,-113 -6.86,-36.82 -18.83,-70.63 -35.95,-101.45 -3.43,-11.14 -9.44,-21.41 -17.98,-30.82 -1.73,-6 -4.3,-11.13 -7.71,-15.41 -32.54,-42.79 -64.2,-77.46 -95.02,-104.01 -8.56,-6.84 -13.7,-12.84 -15.41,-17.98 -0.86,-2.57 -4.3,-5.97 -10.27,-10.27 -13.7,-11.98 -21.41,-18.82 -23.12,-20.55 -3.42,-5.13 -7.7,-7.7 -12.84,-7.7 -5.99,0 -10.27,0.45 -12.84,1.28 -2.57,0.87 -8.79,3.02 -18.62,6.42 -9.85,3.44 -17.78,5.59 -23.76,6.42 -2.56,0 -4.71,0.45 -6.42,1.29 -3.42,1.73 -9.2,3.85 -17.33,6.42 -8.15,2.57 -14.98,5.36 -20.55,8.35 -5.58,3.01 -9.63,7.92 -12.2,14.76 -11.13,30.82 -16.69,49.66 -16.69,56.5 0,16.28 -3.85,32.11 -11.56,47.52 0,0.84 -0.64,2.57 -1.92,5.13 -1.29,2.57 -1.93,4.28 -1.93,5.14 0,4.27 2.12,7.7 6.42,10.27 7.7,22.25 27.8,36.38 60.35,42.38 13.68,2.57 24.83,8.12 33.39,16.69 33.39,32.53 57.79,63.76 73.2,93.74 15.4,29.09 24.39,52.21 26.96,69.35 l 0,11.55 c 0,11.98 1.72,29.96 5.14,53.94 3.4,23.95 5.14,41.93 5.14,53.93 0,1.7 -0.22,3.85 -0.65,6.42 -0.44,2.57 -0.64,4.27 -0.64,5.14 0,9.41 -3.01,17.53 -8.99,24.4 -10.27,11.11 -17.97,19.26 -23.11,24.39 -47.96,41.94 -80.06,73.2 -96.31,93.74 -11.13,14.55 -17.98,24.82 -20.55,30.82 -18.83,40.23 -28.25,77.89 -28.25,113.01 l 0,10.27 c 0.84,30.82 5.14,67.19 12.84,109.15 2.57,11.11 6.42,21.83 11.56,32.11 23.12,50.5 56.5,93.29 100.16,128.41 25.69,20.54 53.49,34.67 83.47,42.37 3.41,0.84 8.13,1.29 14.12,1.29 11.12,0 18.41,-8.57 21.84,-25.68 0,-1.73 0.83,-4.3 2.56,-7.71 2.57,-5.14 3.86,-10.72 3.86,-16.69 0,-7.71 -3.43,-17.56 -10.28,-29.54 -23.97,-40.25 -47.96,-71.91 -71.91,-95.02 -17.97,-17.14 -31.67,-38.97 -41.09,-65.49 -4.3,-12.85 -6.42,-24.4 -6.42,-34.68 0,-22.27 8.54,-43.24 25.68,-62.92 5.98,-6.86 12.63,-13.93 19.91,-21.19 7.25,-7.28 15.41,-15.21 24.4,-23.75 8.98,-8.57 16.05,-15.41 21.18,-20.55 39.36,-39.39 65.05,-70.62 77.05,-93.74 8.54,-16.27 19.26,-47.96 32.1,-95.02 l 0,0" /><path
             id="path28"
             style="fill:#ffffff;fill-opacity:1;fill-rule:nonzero;stroke:none"
             d="m 2479.27,3938.7 c 2.56,0.83 42.36,6.42 119.41,16.69 22.27,2.57 46.67,8.54 73.2,17.98 0.84,0.84 4.29,1.28 10.27,1.28 35.11,0 60.35,-4.3 75.77,-12.84 11.97,-6.87 19.68,-23.76 23.11,-50.72 3.4,-26.97 5.97,-43.02 7.7,-48.16 4.29,-11.14 6.42,-22.27 6.42,-33.38 0,-12.85 -1.72,-24.4 -5.13,-34.68 -2.58,-9.43 -9.44,-14.99 -20.54,-16.69 -9.45,-1.73 -21.84,-3.43 -37.25,-5.14 -15.4,-2.56 -31.27,-6.64 -47.51,-12.2 -16.26,-5.58 -32.54,-8.79 -48.8,-9.63 -17.14,-0.86 -44.95,-3.01 -83.47,-6.42 -10.28,-0.86 -16.91,-2.57 -19.9,-5.13 -3.01,-2.57 -4.49,-8.99 -4.49,-19.27 l 0,-2.56 c 0,-14.58 0.19,-37.24 0.63,-68.06 0.43,-30.82 0.65,-53.52 0.65,-68.06 l 0,-3.85 c 2.56,-12.01 3.85,-23.12 3.85,-33.39 0,-6.87 -0.44,-17.14 -1.29,-30.82 -0.84,-13.71 -1.27,-23.98 -1.27,-30.82 l 0,-11.56 c 0.83,-10.27 1.27,-26.96 1.27,-50.08 0,-23.11 0.85,-41.09 2.58,-53.93 5.13,-6 7.69,-14.13 7.69,-24.4 l 0,-10.27 c -0.84,-12 -2.77,-28.7 -5.77,-50.08 -3.01,-21.41 -4.94,-36.82 -5.77,-46.23 -1.74,-64.21 -4.72,-105.75 -9,-124.56 -3.43,-49.66 -7.26,-85.62 -11.55,-107.87 -0.86,-3.43 -2.78,-10.07 -5.79,-19.9 -3.01,-9.83 -4.48,-17.76 -4.48,-23.76 l 0,-3.85 c 0,-6.84 -4.71,-13.26 -14.13,-19.26 -5.14,-3.41 -13.28,-11.56 -24.4,-24.4 -10.27,-12.84 -21.4,-19.26 -33.38,-19.26 -8.57,0 -19.27,5.13 -32.11,15.41 -3.42,3.43 -5.14,6.86 -5.14,10.27 0,2.57 0.43,4.72 1.29,6.42 5.14,11.14 7.71,25.68 7.71,43.66 0,8.57 4.68,47.07 14.13,115.57 1.7,10.27 2.56,25.24 2.56,44.95 l 0,50.08 c 0,35.95 -0.86,89.89 -2.56,161.8 0,14.54 -1.1,36.37 -3.21,65.49 -2.15,29.09 -3.66,50.92 -4.5,65.49 0,25.68 -2.14,48.35 -6.42,68.06 l 0,6.42 c 0.82,11.97 1.92,29.95 3.21,53.93 1.27,23.95 1.92,41.93 1.92,53.93 0,3.41 0.43,5.56 1.29,6.42 0,0.84 0.2,1.93 0.64,3.21 0.43,1.29 0.65,2.35 0.65,3.21 l 0,69.35 c 0,11.97 -4.72,19.68 -14.13,23.11 -41.95,17.98 -85.62,29.96 -130.99,35.96 -7.7,0.84 -23.97,5.55 -48.79,14.12 -12.01,3.41 -18.84,12.4 -20.55,26.97 0,5.97 -0.45,10.27 -1.28,12.84 0,0.84 -0.22,2.12 -0.65,3.85 -0.44,1.71 -0.64,2.99 -0.64,3.86 0,7.7 3.21,17.33 9.63,28.89 6.42,11.56 10.06,18.17 10.92,19.9 5.13,13.68 21.38,22.25 48.79,25.68 6.85,0.84 18.41,1.71 34.68,2.57 16.25,0.84 28.67,2.13 37.24,3.86 l 5.13,0 c 5.15,0 8.98,-0.87 11.56,-2.57 11.98,-7.71 26.97,-11.56 44.95,-11.56 5.97,0 16.69,0.84 32.09,2.57 17.98,2.57 27.39,3.85 28.25,3.85 l 6.42,0 c 1.72,2.57 8.14,5.14 19.28,7.71 l 0,0" /><path
             id="path30"
             style="fill:#ffffff;fill-opacity:1;fill-rule:nonzero;stroke:none"
             d="m 3034.45,3177.82 c -4.29,10.27 -10.27,15.4 -17.96,15.4 l -9,0 c -65.94,-11.13 -103.59,-17.13 -113,-17.97 -12.84,-0.87 -20.12,-10.28 -21.84,-28.25 -4.3,-70.21 -12.4,-137.41 -24.4,-201.61 -0.84,-4.3 -3.01,-10.72 -6.42,-19.26 -4.3,-9.41 -11.99,-14.13 -23.11,-14.13 l -6.41,0 c -20.55,1.73 -42.83,15.41 -66.78,41.09 -25.68,26.52 -45.81,54.77 -60.35,84.76 -6,11.97 -9,22.24 -9,30.82 0,0.83 0.2,1.7 0.65,2.56 0.43,0.84 0.64,1.71 0.64,2.57 0,0.84 -0.21,2.12 -0.64,3.85 -0.45,1.71 -0.65,2.99 -0.65,3.86 0,9.4 2.58,17.11 7.71,23.11 15.42,18.82 25.24,43.21 29.53,73.2 4.28,29.08 23.12,106.13 56.51,231.14 3.4,13.68 9.18,39.16 17.33,76.4 8.14,37.24 15.2,66.14 21.19,86.68 4.29,14.55 8.36,30.18 12.19,46.87 3.86,16.7 7.91,34.87 12.21,54.58 4.29,19.68 7.71,35.09 10.28,46.23 14.55,59.9 34.67,114.28 60.34,163.08 9.43,17.98 22.68,26.97 39.82,26.97 19.68,0 34.22,-9.86 43.65,-29.54 9.41,-17.98 15.42,-36.4 17.98,-55.22 9.41,-63.36 20.1,-114.73 32.11,-154.09 10.27,-33.39 17.97,-67.22 23.11,-101.45 1.7,-12 12.84,-58.65 33.38,-139.97 19.7,-87.32 31.66,-144.26 35.96,-170.79 4.29,-25.68 13.04,-60.8 26.32,-105.29 13.27,-44.53 21.62,-74.06 25.05,-88.61 1.72,-4.3 3.41,-12.42 5.14,-24.4 0,-0.86 0.18,-2.14 0.63,-3.85 0.43,-1.73 0.65,-3.01 0.65,-3.85 0,-17.98 -9.43,-26.97 -28.26,-26.97 l -10.27,0 c -6.87,1.71 -15.62,4.69 -26.32,8.99 -10.72,4.27 -18.2,7.26 -22.48,8.99 -8.55,2.57 -14.56,9.41 -17.96,20.55 -6.87,18.81 -11.57,33.38 -14.13,43.66 -1.74,8.54 -12.85,38.52 -33.4,89.89 l 0,0 z m -139.96,98.87 c 0,-0.86 -0.22,-1.28 -0.65,-1.28 -0.44,0 -0.64,-0.45 -0.64,-1.29 0,-8.56 6.43,-12.84 19.27,-12.84 l 1.27,0 c 46.24,9.41 73.63,15.41 82.2,17.98 9.41,2.57 14.11,8.13 14.11,16.69 0,3.41 -0.43,6.43 -1.27,8.99 -12.84,57.34 -21,90.73 -24.4,100.17 -10.28,36.79 -17.55,68.47 -21.84,95.02 -2.56,20.55 -7.28,51.37 -14.13,92.46 -1.72,5.97 -4.28,8.99 -7.69,8.99 -3.42,0 -6,-3.02 -7.71,-8.99 -0.86,-3.44 -1.93,-8.57 -3.21,-15.41 -1.29,-6.87 -2.38,-13.07 -3.2,-18.62 -0.87,-5.58 -1.29,-10.92 -1.29,-16.05 -0.86,-17.98 -5.13,-61.22 -12.84,-129.7 -8.57,-71.91 -14.57,-117.3 -17.98,-136.12 l 0,0" /><path
             id="path32"
             style="fill:#ffffff;fill-opacity:1;fill-rule:nonzero;stroke:none"
             d="m 3942.89,2884.28 c -5.99,-11.11 -14.13,-16.7 -24.4,-16.7 -1.74,0 -5.99,0.87 -12.84,2.57 -4.3,0.87 -10.71,1.29 -19.27,1.29 l -6.42,0 c -18.82,0 -29.97,8.98 -33.38,26.96 -3.42,16.28 -5.99,40.67 -7.71,73.2 -1.72,27.41 -2.56,68.48 -2.56,123.27 0,15.41 0.2,38.72 0.65,69.99 0.43,31.24 0.62,54.57 0.62,69.98 l 0,11.56 c 0,10.27 -0.19,25.46 -0.62,45.59 -0.45,20.1 -0.65,35.31 -0.65,45.58 l 0,15.41 c 0,31.66 0.43,78.98 1.27,141.9 0.85,62.92 1.29,110.21 1.29,141.89 0,72.75 3,140.81 8.99,204.18 l 3.85,42.38 c 0.84,17.11 9.43,32.94 25.69,47.51 16.25,14.54 31.66,23.95 46.24,28.25 0.82,0 1.91,0.2 3.2,0.64 1.28,0.42 2.35,0.64 3.21,0.64 0.83,0 2.57,-0.44 5.13,-1.28 3.41,-1.73 8.55,-2.57 15.42,-2.57 8.53,0 18.81,3.41 30.82,10.27 11.1,5.98 25.67,8.99 43.65,8.99 7.71,0 18.83,0.65 33.38,1.93 14.56,1.28 25.69,1.93 33.4,1.93 l 8.98,0 c 5.98,0.83 9,0.83 9,0 91.6,-10.28 156.21,-50.95 193.89,-122 17.98,-34.25 26.98,-66.77 26.98,-97.59 0,-20.54 -3.02,-40.25 -9,-59.07 -20.54,-66.77 -47.95,-127.57 -82.18,-182.34 -21.4,-33.39 -47.51,-60.36 -78.32,-80.91 -2.58,-1.73 -6.24,-4.29 -10.92,-7.7 -4.72,-3.43 -7.93,-6 -9.63,-7.7 -11.13,-8.57 -23.57,-14.13 -37.25,-16.7 -13.7,-1.73 -33.38,-6 -59.06,-12.84 -8.57,-2.57 -12.85,-7.28 -12.85,-14.13 0,-2.56 0.84,-6.41 2.58,-11.55 0.83,-1.73 2.56,-4.94 5.13,-9.63 2.56,-4.72 3.85,-8.8 3.85,-12.2 2.57,-6 8.14,-15.41 16.69,-28.25 8.56,-12.84 14.56,-23.12 17.98,-30.82 17.99,-23.98 32.94,-47.1 44.95,-69.34 10.27,-11.14 17.98,-22.28 23.11,-33.39 l 3.85,-3.85 c 10.28,-16.28 26.52,-40.26 48.8,-71.91 22.25,-31.69 41.74,-60.58 58.43,-86.68 16.69,-26.1 31.46,-51.56 44.3,-76.41 4.28,-8.54 6.42,-16.69 6.42,-24.4 0,-17.11 -9.43,-29.09 -28.26,-35.95 -3.42,-1.71 -7.26,-3.21 -11.54,-4.5 -4.3,-1.28 -9.22,-2.57 -14.78,-3.85 -5.57,-1.28 -9.62,-2.35 -12.19,-3.21 -2.58,-0.84 -6,-1.28 -10.27,-1.28 -9.45,0 -19.72,4.71 -30.82,14.12 -19.72,18.84 -37.7,40.25 -53.94,64.21 -29.98,34.25 -47.51,55.21 -52.65,62.92 -7.7,11.11 -19.47,27.39 -35.31,48.8 -15.86,21.38 -27.6,37.24 -35.31,47.51 -3.43,5.14 -9,12.84 -16.69,23.11 -7.71,10.28 -13.3,17.98 -16.69,23.12 -4.31,4.27 -7.28,6.42 -9,6.42 l -2.57,0 c -2.56,-1.73 -4.71,-5.59 -6.42,-11.56 l -1.29,-2.57 c 0,-1.73 0,-3.01 0,-3.85 0,-0.87 0.2,-1.28 0.65,-1.28 0.43,0 0.64,-0.45 0.64,-1.29 0.83,-12 1.92,-32.1 3.21,-60.35 1.28,-28.25 2.77,-49.66 4.5,-64.21 0.83,-5.14 1.28,-12.39 1.28,-21.83 0,-18.81 -5.13,-34.67 -15.4,-47.51 -3.43,-5.14 -5.15,-9.83 -5.15,-14.13 0,-10.27 -5.57,-26.52 -16.69,-48.79 l 0,0 z m 12.84,622.8 c 0.84,-15.41 5.57,-23.12 14.12,-23.12 4.29,0 7.71,0.42 10.28,1.29 9.41,2.57 22.68,6.2 39.81,10.91 17.12,4.69 32.74,8.99 46.87,12.84 14.12,3.86 27.61,7.49 40.44,10.92 6.85,0.84 13.27,5.14 19.27,12.84 16.25,18.82 27.81,34.67 34.68,47.51 11.97,20.55 18.39,37.24 19.25,50.08 0.85,10.28 2.57,42.8 5.15,97.6 l 0,3.85 c 0,24.82 -9.45,44.08 -28.26,57.78 -35.96,24.82 -69.34,42.8 -100.16,53.94 -19.72,7.7 -44.1,11.56 -73.2,11.56 l -1.29,0 c -10.27,0 -17.34,-1.93 -21.17,-5.78 -3.86,-3.86 -6.24,-11.36 -7.07,-22.48 -4.3,-44.52 -6.43,-83.91 -6.43,-118.13 l 0,-17.98 c 0,-4.3 -0.2,-11.14 -0.63,-20.55 -0.45,-9.43 -0.65,-16.27 -0.65,-20.54 0,-9.44 0.44,-16.28 1.28,-20.55 0,-1.73 2.58,-42.38 7.71,-121.99 l 0,0" /><path
             id="path34"
             style="fill:#ffffff;fill-opacity:1;fill-rule:nonzero;stroke:none"
             d="m 4764.73,3252.97 c 2.57,-23.11 8.99,-55.66 19.26,-97.59 10.27,-41.96 16.69,-71.91 19.27,-89.89 1.7,-8.57 2.56,-15.41 2.56,-20.55 0,-10.27 -5.14,-17.55 -15.41,-21.83 -2.57,-1.73 -3.86,-6 -3.86,-12.84 -0.84,-11.13 -4.7,-27.8 -11.54,-50.08 -4.3,-11.97 -12.01,-17.98 -23.11,-17.98 l -2.58,0 c -11.14,0 -19.71,5.59 -25.68,16.7 -8.57,18.84 -14.98,39.8 -19.27,62.92 -11.13,67.61 -18.41,114.71 -21.82,141.25 -1.73,11.98 -6.88,17.98 -15.41,17.98 -4.31,0 -7.71,-0.86 -10.28,-2.57 -39.38,-19.7 -65.49,-30.4 -78.32,-32.1 -3.43,0 -9.22,-0.86 -17.34,-2.57 -8.16,-1.73 -14.34,-3.01 -18.63,-3.85 -13.69,-2.57 -22.26,-11.14 -25.67,-25.68 -23.13,-96.76 -38.53,-154.1 -46.23,-172.08 -0.87,-3.4 -2.57,-5.13 -5.15,-5.13 -0.84,0 -3.01,0.64 -6.42,1.92 -3.42,1.29 -6.42,1.93 -8.98,1.93 -1.74,0 -4.3,-0.84 -7.71,-2.57 -22.26,-3.4 -37.68,-5.13 -46.22,-5.13 -17.15,0 -31.26,4.29 -42.38,12.84 -5.99,5.13 -9,11.13 -9,17.97 l 0,2.57 c 0,17.98 -1.72,33.81 -5.12,47.52 -0.86,2.56 -1.3,6.42 -1.3,11.55 0,2.57 0.85,7.26 2.59,14.13 1.7,5.97 8.53,41.09 20.54,105.3 3.41,18.81 8.98,47.29 16.69,85.39 7.71,38.08 13.68,66.55 17.98,85.39 4.27,20.55 12.19,49.64 23.76,87.32 11.54,37.66 19.45,65.5 23.75,83.47 5.13,23.12 14.33,56.7 27.61,100.81 13.27,44.08 22.46,76.4 27.61,96.95 15.4,73.61 28.68,127.96 39.8,163.08 8.55,29.09 20.55,56.92 35.96,83.47 5.13,8.54 11.57,12.84 19.26,12.84 2.58,0 4.7,-0.44 6.42,-1.28 0.84,-0.87 5.34,-1.93 13.49,-3.21 8.13,-1.29 14.31,-3.66 18.61,-7.07 12,-9.43 20.1,-23.56 24.4,-42.37 21.39,-89.89 32.94,-137.85 34.67,-143.82 0.85,-4.3 4.93,-25.04 12.2,-62.28 7.26,-37.24 14.32,-69.57 21.19,-96.95 0,-2.57 1.49,-10.08 4.5,-22.48 2.99,-12.42 4.5,-22.05 4.5,-28.89 0,-0.86 -0.22,-2.15 -0.65,-3.85 -0.45,-1.73 -0.64,-3.02 -0.64,-3.85 0,-1.74 1.48,-19.27 4.5,-52.65 2.99,-33.39 5.32,-58.66 7.06,-75.77 1.7,-16.27 5.13,-40.67 10.27,-73.19 5.13,-32.55 8.54,-56.95 10.27,-73.2 l 0,0 z m -146.39,29.54 c 14.55,7.7 26.12,12.39 34.67,14.12 8.55,1.71 12.83,7.26 12.83,16.7 l 0,3.85 c 0,2.57 -0.84,7.26 -2.56,14.12 -1.72,6.84 -2.56,12.4 -2.56,16.7 l 0,11.56 c 0,10.27 -0.45,17.97 -1.29,23.11 -5.13,35.96 -8.56,61.19 -10.28,75.76 -9.42,105.3 -17.98,178.5 -25.67,219.59 -0.86,4.27 -2.38,11.11 -4.5,20.54 -2.13,9.41 -3.65,16.7 -4.5,21.83 -1.72,7.71 -4.3,11.56 -7.69,11.56 l -1.29,0 c -2.56,0 -4.72,-3.85 -6.42,-11.56 0,-4.29 -0.86,-10.91 -2.56,-19.9 -1.74,-8.99 -2.58,-15.63 -2.58,-19.9 -2.57,-24.85 -7.69,-59.52 -15.4,-104.02 -7.71,-44.52 -12.43,-73.19 -14.13,-86.03 -0.86,-7.71 -2.56,-18.62 -5.14,-32.75 -2.57,-14.12 -4.7,-26.97 -6.42,-38.52 -1.72,-11.56 -3.01,-22.47 -3.86,-32.75 0,-0.86 -0.21,-1.92 -0.64,-3.21 -0.43,-1.28 -0.63,-2.37 -0.63,-3.21 0,-1.73 0.2,-4.72 0.63,-8.99 0.43,-4.3 0.64,-7.28 0.64,-8.99 0,-5.13 -0.84,-11.14 -2.56,-17.98 -1.74,-8.56 -3.01,-20.76 -3.86,-36.59 -0.86,-15.86 -1.72,-27.19 -2.56,-34.03 l 0,-5.14 c 0,-8.57 3.85,-12.84 11.56,-12.84 0.83,0 1.71,0.2 2.57,0.64 0.82,0.42 1.7,0.64 2.56,0.64 15.42,5.14 26.52,8.99 33.38,11.56 4.29,1.7 13.68,6.42 28.26,14.13 l 0,0" /><path
             id="path36"
             style="fill:#ffffff;fill-opacity:1;fill-rule:nonzero;stroke:none"
             d="m 5537.46,3578.84 c -0.84,-6 -1.27,-14.58 -1.27,-25.68 0,-11.14 -0.45,-21.19 -1.29,-30.18 -0.86,-8.99 -3.01,-17.34 -6.42,-25.04 -1.74,-5.14 -2.56,-9.44 -2.56,-12.84 0,-1.73 0.19,-4.08 0.64,-7.07 0.42,-3.01 0.63,-5.36 0.63,-7.06 l 0,-14.13 c 0,-28.25 -1.72,-53.09 -5.13,-74.47 -0.86,-4.3 -1.29,-11.14 -1.29,-20.55 0,-10.27 0.85,-17.98 2.58,-23.11 0.83,-2.57 1.28,-6.42 1.28,-11.56 0,-2.57 -0.22,-6.87 -0.65,-12.84 -0.45,-6 -0.63,-10.72 -0.63,-14.13 0,-4.3 -0.21,-10.49 -0.64,-18.62 -0.45,-8.15 -0.65,-14.35 -0.65,-18.62 0,-41.95 1.29,-84.33 3.86,-127.13 0,-0.86 0.19,-2.14 0.64,-3.85 0.42,-1.73 0.63,-3.01 0.63,-3.85 l 0,-5.14 c -1.72,-15.41 -2.56,-27.83 -2.56,-37.24 0,-14.57 1.29,-35.31 3.85,-62.28 2.56,-26.96 3.86,-46.42 3.86,-58.42 0,-3.41 0.84,-8.35 2.56,-14.77 1.72,-6.42 2.56,-10.47 2.56,-12.2 0.85,-4.27 1.29,-11.11 1.29,-20.55 0,-23.11 -9.43,-41.09 -28.25,-53.93 -20.55,-16.25 -32.09,-25.68 -34.67,-28.25 -5.13,-5.98 -12,-8.99 -20.55,-8.99 -0.86,0 -1.92,0.22 -3.21,0.64 -1.27,0.45 -2.36,0.64 -3.21,0.64 -23.96,2.57 -42.82,9.44 -56.5,20.55 -2.57,2.57 -7.7,6.22 -15.4,10.92 -7.71,4.71 -13.29,8.79 -16.7,12.19 -12.83,8.57 -29.54,24.85 -50.09,48.8 -5.12,6 -11.11,16.69 -17.96,32.1 -24.85,48.8 -49.66,106.59 -74.49,173.36 -3.42,8.54 -5.99,22.25 -7.71,41.09 -2.56,11.12 -3.85,17.11 -3.85,17.98 -9.43,21.39 -20.55,58.63 -33.38,111.72 -3.43,12.84 -9.43,31.24 -17.98,55.22 -30.82,80.45 -54.79,135.67 -71.91,165.65 -3.43,5.97 -6.42,14.13 -8.99,24.4 -6,17.98 -13.28,37.66 -21.83,59.07 -1.72,0.83 -3.85,1.28 -6.42,1.28 -5.99,0 -8.98,-3.85 -8.98,-11.56 l 0,-8.98 c 0,-11.14 1.27,-22.7 3.84,-34.68 0.84,-6.86 1.48,-14.12 1.93,-21.83 0.43,-7.7 0.85,-16.05 1.29,-25.04 0.42,-8.99 0.63,-16.05 0.63,-21.19 0,-6.86 0.2,-16.91 0.65,-30.17 0.43,-13.29 0.84,-25.27 1.29,-35.96 0.43,-10.72 1.05,-20.77 1.92,-30.17 1.72,-22.28 3.63,-54.16 5.79,-95.67 2.11,-41.54 3.62,-69.15 4.48,-82.83 1.72,-26.55 3.41,-63.78 5.14,-111.72 1.71,-47.96 3,-81.31 3.86,-100.16 l 7.69,-127.13 0,-8.99 c 0,-5.97 -0.45,-10.27 -1.28,-12.84 -3.42,-13.68 -11.13,-20.96 -23.12,-21.83 -11.99,-0.83 -22.27,-4.69 -30.82,-11.55 -6.86,-5.98 -14.56,-8.99 -23.11,-8.99 -6.86,0 -14.99,3.01 -24.4,8.99 -5.99,4.3 -13.28,11.55 -21.82,21.83 -6.88,9.43 -12.85,15.85 -17.98,19.26 -13.69,12 -29.54,35.53 -47.52,70.62 -2.57,5.14 -3.84,10.72 -3.84,16.7 0,6 2.12,12.42 6.42,19.26 l 0,1.28 c 0,5.14 1.27,9.44 3.85,12.85 8.54,13.7 12.84,31.68 12.84,53.93 l 0,14.12 c -0.86,18.82 -1.29,46.65 -1.29,83.47 l 0,7.71 c 0,8.54 0.43,21.38 1.29,38.52 0.84,17.11 1.29,29.96 1.29,38.53 l 0,59.06 c 0,5.14 -0.22,13.49 -0.65,25.05 -0.44,11.55 -0.64,20.32 -0.64,26.32 l 0,5.14 c 0,6.84 0.64,17.11 1.92,30.81 1.29,13.69 1.93,23.96 1.93,30.82 l 0,8.99 c -0.86,11.98 -1.29,29.96 -1.29,53.94 l 0,84.75 c 0,24.82 0.85,62.92 2.57,114.29 l 0,30.81 c 0,17.98 -0.85,31.66 -2.57,41.1 0,0.83 -0.21,2.34 -0.64,4.49 -0.45,2.12 -0.63,3.63 -0.63,4.5 0,2.56 0.18,5.97 0.63,10.27 0.43,4.27 0.64,7.26 0.64,8.99 l 0,3.85 c -1.72,20.55 -5.57,37.66 -11.56,51.36 -1.72,3.41 -2.57,6.43 -2.57,8.99 l 0,1.29 c 1.73,37.66 6.85,67.19 15.42,88.6 13.68,31.66 38.96,47.52 75.76,47.52 11.12,0 21.39,-1.73 30.82,-5.14 2.57,-0.87 5.33,-1.93 8.34,-3.21 3.01,-1.29 6.22,-3.02 9.64,-5.14 3.41,-2.15 5.98,-3.65 7.7,-4.49 7.71,-4.3 13.28,-12.01 16.7,-23.12 29.09,-90.75 49.63,-149.4 61.64,-175.92 6.85,-15.41 22.66,-57.37 47.51,-125.85 2.56,-7.7 7.26,-19.26 14.13,-34.67 2.56,-4.3 23.53,-54.8 62.92,-151.52 3.41,-9.44 9.18,-23.56 17.34,-42.38 8.12,-18.84 14.31,-32.97 18.61,-42.38 5.97,-15.41 15.2,-36.59 27.61,-63.56 12.4,-26.97 20.33,-44.3 23.75,-52.01 4.28,-11.14 7.26,-17.98 9,-20.54 1.7,-5.14 4.28,-7.71 7.71,-7.71 l 2.56,0 c 3.41,0.84 5.13,4.69 5.13,11.56 0,2.57 0.43,6.2 1.29,10.91 0.84,4.69 1.47,8.99 1.92,12.84 0.43,3.86 0.64,7.49 0.64,10.92 l 0,5.14 c 0,0.84 -0.21,2.98 -0.64,6.42 -0.45,3.4 -0.63,5.97 -0.63,7.7 0,6.84 0.63,17.53 1.92,32.1 1.29,14.55 1.92,25.24 1.92,32.11 0.84,15.41 3.01,38.52 6.43,69.34 0.83,10.27 3,26.1 6.42,47.51 3.41,21.39 5.56,37.66 6.42,48.8 1.7,21.38 6.2,55.22 13.48,101.45 7.26,46.22 11.35,82.18 12.19,107.86 0.85,11.98 3.01,29.09 6.44,51.37 3.39,22.25 5.56,39.36 6.42,51.36 1.7,25.68 2.56,44.95 2.56,57.79 0,17.11 -2.13,36.37 -6.42,57.78 -3.42,5.98 -5.14,12.84 -5.14,20.55 0,5.14 0.84,12.84 2.58,23.11 1.7,11.98 10.68,18.82 26.96,20.55 l 10.28,0 c 4.26,0 11.09,-0.22 20.54,-0.64 9.41,-0.45 16.69,-0.64 21.82,-0.64 l 11.56,0 c 12.84,0 22.03,-2.57 27.61,-7.71 5.56,-5.14 10.47,-15.85 14.77,-32.1 2.57,-6.87 3.86,-13.71 3.86,-20.55 l 0,-28.25 c 0,-3.43 1.27,-12.42 3.85,-26.97 1.7,-6.86 2.56,-17.55 2.56,-32.1 l 0,-10.27 c -0.86,-18.84 -1.29,-47.1 -1.29,-84.75 0,-3.44 -0.86,-7.71 -2.56,-12.84 -3.42,-13.71 -5.99,-28.48 -7.71,-44.31 -1.72,-15.85 -3.21,-33.61 -4.48,-53.29 -1.29,-19.71 -2.38,-34.67 -3.23,-44.94 l 0,0" /><path
             id="path38"
             style="fill:#ffffff;fill-opacity:1;fill-rule:nonzero;stroke:none"
             d="m 6183.23,3774.33 c -3.42,-5.14 -14.57,-7.71 -33.38,-7.71 -8.57,0 -13.7,0.42 -15.42,1.29 -16.26,3.4 -35.51,5.13 -57.78,5.13 l -35.96,0 c -6.87,-3.43 -11.55,-5.13 -14.13,-5.13 -2.56,0 -5.57,0.83 -8.98,2.57 -3.42,0.83 -8.15,1.28 -14.13,1.28 l -1.27,0 c -12.01,0 -17.98,-6 -17.98,-17.98 -0.86,-16.27 -1.29,-41.09 -1.29,-74.48 l 0,-56.5 c 0,-23.11 -0.45,-40.25 -1.28,-51.36 -0.86,-11.14 -1.93,-27.84 -3.22,-50.09 -1.27,-22.27 -2.37,-38.96 -3.21,-50.08 0,-89.89 -1.72,-157.11 -5.13,-201.6 -2.56,-37.69 -3.85,-74.93 -3.85,-111.72 0,-16.28 0.84,-41.54 2.56,-75.77 0.84,-6.86 1.29,-17.14 1.29,-30.81 0,-10.28 -2.15,-41.1 -6.42,-92.46 -1.73,-11.11 -6.42,-19.26 -14.12,-24.4 L 5911,2911.39 c -11.13,-1.7 -21.84,-2.56 -32.11,-2.56 -14.57,0 -23.11,2.15 -25.67,6.42 -6.01,12.84 -9,41.95 -9,87.32 0,18.81 0.64,44.94 1.93,78.33 1.28,33.39 1.92,53.93 1.92,61.64 l 0,7.7 c 0,2.57 -0.21,6.42 -0.64,11.56 -0.45,5.14 -0.63,8.99 -0.63,11.56 0,13.68 0.63,32.52 1.92,56.5 1.29,23.95 1.92,41.93 1.92,53.93 0,22.25 -0.85,39.81 -2.57,52.65 -1.72,12.84 -2.56,32.94 -2.56,60.36 0,38.52 -0.86,67.19 -2.56,86.03 -1.74,18.82 -2.59,33.81 -2.59,44.95 0,11.11 0.43,27.8 1.3,50.08 0.84,22.25 1.29,38.94 1.29,50.08 0,18.81 -0.45,32.52 -1.29,41.09 -0.87,7.7 -1.3,19.26 -1.3,34.67 0,10.27 0.85,25.68 2.59,46.23 l 0,3.85 c 0,11.11 -5.15,17.11 -15.42,17.98 -8.55,0.84 -20.99,1.28 -37.24,1.28 l -20.54,0 c -25.69,0 -45.39,1.71 -59.07,5.14 -2.57,0.84 -8.56,1.28 -17.99,1.28 l -28.25,0 c -14.56,0 -23.11,0.42 -25.67,1.29 -15.42,5.97 -23.11,25.68 -23.11,59.07 0,2.57 0.18,5.78 0.63,9.63 0.43,3.85 0.64,6.62 0.64,8.35 l 0,2.56 c 0,4.28 -0.45,10.05 -1.27,17.34 -0.86,7.26 -1.29,12.62 -1.29,16.05 0,11.11 3.85,18.4 11.56,21.83 15.4,6.84 43.21,12.4 83.45,16.69 16.27,1.71 41.09,2.99 74.49,3.86 33.39,0.84 58.21,2.12 74.48,3.85 5.14,0.84 26.51,3.41 64.21,7.7 37.67,4.28 66.32,6.84 86.04,7.71 l 65.49,0 c 29.08,0 50.91,0.42 65.49,1.28 l 2.56,1.29 2.57,0 c 5.14,0 11.99,-0.87 20.54,-2.57 21.39,-5.14 34.67,-18.42 39.82,-39.81 2.56,-11.14 3.85,-23.11 3.85,-35.95 0,-13.71 -2.15,-28.26 -6.42,-43.66 -12.01,-39.39 -18.42,-59.94 -19.27,-61.64 l 0,0" /><path
             id="path40"
             style="fill:#ffffff;fill-opacity:1;fill-rule:nonzero;stroke:none"
             d="m 858.172,2422.05 c -1.504,0 -3.738,-0.18 -6.703,-0.54 -2.981,-0.37 -5.215,-0.53 -6.703,-0.53 l -54.739,0 c -11.168,0 -16.754,-4.29 -16.754,-12.87 l 0,-5.36 c 5.196,-20.75 8.547,-57.22 10.051,-109.4 1.492,-35.05 4.844,-64.36 10.055,-87.95 1.488,-7.17 3.351,-11.98 5.586,-14.48 2.234,-2.51 6.703,-3.75 13.406,-3.75 l 5.586,0 c 22.34,0 46.527,-8.59 72.609,-25.74 11.903,-7.89 20.481,-20.38 25.696,-37.55 1.488,-4.29 2.23,-7.15 2.23,-8.57 0,-7.89 -4.094,-15.02 -12.285,-21.46 -11.918,-9.29 -25.691,-13.94 -41.332,-13.94 -0.746,0 -2.234,0.16 -4.469,0.53 -2.234,0.36 -4.097,0.54 -5.586,0.54 -3.738,0 -9.496,0.35 -17.316,1.08 -7.82,0.69 -13.59,1.08 -17.313,1.08 l -5.586,0 c -11.917,0 -17.875,-5.75 -17.875,-17.18 l 0,-4.28 c 0.731,-5.01 1.29,-14.33 1.676,-27.89 0.371,-13.6 0.934,-25.04 1.676,-34.32 0.73,-9.3 2.606,-18.23 5.586,-26.82 2.965,-11.45 4.469,-23.97 4.469,-37.53 l 0,-24.67 c 0,-26.47 -2.235,-48.63 -6.703,-66.5 -1.504,-5.74 -2.235,-14.67 -2.235,-26.81 0,-3.59 0.172,-9.12 0.559,-16.63 0.375,-7.51 0.558,-13.05 0.558,-16.62 l 0,-3.23 c 0,-16.42 -9.324,-33.59 -27.925,-51.48 -8.207,-7.85 -21.614,-15.36 -40.215,-22.51 -18.621,-7.15 -29.434,-11.81 -32.399,-13.94 -1.504,-0.72 -3.738,-1.08 -6.703,-1.08 -5.972,0 -11.168,2.86 -15.636,8.59 -7.45,9.29 -11.172,18.59 -11.172,27.87 0,0.73 0.172,1.98 0.558,3.75 0.371,1.81 0.559,3.06 0.559,3.76 2.234,17.17 3.351,33.96 3.351,50.42 0,18.58 -0.386,32.87 -1.117,42.89 0,2.15 -0.187,6.07 -0.558,11.8 -0.387,5.72 -0.559,9.66 -0.559,11.79 0,7.88 0.371,19.32 1.117,34.33 0.731,15.02 1.117,26.1 1.117,33.25 0,2.15 -0.187,5.52 -0.558,10.19 -0.387,4.64 -0.559,8.05 -0.559,10.19 l 0,61.14 c 0,17.15 -0.387,30.02 -1.117,38.6 0,0.7 -0.188,1.96 -0.559,3.76 -0.386,1.77 -0.558,3.03 -0.558,3.75 0,4.29 0.371,10.36 1.117,18.23 0.73,7.86 1.117,13.95 1.117,18.23 l 0,12.87 c 0,9.28 -0.746,16.1 -2.234,20.38 -0.746,1.43 -1.117,4.3 -1.117,8.59 0,3.57 0.371,6.07 1.117,7.51 2.234,7.86 3.351,20 3.351,36.46 l 0,42.91 c 2.965,11.43 4.469,19.3 4.469,23.59 0,10 -2.234,19.3 -6.703,27.89 -0.746,1.42 -1.117,3.57 -1.117,6.43 l 0,4.29 c 1.488,6.43 2.234,16.44 2.234,30.04 l 0,11.79 c 0,9.28 0.371,16.44 1.117,21.46 l 0,7.51 c 0,10.72 -1.863,19.65 -5.586,26.8 -3.738,8.58 -5.586,19.31 -5.586,32.18 0,2.85 0.172,7.14 0.559,12.87 0.375,5.71 0.559,10 0.559,12.87 0,2.85 0.172,6.44 0.558,10.73 0.371,4.29 0.559,7.5 0.559,9.65 0,4.29 -0.746,9.28 -2.235,15.02 l 0,4.29 c 0,9.28 3.524,18.58 10.614,27.88 7.074,9.28 15.082,15.02 24.015,17.16 9.668,2.85 20.84,4.29 33.512,4.29 l 5.59,0 c 5.957,-0.72 14.895,-1.07 26.809,-1.07 26.808,0 51,2.5 72.613,7.51 5.957,1.42 10.781,2.14 14.519,2.14 6.704,0 14.524,-1.79 23.457,-5.36 8.196,-3.59 21.227,-8.23 39.102,-13.94 11.172,-2.87 20.277,-9.49 27.367,-19.84 7.074,-10.38 10.613,-21.29 10.613,-32.72 0,-4.29 -0.386,-7.51 -1.117,-9.65 -2.234,-7.88 -8.207,-13.59 -17.875,-17.16 -5.211,-2.15 -17.144,-3.94 -35.746,-5.36 -4.469,0 -10.797,-0.38 -18.992,-1.08 -8.203,-0.72 -14.148,-1.07 -17.871,-1.07 l 0,0" /><path
             id="path42"
             style="fill:#ffffff;fill-opacity:1;fill-rule:nonzero;stroke:none"
             d="m 1384.32,2349.12 c 1.49,-32.91 2.24,-57.92 2.24,-75.07 l 0,-25.76 c 0,-5 0.17,-12.32 0.55,-21.98 0.38,-9.65 0.56,-16.99 0.56,-21.99 0,-1.44 -0.18,-3.21 -0.56,-5.36 -0.38,-2.15 -0.55,-3.93 -0.55,-5.36 -1.51,-28.61 -2.98,-50.05 -4.47,-64.35 0,-2.87 -0.75,-5.74 -2.24,-8.58 -2.23,-4.29 -6.33,-20.03 -12.29,-47.2 -4.46,-20.03 -8.56,-35.4 -12.28,-46.11 -2.98,-9.3 -6.33,-32.56 -10.06,-69.71 0,-2.15 -0.38,-5.21 -1.11,-9.13 -0.75,-3.94 -1.51,-6.62 -2.24,-8.04 l 0,-12.87 c 1.49,-5.74 2.24,-9.65 2.24,-11.8 0,-5.74 -1.12,-11.79 -3.35,-18.23 -2.24,-7.16 -4.66,-17.7 -7.27,-31.64 -2.62,-13.95 -4.65,-23.79 -6.14,-29.5 -7.45,-22.89 -18.99,-37.91 -34.63,-45.04 -14.91,-6.44 -26.81,-9.66 -35.75,-9.66 l -3.35,0 c -47.66,1.42 -80.82,4.99 -99.42,10.73 -12.68,4.29 -31.67,11.42 -56.97,21.44 -14.91,5.73 -31.28,18.6 -49.15,38.61 -29.79,32.19 -50.271,63.29 -61.443,93.32 -2.981,7.14 -7.09,25.37 -12.289,54.7 -2.235,13.56 -4.856,36.48 -7.817,68.65 -2.98,27.16 -4.469,47.19 -4.469,60.06 0,2.14 0.168,5.53 0.555,10.18 0.375,4.65 0.563,8.05 0.563,10.19 0,1.42 0.168,3.75 0.558,6.98 0.371,3.21 0.555,5.52 0.555,6.96 l 0,4.3 c 0,0.7 -0.184,1.77 -0.555,3.21 -0.39,1.43 -0.558,2.5 -0.558,3.23 0,13.56 4.078,36.8 12.285,69.71 2.234,6.43 5.027,16.26 8.379,29.49 3.351,13.22 5.758,23.41 7.261,30.57 4.469,18.58 11.175,35.75 20.105,51.48 1.49,2.85 4.08,10.36 7.82,22.53 5.2,23.59 12.66,43.25 22.34,58.99 2.24,3.57 6.71,13.57 13.41,30.03 11.17,29.31 27.93,53.63 50.27,72.93 9.66,8.58 24.95,16.09 45.8,22.53 13.41,4.98 29.77,8.57 49.15,10.72 l 7.82,0 c 10.43,0 21.23,-2.15 32.4,-6.43 27.54,-10.73 44.29,-17.89 50.27,-21.46 41.7,-23.59 65.9,-50.05 72.61,-79.36 0.73,-2.15 1.29,-6.63 1.67,-13.41 0.38,-6.81 1.29,-11.64 2.79,-14.48 0.73,-3.59 2.05,-8.77 3.92,-15.55 1.84,-6.81 3.52,-11.99 5.02,-15.55 3.73,-12.17 6.32,-31.48 7.82,-57.92 l 0,0 z m -89.37,-210.22 c 1.49,27.16 2.24,47.54 2.24,61.14 l 0,24.66 c 0,17.17 -3.35,50.77 -10.06,100.83 -5.97,42.17 -15.63,79.36 -29.04,111.54 -6.7,17.86 -18.62,30.03 -35.75,36.46 -4.47,2.15 -8.93,3.22 -13.4,3.22 -5.97,0 -11.17,-1.79 -15.64,-5.36 -2.98,-2.15 -7.26,-5.2 -12.85,-9.12 -5.58,-3.94 -9.88,-6.97 -12.84,-9.12 -5.98,-4.29 -11.17,-9.3 -15.64,-15.01 -15.64,-22.9 -24.21,-40.06 -25.7,-51.48 0,-0.72 -0.74,-2.52 -2.23,-5.37 -1.51,-3.59 -3.54,-8.76 -6.14,-15.55 -2.63,-6.8 -4.66,-11.98 -6.15,-15.55 -4.47,-10.72 -9.32,-36.11 -14.52,-76.14 -4.47,-35.78 -10.44,-68.31 -17.87,-97.62 -8.21,-31.46 -12.29,-61.85 -12.29,-91.16 l 0,-2.13 c 0,-22.92 0.37,-40.07 1.12,-51.5 1.48,-25.03 5.95,-48.63 13.4,-70.78 1.49,-5.02 3.72,-8.95 6.7,-11.8 14.14,-16.46 32.01,-27.54 53.62,-33.25 11.17,-2.86 23.07,-4.28 35.75,-4.28 23.83,0 46.92,6.43 69.26,19.3 9.67,5.71 15.64,13.57 17.87,23.59 11.17,47.89 17.49,77.22 18.99,87.95 1.49,11.42 2.97,19.66 4.47,24.67 2.97,9.28 5.2,33.25 6.7,71.86 l 0,0" /><path
             id="path44"
             style="fill:#ffffff;fill-opacity:1;fill-rule:nonzero;stroke:none"
             d="m 1532.89,1663.76 c -5.21,-9.28 -12.28,-13.94 -21.22,-13.94 -1.5,0 -5.21,0.72 -11.17,2.15 -3.74,0.72 -9.32,1.07 -16.76,1.07 l -5.58,0 c -16.39,0 -26.08,7.51 -29.05,22.51 -2.97,13.6 -5.21,33.98 -6.7,61.14 -1.5,22.9 -2.23,57.21 -2.23,102.96 0,12.87 0.17,32.34 0.56,58.46 0.37,26.09 0.55,45.59 0.55,58.46 l 0,9.65 c 0,8.58 -0.18,21.27 -0.55,38.08 -0.39,16.79 -0.56,29.49 -0.56,38.07 l 0,12.88 c 0,26.43 0.37,65.95 1.11,118.5 0.73,52.56 1.12,92.06 1.12,118.53 0,60.75 2.61,117.6 7.82,170.53 l 3.35,35.39 c 0.73,14.29 8.19,27.52 22.34,39.69 14.14,12.14 27.54,20 40.22,23.59 0.73,0 1.68,0.17 2.79,0.54 1.12,0.35 2.05,0.54 2.79,0.54 0.73,0 2.24,-0.38 4.47,-1.08 2.97,-1.44 7.43,-2.14 13.41,-2.14 7.43,0 16.37,2.84 26.81,8.58 9.66,4.99 22.34,7.51 37.98,7.51 6.7,0 16.37,0.53 29.04,1.6 12.66,1.08 22.35,1.61 29.05,1.61 l 7.82,0 c 5.2,0.7 7.82,0.7 7.82,0 79.68,-8.58 135.9,-42.55 168.68,-101.89 15.64,-28.61 23.46,-55.77 23.46,-81.51 0,-17.16 -2.63,-33.62 -7.82,-49.33 -17.88,-55.78 -41.72,-106.57 -71.5,-152.31 -18.61,-27.89 -41.33,-50.42 -68.14,-67.57 -2.23,-1.44 -5.41,-3.59 -9.49,-6.44 -4.1,-2.86 -6.89,-5.01 -8.38,-6.43 -9.68,-7.16 -20.5,-11.8 -32.4,-13.95 -11.91,-1.44 -29.04,-5.01 -51.38,-10.72 -7.45,-2.15 -11.18,-6.08 -11.18,-11.79 0,-2.15 0.73,-5.38 2.24,-9.66 0.73,-1.44 2.23,-4.12 4.47,-8.04 2.23,-3.94 3.35,-7.34 3.35,-10.19 2.23,-5.01 7.07,-12.87 14.52,-23.61 7.43,-10.71 12.66,-19.3 15.64,-25.73 15.64,-20.04 28.66,-39.34 39.1,-57.92 8.93,-9.3 15.64,-18.61 20.11,-27.89 l 3.35,-3.21 c 8.93,-13.59 23.07,-33.63 42.45,-60.06 19.36,-26.47 36.3,-50.6 50.82,-72.41 14.53,-21.8 27.37,-43.06 38.54,-63.82 3.73,-7.13 5.59,-13.92 5.59,-20.36 0,-14.29 -8.21,-24.3 -24.58,-30.04 -2.98,-1.42 -6.33,-2.68 -10.05,-3.75 -3.74,-1.08 -8.01,-2.14 -12.85,-3.21 -4.85,-1.08 -8.37,-1.97 -10.61,-2.68 -2.23,-0.71 -5.21,-1.08 -8.94,-1.08 -8.2,0 -17.14,3.94 -26.81,11.8 -17.14,15.73 -32.78,33.61 -46.91,53.62 -26.08,28.61 -41.34,46.12 -45.8,52.56 -6.71,9.28 -16.95,22.88 -30.72,40.76 -13.8,17.85 -24.02,31.1 -30.72,39.68 -2.98,4.29 -7.82,10.72 -14.53,19.31 -6.7,8.57 -11.56,15 -14.52,19.3 -3.74,3.56 -6.33,5.36 -7.82,5.36 l -2.23,0 c -2.24,-1.44 -4.1,-4.66 -5.59,-9.66 l -1.12,-2.13 c 0,-1.46 0,-2.52 0,-3.23 0,-0.71 0.18,-1.07 0.56,-1.07 0.37,0 0.56,-0.37 0.56,-1.06 0.73,-10.03 1.68,-26.82 2.79,-50.42 1.12,-23.59 2.41,-41.47 3.91,-53.63 0.73,-4.29 1.12,-10.34 1.12,-18.23 0,-15.72 -4.47,-28.95 -13.4,-39.69 -2.98,-4.28 -4.47,-8.2 -4.47,-11.79 0,-8.59 -4.86,-22.15 -14.53,-40.76 l 0,0 z m 11.18,520.18 c 0.73,-12.87 4.84,-19.3 12.28,-19.3 3.73,0 6.71,0.35 8.94,1.07 8.19,2.15 19.72,5.18 34.63,9.12 14.9,3.92 28.49,7.51 40.77,10.73 12.29,3.21 24.02,6.24 35.19,9.12 5.96,0.69 11.55,4.28 16.76,10.72 14.13,15.71 24.19,28.96 30.16,39.68 10.43,17.16 16.01,31.1 16.76,41.84 0.73,8.57 2.23,35.73 4.47,81.5 l 0,3.22 c 0,20.73 -8.21,36.82 -24.58,48.27 -31.28,20.73 -60.32,35.74 -87.13,45.04 -17.15,6.44 -38.37,9.66 -63.68,9.66 l -1.11,0 c -8.94,0 -15.09,-1.61 -18.44,-4.83 -3.35,-3.22 -5.41,-9.49 -6.14,-18.77 -3.74,-37.19 -5.58,-70.09 -5.58,-98.67 l 0,-15.02 c 0,-3.59 -0.19,-9.3 -0.56,-17.15 -0.39,-7.89 -0.56,-13.6 -0.56,-17.17 0,-7.88 0.37,-13.6 1.12,-17.16 0,-1.45 2.23,-35.4 6.7,-101.9 l 0,0" /><path
             id="path46"
             style="fill:#ffffff;fill-opacity:1;fill-rule:nonzero;stroke:none"
             d="m 2176.5,2393.6 c 14.78,21.61 34.15,39.84 58.06,54.65 86.51,59.18 154.82,94.49 204.94,105.88 30.73,6.83 61.47,10.25 92.22,10.25 34.14,0 64.89,-4.57 92.21,-13.66 17.08,-4.57 27.9,-13.11 32.45,-25.62 3.41,-2.3 6.24,-7.42 8.54,-15.37 0,-1.15 0.26,-2.86 0.86,-5.12 0.56,-2.3 0.84,-4.01 0.84,-5.12 0,-17.08 -4.55,-36.46 -13.66,-58.07 -9.13,-21.64 -21.08,-35.86 -35.87,-42.69 -74.02,-35.31 -120.67,-56.96 -140.03,-64.9 -80.85,-36.46 -136.62,-93.93 -167.36,-172.48 -14.8,-41 -22.79,-64.9 -23.9,-71.73 l -5.13,-15.37 c -30.74,-58.06 -52.94,-134.35 -66.6,-228.84 0,-2.3 -0.29,-4.57 -0.85,-6.83 -0.6,-2.3 -0.86,-4.57 -0.86,-6.83 0,-1.15 0.26,-3.15 0.86,-5.98 0.56,-2.86 0.85,-4.86 0.85,-5.97 0,-10.25 -2.3,-19.93 -6.83,-29.03 l 0,-15.37 c 3.41,-3.42 5.12,-7.42 5.12,-11.96 l 0,-1.7 c -1.14,-1.16 -1.71,-2.3 -1.71,-3.43 7.95,-31.89 23.91,-70.6 47.82,-116.12 18.19,-36.46 49.53,-72.87 93.93,-109.29 36.43,-28.49 91.08,-47.83 163.94,-58.07 27.32,-4.56 48.38,-11.96 63.19,-22.2 17.08,-13.66 25.62,-34.75 25.62,-63.19 0,-21.63 -6.83,-39.28 -20.5,-52.93 -4.54,-4.53 -10.23,-6.83 -17.07,-6.83 l -3.42,0 c -25.05,2.3 -43.29,3.4 -54.66,3.4 -20.48,0 -47.8,-2.26 -81.96,-6.83 l -10.24,0 c -13.67,0 -29.63,4.01 -47.82,11.96 -5.73,3.41 -14.51,7.68 -26.47,12.81 -11.96,5.12 -21.36,8.8 -28.19,11.1 -12.54,0 -30.73,8.53 -54.64,25.62 -13.66,11.35 -29.03,21.6 -46.11,30.74 -15.96,6.83 -30.74,19.33 -44.4,37.56 -45.54,63.75 -72.87,113.28 -81.97,148.58 -35.3,97.9 -56.36,164.5 -63.19,199.81 -4.56,25.02 -6.83,44.95 -6.83,59.77 0,14.77 1.11,36.97 3.41,66.6 1.12,12.51 3.13,31 5.98,55.5 2.82,24.46 4.84,42.39 5.98,53.79 6.83,88.82 34.72,178.18 83.68,268.13 7.94,14.77 27.89,43.25 59.77,85.38 l 0,0" /><path
             id="path48"
             style="fill:#ffffff;fill-opacity:1;fill-rule:nonzero;stroke:none"
             d="m 3369.49,1260.42 c 0,-1.13 0.58,-2.83 1.72,-5.13 l 0,-3.41 c 0.04,-19.35 -10.77,-39.85 -32.35,-61.54 -5.71,-5.69 -11.95,-8.55 -18.78,-8.57 -11.38,-0.01 -20.49,6.82 -27.34,20.47 -18.28,35.28 -29.13,60.31 -32.56,75.08 -14.88,58.05 -22.92,92.19 -24.07,102.45 -6.89,47.8 -12.09,97.88 -15.58,150.25 -2.33,20.49 -3.47,35.27 -3.49,44.4 l 0,5.12 c 0,5.68 -5.14,16.48 -15.42,32.43 -15.96,1.09 -39.28,1.65 -70.02,1.6 -20.49,-0.03 -51.23,-0.66 -92.22,-1.85 -40.98,-1.21 -71.71,-1.8 -92.21,-1.84 -17.08,-0.01 -26.75,-9.72 -28.99,-29.06 -4.5,-29.64 -11.3,-50.14 -20.4,-61.52 -3.41,-9.13 -6.22,-30.75 -8.45,-64.91 0.03,-11.4 -1.39,-31.33 -4.17,-59.77 -2.82,-28.48 -4.2,-50.12 -4.19,-64.91 l 0.02,-3.41 0,-1.7 c 0.05,-40.99 -20.99,-71.76 -63.06,-92.32 -9.13,-3.43 -16.49,-5.15 -22.18,-5.15 -13.67,-0.03 -24.78,4.52 -33.33,13.6 -8.56,9.13 -12.84,21.07 -12.86,35.85 l -0.01,8.55 c -0.04,27.31 2.73,58.06 8.4,92.22 4.5,21.62 7.34,39.29 8.47,52.95 1.09,5.69 1.69,14.23 1.65,25.63 -0.01,19.33 -3.45,38.67 -10.32,58.04 -10.29,29.58 -15.47,64.28 -15.52,104.15 -0.01,2.27 0.25,6.83 0.83,13.66 0.56,6.84 0.85,11.96 0.83,15.37 3.31,71.75 4.91,142.88 4.81,213.48 l -0.16,116.14 -0.04,18.77 -0.14,109.3 c -0.02,3.42 0.24,7.95 0.82,13.66 0.56,5.69 0.85,10.26 0.83,13.67 -0.03,28.45 -2.4,71.13 -7.02,128.08 -1.14,9.08 -1.73,22.75 -1.76,40.98 -0.02,19.33 0.52,33.56 1.65,42.69 4.48,31.86 6.75,56.93 6.72,75.15 l 0,3.42 c 0,1.12 -0.6,2.82 -1.72,5.12 -0.04,25.03 3.34,49.53 10.14,73.45 2.26,9.1 3.39,15.37 3.39,18.79 l -0.02,11.95 c 0,1.12 -0.3,3.12 -0.86,5.98 -0.6,2.82 -0.86,4.83 -0.88,5.98 -0.01,12.51 3.38,31.3 10.18,56.37 12.45,42.12 37.46,69.48 75.01,82.08 5.69,2.27 13.67,3.43 23.91,3.45 29.61,0.04 47.84,-14.18 54.72,-42.61 0,-1.16 1.72,-12.55 5.16,-34.15 4.57,-26.2 8.62,-47.81 12.06,-64.88 2.28,-10.24 3.44,-26.2 3.47,-47.81 l 0.04,-15.37 c 0.01,-14.81 0.59,-25.62 1.75,-32.45 1.13,-5.71 1.72,-14.81 1.74,-27.32 0.03,-20.49 -3.33,-52.39 -10.11,-95.64 -16.89,-121.87 -25.31,-207.28 -25.23,-256.21 l 0.02,-20.49 c 0.02,-6.83 0.3,-17.67 0.91,-32.44 0.59,-14.82 0.89,-25.63 0.89,-32.46 0.02,-11.39 -0.23,-29.62 -0.76,-54.64 -0.56,-25.06 -0.79,-43.29 -0.78,-54.65 3.43,-6.83 5.15,-14.24 5.15,-22.2 l 0.02,-8.54 0.01,-10.24 c 2.3,-13.66 5.73,-22.79 10.29,-27.31 l 5.13,0 c 29.59,0.05 65.46,4.07 107.55,12.11 1.13,0 6.56,0.88 16.23,2.6 9.65,1.72 17.34,2.58 23.05,2.6 12.52,4.55 38.13,7.99 76.83,10.35 l 35.87,5.18 c 17.07,3.44 25.59,13.7 25.57,30.77 l -0.01,11.96 c -0.02,6.83 -0.32,16.77 -0.92,29.87 -0.61,13.07 -0.87,23.06 -0.89,29.89 0,3.41 0.25,8.54 0.83,15.37 0.56,6.83 0.84,11.96 0.84,15.37 l -0.01,8.55 0,3.41 -0.04,15.37 c 2.25,18.19 3.38,32.45 3.36,42.69 -0.02,12.52 -0.63,21.62 -1.75,27.33 l -0.02,13.66 c 0,1.11 1.69,18.79 5.05,52.95 0,1.11 0.26,3.41 0.84,6.84 0.56,3.4 0.84,5.67 0.84,6.83 l -0.03,20.49 c -0.02,14.78 1.67,26.17 5.08,34.16 0,1.11 -0.6,3.97 -1.72,8.54 0,3.41 0.56,6.24 1.69,8.53 -0.04,27.33 1.02,68.32 3.24,122.98 4.43,67.16 8.37,115.54 11.74,145.17 2.24,27.33 11.27,68.33 27.15,123 4.5,14.78 15.9,29.61 34.09,44.45 12.51,9.11 23.29,13.69 32.42,13.71 15.95,0.02 27.35,-11.92 34.21,-35.81 4.55,-18.23 6.88,-31.33 6.88,-39.27 l 0.02,-5.13 c -5.56,-108.19 -8.29,-173.64 -8.25,-196.4 0.03,-18.23 -0.8,-45 -2.45,-80.27 -1.66,-35.31 -2.47,-61.48 -2.45,-78.56 l 0.05,-27.33 c 0,-4.57 0.27,-11.4 0.88,-20.48 0.58,-9.13 0.87,-15.96 0.89,-20.5 0.03,-26.21 -1.36,-65.75 -4.1,-118.7 -2.77,-52.94 -4.14,-92.52 -4.11,-118.69 l 0.02,-13.66 c 0.05,-28.47 1.23,-72.31 3.62,-131.5 0.02,-13.66 4.02,-27.31 12.01,-40.96 6.85,-13.66 10.29,-26.76 10.31,-39.27 0.02,-13.66 -2.81,-24.49 -8.5,-32.45 -3.41,-5.72 -5.1,-15.39 -5.08,-29.05 l 0.02,-6.83 c -7.88,-69.46 -11.77,-129.24 -11.7,-179.33 l 0.05,-30.74 c 1.12,-12.54 2.02,-38.16 2.66,-76.84 0.63,-38.72 2.07,-68.32 4.4,-88.79 l 0,0" /><path
             id="path50"
             style="fill:#ffffff;fill-opacity:1;fill-rule:nonzero;stroke:none"
             d="m 4007.22,1699.72 c 3.41,-30.75 11.95,-74.02 25.61,-129.79 13.66,-55.79 22.2,-95.64 25.62,-119.55 2.27,-11.39 3.41,-20.49 3.41,-27.32 0,-13.67 -6.83,-23.34 -20.49,-29.03 -3.41,-2.3 -5.12,-7.98 -5.12,-17.08 -1.14,-14.82 -6.27,-36.97 -15.36,-66.59 -5.73,-15.93 -15.97,-23.92 -30.76,-23.92 l -3.4,0 c -14.81,0 -26.22,7.42 -34.16,22.19 -11.38,25.07 -19.92,52.96 -25.63,83.69 -14.78,89.92 -24.49,152.55 -29.03,187.85 -2.3,15.93 -9.13,23.91 -20.48,23.91 -5.72,0 -10.25,-1.15 -13.66,-3.41 -52.37,-26.2 -87.09,-40.43 -104.18,-42.7 -4.55,0 -12.24,-1.15 -23.05,-3.4 -10.85,-2.32 -19.07,-4.02 -24.76,-5.13 -18.23,-3.43 -29.63,-14.82 -34.16,-34.16 -30.73,-128.68 -51.23,-204.92 -61.48,-228.84 -1.15,-4.54 -3.41,-6.84 -6.84,-6.84 -1.12,0 -4,0.86 -8.53,2.57 -4.55,1.7 -8.54,2.56 -11.96,2.56 -2.3,0 -5.71,-1.11 -10.24,-3.41 -29.63,-4.53 -50.12,-6.83 -61.47,-6.83 -22.8,0 -41.59,5.71 -56.36,17.07 -7.97,6.84 -11.96,14.81 -11.96,23.91 l 0,3.42 c 0,23.9 -2.3,44.96 -6.83,63.19 -1.14,3.41 -1.71,8.54 -1.71,15.37 0,3.41 1.11,9.64 3.41,18.77 2.28,7.96 11.37,54.66 27.33,140.05 4.53,25.03 11.96,62.89 22.2,113.56 10.25,50.64 18.19,88.5 23.92,113.56 5.69,27.33 16.21,66.02 31.58,116.13 15.38,50.09 25.89,87.11 31.59,111.01 6.83,30.74 19.06,75.4 36.73,134.06 17.65,58.62 29.89,101.62 36.72,128.93 20.48,97.9 38.13,170.19 52.93,216.89 11.37,38.69 27.33,75.7 47.83,111 6.81,11.37 15.36,17.08 25.6,17.08 3.43,0 6.24,-0.59 8.54,-1.7 1.12,-1.16 7.1,-2.57 17.93,-4.27 10.82,-1.71 19.06,-4.87 24.76,-9.4 15.95,-12.54 26.74,-31.33 32.46,-56.35 28.44,-119.55 43.8,-183.33 46.1,-191.27 1.11,-5.72 6.55,-33.3 16.23,-82.83 9.64,-49.52 19.04,-92.52 28.17,-128.94 0,-3.41 1.97,-13.4 5.99,-29.88 3.99,-16.52 5.97,-29.33 5.97,-38.42 0,-1.16 -0.28,-2.87 -0.86,-5.13 -0.59,-2.3 -0.84,-4.01 -0.84,-5.11 0,-2.32 1.97,-25.63 5.97,-70.03 3.99,-44.39 7.1,-77.99 9.4,-100.75 2.26,-21.66 6.83,-54.1 13.66,-97.35 6.83,-43.29 11.36,-75.73 13.66,-97.34 l 0,0 z m -194.68,39.27 c 19.35,10.26 34.72,16.5 46.1,18.8 11.37,2.26 17.07,9.64 17.07,22.2 l 0,5.12 c 0,3.41 -1.12,9.65 -3.4,18.78 -2.3,9.1 -3.43,16.49 -3.43,22.2 l 0,15.37 c 0,13.66 -0.58,23.92 -1.7,30.75 -6.83,47.8 -11.38,81.37 -13.67,100.75 -12.53,140.03 -23.9,237.38 -34.14,292.02 -1.14,5.69 -3.16,14.79 -5.99,27.33 -2.84,12.51 -4.86,22.2 -5.97,29.03 -2.3,10.26 -5.72,15.37 -10.26,15.37 l -1.7,0 c -3.41,0 -6.25,-5.11 -8.53,-15.37 0,-5.71 -1.15,-14.51 -3.41,-26.47 -2.32,-11.96 -3.43,-20.79 -3.43,-26.46 -3.4,-33.06 -10.24,-79.16 -20.49,-138.33 -10.24,-59.22 -16.51,-97.35 -18.78,-114.42 -1.14,-10.26 -3.42,-24.76 -6.83,-43.56 -3.42,-18.79 -6.27,-35.86 -8.55,-51.23 -2.3,-15.36 -4,-29.89 -5.11,-43.55 0,-1.14 -0.28,-2.55 -0.86,-4.27 -0.6,-1.7 -0.85,-3.14 -0.85,-4.27 0,-2.3 0.25,-6.27 0.85,-11.94 0.58,-5.72 0.86,-9.69 0.86,-11.96 0,-6.83 -1.14,-14.82 -3.43,-23.9 -2.3,-11.4 -4,-27.63 -5.11,-48.69 -1.14,-21.07 -2.3,-36.16 -3.42,-45.26 l 0,-6.81 c 0,-11.4 5.13,-17.09 15.36,-17.09 1.13,0 2.29,0.27 3.43,0.86 1.11,0.56 2.27,0.84 3.41,0.84 20.49,6.84 35.26,11.96 44.4,15.39 5.69,2.25 18.19,8.53 37.58,18.77 l 0,0" /><path
             id="path52"
             style="fill:#ffffff;fill-opacity:1;fill-rule:nonzero;stroke:none"
             d="m 5009.14,2159.08 c -1.12,-7.46 -1.7,-18.1 -1.7,-31.89 0,-13.83 -0.6,-26.32 -1.71,-37.47 -1.14,-11.17 -4,-21.54 -8.53,-31.1 -2.3,-6.39 -3.43,-11.71 -3.43,-15.95 0,-2.15 0.27,-5.06 0.87,-8.76 0.56,-3.74 0.84,-6.65 0.84,-8.77 l 0,-17.55 c 0,-35.07 -2.3,-65.94 -6.82,-92.49 -1.14,-5.33 -1.72,-13.83 -1.72,-25.51 0,-12.75 1.13,-22.33 3.43,-28.7 1.11,-3.19 1.7,-7.97 1.7,-14.36 0,-3.19 -0.28,-8.52 -0.86,-15.94 -0.58,-7.45 -0.84,-13.3 -0.84,-17.54 0,-5.34 -0.28,-13.03 -0.86,-23.12 -0.6,-10.13 -0.85,-17.82 -0.85,-23.13 0,-52.09 1.71,-104.73 5.11,-157.86 0,-1.08 0.27,-2.66 0.87,-4.78 0.56,-2.15 0.84,-3.76 0.84,-4.8 l 0,-6.37 c -2.3,-19.14 -3.41,-34.55 -3.41,-46.25 0,-18.08 1.7,-43.85 5.13,-77.33 3.41,-33.48 5.11,-57.65 5.11,-72.56 0,-4.23 1.13,-10.37 3.42,-18.34 2.29,-7.97 3.41,-12.99 3.41,-15.14 1.13,-5.31 1.72,-13.79 1.72,-25.52 0,-28.7 -12.55,-51.02 -37.58,-66.96 -27.31,-20.18 -42.7,-31.9 -46.1,-35.09 -6.83,-7.43 -15.97,-11.16 -27.33,-11.16 -1.14,0 -2.56,0.28 -4.27,0.79 -1.7,0.56 -3.16,0.79 -4.27,0.79 -31.87,3.2 -56.95,11.73 -75.13,25.53 -3.42,3.19 -10.26,7.72 -20.5,13.55 -10.25,5.85 -17.66,10.91 -22.2,15.15 -17.08,10.63 -39.28,30.85 -66.61,60.59 -6.83,7.46 -14.79,20.73 -23.9,39.87 -33.04,60.59 -66.04,132.35 -99.06,215.28 -4.55,10.6 -7.95,27.62 -10.24,51.01 -3.42,13.8 -5.13,21.26 -5.13,22.33 -12.53,26.55 -27.32,72.8 -44.39,138.74 -4.55,15.95 -12.56,38.79 -23.91,68.57 -40.99,99.9 -72.87,168.46 -95.64,205.7 -4.55,7.41 -8.54,17.53 -11.95,30.3 -7.97,22.32 -17.68,46.75 -29.03,73.35 -2.3,1.04 -5.13,1.59 -8.55,1.59 -7.96,0 -11.94,-4.78 -11.94,-14.34 l 0,-11.17 c 0,-13.83 1.7,-28.19 5.12,-43.06 1.11,-8.52 1.97,-17.53 2.55,-27.11 0.58,-9.56 1.13,-19.93 1.72,-31.08 0.56,-11.17 0.85,-19.94 0.85,-26.32 0,-8.52 0.26,-21.01 0.86,-37.47 0.56,-16.51 1.1,-31.38 1.7,-44.64 0.58,-13.32 1.42,-25.81 2.56,-37.49 2.29,-27.66 4.83,-67.24 7.7,-118.79 2.81,-51.59 4.83,-85.87 5.97,-102.86 2.28,-32.97 4.53,-79.2 6.83,-138.73 2.27,-59.56 3.99,-100.98 5.13,-124.38 l 10.24,-157.87 0,-11.16 c 0,-7.41 -0.6,-12.76 -1.71,-15.95 -4.56,-16.99 -14.8,-26.04 -30.75,-27.11 -15.96,-1.03 -29.61,-5.82 -40.97,-14.34 -9.13,-7.43 -19.39,-11.17 -30.76,-11.17 -9.13,0 -19.91,3.74 -32.43,11.17 -7.98,5.34 -17.67,14.34 -29.04,27.11 -9.13,11.71 -17.07,19.69 -23.9,23.92 -18.23,14.9 -39.29,44.12 -63.19,87.69 -3.42,6.38 -5.13,13.32 -5.13,20.74 0,7.45 2.83,15.42 8.54,23.92 l 0,1.59 c 0,6.39 1.72,11.71 5.13,15.95 11.36,17.02 17.07,39.33 17.07,66.98 l 0,17.53 c -1.13,23.37 -1.71,57.93 -1.71,103.65 l 0,9.56 c 0,10.62 0.58,26.57 1.71,47.84 1.12,21.26 1.72,37.21 1.72,47.84 l 0,73.35 c 0,6.39 -0.3,16.76 -0.86,31.1 -0.6,14.36 -0.86,25.24 -0.86,32.69 l 0,6.38 c 0,8.49 0.86,21.26 2.56,38.26 1.71,16.99 2.56,29.76 2.56,38.28 l 0,11.17 c -1.14,14.87 -1.7,37.19 -1.7,66.96 l 0,105.26 c 0,30.82 1.11,78.13 3.41,141.91 l 0,38.28 c 0,22.32 -1.13,39.3 -3.41,51.02 0,1.04 -0.28,2.91 -0.86,5.59 -0.59,2.63 -0.84,4.5 -0.84,5.57 0,3.2 0.25,7.43 0.84,12.76 0.58,5.31 0.86,9.02 0.86,11.16 l 0,4.79 c -2.3,25.51 -7.43,46.76 -15.37,63.78 -2.3,4.23 -3.42,7.98 -3.42,11.17 l 0,1.59 c 2.28,46.76 9.11,83.44 20.49,110.03 18.2,39.31 51.82,59 100.76,59 14.78,0 28.44,-2.15 40.99,-6.38 3.41,-1.07 7.1,-2.39 11.1,-3.99 3.99,-1.59 8.26,-3.74 12.81,-6.37 4.53,-2.67 7.94,-4.54 10.25,-5.58 10.24,-5.34 17.64,-14.91 22.2,-28.71 38.68,-112.7 66.01,-185.53 81.97,-218.46 9.11,-19.13 30.14,-71.24 63.19,-156.28 3.41,-9.56 9.64,-23.92 18.78,-43.04 3.42,-5.35 31.31,-68.06 83.68,-188.17 4.53,-11.73 12.21,-29.26 23.06,-52.62 10.82,-23.4 19.04,-40.94 24.76,-52.64 7.95,-19.12 20.2,-45.44 36.71,-78.92 16.49,-33.49 27.05,-55.02 31.6,-64.58 5.69,-13.83 9.66,-22.33 11.96,-25.52 2.26,-6.37 5.69,-9.56 10.24,-9.56 l 3.42,0 c 4.53,1.04 6.83,5.82 6.83,14.36 0,3.17 0.56,7.69 1.71,13.54 1.1,5.83 1.96,11.17 2.56,15.95 0.56,4.78 0.84,9.3 0.84,13.55 l 0,6.38 c 0,1.04 -0.28,3.71 -0.84,7.98 -0.6,4.23 -0.86,7.41 -0.86,9.56 0,8.5 0.86,21.77 2.56,39.86 1.71,18.07 2.57,31.35 2.57,39.87 1.11,19.14 3.98,47.84 8.53,86.12 1.11,12.75 3.99,32.4 8.54,58.99 4.53,26.56 7.41,46.76 8.54,60.59 2.28,26.57 8.25,68.58 17.93,125.99 9.66,57.4 15.08,102.04 16.22,133.94 1.13,14.87 3.99,36.12 8.54,63.78 4.53,27.63 7.41,48.88 8.55,63.79 2.27,31.89 3.41,55.81 3.41,71.76 0,21.25 -2.85,45.17 -8.54,71.75 -4.54,7.42 -6.83,15.95 -6.83,25.52 0,6.38 1.11,15.95 3.41,28.7 2.28,14.87 14.24,23.37 35.86,25.52 l 13.67,0 c 5.69,0 14.79,-0.28 27.33,-0.8 12.52,-0.56 22.19,-0.8 29.03,-0.8 l 15.36,0 c 17.09,0 29.3,-3.19 36.73,-9.57 7.39,-6.38 13.91,-19.69 19.63,-39.86 3.43,-8.53 5.13,-17.02 5.13,-25.52 l 0,-35.08 c 0,-4.26 1.7,-15.42 5.11,-33.48 2.28,-8.53 3.43,-21.81 3.43,-39.87 l 0,-12.76 c -1.15,-23.4 -1.71,-58.48 -1.71,-105.24 0,-4.26 -1.14,-9.57 -3.42,-15.95 -4.55,-17.02 -7.97,-35.35 -10.24,-55.02 -2.3,-19.68 -4.27,-41.74 -5.99,-66.17 -1.7,-24.46 -3.14,-43.06 -4.27,-55.81 l 0,0" /></g></g><g
         id="g54"><g
           clip-path="url(#clipPath58)"
           id="g56"><path
             id="path62"
             style="fill:#ffffff;fill-opacity:1;fill-rule:nonzero;stroke:none"
             d="m 5723.51,1277.37 c -19.37,-18.2 -47.8,-32.45 -85.39,-42.69 -50.1,-12.53 -91.09,-18.8 -122.96,-18.8 l -25.6,0 c -46.72,4.57 -95.65,17.09 -146.88,37.57 -34.16,13.66 -74.57,44.42 -121.25,92.22 -27.31,27.33 -51.83,70.03 -73.43,128.09 -1.15,2.26 -1.71,5.67 -1.71,10.24 -4.55,4.53 -6.83,8.55 -6.83,11.96 l 1.7,3.42 0,3.41 c -7.97,18.2 -11.94,29.59 -11.94,34.16 l 0,3.41 c -3.42,3.42 -5.13,7.95 -5.13,13.66 l 0,5.13 c -1.14,1.11 -1.7,2.81 -1.7,5.13 l 1.7,1.7 0,1.7 c -19.38,63.76 -29.03,126.93 -29.03,189.56 0,3.42 0.27,9.66 0.85,18.79 0.58,9.1 0.86,15.37 0.86,18.79 2.28,31.85 3.42,56.35 3.42,73.43 0,10.24 -1.14,26.74 -3.42,49.53 l 0,17.07 c 0,18.2 3.42,43.26 10.24,75.15 18.19,87.64 48.4,185.55 90.51,293.72 5.69,14.79 13.07,30.46 22.2,46.97 9.12,16.49 19.9,34.42 32.46,53.8 12.52,19.34 21.6,34.15 27.31,44.4 17.09,30.74 28.45,48.37 34.16,52.94 5.69,4.53 12.22,13.37 19.63,26.47 7.41,13.07 12.82,21.9 16.23,26.47 34.16,39.84 67.73,67.72 100.76,83.68 25.03,11.36 48.39,17.08 70.02,17.08 14.77,0 31.86,-2.86 51.23,-8.54 18.2,-4.57 30.74,-6.83 37.57,-6.83 5.69,0 10.26,0.56 13.66,1.71 1.13,0 2.83,0.26 5.13,0.85 2.28,0.56 3.99,0.85 5.13,0.85 9.1,0 16.48,-4.56 22.2,-13.66 2.27,-3.41 3.41,-7.98 3.41,-13.66 0,-5.72 -2.3,-13.11 -6.83,-22.2 -9.14,-22.79 -24.5,-34.16 -46.11,-34.16 -38.71,0 -76.85,-22.79 -114.42,-68.31 -39.86,-48.96 -71.16,-97.34 -93.92,-145.16 -33.06,-88.8 -60.37,-198.09 -81.99,-327.88 0,-9.13 -0.58,-23.06 -1.7,-41.85 -1.14,-18.78 -2.3,-32.74 -3.41,-41.84 -2.3,-45.56 -3.42,-79.15 -3.42,-100.76 0,-58.06 4.53,-110.45 13.66,-157.11 7.94,-50.11 20.5,-91.66 37.57,-124.66 30.75,-59.22 81.38,-97.93 151.99,-116.13 9.11,-2.3 18.51,-4.02 28.18,-5.13 9.65,-1.14 20.22,-2 31.6,-2.56 11.36,-0.6 20.49,-1.44 27.33,-2.56 l 5.11,0 c 15.95,0 31.31,5.69 46.12,17.08 10.24,6.83 15.93,16.48 17.07,29.03 2.28,11.37 3.42,28.44 3.42,51.23 1.11,14.78 2.27,36.71 3.41,65.76 1.11,29.03 2.28,50.93 3.43,65.74 l 0,6.83 c 0,5.69 -1.15,11.96 -3.43,18.79 -3.41,14.77 -10.83,22.2 -22.2,22.2 l -1.7,0 c -3.43,0 -8.54,-0.3 -15.37,-0.86 -6.83,-0.59 -11.4,-0.84 -13.66,-0.84 -5.73,0 -13.95,0.25 -24.77,0.84 -10.85,0.56 -19.07,0.86 -24.76,0.86 -22.79,0 -43.29,-2.3 -61.49,-6.83 -3.41,-1.16 -7.97,-1.7 -13.66,-1.7 -15.97,0 -32.44,6.83 -49.53,20.47 -13.65,10.26 -26.2,21.06 -37.57,32.46 -6.83,6.83 -10.23,15.37 -10.23,25.62 0,5.68 0.56,10.24 1.7,13.65 11.36,42.12 36.43,64.9 75.15,68.32 68.3,4.53 120.11,9.66 155.39,15.37 43.26,6.83 78.56,10.25 105.89,10.25 l 13.67,0 c 11.36,0 29.59,-2.31 54.63,-6.83 25.03,-4.56 40.4,-19.39 46.12,-44.41 2.27,-11.4 3.41,-20.48 3.41,-27.32 l 0,-3.42 c 0,-1.14 -0.28,-2.86 -0.84,-5.13 -0.6,-2.3 -0.86,-4 -0.86,-5.11 0,-4.56 0.56,-7.43 1.7,-8.53 6.83,-15.97 10.26,-36.46 10.26,-61.49 0,-7.99 -0.6,-19.93 -1.72,-35.86 -1.13,-15.97 -1.71,-27.93 -1.71,-35.87 0,-30.73 -1.14,-75.73 -3.41,-134.91 l 0,-13.67 c 4.54,-12.54 6.84,-26.2 6.84,-40.97 0,-7.99 -1.14,-20.5 -3.43,-37.59 -2.3,-17.07 -3.41,-29.61 -3.41,-37.56 0,-14.78 -7.42,-25.61 -22.19,-32.44 -45.54,-20.5 -82.58,-44.4 -111.02,-71.73 l 0,0" /><path
             id="path64"
             style="fill:#ffffff;fill-opacity:1;fill-rule:nonzero;stroke:none"
             d="m 6044.82,2622.43 c 15.9,3.61 71.37,7.71 166.38,12.31 94.99,4.59 163.01,7.14 204,7.65 23.91,0.3 39.27,-0.11 46.12,-1.14 10.27,-2.17 24.52,-3.11 42.75,-2.88 l 37.56,0.46 c 34.15,0.43 61.01,-10.08 80.66,-31.45 11.51,-12.4 17.7,-51.01 18.51,-115.9 l 0.1,-8.54 c -0.89,-19.39 -12.67,-33.2 -35.35,-41.43 -10.19,-4.69 -22.69,-7.11 -37.48,-7.3 l -6.83,-0.08 c -3.41,-0.04 -9.68,0.14 -18.8,0.62 -9.13,0.45 -16.51,0.65 -22.2,0.58 -14.8,-0.19 -70.02,-1.17 -165.63,-2.91 -95.61,-1.78 -151.39,-2.73 -167.34,-2.93 -29.63,-0.36 -49.53,-0.05 -59.78,0.97 l -3.43,-0.04 c -17.07,-0.21 -25.49,-10.01 -25.24,-29.35 l 0.21,-17.08 c 0.8,-64.88 1.97,-113.85 3.53,-146.83 2.74,-38.69 4.23,-66.55 4.45,-83.64 l -1.77,5.11 c 0.01,-1.16 -0.25,-3.16 -0.78,-5.99 -0.56,-2.86 -0.8,-4.88 -0.78,-5.98 0.07,-5.73 1.85,-12.53 5.38,-20.43 3.5,-7.94 7.01,-14.73 10.49,-20.37 l 5.21,-6.76 c 1.12,0.01 2.83,0.3 5.11,0.91 2.26,0.59 3.97,0.91 5.11,0.92 9.08,2.39 29,3.78 59.73,4.16 38.68,0.48 101.65,-2.75 188.85,-9.62 87.17,-6.89 135.34,-14.29 144.57,-22.11 6.95,-9.05 11.25,-34.03 12.89,-74.99 1.62,-40.97 3.08,-64.31 4.29,-69.97 1.17,-4.55 1.85,-10.82 1.93,-18.76 0.2,-15.96 -9.33,-28.04 -28.58,-36.23 -13.58,-5.88 -26.09,-8.86 -37.46,-8.99 l -6.83,-0.09 c -2.28,-1.19 -18.76,-1.95 -49.49,-2.33 -31.88,-0.4 -84.83,-0.2 -158.85,0.6 -74.05,0.79 -113.33,1.15 -117.85,1.1 l -3.42,-0.05 c -12.54,-1.3 -21.05,-3.97 -25.53,-8 -4.5,-4.05 -6.68,-11.18 -6.57,-21.42 l 0.12,-8.54 c 1.31,-15.95 2.22,-40.97 2.63,-75.12 l 0.94,-75.13 0.42,-34.16 0.03,-1.7 c 0.15,-12.56 -1.42,-23.94 -4.72,-34.23 l 0.14,-10.24 c 0.1,-7.97 4.73,-15.32 13.94,-22.03 2.27,0.03 5.69,-0.22 10.26,-0.73 4.53,-0.53 8.53,-0.75 11.96,-0.7 11.36,0.14 65.46,1.38 162.19,3.73 96.74,2.3 151.98,3.59 165.62,3.75 30.74,0.38 51.27,-1.07 61.54,-4.37 5.72,-2.23 16.84,-3.2 33.35,-2.99 16.47,0.2 27.04,-0.81 31.63,-3.03 13.73,-4.4 25.01,-19.07 33.86,-43.98 8.83,-24.95 16.89,-53.88 24.12,-86.8 7.24,-32.92 12.62,-53.91 16.16,-62.99 1.14,-2.25 1.77,-5.66 1.83,-10.22 0.1,-7.96 -2.64,-15.97 -8.25,-24.02 -13.42,-19.52 -30.94,-31.14 -52.51,-34.81 -22.74,-3.7 -102.36,-9.21 -238.9,-16.62 -136.53,-7.38 -213.92,-12.31 -232.08,-14.84 l -3.43,-0.05 c -2.28,-1.14 -5.09,-1.77 -8.51,-1.8 l -6.82,-0.09 c -5.69,-2.33 -13.63,-3.59 -23.87,-3.72 -4.55,-0.05 -10.84,0.17 -18.79,0.63 -7.97,0.5 -13.68,0.68 -17.09,0.65 -1.14,-0.02 -2.85,0.24 -5.13,0.77 -2.31,0.58 -4.02,0.81 -5.14,0.8 l -6.83,-0.09 c -30.74,-0.38 -55.47,18.7 -74.14,57.16 -23.41,49.82 -36.02,101.43 -37.79,154.95 -0.2,15.93 -1.98,43.22 -5.29,81.91 -3.33,38.65 -5.13,68.8 -5.39,90.45 l -1.56,126.37 c -0.3,22.75 0.08,39.27 1.09,49.54 -0.18,14.78 0.12,36.43 0.9,64.92 0.76,28.43 1.09,49.54 0.92,63.19 -0.28,22.76 -1.09,39.83 -2.33,51.21 -7.39,135.4 -12.31,211.03 -14.77,226.97 -3.76,27.28 -5.81,55.14 -6.17,83.61 -0.25,20.49 0.48,51.24 2.28,92.25 -0.22,17.08 3.59,31.34 11.41,42.84 3.36,5.72 5,10.87 4.95,15.43 l -0.15,11.95 c -0.08,5.68 0.45,9.66 1.56,11.98 l -0.02,1.71 -0.13,10.24 c -0.07,5.68 1.57,10.27 4.94,13.73 1.05,6.84 9.4,21.17 25.1,43.01 25.8,29.91 55.15,49.06 88.08,57.45 l 0,0" /></g></g><g
         id="g66"><g
           clip-path="url(#clipPath70)"
           id="g68"><path
             id="path74"
             style="fill:#ffffff;fill-opacity:1;fill-rule:nonzero;stroke:none"
             d="m 3321.47,3542.88 c 5.82,-75.92 8.75,-125.15 8.75,-147.68 l 0,-16.27 c 0,-33.37 4.58,-75.93 13.77,-127.66 8.33,-55.06 15.43,-96.36 21.28,-123.9 4.16,-20.02 13.77,-48.39 28.79,-85.1 10.83,-25.85 29.18,-38.8 55.07,-38.8 0.81,0 2.49,0.44 4.99,1.25 13.35,1.69 22.1,7.51 26.29,17.52 21.68,52.57 32.95,87.17 33.79,103.88 0.83,10.01 2.07,25.85 3.76,47.56 1.65,21.69 2.91,37.55 3.75,47.56 3.33,29.2 6.26,49.62 8.75,61.32 1.68,10.83 3.15,26.7 4.39,47.56 1.25,20.84 1.88,33.79 1.88,38.8 3.33,43.36 5,76.34 5,98.87 0,18.34 -0.41,32.1 -1.24,41.3 -0.85,16.69 -2.93,42.12 -6.27,76.35 -3.34,34.2 -5.43,59.63 -6.25,76.34 -0.85,15.02 -1.26,37.96 -1.26,68.84 0,42.55 2.91,82.6 8.77,120.14 4.16,30.85 7.51,49.23 10,55.07 9.18,22.53 25.45,35.46 48.82,38.8 27.52,4.17 44.22,7.92 50.06,11.26 1.67,0.82 3.75,1.25 6.27,1.25 8.32,0 14.58,-4.59 18.75,-13.76 3.35,-7.51 5.84,-15.46 7.51,-23.78 1.67,-14.21 4.59,-34.42 8.77,-60.7 4.17,-26.28 7.08,-44.01 8.77,-53.19 10.83,-75.93 18.77,-128.91 23.77,-158.95 7.51,-40.88 11.68,-66.77 12.52,-77.59 l 0,-26.29 c 0,-17.52 -1.25,-30.47 -3.75,-38.8 -5.86,-20.85 -8.77,-42.98 -8.77,-66.33 l 0,-32.54 c 0,-29.22 -2.5,-73.02 -7.51,-131.41 -0.84,-10.84 -2.1,-30.03 -3.76,-57.57 -1.67,-27.53 -3.34,-48.81 -4.99,-63.83 -6.7,-55.06 -15.02,-95.95 -25.05,-122.65 -14.19,-39.21 -34.2,-68.4 -60.06,-87.61 -10.85,-8.32 -23.79,-13.76 -38.81,-16.27 -0.84,0 -8.96,-1.25 -24.4,-3.75 -15.45,-2.5 -26.91,-3.75 -34.4,-3.75 l -7.51,0 c -5.86,0 -12.11,-3.32 -18.78,-10.02 -15.02,-15.83 -34.23,-23.78 -57.58,-23.78 l -10.01,0 c -47.56,3.34 -84.7,29.62 -111.38,78.85 -2.51,3.34 -12.95,30.87 -31.3,82.6 -9.18,25.03 -18.36,59.24 -27.52,102.63 -1.69,10.01 -3.56,24.2 -5.64,42.55 -2.09,18.34 -3.56,30.04 -4.39,35.04 -4.17,26.7 -6.25,67.15 -6.25,121.4 0,18.34 -1.26,45.87 -3.76,82.6 -2.49,36.72 -3.75,64.25 -3.75,82.61 0,1.66 0.2,3.94 0.63,6.88 0.41,2.92 0.63,5.19 0.63,6.88 1.65,73.41 3.32,129.33 4.99,167.71 0,2.5 0.2,5.82 0.63,10.01 0.42,4.17 0.63,7.51 0.63,10.01 l 0,3.76 c 0,15.02 0.41,26.28 1.26,33.79 3.32,26.7 4.99,46.72 4.99,60.07 0,1.67 -0.21,4.18 -0.61,7.51 -0.43,3.32 -0.63,5.82 -0.63,7.51 l 0,3.76 c 0,21.69 12.51,48.37 37.55,80.1 4.15,5 8.32,7.51 12.51,7.51 5.01,0 9.59,-2.51 13.76,-7.51 5.01,-5.84 7.51,-14.21 7.51,-25.03 l 0,-33.8 c 0,-8.34 -0.43,-20.65 -1.24,-36.92 -0.84,-16.27 -1.26,-28.59 -1.26,-36.92 0,-12.51 0.42,-22.11 1.26,-28.78 0.81,-3.34 1.24,-9.2 1.24,-17.52 0,-2.51 -0.21,-6.26 -0.63,-11.27 -0.41,-5 -0.61,-9.2 -0.61,-12.51 l 0,-16.27 c 0,-32.54 2.5,-82.19 7.51,-148.94 l 0,0" /><path
             id="path76"
             style="fill:#ffffff;fill-opacity:1;fill-rule:nonzero;stroke:none"
             d="m 6405.81,3901.86 c 8.86,2.66 17.76,3.99 26.64,3.99 2.67,0 7.78,0.21 15.34,0.67 7.53,0.43 13.51,0.67 17.98,0.67 23.09,0 38.18,-3.13 45.31,-9.33 9.76,-7.13 31.51,-24.88 65.29,-53.3 6.19,-5.33 11.99,-12.66 17.32,-21.99 5.33,-9.32 9.33,-17.32 11.99,-23.98 2.67,-6.66 6.19,-16.65 10.66,-29.98 4.43,-13.32 7.09,-21.32 7.99,-23.98 6.2,-17.79 9.33,-35.54 9.33,-53.3 0,-9.79 -1.33,-17.32 -3.99,-22.65 -3.57,-6.23 -15.12,-13.79 -34.66,-22.65 -5.32,-2.67 -11.99,-4.67 -19.98,-6 -7.99,-1.33 -14.23,-2.9 -18.66,-4.66 l -3.98,0 c -7.13,0 -18.23,5.32 -33.32,15.99 -13.32,9.76 -20.45,27.98 -21.32,54.63 -0.9,16.85 -6.9,32.64 -17.98,47.3 -11.14,14.65 -23.33,23.75 -36.65,27.31 -8.9,1.77 -15.11,2.67 -18.65,2.67 -31.12,0 -55.97,-19.99 -74.63,-59.96 -6.22,-12.46 -9.33,-24.45 -9.33,-35.98 0,-23.98 13.11,-45.97 39.33,-65.96 26.18,-19.98 57.28,-40.43 93.26,-61.29 35.98,-20.88 61.06,-40.2 75.28,-57.96 39.07,-49.76 61.74,-96.4 67.96,-139.91 7.09,-47.96 13.76,-80.41 19.98,-97.27 8.87,-23.11 13.76,-40.43 14.66,-51.96 0,-4.46 0.67,-8.89 2,-13.32 1.34,-4.46 2.88,-11.33 4.66,-20.66 1.77,-9.33 3.54,-17.99 5.33,-25.98 0.88,-4.46 1.34,-11.56 1.34,-21.32 0,-33.77 -9.79,-64.42 -29.31,-91.94 -24.88,-33.77 -45.31,-53.76 -61.29,-59.96 -9.8,-3.56 -16.66,-7.13 -20.66,-10.66 -4.01,-3.56 -6.9,-9.33 -8.67,-17.32 -3.56,-13.33 -15.98,-22.65 -37.3,-27.98 -8.9,-2.67 -18.66,-4 -29.32,-4 l -5.32,0 c -8.9,0 -24.45,-0.46 -46.63,-1.33 l -2.68,0 c -24.88,0 -52.86,6.86 -83.94,20.65 -31.12,13.76 -57.3,34.85 -78.62,63.29 -44.44,55.97 -69.74,110.13 -75.95,162.56 -1.78,12.43 -3.79,23.99 -5.99,34.65 -2.23,10.65 -4.46,20.85 -6.66,30.64 -2.24,9.76 -3.79,16.43 -4.67,19.99 -2.66,13.32 -4,25.31 -4,35.97 0,1.77 0.21,4.44 0.68,8 0.43,3.53 0.66,5.76 0.66,6.66 0,10.66 4.43,20.86 13.32,30.65 16.87,18.65 34.19,31.98 51.97,39.97 7.1,3.54 14.19,5.33 21.32,5.33 7.1,0 13.75,-4 19.99,-11.99 12.42,-16.89 19.09,-32.44 19.98,-46.64 0.88,-15.12 5.33,-35.1 13.33,-59.96 8.85,-28.44 15.09,-49.76 18.64,-63.95 5.33,-20.45 13.34,-37.78 23.99,-51.97 9.76,-12.45 17.77,-26.21 23.99,-41.31 7.99,-19.55 27.52,-30.21 58.62,-31.98 2.66,0 5.77,-0.23 9.33,-0.66 3.54,-0.46 5.78,-0.67 6.67,-0.67 5.32,0 12.85,1.33 22.64,4 10.67,3.53 18.2,15.99 22.65,37.31 0.88,2.66 1.34,5.33 1.34,7.99 0,2.67 0,4.87 0,6.67 0,1.76 0.2,3.09 0.66,3.99 0.45,0.87 0.68,1.77 0.68,2.67 0.86,0.87 1.52,2.43 1.98,4.66 0.45,2.2 0.68,3.77 0.68,4.67 0,1.76 0.43,3.99 1.33,6.66 0.87,2.66 1.34,4.43 1.34,5.33 0,0.87 0,2.43 0,4.66 0,2.2 0.43,4.2 1.32,6 l 1.34,2.66 c 0,1.77 0,3.1 0,4 l 0,1.33 c 0,4.43 0.43,8 1.32,10.66 0.88,2.67 1.54,7.1 2.01,13.33 0.44,6.19 0.67,10.19 0.67,11.99 0.86,3.53 1.33,9.76 1.33,18.65 0,1.77 -0.23,3.54 -0.67,5.33 -0.46,1.77 -0.66,3.1 -0.66,4 0,1.77 -0.46,4 -1.34,6.66 0,2.67 -0.46,4.87 -1.34,6.66 -0.89,0.87 -1.32,3.1 -1.32,6.67 0,3.53 0,6.66 0,9.32 -1.8,8 -3.57,23.99 -5.33,47.97 -0.91,9.76 -4.89,19.76 -11.99,29.98 -7.13,10.2 -17.12,21.99 -29.99,35.31 -12.89,13.32 -22.45,23.98 -28.63,31.98 -15.12,19.52 -41.77,43.07 -79.95,70.62 -38.21,27.52 -63.97,48.4 -77.29,62.62 -31.97,35.52 -47.97,79.49 -47.97,131.92 0,39.07 9.33,77.28 27.97,114.59 13.34,25.75 30.66,49.3 51.98,70.62 12.42,12.42 47.51,26.65 105.26,42.64 l 0,0" /></g></g><g
         id="g78"><g
           clip-path="url(#clipPath82)"
           id="g80"><path
             id="path86"
             style="fill:#ffffff;fill-opacity:1;fill-rule:nonzero;stroke:none"
             d="m 1727.04,1393.56 c 45.29,-11.36 73.44,-32.55 84.32,-63.55 3.63,-16.51 5.44,-25.31 5.44,-26.35 0,-6.21 -3.67,-10.86 -10.88,-13.95 -7.26,-3.11 -22.71,-7.21 -46.24,-12.41 -45.33,-9.29 -91.58,-15.5 -138.72,-18.59 -38.08,-3.11 -95.2,-4.65 -171.36,-4.65 -47.19,0 -116.06,1.05 -206.72,3.1 l -212.16,4.64 -89.763,0 c -32.641,0 -65.281,1.56 -97.922,4.65 -38.078,3.11 -76.16,10.36 -114.238,21.71 -47.188,15.5 -70.723,35.64 -70.723,60.44 l 0,9.3 c 3.629,23.78 12.656,44.96 27.199,63.55 16.325,19.62 40.801,29.45 73.442,29.45 l 21.762,0 c 58.027,-5.18 110.574,-7.74 157.757,-7.74 47.149,0 82.506,0.49 106.086,1.55 14.5,1.01 38.08,2.05 70.72,3.09 32.64,1.01 56.17,1.56 70.72,1.56 l 103.36,1.54 16.32,0 c 16.32,4.12 35.36,6.2 57.12,6.2 27.2,0 69.77,-5.19 127.84,-15.5 28.97,-4.1 70.72,-11.35 125.12,-21.7 32.64,-7.21 69.77,-16 111.52,-26.34 l 0,0" /></g></g><g
         id="g88"><g
           clip-path="url(#clipPath92)"
           id="g90"><path
             id="path96"
             style="fill:#ffffff;fill-opacity:1;fill-rule:nonzero;stroke:none"
             d="m 779.191,941.211 c 0,2.059 1.852,3.699 3.914,3.699 l 5.129,0 82.024,-78.93 0.215,0 0,72.969 c 0,2.063 1.648,3.922 3.898,3.922 l 24.68,0 c 2.051,0 3.898,-1.859 3.898,-3.922 l 0,-138.328 c 0,-2.062 -1.847,-3.723 -3.898,-3.723 l -3.297,0 c -0.617,0 -2.266,0.614 -2.664,1.032 l -81.207,81.609 -0.199,0 0,-76.68 c 0,-2.058 -1.649,-3.898 -3.914,-3.898 l -24.465,0 c -2.047,0 -3.899,1.84 -3.899,3.898 l -0.215,138.352 0,0" /><path
             id="path98"
             style="fill:#ffffff;fill-opacity:1;fill-rule:nonzero;stroke:none"
             d="m 1014.45,938.949 c 0,2.063 1.85,3.922 3.9,3.922 l 24.66,0 c 2.07,0 3.92,-1.859 3.92,-3.922 l 0,-136.09 c 0,-2.058 -1.85,-3.898 -3.92,-3.898 l -24.66,0 c -2.05,0 -3.9,1.84 -3.9,3.898 l 0,136.09" /><path
             id="path100"
             style="fill:#ffffff;fill-opacity:1;fill-rule:nonzero;stroke:none"
             d="m 1095.11,941.211 c 0,2.059 1.85,3.699 3.91,3.699 l 5.13,0 82.04,-78.93 0.2,0 0,72.969 c 0,2.063 1.65,3.922 3.9,3.922 l 24.68,0 c 2.05,0 3.89,-1.859 3.89,-3.922 l 0,-138.328 c 0,-2.062 -1.84,-3.723 -3.89,-3.723 l -3.3,0 c -0.62,0 -2.26,0.614 -2.67,1.032 l -81.2,81.609 -0.2,0 0,-76.68 c 0,-2.058 -1.65,-3.898 -3.91,-3.898 l -24.47,0 c -2.05,0 -3.89,1.84 -3.89,3.898 l -0.22,138.352 0,0" /><path
             id="path102"
             style="fill:#ffffff;fill-opacity:1;fill-rule:nonzero;stroke:none"
             d="m 1267.46,938.949 c 0,2.063 1.85,3.922 3.9,3.922 l 24.67,0 c 2.06,0 3.91,-1.859 3.91,-3.922 l 0,-136.09 c 0,-2.058 -1.85,-3.898 -3.91,-3.898 l -24.67,0 c -2.05,0 -3.9,1.84 -3.9,3.898 l 0,136.09" /><path
             id="path104"
             style="fill:#ffffff;fill-opacity:1;fill-rule:nonzero;stroke:none"
             d="m 1365.51,912.641 -29.4,0 c -2.25,0 -3.9,1.851 -3.9,3.91 l 0,22.398 c 0,2.063 1.65,3.922 3.9,3.922 l 91.28,0 c 2.27,0 3.9,-1.859 3.9,-3.922 l 0,-22.398 c 0,-2.059 -1.63,-3.91 -3.9,-3.91 l -29.39,0 0,-109.782 c 0,-2.058 -1.85,-3.898 -3.91,-3.898 l -24.67,0 c -2.05,0 -3.91,1.84 -3.91,3.898 l 0,109.782" /><path
             id="path106"
             style="fill:#ffffff;fill-opacity:1;fill-rule:nonzero;stroke:none"
             d="m 1463.75,938.949 c 0,2.063 1.85,3.922 3.9,3.922 l 24.67,0 c 2.06,0 3.91,-1.859 3.91,-3.922 l 0,-136.09 c 0,-2.058 -1.85,-3.898 -3.91,-3.898 l -24.67,0 c -2.05,0 -3.9,1.84 -3.9,3.898 l 0,136.09" /><path
             id="path108"
             style="fill:#ffffff;fill-opacity:1;fill-rule:nonzero;stroke:none"
             d="m 1526.97,804.309 64.34,138.351 c 0.61,1.231 2.06,2.25 3.49,2.25 l 2.05,0 c 1.45,0 2.88,-1.019 3.5,-2.25 l 64.35,-138.351 c 1.23,-2.68 -0.42,-5.348 -3.5,-5.348 l -22.81,0 c -3.7,0 -5.35,1.23 -7.2,5.129 l -7.39,16.25 -55.93,0 -7.39,-16.449 c -1.03,-2.469 -3.3,-4.93 -7.41,-4.93 l -22.62,0 c -3.08,0 -4.71,2.668 -3.48,5.348 l 0,0 z m 84.49,43.992 -15.63,33.91 -0.21,0 -15.41,-33.91 31.25,0 0,0" /><path
             id="path110"
             style="fill:#ffffff;fill-opacity:1;fill-rule:nonzero;stroke:none"
             d="m 1704.71,912.641 -29.39,0 c -2.25,0 -3.9,1.851 -3.9,3.91 l 0,22.398 c 0,2.063 1.65,3.922 3.9,3.922 l 91.28,0 c 2.26,0 3.9,-1.859 3.9,-3.922 l 0,-22.398 c 0,-2.059 -1.64,-3.91 -3.9,-3.91 l -29.4,0 0,-109.782 c 0,-2.058 -1.85,-3.898 -3.91,-3.898 l -24.66,0 c -2.05,0 -3.92,1.84 -3.92,3.898 l 0,109.782" /><path
             id="path112"
             style="fill:#ffffff;fill-opacity:1;fill-rule:nonzero;stroke:none"
             d="m 1802.96,938.949 c 0,2.063 1.85,3.922 3.9,3.922 l 24.66,0 c 2.07,0 3.91,-1.859 3.91,-3.922 l 0,-136.09 c 0,-2.058 -1.84,-3.898 -3.91,-3.898 l -24.66,0 c -2.05,0 -3.9,1.84 -3.9,3.898 l 0,136.09" /><path
             id="path114"
             style="fill:#ffffff;fill-opacity:1;fill-rule:nonzero;stroke:none"
             d="m 1866.18,937.52 c -1.24,2.66 0.4,5.351 3.48,5.351 l 27.34,0 c 1.65,0 3.09,-1.25 3.5,-2.269 l 33.92,-75.043 1.24,0 33.92,75.043 c 0.4,1.019 1.85,2.269 3.48,2.269 l 27.35,0 c 3.08,0 4.73,-2.691 3.5,-5.351 l -64.55,-138.36 c -0.62,-1.23 -1.85,-2.262 -3.5,-2.262 l -2.05,0 c -1.65,0 -2.88,1.032 -3.5,2.262 l -64.13,138.36 0,0" /><path
             id="path116"
             style="fill:#ffffff;fill-opacity:1;fill-rule:nonzero;stroke:none"
             d="m 2034.8,938.949 c 0,2.063 1.64,3.922 3.9,3.922 l 85.1,0 c 2.27,0 3.92,-1.859 3.92,-3.922 l 0,-22.398 c 0,-2.059 -1.65,-3.91 -3.92,-3.91 l -56.94,0 0,-25.489 46.88,0 c 2.05,0 3.9,-1.863 3.9,-3.91 l 0,-22.402 c 0,-2.27 -1.85,-3.899 -3.9,-3.899 l -46.88,0 0,-27.769 56.94,0 c 2.27,0 3.92,-1.84 3.92,-3.891 l 0,-22.422 c 0,-2.058 -1.65,-3.898 -3.92,-3.898 l -85.1,0 c -2.26,0 -3.9,1.84 -3.9,3.898 l 0,136.09" /><path
             id="path118"
             style="fill:#ffffff;fill-opacity:1;fill-rule:nonzero;stroke:none"
             d="m 2294.73,944.91 c 41.11,0 74,-33.101 74,-74.211 0,-41.117 -32.89,-73.801 -74,-73.801 -41.11,0 -73.8,32.684 -73.8,73.801 0,41.11 32.69,74.211 73.8,74.211 l 0,0 z m 0,-115.109 c 22.61,0 41.11,18.5 41.11,40.898 0,22.621 -18.5,41.332 -41.11,41.332 -22.4,0 -40.91,-18.711 -40.91,-41.332 0,-22.398 18.51,-40.898 40.91,-40.898 l 0,0" /><path
             id="path120"
             style="fill:#ffffff;fill-opacity:1;fill-rule:nonzero;stroke:none"
             d="m 2407.68,938.949 c 0,2.063 1.62,3.922 3.9,3.922 l 85.1,0 c 2.26,0 3.91,-1.859 3.91,-3.922 l 0,-22.398 c 0,-2.059 -1.65,-3.91 -3.91,-3.91 l -56.95,0 0,-29.61 46.88,0 c 2.06,0 3.9,-1.832 3.9,-3.89 l 0,-22.422 c 0,-2.059 -1.84,-3.899 -3.9,-3.899 l -46.88,0 0,-49.961 c 0,-2.058 -1.84,-3.898 -3.89,-3.898 l -24.26,0 c -2.28,0 -3.9,1.84 -3.9,3.898 l 0,136.09" /><path
             id="path122"
             style="fill:#ffffff;fill-opacity:1;fill-rule:nonzero;stroke:none"
             d="m 2663.29,944.91 c 20.54,0 35.76,-6.359 49.74,-19.121 1.84,-1.629 1.84,-4.109 0.22,-5.75 l -16.04,-16.648 c -1.45,-1.45 -3.69,-1.45 -5.14,0 -7.59,6.781 -17.68,10.48 -27.75,10.48 -23.23,0 -40.3,-19.32 -40.3,-42.34 0,-22.82 17.27,-41.73 40.5,-41.73 9.65,0 20.14,3.488 27.55,9.871 1.45,1.23 4.11,1.23 5.34,-0.223 l 16.03,-17.058 c 1.43,-1.43 1.25,-4.102 -0.19,-5.551 -14,-13.559 -31.66,-19.942 -49.96,-19.942 -41.13,0 -74.22,32.684 -74.22,73.801 0,41.11 33.09,74.211 74.22,74.211 l 0,0" /><path
             id="path124"
             style="fill:#ffffff;fill-opacity:1;fill-rule:nonzero;stroke:none"
             d="m 2811.8,944.91 c 41.11,0 74,-33.101 74,-74.211 0,-41.117 -32.89,-73.801 -74,-73.801 -41.11,0 -73.8,32.684 -73.8,73.801 0,41.11 32.69,74.211 73.8,74.211 l 0,0 z m 0,-115.109 c 22.6,0 41.11,18.5 41.11,40.898 0,22.621 -18.51,41.332 -41.11,41.332 -22.4,0 -40.91,-18.711 -40.91,-41.332 0,-22.398 18.51,-40.898 40.91,-40.898 l 0,0" /><path
             id="path126"
             style="fill:#ffffff;fill-opacity:1;fill-rule:nonzero;stroke:none"
             d="m 2936.93,941.621 c 0.21,1.848 2.05,3.289 3.69,3.289 l 3.29,0 c 1.04,0 2.88,-0.808 3.51,-2.039 l 47.68,-88.82 0.41,0 47.7,88.82 c 0.61,1.231 2.47,2.039 3.49,2.039 l 3.29,0 c 1.64,0 3.5,-1.441 3.71,-3.289 l 23.22,-138.141 c 0.42,-2.679 -1.44,-4.519 -3.9,-4.519 l -24.27,0 c -1.84,0 -3.7,1.66 -3.9,3.289 l -9.26,63.512 -0.39,0 -34.55,-66.602 c -0.6,-1.23 -2.46,-2.262 -3.49,-2.262 l -3.69,0 c -1.25,0 -2.89,1.032 -3.51,2.262 l -34.73,66.602 -0.42,0 -9.05,-63.512 c -0.2,-1.629 -1.85,-3.289 -3.89,-3.289 l -24.27,0 c -2.47,0 -4.31,1.84 -3.9,4.519 l 23.23,138.141 0,0" /><path
             id="path128"
             style="fill:#ffffff;fill-opacity:1;fill-rule:nonzero;stroke:none"
             d="m 3131.23,941.621 c 0.22,1.848 2.06,3.289 3.7,3.289 l 3.3,0 c 1.03,0 2.87,-0.808 3.49,-2.039 l 47.71,-88.82 0.39,0 47.7,88.82 c 0.61,1.231 2.46,2.039 3.49,2.039 l 3.29,0 c 1.65,0 3.49,-1.441 3.71,-3.289 l 23.21,-138.141 c 0.42,-2.679 -1.43,-4.519 -3.9,-4.519 l -24.25,0 c -1.86,0 -3.7,1.66 -3.9,3.289 l -9.26,63.512 -0.4,0 -34.55,-66.602 c -0.61,-1.23 -2.46,-2.262 -3.49,-2.262 l -3.7,0 c -1.23,0 -2.88,1.032 -3.49,2.262 l -34.75,66.602 -0.42,0 -9.04,-63.512 c -0.2,-1.629 -1.84,-3.289 -3.9,-3.289 l -24.25,0 c -2.47,0 -4.32,1.84 -3.92,4.519 l 23.23,138.141 0,0" /><path
             id="path130"
             style="fill:#ffffff;fill-opacity:1;fill-rule:nonzero;stroke:none"
             d="m 3307.61,938.949 c 0,2.063 1.85,3.922 3.91,3.922 l 25.29,0 c 2.26,0 3.89,-1.859 3.89,-3.922 l 0,-83.258 c 0,-14.39 10.7,-25.89 25.3,-25.89 14.8,0 25.69,11.5 25.69,25.89 l 0,83.258 c 0,2.063 1.64,3.922 3.9,3.922 l 25.3,0 c 2.04,0 3.9,-1.859 3.9,-3.922 l 0,-84.898 c 0,-31.242 -26.31,-57.153 -58.79,-57.153 -32.26,0 -58.39,25.911 -58.39,57.153 l 0,84.898" /><path
             id="path132"
             style="fill:#ffffff;fill-opacity:1;fill-rule:nonzero;stroke:none"
             d="m 3471.48,941.211 c 0,2.059 1.86,3.699 3.92,3.699 l 5.12,0 82.03,-78.93 0.21,0 0,72.969 c 0,2.063 1.65,3.922 3.91,3.922 l 24.68,0 c 2.04,0 3.89,-1.859 3.89,-3.922 l 0,-138.328 c 0,-2.062 -1.85,-3.723 -3.89,-3.723 l -3.31,0 c -0.61,0 -2.26,0.614 -2.66,1.032 l -81.21,81.609 -0.2,0 0,-76.68 c 0,-2.058 -1.64,-3.898 -3.91,-3.898 l -24.46,0 c -2.04,0 -3.9,1.84 -3.9,3.898 l -0.22,138.352 0,0" /><path
             id="path134"
             style="fill:#ffffff;fill-opacity:1;fill-rule:nonzero;stroke:none"
             d="m 3643.84,938.949 c 0,2.063 1.84,3.922 3.9,3.922 l 24.66,0 c 2.08,0 3.91,-1.859 3.91,-3.922 l 0,-136.09 c 0,-2.058 -1.83,-3.898 -3.91,-3.898 l -24.66,0 c -2.06,0 -3.9,1.84 -3.9,3.898 l 0,136.09" /><path
             id="path136"
             style="fill:#ffffff;fill-opacity:1;fill-rule:nonzero;stroke:none"
             d="m 3741.9,912.641 -29.4,0 c -2.26,0 -3.92,1.851 -3.92,3.91 l 0,22.398 c 0,2.063 1.66,3.922 3.92,3.922 l 91.27,0 c 2.26,0 3.91,-1.859 3.91,-3.922 l 0,-22.398 c 0,-2.059 -1.65,-3.91 -3.91,-3.91 l -29.4,0 0,-109.782 c 0,-2.058 -1.84,-3.898 -3.91,-3.898 l -24.67,0 c -2.04,0 -3.89,1.84 -3.89,3.898 l 0,109.782" /><path
             id="path138"
             style="fill:#ffffff;fill-opacity:1;fill-rule:nonzero;stroke:none"
             d="m 3876.54,868.242 -45.43,68.649 c -1.65,2.691 0,5.98 3.29,5.98 l 26.72,0 c 1.66,0 2.68,-1.031 3.31,-1.859 l 28.56,-42.141 28.57,42.141 c 0.63,0.828 1.45,1.859 3.29,1.859 l 26.72,0 c 3.31,0 4.94,-3.289 3.31,-5.98 l -46.05,-68.45 0,-65.582 c 0,-2.058 -1.86,-3.898 -3.92,-3.898 l -24.47,0 c -2.25,0 -3.9,1.84 -3.9,3.898 l 0,65.383" /><path
             id="path140"
             style="fill:#ffffff;fill-opacity:1;fill-rule:nonzero;stroke:none"
             d="m 4047.48,938.949 c 0,2.063 1.64,3.922 3.9,3.922 l 85.1,0 c 2.26,0 3.91,-1.859 3.91,-3.922 l 0,-22.398 c 0,-2.059 -1.65,-3.91 -3.91,-3.91 l -56.95,0 0,-29.61 46.9,0 c 2.04,0 3.89,-1.832 3.89,-3.89 l 0,-22.422 c 0,-2.059 -1.85,-3.899 -3.89,-3.899 l -46.9,0 0,-49.961 c 0,-2.058 -1.84,-3.898 -3.89,-3.898 l -24.26,0 c -2.26,0 -3.9,1.84 -3.9,3.898 l 0,136.09" /><path
             id="path142"
             style="fill:#ffffff;fill-opacity:1;fill-rule:nonzero;stroke:none"
             d="m 4237.84,944.91 c 41.11,0 74,-33.101 74,-74.211 0,-41.117 -32.89,-73.801 -74,-73.801 -41.11,0 -73.8,32.684 -73.8,73.801 0,41.11 32.69,74.211 73.8,74.211 l 0,0 z m 0,-115.109 c 22.61,0 41.11,18.5 41.11,40.898 0,22.621 -18.5,41.332 -41.11,41.332 -22.4,0 -40.9,-18.711 -40.9,-41.332 0,-22.398 18.5,-40.898 40.9,-40.898 l 0,0" /><path
             id="path144"
             style="fill:#ffffff;fill-opacity:1;fill-rule:nonzero;stroke:none"
             d="m 4415.2,944.91 c 41.1,0 74,-33.101 74,-74.211 0,-41.117 -32.9,-73.801 -74,-73.801 -41.11,0 -73.8,32.684 -73.8,73.801 0,41.11 32.69,74.211 73.8,74.211 l 0,0 z m 0,-115.109 c 22.61,0 41.1,18.5 41.1,40.898 0,22.621 -18.49,41.332 -41.1,41.332 -22.41,0 -40.91,-18.711 -40.91,-41.332 0,-22.398 18.5,-40.898 40.91,-40.898 l 0,0" /><path
             id="path146"
             style="fill:#ffffff;fill-opacity:1;fill-rule:nonzero;stroke:none"
             d="m 4528.13,938.949 c 0,2.063 1.63,3.922 3.69,3.922 l 50.17,0 c 39.67,0 72.14,-32.289 72.14,-71.762 0,-39.879 -32.47,-72.148 -72.14,-72.148 l -50.17,0 c -2.06,0 -3.69,1.84 -3.69,3.898 l 0,136.09 z m 51.8,-109.558 c 23.23,0 40.08,18.289 40.08,41.718 0,23.243 -16.85,41.532 -40.08,41.532 l -19.73,0 0,-83.25 19.73,0 0,0" /><path
             id="path148"
             style="fill:#ffffff;fill-opacity:1;fill-rule:nonzero;stroke:none"
             d="m 4819.07,944.91 c 20.57,0 35.78,-6.359 49.75,-19.121 1.85,-1.629 1.85,-4.109 0.22,-5.75 l -16.05,-16.648 c -1.43,-1.45 -3.69,-1.45 -5.14,0 -7.59,6.781 -17.66,10.48 -27.73,10.48 -23.25,0 -40.32,-19.32 -40.32,-42.34 0,-22.82 17.28,-41.73 40.5,-41.73 9.67,0 20.16,3.488 27.55,9.871 1.45,1.23 4.12,1.23 5.35,-0.223 l 16.04,-17.058 c 1.43,-1.43 1.23,-4.102 -0.2,-5.551 -13.99,-13.559 -31.66,-19.942 -49.97,-19.942 -41.1,0 -74.2,32.684 -74.2,73.801 0,41.11 33.1,74.211 74.2,74.211 l 0,0" /><path
             id="path150"
             style="fill:#ffffff;fill-opacity:1;fill-rule:nonzero;stroke:none"
             d="m 4906.18,938.949 c 0,2.063 1.62,3.922 3.9,3.922 l 85.1,0 c 2.26,0 3.91,-1.859 3.91,-3.922 l 0,-22.398 c 0,-2.059 -1.65,-3.91 -3.91,-3.91 l -56.95,0 0,-25.489 46.88,0 c 2.05,0 3.89,-1.863 3.89,-3.91 l 0,-22.402 c 0,-2.27 -1.84,-3.899 -3.89,-3.899 l -46.88,0 0,-27.769 56.95,0 c 2.26,0 3.91,-1.84 3.91,-3.891 l 0,-22.422 c 0,-2.058 -1.65,-3.898 -3.91,-3.898 l -85.1,0 c -2.28,0 -3.9,1.84 -3.9,3.898 l 0,136.09" /><path
             id="path152"
             style="fill:#ffffff;fill-opacity:1;fill-rule:nonzero;stroke:none"
             d="m 5041.57,941.211 c 0,2.059 1.85,3.699 3.91,3.699 l 5.13,0 82.03,-78.93 0.2,0 0,72.969 c 0,2.063 1.65,3.922 3.9,3.922 l 24.67,0 c 2.06,0 3.92,-1.859 3.92,-3.922 l 0,-138.328 c 0,-2.062 -1.86,-3.723 -3.92,-3.723 l -3.28,0 c -0.61,0 -2.26,0.614 -2.67,1.032 l -81.2,81.609 -0.21,0 0,-76.68 c 0,-2.058 -1.65,-3.898 -3.91,-3.898 l -24.46,0 c -2.06,0 -3.9,1.84 -3.9,3.898 l -0.21,138.352 0,0" /><path
             id="path154"
             style="fill:#ffffff;fill-opacity:1;fill-rule:nonzero;stroke:none"
             d="m 5231.15,912.641 -29.4,0 c -2.25,0 -3.9,1.851 -3.9,3.91 l 0,22.398 c 0,2.063 1.65,3.922 3.9,3.922 l 91.29,0 c 2.26,0 3.89,-1.859 3.89,-3.922 l 0,-22.398 c 0,-2.059 -1.63,-3.91 -3.89,-3.91 l -29.4,0 0,-109.782 c 0,-2.058 -1.86,-3.898 -3.92,-3.898 l -24.66,0 c -2.06,0 -3.91,1.84 -3.91,3.898 l 0,109.782" /><path
             id="path156"
             style="fill:#ffffff;fill-opacity:1;fill-rule:nonzero;stroke:none"
             d="m 5329.41,938.949 c 0,2.063 1.63,3.922 3.89,3.922 l 61.47,0 c 24.66,0 44.82,-19.941 44.82,-44.422 0,-18.91 -12.53,-34.117 -30.43,-41.308 l 28.17,-52.219 c 1.43,-2.672 0,-5.961 -3.51,-5.961 l -27.34,0 c -1.64,0 -2.87,1.031 -3.28,1.84 l -27.34,54.488 -14.19,0 0,-52.43 c 0,-2.058 -1.85,-3.898 -3.91,-3.898 l -24.46,0 c -2.26,0 -3.89,1.84 -3.89,3.898 l 0,136.09 z m 62.68,-57.551 c 8.43,0 15.64,7.813 15.64,16.442 0,8.64 -7.21,15.621 -15.64,15.621 l -30.42,0 0,-32.063 30.42,0 0,0" /><path
             id="path158"
             style="fill:#ffffff;fill-opacity:1;fill-rule:nonzero;stroke:none"
             d="m 5480.55,938.949 c 0,2.063 1.63,3.922 3.89,3.922 l 85.1,0 c 2.28,0 3.92,-1.859 3.92,-3.922 l 0,-22.398 c 0,-2.059 -1.64,-3.91 -3.92,-3.91 l -56.93,0 0,-25.489 46.88,0 c 2.06,0 3.9,-1.863 3.9,-3.91 l 0,-22.402 c 0,-2.27 -1.84,-3.899 -3.9,-3.899 l -46.88,0 0,-27.769 56.93,0 c 2.28,0 3.92,-1.84 3.92,-3.891 l 0,-22.422 c 0,-2.058 -1.64,-3.898 -3.92,-3.898 l -85.1,0 c -2.26,0 -3.89,1.84 -3.89,3.898 l 0,136.09" /><path
             id="path160"
             style="fill:#ffffff;fill-opacity:1;fill-rule:nonzero;stroke:none"
             d="m 5608.34,818.48 9.67,17.071 c 1.65,2.66 5.54,2.261 7,1.23 0.81,-0.402 15.62,-11.301 29.18,-11.301 8.21,0 14.18,5.141 14.18,12.332 0,8.637 -7.2,15.219 -21.17,20.758 -17.69,6.989 -39.89,20.77 -39.89,45.43 0,20.359 15.84,40.91 47.49,40.91 21.39,0 37.83,-10.879 43.99,-15.398 2.48,-1.453 2.07,-5.153 1.23,-6.582 l -10.48,-15.84 c -1.43,-2.258 -5.14,-4.121 -6.98,-2.668 -1.85,1.027 -16.85,12.328 -29.4,12.328 -7.41,0 -12.95,-4.941 -12.95,-10.488 0,-7.61 6.15,-13.36 22.41,-19.942 16.03,-6.359 41.51,-18.91 41.51,-46.871 0,-21.16 -18.3,-42.551 -48.51,-42.551 -26.72,0 -41.53,11.102 -46.23,15.832 -2.08,2.051 -2.69,2.879 -1.05,5.75 l 0,0" /><path
             id="path162"
             style="fill:#ffffff;fill-opacity:1;fill-rule:nonzero;stroke:none"
             d="m 5869.11,944.91 c 20.56,0 35.76,-6.359 49.74,-19.121 1.84,-1.629 1.84,-4.109 0.2,-5.75 l -16.02,-16.648 c -1.45,-1.45 -3.71,-1.45 -5.15,0 -7.6,6.781 -17.67,10.48 -27.74,10.48 -23.25,0 -40.3,-19.32 -40.3,-42.34 0,-22.82 17.25,-41.73 40.5,-41.73 9.65,0 20.14,3.488 27.54,9.871 1.44,1.23 4.1,1.23 5.35,-0.223 l 16.03,-17.058 c 1.43,-1.43 1.23,-4.102 -0.21,-5.551 -13.98,-13.559 -31.64,-19.942 -49.94,-19.942 -41.13,0 -74.22,32.684 -74.22,73.801 0,41.11 33.09,74.211 74.22,74.211 l 0,0" /><path
             id="path164"
             style="fill:#ffffff;fill-opacity:1;fill-rule:nonzero;stroke:none"
             d="m 5942.57,804.309 64.33,138.351 c 0.61,1.231 2.06,2.25 3.5,2.25 l 2.05,0 c 1.44,0 2.87,-1.019 3.5,-2.25 l 64.35,-138.351 c 1.23,-2.68 -0.42,-5.348 -3.51,-5.348 l -22.81,0 c -3.69,0 -5.34,1.23 -7.2,5.129 l -7.39,16.25 -55.92,0 -7.4,-16.449 c -1.03,-2.469 -3.29,-4.93 -7.41,-4.93 l -22.62,0 c -3.07,0 -4.7,2.668 -3.47,5.348 l 0,0 z m 84.47,43.992 -15.62,33.91 -0.2,0 -15.42,-33.91 31.24,0 0,0" /><path
             id="path166"
             style="fill:#ffffff;fill-opacity:1;fill-rule:nonzero;stroke:none"
             d="m 6110.98,941.211 c 0,2.059 1.84,3.699 3.92,3.699 l 5.12,0 82.02,-78.93 0.22,0 0,72.969 c 0,2.063 1.65,3.922 3.89,3.922 l 24.68,0 c 2.06,0 3.9,-1.859 3.9,-3.922 l 0,-138.328 c 0,-2.062 -1.84,-3.723 -3.9,-3.723 l -3.29,0 c -0.62,0 -2.26,0.614 -2.66,1.032 l -81.21,81.609 -0.2,0 0,-76.68 c 0,-2.058 -1.65,-3.898 -3.91,-3.898 l -24.46,0 c -2.06,0 -3.9,1.84 -3.9,3.898 l -0.22,138.352 0,0" /><path
             id="path168"
             style="fill:#ffffff;fill-opacity:1;fill-rule:nonzero;stroke:none"
             d="m 6265.73,804.309 64.34,138.351 c 0.62,1.231 2.05,2.25 3.49,2.25 l 2.06,0 c 1.45,0 2.88,-1.019 3.49,-2.25 l 64.35,-138.351 c 1.23,-2.68 -0.42,-5.348 -3.49,-5.348 l -22.82,0 c -3.7,0 -5.35,1.23 -7.19,5.129 l -7.41,16.25 -55.91,0 -7.39,-16.449 c -1.05,-2.469 -3.31,-4.93 -7.42,-4.93 l -22.61,0 c -3.08,0 -4.72,2.668 -3.49,5.348 l 0,0 z m 84.49,43.992 -15.62,33.91 -0.22,0 -15.4,-33.91 31.24,0 0,0" /><path
             id="path170"
             style="fill:#ffffff;fill-opacity:1;fill-rule:nonzero;stroke:none"
             d="m 6434.35,938.949 c 0,2.063 1.63,3.922 3.69,3.922 l 50.17,0 c 39.67,0 72.14,-32.289 72.14,-71.762 0,-39.879 -32.47,-72.148 -72.14,-72.148 l -50.17,0 c -2.06,0 -3.69,1.84 -3.69,3.898 l 0,136.09 z m 51.8,-109.558 c 23.23,0 40.08,18.289 40.08,41.718 0,23.243 -16.85,41.532 -40.08,41.532 l -19.74,0 0,-83.25 19.74,0 0,0" /><path
             id="path172"
             style="fill:#ffffff;fill-opacity:1;fill-rule:nonzero;stroke:none"
             d="m 6574.99,804.309 64.34,138.351 c 0.62,1.231 2.08,2.25 3.51,2.25 l 2.06,0 c 1.43,0 2.86,-1.019 3.47,-2.25 l 64.35,-138.351 c 1.24,-2.68 -0.4,-5.348 -3.49,-5.348 l -22.82,0 c -3.7,0 -5.35,1.23 -7.19,5.129 l -7.4,16.25 -55.92,0 -7.39,-16.449 c -1.03,-2.469 -3.3,-4.93 -7.4,-4.93 l -22.62,0 c -3.09,0 -4.73,2.668 -3.5,5.348 l 0,0 z m 84.5,43.992 -15.62,33.91 -0.22,0 -15.4,-33.91 31.24,0 0,0" /><path
             id="path174"
             style="fill:#ffffff;fill-opacity:1;fill-rule:nonzero;stroke:none"
             d="m 614.785,804.309 64.336,138.351 c 0.613,1.231 2.063,2.25 3.496,2.25 l 2.051,0 c 1.445,0 2.879,-1.019 3.496,-2.25 l 64.348,-138.351 c 1.234,-2.68 -0.414,-5.348 -3.496,-5.348 l -22.817,0 c -3.695,0 -5.344,1.23 -7.191,5.129 l -7.399,16.25 -55.921,0 -7.395,-16.449 c -1.031,-2.469 -3.297,-4.93 -7.41,-4.93 l -22.617,0 c -3.078,0 -4.715,2.668 -3.481,5.348 l 0,0 z m 84.485,43.992 -15.622,33.91 -0.214,0 -15.407,-33.91 31.243,0 0,0" /></g></g></g></g></svg>