<?xml version="1.0" encoding="utf-8"?>
<!-- Generator: Adobe Illustrator 18.1.1, SVG Export Plug-In . SVG Version: 6.00 Build 0)  -->
<svg version="1.1" id="Layer_1" xmlns="http://www.w3.org/2000/svg" xmlns:xlink="http://www.w3.org/1999/xlink" x="0px" y="0px"
	 viewBox="0 0 792 612" enable-background="new 0 0 792 612" xml:space="preserve">
<g>
	<path fill="#E54042" d="M294,391c-5,0-11.3,0.3-18.8,0.9c-7.5,0.6-12.9,0.9-16.2,0.9c-10.9,0-21.3-2.7-31-8
		c-3.5-2.1-5.3-5.9-5.3-11.5c0-3,0.4-6.4,1.3-10.4c0.9-4,1.8-7.4,2.9-10.2c1-2.8,2.3-6.1,3.8-9.7c1.5-3.7,2.4-5.8,2.7-6.4
		c8.3-24.2,22-47.4,41.2-69.5c5.9-6.8,14.5-19.6,25.7-38.5c0.3-0.6,0.7-1.3,1.3-2.2c0.6-0.9,1.1-1.7,1.5-2.4c0.4-0.7,0.8-1.4,1.1-2
		c1.2-3,7.5-13.6,19-31.9c3.8-6.2,10.2-15.2,19-27c2.4-3.3,7.1-11.5,14.2-24.8c4.7-9.2,11.4-16.8,19.9-23c3.2-2.4,6.2-3.5,8.9-3.5
		c4.4,0,8.9,1.8,13.3,5.3s7.7,7.2,9.7,11.1c3.2,5.9,8.3,13.9,15.3,23.9c6.9,10,11.7,17.4,14.4,22.1c1.5,2.4,3.4,5.8,5.8,10.2
		c2.4,4.4,4.6,8.4,6.6,12c2.1,3.5,4.1,6.8,6.2,9.7c2.1,2.9,5.4,8.3,10,16.2c4.6,7.8,8.3,13.6,11.3,17.5c2.1,2.7,6.3,10,12.8,22.1
		c2.4,4.1,8.1,16.2,17.3,36.3c9.1,20.1,16.5,34.1,22.1,42.1c4.7,6.8,8,10.8,9.7,12c1.2,0.9,3.2,3.8,6,8.9c2.8,5,4.2,8.7,4.2,11.1
		c0,0.9-0.2,1.5-0.4,1.8c-0.6,1.2-1,3.4-1.3,6.6c-0.3,3.2-1.3,5.2-3.1,5.8c-4.4,1.5-7.2,2.2-8.4,2.2c-1.5,0-2.5-0.2-3.1-0.4
		c-3.8-1.2-8.1-1.8-12.8-1.8h-6.6h-1.8C464.8,386.1,392,387.8,294,391z M484.8,352.9c2.7,0,4-0.7,4-2.2c0-1.2-0.5-2.6-1.5-4.2
		c-1-1.6-2.3-3.3-3.8-5.1c-1.5-1.8-2.4-2.8-2.7-3.1c-2.4-3.8-5-7.4-8-10.6c-5-4.7-10.8-14.7-17.5-29.9c-6.6-15.2-11.6-24.9-14.8-29
		c-3.3-3.8-6.6-10.1-10.2-18.8c-3.5-8.7-5.8-14.1-6.6-16.2c-3.3-6.2-8-15.2-14.2-27c-6.2-11.8-10.9-20.7-14.2-26.6
		c-6.5-12.1-10-18.6-10.6-19.5c-1.2-1.2-1.9-1.8-2.2-1.8c-1.2,0-1.9,0.6-2.2,1.8c-4.1,8.6-6.6,13.7-7.5,15.5c-4.1,10-9.3,21-15.5,33
		S346,230.6,342,237.4c-4,6.8-10.4,17.6-19.3,32.5c-8.9,14.9-14.5,24.3-16.8,28.1c-0.6,0.9-1.5,1.9-2.7,3.1
		c-8.3,11.8-12.7,18.2-13.3,19l-10.6,22.6c-1.5,3.5-2.2,5.6-2.2,6.2c0,1.5,1.5,2.2,4.4,2.2h3.5c0.3,0,1-0.1,2.2-0.2
		c1.2-0.2,2.1-0.2,2.7-0.2c2.4,0,6.4,0.1,12.2,0.4c5.8,0.3,10,0.4,12.6,0.4c0.9,0,2.1-0.1,3.5-0.2c1.5-0.2,2.5-0.2,3.1-0.2
		c6.8,0,21.3-0.2,43.4-0.7c22.1-0.4,38.5-0.7,49.1-0.7C438.5,349.8,462.1,350.9,484.8,352.9z"/>
</g>
</svg>
