<?xml version="1.0" encoding="utf-8"?>
<!-- Generator: Adobe Illustrator 19.0.1, SVG Export Plug-In . SVG Version: 6.00 Build 0)  -->
<svg version="1.1" id="Layer_1" xmlns="http://www.w3.org/2000/svg" xmlns:xlink="http://www.w3.org/1999/xlink" x="0px" y="0px"
	 viewBox="-243 95 792 612" style="enable-background:new -243 95 792 612;" xml:space="preserve">
<style type="text/css">
	.st0{fill:#A6A6A5;}
	.st1{fill:#5A5B5E;}
	.st2{fill:#81BC28;}
	.st3{fill:#25A89D;}
	.st4{fill:#E3282A;}
</style>
<path class="st0" d="M174.2,296.7c4.7-3.3,24.8-29,27.8-34.7s19.3-26.8,19.3-26.8l15.2-24.7c0,0,17.3-24.7,28.5,8.7
	c5.5,16.4,28.3,45.9,30.9,52.4c2.6,6.5,9.2,12,11.8,17.2c1.6,3.2,12.5,0.8,21.9,3.4c4.7,1.3,8.5,0,6.5-3.7
	c-7.8-14.8-12.7-25.6-22.3-38.3c-9.6-12.8-32.5-45-35.4-52.2c-2.9-7.3-15-33.2-32.2-28.5s-32,21.5-39.5,35.2s-31.3,48.8-37.4,58.1
	s-13.6,18.3-15.6,23.8c-0.8,2.2,4.1,2.2,12.8,6C169.9,294.1,172.6,297.8,174.2,296.7z"/>
<path class="st0" d="M369.3,395.1c-2.7,5.9,10,22.4,16.1,31.5s13.8,28.6,16.8,32.9s17.8,31.2,19,38.4c1.1,6.4-33.5,5.8-45.6,5.8
	s3.8,24.1,14.7,22.8c10.8-1.3,29-1,34.8-1.7c5.5-0.7,14.3,1.5,18,1.6c4.8,0.2,17.2-0.3,15.8-7.9c-1.3-7.2,1.2-7.9-1.1-14.8
	s-10.6-20.2-19.6-30c-8.9-9.8-29.3-52.3-32.8-58.4s-26.1-65.6-30.5-52.6C374.5,363.7,378.4,375.1,369.3,395.1z"/>
<path class="st1" d="M-100.2,563.1c0-0.2,0.2-0.4,0.4-0.4h2.5c0.2,0,0.4,0.2,0.4,0.4V577c0,0.2-0.2,0.4-0.4,0.4h-2.5
	c-0.2,0-0.4-0.2-0.4-0.4V563.1L-100.2,563.1z"/>
<path class="st1" d="M-91.9,562.9c0-0.2,0.2-0.4,0.4-0.4h0.5l8.4,8.1l0,0v-7.5c0-0.2,0.2-0.4,0.4-0.4h2.5c0.2,0,0.4,0.2,0.4,0.4
	v14.2c0,0.2-0.2,0.4-0.4,0.4H-80c-0.1,0-0.2-0.1-0.3-0.1l-8.3-8.4l0,0v7.9c0,0.2-0.2,0.4-0.4,0.4h-2.5c-0.2,0-0.4-0.2-0.4-0.4V562.9
	L-91.9,562.9z"/>
<path class="st1" d="M-74.3,563.1c0-0.2,0.2-0.4,0.4-0.4h2.5c0.2,0,0.4,0.2,0.4,0.4V577c0,0.2-0.2,0.4-0.4,0.4h-2.5
	c-0.2,0-0.4-0.2-0.4-0.4V563.1L-74.3,563.1z"/>
<path class="st1" d="M-64.3,565.8h-3c-0.2,0-0.4-0.2-0.4-0.4v-2.3c0-0.2,0.2-0.4,0.4-0.4h9.3c0.2,0,0.4,0.2,0.4,0.4v2.3
	c0,0.2-0.2,0.4-0.4,0.4h-3V577c0,0.2-0.2,0.4-0.4,0.4h-2.5c-0.2,0-0.4-0.2-0.4-0.4L-64.3,565.8L-64.3,565.8z"/>
<path class="st1" d="M-54.2,563.1c0-0.2,0.2-0.4,0.4-0.4h2.5c0.2,0,0.4,0.2,0.4,0.4V577c0,0.2-0.2,0.4-0.4,0.4h-2.5
	c-0.2,0-0.4-0.2-0.4-0.4V563.1L-54.2,563.1z"/>
<path class="st1" d="M-39.1,572.4l-1.6-3.5l0,0l-1.6,3.5H-39.1L-39.1,572.4z M-47.7,576.9l6.6-14.2c0.1-0.1,0.2-0.2,0.4-0.2h0.2
	c0.1,0,0.3,0.1,0.4,0.2l6.6,14.2c0.1,0.3,0,0.5-0.4,0.5h-2.3c-0.4,0-0.5-0.1-0.7-0.5l-0.8-1.7h-5.7l-0.8,1.7
	c-0.1,0.3-0.3,0.5-0.8,0.5h-2.3C-47.7,577.4-47.9,577.1-47.7,576.9L-47.7,576.9z"/>
<path class="st1" d="M-29.5,565.8h-3c-0.2,0-0.4-0.2-0.4-0.4v-2.3c0-0.2,0.2-0.4,0.4-0.4h9.3c0.2,0,0.4,0.2,0.4,0.4v2.3
	c0,0.2-0.2,0.4-0.4,0.4h-3V577c0,0.2-0.2,0.4-0.4,0.4h-2.5c-0.2,0-0.4-0.2-0.4-0.4L-29.5,565.8L-29.5,565.8z"/>
<path class="st1" d="M-19.5,563.1c0-0.2,0.2-0.4,0.4-0.4h2.5c0.2,0,0.4,0.2,0.4,0.4V577c0,0.2-0.2,0.4-0.4,0.4h-2.5
	c-0.2,0-0.4-0.2-0.4-0.4V563.1L-19.5,563.1z"/>
<path class="st1" d="M-13,563.2c-0.1-0.3,0-0.5,0.4-0.5h2.8c0.2,0,0.3,0.1,0.4,0.2l3.5,7.7h0.1l3.5-7.7c0-0.1,0.2-0.2,0.4-0.2h2.8
	c0.3,0,0.5,0.3,0.4,0.5l-6.6,14.2c-0.1,0.1-0.2,0.2-0.4,0.2h-0.2c-0.2,0-0.3-0.1-0.4-0.2L-13,563.2L-13,563.2z"/>
<path class="st1" d="M4.3,563.1c0-0.2,0.2-0.4,0.4-0.4h8.7c0.2,0,0.4,0.2,0.4,0.4v2.3c0,0.2-0.2,0.4-0.4,0.4H7.6v2.6h4.8
	c0.2,0,0.4,0.2,0.4,0.4v2.3c0,0.2-0.2,0.4-0.4,0.4H7.6v2.8h5.8c0.2,0,0.4,0.2,0.4,0.4v2.3c0,0.2-0.2,0.4-0.4,0.4H4.7
	c-0.2,0-0.4-0.2-0.4-0.4V563.1L4.3,563.1z"/>
<path class="st2" d="M68.6,562.5c2.1,0,3.7,0.7,5.1,2c0.2,0.2,0.2,0.4,0,0.6l-1.6,1.7c-0.1,0.1-0.4,0.1-0.5,0
	c-0.8-0.7-1.8-1.1-2.8-1.1c-2.4,0-4.1,2-4.1,4.3s1.8,4.3,4.1,4.3c1,0,2.1-0.4,2.8-1c0.1-0.1,0.4-0.1,0.5,0l1.6,1.7
	c0.1,0.1,0.1,0.4,0,0.6c-1.4,1.4-3.2,2-5.1,2c-4.2,0-7.6-3.3-7.6-7.6C61,565.9,64.4,562.5,68.6,562.5L68.6,562.5z"/>
<path class="st2" d="M83.8,574.3c2.3,0,4.2-1.9,4.2-4.2c0-2.3-1.9-4.2-4.2-4.2c-2.3,0-4.2,1.9-4.2,4.2
	C79.6,572.4,81.5,574.3,83.8,574.3L83.8,574.3z M83.8,562.5c4.2,0,7.6,3.4,7.6,7.6c0,4.2-3.4,7.6-7.6,7.6s-7.6-3.3-7.6-7.6
	C76.3,565.9,79.6,562.5,83.8,562.5L83.8,562.5z"/>
<path class="st2" d="M96.6,562.8c0-0.2,0.2-0.3,0.4-0.3h0.3c0.1,0,0.3,0.1,0.4,0.2l4.9,9.1l0,0l4.9-9.1c0.1-0.1,0.3-0.2,0.4-0.2h0.3
	c0.2,0,0.4,0.1,0.4,0.3L111,577c0,0.3-0.1,0.5-0.4,0.5h-2.5c-0.2,0-0.4-0.2-0.4-0.3l-0.9-6.5l0,0l-3.5,6.8c-0.1,0.1-0.3,0.2-0.4,0.2
	h-0.4c-0.1,0-0.3-0.1-0.4-0.2l-3.6-6.8l0,0l-0.9,6.5c0,0.2-0.2,0.3-0.4,0.3h-2.5c-0.3,0-0.4-0.2-0.4-0.5L96.6,562.8L96.6,562.8z"/>
<path class="st2" d="M116.5,562.8c0-0.2,0.2-0.3,0.4-0.3h0.3c0.1,0,0.3,0.1,0.4,0.2l4.9,9.1l0,0l4.9-9.1c0.1-0.1,0.3-0.2,0.4-0.2
	h0.3c0.2,0,0.4,0.1,0.4,0.3l2.4,14.1c0,0.3-0.1,0.5-0.4,0.5H128c-0.2,0-0.4-0.2-0.4-0.3l-0.9-6.5l0,0l-3.5,6.8
	c-0.1,0.1-0.3,0.2-0.4,0.2h-0.4c-0.1,0-0.3-0.1-0.4-0.2l-3.6-6.8l0,0l-0.9,6.5c0,0.2-0.2,0.3-0.4,0.3h-2.5c-0.3,0-0.4-0.2-0.4-0.5
	L116.5,562.8L116.5,562.8z"/>
<path class="st2" d="M134.6,563.1c0-0.2,0.2-0.4,0.4-0.4h2.6c0.2,0,0.4,0.2,0.4,0.4v8.5c0,1.5,1.1,2.7,2.6,2.7s2.6-1.2,2.6-2.7v-8.5
	c0-0.2,0.2-0.4,0.4-0.4h2.6c0.2,0,0.4,0.2,0.4,0.4v8.7c0,3.2-2.7,5.9-6,5.9s-6-2.7-6-5.9V563.1L134.6,563.1z"/>
<path class="st2" d="M151.4,562.9c0-0.2,0.2-0.4,0.4-0.4h0.5l8.4,8.1l0,0v-7.5c0-0.2,0.2-0.4,0.4-0.4h2.5c0.2,0,0.4,0.2,0.4,0.4
	v14.2c0,0.2-0.2,0.4-0.4,0.4h-0.3c-0.1,0-0.2-0.1-0.3-0.1l-8.3-8.4l0,0v7.9c0,0.2-0.2,0.4-0.4,0.4h-2.5c-0.2,0-0.4-0.2-0.4-0.4
	L151.4,562.9L151.4,562.9z"/>
<path class="st2" d="M169,563.1c0-0.2,0.2-0.4,0.4-0.4h2.5c0.2,0,0.4,0.2,0.4,0.4V577c0,0.2-0.2,0.4-0.4,0.4h-2.5
	c-0.2,0-0.4-0.2-0.4-0.4V563.1L169,563.1z"/>
<path class="st2" d="M179.1,565.8h-3c-0.2,0-0.4-0.2-0.4-0.4v-2.3c0-0.2,0.2-0.4,0.4-0.4h9.3c0.2,0,0.4,0.2,0.4,0.4v2.3
	c0,0.2-0.2,0.4-0.4,0.4h-3V577c0,0.2-0.2,0.4-0.4,0.4h-2.5c-0.2,0-0.4-0.2-0.4-0.4V565.8L179.1,565.8z"/>
<path class="st2" d="M192.9,570.3l-4.7-7c-0.2-0.3,0-0.6,0.3-0.6h2.7c0.2,0,0.3,0.1,0.3,0.2l2.9,4.3l2.9-4.3
	c0.1-0.1,0.1-0.2,0.3-0.2h2.7c0.3,0,0.5,0.3,0.3,0.6l-4.7,7v6.7c0,0.2-0.2,0.4-0.4,0.4H193c-0.2,0-0.4-0.2-0.4-0.4v-6.7H192.9z"/>
<path class="st2" d="M210.4,563.1c0-0.2,0.2-0.4,0.4-0.4h8.7c0.2,0,0.4,0.2,0.4,0.4v2.3c0,0.2-0.2,0.4-0.4,0.4h-5.8v3h4.8
	c0.2,0,0.4,0.2,0.4,0.4v2.3c0,0.2-0.2,0.4-0.4,0.4h-4.8v5.1c0,0.2-0.2,0.4-0.4,0.4h-2.5c-0.2,0-0.4-0.2-0.4-0.4L210.4,563.1
	L210.4,563.1z"/>
<path class="st2" d="M229.8,574.3c2.3,0,4.2-1.9,4.2-4.2c0-2.3-1.9-4.2-4.2-4.2c-2.3,0-4.2,1.9-4.2,4.2
	C225.7,572.4,227.6,574.3,229.8,574.3L229.8,574.3z M229.8,562.5c4.2,0,7.6,3.4,7.6,7.6c0,4.2-3.4,7.6-7.6,7.6s-7.6-3.3-7.6-7.6
	C222.3,565.9,225.6,562.5,229.8,562.5L229.8,562.5z"/>
<path class="st2" d="M248,574.3c2.3,0,4.2-1.9,4.2-4.2c0-2.3-1.9-4.2-4.2-4.2c-2.3,0-4.2,1.9-4.2,4.2S245.7,574.3,248,574.3
	L248,574.3z M248,562.5c4.2,0,7.6,3.4,7.6,7.6c0,4.2-3.4,7.6-7.6,7.6s-7.6-3.3-7.6-7.6C240.4,565.9,243.8,562.5,248,562.5L248,562.5
	z"/>
<path class="st2" d="M264.9,574.3c2.4,0,4.1-1.9,4.1-4.3s-1.7-4.3-4.1-4.3h-2v8.5L264.9,574.3L264.9,574.3z M259.6,563.1
	c0-0.2,0.2-0.4,0.4-0.4h5.1c4.1,0,7.4,3.3,7.4,7.3c0,4.1-3.3,7.4-7.4,7.4H260c-0.2,0-0.4-0.2-0.4-0.4V563.1L259.6,563.1z"/>
<path class="st2" d="M289.4,562.5c2.1,0,3.7,0.7,5.1,2c0.2,0.2,0.2,0.4,0,0.6l-1.6,1.7c-0.1,0.1-0.4,0.1-0.5,0
	c-0.8-0.7-1.8-1.1-2.8-1.1c-2.4,0-4.1,2-4.1,4.3s1.8,4.3,4.1,4.3c1,0,2.1-0.4,2.8-1c0.1-0.1,0.4-0.1,0.5,0l1.6,1.7
	c0.1,0.1,0.1,0.4,0,0.6c-1.4,1.4-3.2,2-5.1,2c-4.2,0-7.6-3.3-7.6-7.6C281.8,565.9,285.2,562.5,289.4,562.5L289.4,562.5z"/>
<path class="st2" d="M298.3,563.1c0-0.2,0.2-0.4,0.4-0.4h8.7c0.2,0,0.4,0.2,0.4,0.4v2.3c0,0.2-0.2,0.4-0.4,0.4h-5.8v2.6h4.8
	c0.2,0,0.4,0.2,0.4,0.4v2.3c0,0.2-0.2,0.4-0.4,0.4h-4.8v2.8h5.8c0.2,0,0.4,0.2,0.4,0.4v2.3c0,0.2-0.2,0.4-0.4,0.4h-8.7
	c-0.2,0-0.4-0.2-0.4-0.4V563.1L298.3,563.1z"/>
<path class="st2" d="M312.1,562.9c0-0.2,0.2-0.4,0.4-0.4h0.5l8.4,8.1l0,0v-7.5c0-0.2,0.2-0.4,0.4-0.4h2.5c0.2,0,0.4,0.2,0.4,0.4
	v14.2c0,0.2-0.2,0.4-0.4,0.4H324c-0.1,0-0.2-0.1-0.3-0.1l-8.3-8.4l0,0v7.9c0,0.2-0.2,0.4-0.4,0.4h-2.5c-0.2,0-0.4-0.2-0.4-0.4
	L312.1,562.9L312.1,562.9z"/>
<path class="st2" d="M331.6,565.8h-3c-0.2,0-0.4-0.2-0.4-0.4v-2.3c0-0.2,0.2-0.4,0.4-0.4h9.3c0.2,0,0.4,0.2,0.4,0.4v2.3
	c0,0.2-0.2,0.4-0.4,0.4h-3V577c0,0.2-0.2,0.4-0.4,0.4H332c-0.2,0-0.4-0.2-0.4-0.4V565.8L331.6,565.8z"/>
<path class="st2" d="M348,569c0.9,0,1.6-0.8,1.6-1.7c0-0.9-0.7-1.6-1.6-1.6h-3.1v3.3H348L348,569z M341.6,563.1
	c0-0.2,0.2-0.4,0.4-0.4h6.3c2.5,0,4.6,2,4.6,4.5c0,1.9-1.3,3.5-3.1,4.2l2.9,5.3c0.1,0.3,0,0.6-0.4,0.6h-2.8c-0.2,0-0.3-0.1-0.3-0.2
	l-2.8-5.6h-1.5v5.4c0,0.2-0.2,0.4-0.4,0.4H342c-0.2,0-0.4-0.2-0.4-0.4V563.1L341.6,563.1z"/>
<path class="st2" d="M357.1,563.1c0-0.2,0.2-0.4,0.4-0.4h8.7c0.2,0,0.4,0.2,0.4,0.4v2.3c0,0.2-0.2,0.4-0.4,0.4h-5.8v2.6h4.8
	c0.2,0,0.4,0.2,0.4,0.4v2.3c0,0.2-0.2,0.4-0.4,0.4h-4.8v2.8h5.8c0.2,0,0.4,0.2,0.4,0.4v2.3c0,0.2-0.2,0.4-0.4,0.4h-8.7
	c-0.2,0-0.4-0.2-0.4-0.4V563.1L357.1,563.1z"/>
<path class="st2" d="M370.2,575.4l1-1.7c0.2-0.3,0.6-0.2,0.7-0.1c0.1,0,1.6,1.2,3,1.2c0.8,0,1.5-0.5,1.5-1.3c0-0.9-0.7-1.6-2.2-2.1
	c-1.8-0.7-4.1-2.1-4.1-4.7c0-2.1,1.6-4.2,4.9-4.2c2.2,0,3.9,1.1,4.5,1.6c0.3,0.1,0.2,0.5,0.1,0.7l-1.1,1.6c-0.1,0.2-0.5,0.4-0.7,0.3
	c-0.2-0.1-1.7-1.3-3-1.3c-0.8,0-1.3,0.5-1.3,1.1c0,0.8,0.6,1.4,2.3,2c1.6,0.7,4.3,1.9,4.3,4.8c0,2.2-1.9,4.4-5,4.4
	c-2.7,0-4.3-1.1-4.7-1.6C370.1,575.8,370,575.7,370.2,575.4L370.2,575.4z"/>
<path class="st2" d="M396.9,562.5c2.1,0,3.7,0.7,5.1,2c0.2,0.2,0.2,0.4,0,0.6l-1.6,1.7c-0.1,0.1-0.4,0.1-0.5,0
	c-0.8-0.7-1.8-1.1-2.8-1.1c-2.4,0-4.1,2-4.1,4.3s1.8,4.3,4.1,4.3c1,0,2.1-0.4,2.8-1c0.1-0.1,0.4-0.1,0.5,0l1.6,1.7
	c0.1,0.1,0.1,0.4,0,0.6c-1.4,1.4-3.2,2-5.1,2c-4.2,0-7.6-3.3-7.6-7.6C389.3,565.9,392.7,562.5,396.9,562.5L396.9,562.5z"/>
<path class="st2" d="M413,572.4l-1.6-3.5l0,0l-1.6,3.5H413L413,572.4z M404.4,576.9l6.6-14.2c0.1-0.1,0.2-0.2,0.4-0.2h0.2
	c0.1,0,0.3,0.1,0.4,0.2l6.6,14.2c0.1,0.3,0,0.5-0.4,0.5h-2.3c-0.4,0-0.5-0.1-0.7-0.5l-0.8-1.7h-5.7l-0.8,1.7
	c-0.1,0.3-0.3,0.5-0.8,0.5h-2.3C404.4,577.4,404.3,577.1,404.4,576.9L404.4,576.9z"/>
<path class="st2" d="M421.6,562.9c0-0.2,0.2-0.4,0.4-0.4h0.5l8.4,8.1l0,0v-7.5c0-0.2,0.2-0.4,0.4-0.4h2.5c0.2,0,0.4,0.2,0.4,0.4
	v14.2c0,0.2-0.2,0.4-0.4,0.4h-0.3c-0.1,0-0.2-0.1-0.3-0.1l-8.3-8.4l0,0v7.9c0,0.2-0.2,0.4-0.4,0.4H422c-0.2,0-0.4-0.2-0.4-0.4
	L421.6,562.9L421.6,562.9z"/>
<path class="st2" d="M446.1,572.4l-1.6-3.5l0,0l-1.6,3.5H446.1L446.1,572.4z M437.5,576.9l6.6-14.2c0.1-0.1,0.2-0.2,0.4-0.2h0.2
	c0.1,0,0.3,0.1,0.4,0.2l6.6,14.2c0.1,0.3,0,0.5-0.4,0.5H449c-0.4,0-0.5-0.1-0.7-0.5l-0.8-1.7h-5.7l-0.8,1.7
	c-0.1,0.3-0.3,0.5-0.8,0.5h-2.3C437.5,577.4,437.4,577.1,437.5,576.9L437.5,576.9z"/>
<path class="st2" d="M460.1,574.3c2.4,0,4.1-1.9,4.1-4.3s-1.7-4.3-4.1-4.3h-2v8.5L460.1,574.3L460.1,574.3z M454.8,563.1
	c0-0.2,0.2-0.4,0.4-0.4h5.1c4.1,0,7.4,3.3,7.4,7.3c0,4.1-3.3,7.4-7.4,7.4h-5.1c-0.2,0-0.4-0.2-0.4-0.4V563.1L454.8,563.1z"/>
<path class="st2" d="M477.8,572.4l-1.6-3.5l0,0l-1.6,3.5H477.8L477.8,572.4z M469.2,576.9l6.6-14.2c0.1-0.1,0.2-0.2,0.4-0.2h0.2
	c0.1,0,0.3,0.1,0.4,0.2l6.6,14.2c0.1,0.3,0,0.5-0.4,0.5h-2.3c-0.4,0-0.5-0.1-0.7-0.5l-0.8-1.7h-5.7l-0.8,1.7
	c-0.1,0.3-0.3,0.5-0.8,0.5h-2.3C469.2,577.4,469,577.1,469.2,576.9L469.2,576.9z"/>
<path class="st1" d="M-155.6,562.7c0-0.2,0.2-0.4,0.4-0.4h2.6c0.2,0,0.4,0.2,0.4,0.4v8.7c0,1.5,1.1,2.7,2.6,2.7s2.7-1.2,2.7-2.7
	v-8.7c0-0.2,0.2-0.4,0.4-0.4h2.6c0.2,0,0.4,0.2,0.4,0.4v8.9c0,3.3-2.7,6-6.1,6c-3.4,0-6.1-2.7-6.1-6L-155.6,562.7L-155.6,562.7z"/>
<path class="st1" d="M-139,562.6c0-0.2,0.2-0.4,0.4-0.4h0.5l8.6,8.2l0,0v-7.6c0-0.2,0.2-0.4,0.4-0.4h2.6c0.2,0,0.4,0.2,0.4,0.4v14.4
	c0,0.2-0.2,0.4-0.4,0.4h-0.3c-0.1,0-0.2-0.1-0.3-0.1l-8.5-8.5l0,0v8c0,0.2-0.2,0.4-0.4,0.4h-2.6c-0.2,0-0.4-0.2-0.4-0.4V562.6
	L-139,562.6z"/>
<path class="st1" d="M-121.4,562.8c0-0.2,0.2-0.4,0.4-0.4h8.9c0.2,0,0.4,0.2,0.4,0.4v2.3c0,0.2-0.2,0.4-0.4,0.4h-5.9v2.7h4.9
	c0.2,0,0.4,0.2,0.4,0.4v2.3c0,0.2-0.2,0.4-0.4,0.4h-4.9v2.9h5.9c0.2,0,0.4,0.2,0.4,0.4v2.3c0,0.2-0.2,0.4-0.4,0.4h-8.9
	c-0.2,0-0.4-0.2-0.4-0.4V562.8L-121.4,562.8z"/>
<path class="st1" d="M42.4,563.2c0-0.2,0.2-0.4,0.4-0.4h8.7c0.2,0,0.4,0.2,0.4,0.4v2.3c0,0.2-0.2,0.4-0.4,0.4h-5.8v2.6h4.8
	c0.2,0,0.4,0.2,0.4,0.4v2.3c0,0.2-0.2,0.4-0.4,0.4h-4.8v2.8h5.8c0.2,0,0.4,0.2,0.4,0.4v2.3c0,0.2-0.2,0.4-0.4,0.4h-8.7
	c-0.2,0-0.4-0.2-0.4-0.4V563.2L42.4,563.2z"/>
<path class="st1" d="M31.5,574.4c2.4,0,4.1-1.9,4.1-4.3c0-2.4-1.7-4.3-4.1-4.3h-2v8.5L31.5,574.4L31.5,574.4z M26.2,563.2
	c0-0.2,0.2-0.4,0.4-0.4h5.1c4.1,0,7.4,3.3,7.4,7.3c0,4.1-3.3,7.4-7.4,7.4h-5.1c-0.2,0-0.4-0.2-0.4-0.4V563.2L26.2,563.2z"/>
<g>
	<path class="st3" d="M-113.7,359.2c0-0.2,0.1-0.6,0.3-1.2c0.2-0.5,0.3-1,0.3-1.3c0-0.4,0-0.7-0.1-1c-0.3-0.9-0.4-1.8-0.4-2.7
		c0-0.7,0-1.3,0.1-1.6c0.2-1.3,0.3-2.3,0.3-3V347c-0.2-2.4-0.4-4-0.8-4.8c-0.3-0.3-0.4-0.7-0.4-1.1v-0.6c-0.2-1.2-0.4-2-0.5-2.6
		c-0.9-3.4-1.9-5.6-3-6.7c-0.6-0.6-1.1-1.6-1.4-3c-1.1-4.4-3.7-8.3-8-11.7c-1.8-1.3-3.7-2-5.5-2h-0.5h-0.3c-0.2,0-0.4,0-0.6-0.1
		c-0.2,0-0.4-0.1-0.5-0.1h-0.3l-0.3,0.1c-0.3,0-0.7,0-1.4,0.1c-0.7,0-1.2,0.1-1.5,0.2c-0.4,0.1-0.7,0.2-1.2,0.5
		c-0.4,0.2-0.8,0.6-1.2,1.1c0,0.2,0,0.5,0.1,0.9c0,0.4,0.1,0.7,0.1,0.9c0,0.5,0,1.3-0.1,2.4s-0.1,1.9-0.1,2.4l-0.4,15.7
		c0,0.2,0,0.6,0.1,1.1c0,0.5,0.1,0.9,0.1,1.1v0.6v1.4c0,1.5,0.1,3.6,0.3,6.3s0.3,4.6,0.3,5.7c0,0.4,0,1.1,0.1,2
		c0,0.9,0.1,1.6,0.1,2.1v3.5v0.9c0,1.5,0.1,2.6,0.3,3.4c0.1,0.3,0.1,0.9,0.1,1.7c0,0.5,0,1.2-0.1,2.2s-0.1,1.6-0.1,2.1
		c0,0.6,0,1.4-0.1,2.6c0,1.2-0.1,2-0.1,2.6v1.9c0.1,0.6,0.2,1.4,0.3,2.4s0.2,1.8,0.2,2.3c0.1,1.2,0.7,1.7,1.8,1.7h0.4
		c0.9-0.6,1.7-0.9,2.5-0.9h0.1h0.1c1.5,0,2.9-0.6,4.2-1.9c0.4-0.4,1-0.8,1.7-1.2c1.5-0.8,2.8-2,3.9-3.6c3.9-5.5,6.1-8.5,6.6-9.2
		c0.4-0.7,1.1-1.6,2-2.7C-115.3,365.1-114.4,362.7-113.7,359.2L-113.7,359.2z M-100.8,373.5c-0.7,1.5-1.9,2.7-3.6,3.5
		c-4.2,2-7.7,5-10.4,8.9c-0.5,0.8-1.5,1.7-2.9,2.5c-3.1,2-5.9,3.9-8.6,5.8c-0.7,0.5-1.9,0.9-3.7,1.2c-0.3,0.1-0.7,0.1-1.2,0.1
		c-0.4,0-1.2-0.1-2.2-0.2c-1.1-0.1-1.8-0.2-2.2-0.2h-0.4c-1.3,0.2-2.4,0.6-3.3,1.2c-0.8,0.7-1.6,1.1-2.5,1.1c-0.5,0-1.3-0.3-2.4-0.9
		c-0.8-0.4-1.8-0.7-3-0.9c-2.1-0.2-3.9-1.4-5.4-3.4c-1.6-1.9-2.5-3.5-2.9-4.8c-0.4-0.9-0.6-2.9-0.8-5.8v-0.1c0-0.2,0.3-0.7,0.9-1.5
		c0.9-1.1,1.4-2.2,1.4-3.4c0.5-5.3,0.8-9.3,0.8-11.9c0-0.6-0.1-1.4-0.4-2.6c-0.3-1.2-0.4-2-0.4-2.6c0-0.9,0.1-2.2,0.3-4
		c0.2-1.7,0.3-3,0.3-3.9v-0.5V350c0-2.2,0.2-5.2,0.6-9.1c0.4-3.9,0.6-6.6,0.7-8.1c0.1-2.2,0.4-5.5,0.9-9.8c0.5-4.3,0.8-7.5,0.9-9.7
		c0.1-2.2,0.3-4.5,0.8-6.7c0.4-2.7,2.5-5,6.1-6.8c0.3-0.2,0.6-0.2,0.8-0.2c0.3,0,0.7,0.2,1.3,0.6c0.9,0.7,2.1,1,3.6,1h4.2l4.9,0.4
		c4.1,0.7,7.5,2.1,10,4.3c5.4,4.6,9.4,8.8,12,12.4c0.6,0.9,2,3.2,4.1,7c5.4,9.5,8.2,17.8,8.2,24.8C-94.5,356.2-96.6,364-100.8,373.5
		L-100.8,373.5z"/>
	<path class="st3" d="M-81,309c1.2-0.2,5.5-0.5,12.8-0.7c7.3-0.2,12.6-0.4,15.7-0.4c1.8,0,3,0,3.6,0.1c0.8,0.2,1.9,0.2,3.3,0.2h2.9
		c2.6,0,4.7,0.8,6.2,2.4c0.9,0.9,1.3,3.7,1.3,8.4v0.6c-0.1,1.4-1,2.4-2.8,3c-0.8,0.3-1.8,0.5-2.9,0.5h-0.5c-0.3,0-0.7,0-1.4-0.1
		c-0.7,0-1.3-0.1-1.7-0.1c-1.1,0-5.4,0-12.8,0.1c-7.4,0-11.7,0.1-12.9,0.1c-2.3,0-3.8,0-4.6-0.1h-0.3c-1.3,0-2,0.7-2,2.1v1.2
		c0,4.7,0,8.3,0.1,10.7c0.2,2.8,0.3,4.8,0.3,6.1l-0.1-0.4c0,0.1,0,0.2-0.1,0.4c0,0.2-0.1,0.4-0.1,0.4c0,0.4,0.1,0.9,0.4,1.5
		c0.3,0.6,0.5,1.1,0.8,1.5l0.4,0.5c0.1,0,0.2,0,0.4-0.1c0.2,0,0.3-0.1,0.4-0.1c0.7-0.2,2.2-0.2,4.6-0.2c3,0,7.8,0.3,14.5,0.9
		c6.7,0.6,10.4,1.2,11.1,1.7c0.5,0.7,0.8,2.5,0.9,5.5c0.1,3,0.2,4.7,0.3,5.1c0.1,0.3,0.1,0.8,0.1,1.4c0,1.2-0.7,2-2.2,2.6
		c-1.1,0.4-2,0.6-2.9,0.6h-0.5c-0.2,0.1-1.4,0.1-3.8,0.1c-2.5,0-6.5-0.1-12.2-0.2s-8.7-0.2-9.1-0.2h-0.3c-1,0.1-1.6,0.3-2,0.6
		c-0.4,0.3-0.5,0.8-0.5,1.6v0.6c0.1,1.2,0.1,3,0.1,5.5v5.5v2.5v0.1c0,0.9-0.1,1.7-0.4,2.5v0.7c0,0.6,0.3,1.1,1.1,1.6
		c0.2,0,0.4,0,0.8,0.1c0.3,0,0.7,0.1,0.9,0.1c0.9,0,5,0,12.5-0.1s11.7-0.1,12.8-0.1c2.4,0,3.9,0.1,4.7,0.4c0.4,0.2,1.3,0.2,2.6,0.2
		s2.1,0.1,2.4,0.2c1.1,0.3,1.9,1.4,2.6,3.2c0.7,1.8,1.3,3.9,1.8,6.3s0.9,3.9,1.2,4.6c0.1,0.2,0.1,0.4,0.1,0.7c0,0.6-0.2,1.2-0.7,1.7
		c-1.1,1.4-2.4,2.2-4.1,2.5c-1.8,0.2-7.9,0.6-18.4,1s-16.5,0.7-17.9,0.9h-0.3c-0.2,0.1-0.4,0.1-0.7,0.1H-76
		c-0.4,0.2-1.1,0.2-1.8,0.2c-0.4,0-0.8,0-1.4-0.1c-0.6,0-1.1-0.1-1.3-0.1c-0.1,0-0.2,0-0.4-0.1c-0.2,0-0.3-0.1-0.4-0.1h-0.5
		c-2.4,0-4.3-1.4-5.7-4.2c-1.8-3.6-2.7-7.4-2.8-11.3c0-1.2-0.1-3.1-0.3-6c-0.2-2.8-0.3-5-0.3-6.6V370c0-1.7,0-2.9,0.1-3.6
		c0-1.1,0-2.7,0.1-4.7c0.1-2.1,0.1-3.6,0.1-4.6c0-1.7,0-2.9-0.1-3.7c-0.4-9.9-0.7-15.4-0.9-16.5c-0.3-2-0.4-4-0.4-6.1
		c0-1.5,0.1-3.7,0.3-6.7c0-1.2,0.3-2.3,0.9-3.1c0.3-0.4,0.4-0.8,0.4-1.1V319c0-0.4,0-0.7,0.1-0.9V318v-0.7c0-0.4,0.1-0.7,0.4-1
		c0.1-0.5,0.7-1.5,2-3.1C-85.9,311-83.6,309.6-81,309L-81,309z"/>
	<path class="st3" d="M-12.1,303.9c0.9-0.2,1.8-0.4,2.6-0.4c0.3,0,0.8,0,1.5-0.1c0.7,0,1.3-0.1,1.8-0.1c2.3,0,3.8,0.3,4.5,0.9
		c1,0.7,3.1,2.3,6.4,5c0.6,0.5,1.2,1.2,1.7,2c0.5,0.9,0.9,1.6,1.2,2.2c0.3,0.6,0.6,1.6,1.1,2.8c0.4,1.2,0.7,2,0.8,2.2
		c0.6,1.7,0.9,3.3,0.9,5c0,0.9-0.1,1.6-0.4,2.1c-0.4,0.6-1.5,1.3-3.4,2.1c-0.5,0.2-1.2,0.4-2,0.6c-0.8,0.1-1.4,0.3-1.8,0.4H2.4
		c-0.7,0-1.8-0.5-3.3-1.5c-1.3-0.9-2-2.6-2.1-5.1c-0.1-1.6-0.7-3-1.8-4.4c-1.1-1.4-2.3-2.2-3.6-2.5c-0.9-0.2-1.5-0.2-1.8-0.2
		c-3.1,0-5.5,1.9-7.4,5.6c-0.6,1.2-0.9,2.3-0.9,3.4c0,2.2,1.3,4.3,3.9,6.1c2.6,1.9,5.7,3.8,9.2,5.7c3.6,1.9,6,3.7,7.4,5.4
		c3.9,4.6,6.1,9,6.7,13c0.7,4.5,1.4,7.5,2,9.1c0.9,2.2,1.4,3.8,1.4,4.8c0,0.4,0.1,0.8,0.2,1.2c0.1,0.4,0.3,1.1,0.5,1.9
		c0.2,0.9,0.3,1.7,0.5,2.4c0.1,0.4,0.1,1.1,0.1,2c0,3.1-1,6-2.9,8.6c-2.5,3.1-4.5,5-6.1,5.6c-1,0.3-1.6,0.7-2,1s-0.7,0.9-0.9,1.6
		c-0.4,1.2-1.6,2.1-3.7,2.6c-0.9,0.2-1.8,0.4-2.9,0.4h-0.1h-0.4c-0.9,0-2.4,0-4.6,0.1h-0.3c-2.5,0-5.2-0.6-8.3-1.9s-5.7-3.2-7.8-5.9
		c-4.4-5.2-6.9-10.3-7.5-15.2c-0.2-1.2-0.4-2.2-0.6-3.2c-0.2-1-0.4-1.9-0.7-2.9c-0.2-0.9-0.4-1.5-0.5-1.9c-0.3-1.2-0.4-2.4-0.4-3.4
		c0-0.2,0-0.4,0.1-0.7c0-0.3,0.1-0.5,0.1-0.6c0-1,0.4-1.9,1.3-2.9c1.7-1.7,3.4-3,5.1-3.7c0.7-0.3,1.4-0.5,2.1-0.5
		c0.7,0,1.4,0.4,2,1.1c1.2,1.6,1.9,3,2,4.3c0.1,1.4,0.5,3.3,1.3,5.6c0.9,2.7,1.5,4.6,1.8,6c0.5,1.9,1.3,3.5,2.4,4.8
		c1,1.2,1.8,2.4,2.4,3.9c0.8,1.8,2.7,2.8,5.8,3c0.3,0,0.6,0,0.9,0.1c0.3,0,0.6,0.1,0.7,0.1c0.5,0,1.3-0.1,2.2-0.4
		c1.1-0.3,1.8-1.5,2.2-3.5c0.1-0.2,0.1-0.5,0.1-0.7s0-0.5,0-0.6c0-0.2,0-0.3,0.1-0.4c0-0.1,0.1-0.2,0.1-0.2c0.1-0.1,0.2-0.2,0.2-0.4
		c0-0.2,0.1-0.4,0.1-0.4c0-0.2,0-0.4,0.1-0.6s0.1-0.4,0.1-0.5s0-0.2,0-0.4c0-0.2,0-0.4,0.1-0.6l0.1-0.2c0-0.2,0-0.3,0-0.4v-0.1
		c0-0.4,0-0.7,0.1-1c0.1-0.2,0.2-0.7,0.2-1.2c0-0.6,0.1-1,0.1-1.1c0.1-0.3,0.1-0.9,0.1-1.7c0-0.2,0-0.3-0.1-0.5
		c0-0.2-0.1-0.3-0.1-0.4c0-0.2,0-0.4-0.1-0.6c0-0.2,0-0.5-0.1-0.6s-0.1-0.3-0.1-0.6c0-0.3,0-0.6,0-0.9c-0.2-0.7-0.4-2.2-0.5-4.5
		c-0.1-0.9-0.5-1.8-1.2-2.8s-1.7-2-3-3.3c-1.3-1.2-2.2-2.2-2.8-3c-1.5-1.8-4.1-4-7.9-6.6c-3.8-2.6-6.3-4.5-7.6-5.8
		c-3.2-3.3-4.7-7.4-4.7-12.3c0-3.6,0.9-7.2,2.8-10.7c1.3-2.4,3-4.6,5.1-6.6C-21.3,306.7-17.8,305.4-12.1,303.9L-12.1,303.9z"/>
	<path class="st3" d="M66.2,314.1c-0.3-0.1-0.7-0.1-1.3-0.1h-0.1c-1.5,0-2.3,0.6-2.4,1.9c-0.4,1.8-0.5,3.2-0.5,4.1
		c0,0.1,0,0.2,0.1,0.3c0,0.1,0.1,0.2,0.1,0.3c0,0.7,0,1.9,0.1,3.4s0.1,2.7,0.1,3.5s0,2,0.1,3.5s0.2,2.7,0.3,3.4
		c0.2,0.9,0.5,1.4,1.1,1.4c0.4,0,0.7-0.1,0.9-0.2c0.8-0.7,2-1,3.6-1c1.7,0,3.2-0.5,4.6-1.5c1-0.7,1.8-1.2,2.6-1.6
		c1.2-0.8,2.1-1.9,2.6-3.1c0.7-1.8,1.7-3.7,3-5.6c0.3-0.4,0.7-1.1,1.2-2.1c0.2-0.5,0.3-0.9,0.3-1.1c0-0.3-0.3-0.8-0.9-1.4
		c-2.2-1.9-5.2-3-8.9-3.2C69.8,314.7,67.6,314.4,66.2,314.1L66.2,314.1z M75.3,303.3l6.3,1.5c2.8,0.7,5.9,2.2,9.2,4.5
		c2.1,1.6,3.2,3.8,3.4,6.6v0.4c0,1.1-0.3,3.4-0.9,7.1c-0.2,1-0.7,2.1-1.7,3.2c-2.5,2.9-4.6,5.8-6.1,8.8c-0.9,1.7-2.1,2.9-3.7,3.5
		c-0.4,0.2-1.1,0.5-2.3,1.1c-1.2,0.6-2.1,1-2.8,1.2c-0.8,0.2-1.2,0.7-1.2,1.4c0,0.3,0.1,0.7,0.4,1.2c1.1,1.7,2.5,4.5,4.3,8.3
		c1.8,3.8,3.3,6.6,4.4,8.4c0.4,0.7,1.1,1.7,2,3.1s1.6,2.5,2,3.2c3.9,6.1,6.2,9.7,6.7,10.6c1.5,2.4,3.6,6.1,6.4,11.1
		c0.9,1.7,1.3,3.8,1.3,6.3v0.9c0,1-0.3,1.8-0.9,2.5c-0.6,0.6-1.2,0.9-1.8,0.9c-0.3,0-0.5,0-0.7-0.1c-5.8-1.7-9.9-4.4-12.4-8.1
		c-0.3-0.4-0.6-1-1-1.7s-0.8-1.3-1.1-1.9c-0.4-0.6-0.7-1.1-1.1-1.6c-0.8-1.2-1.3-2.6-1.6-4.1c-0.1-1-0.6-2.1-1.6-3.2
		c-1.9-2.2-3.7-5.2-5.4-9.2c-1.6-3.9-3.1-7-4.6-9.4c-0.2-0.3-0.4-0.7-0.5-1.1c-0.2-0.4-0.4-0.8-0.6-1.2c-0.2-0.5-0.4-0.8-0.5-1.1
		c-0.9-2.1-1.6-3.4-2.1-4.1c-0.4-0.6-1.1-1.7-1.8-3.4c-0.2-0.4-0.4-0.8-0.7-1.2c-0.4-0.7-0.7-1-0.9-1h-0.1c-0.4,0.1-0.7,0.4-0.7,1
		v0.2v2.5v1.9c0.2,2.4,0.4,4.7,0.8,7v1.1v0.9c-0.4,2-0.5,4.2-0.5,6.7c0,0.5,0,1.2,0.1,2c0,0.8,0.1,1.5,0.1,2c0,0.2,0,0.4-0.1,0.8
		c0,0.4-0.1,0.6-0.1,0.8v1.1c0.3,0.6,0.4,1.4,0.4,2.6v0.2v3c0,4,0,7,0.1,9.1v0.5c0,1.7-0.3,3-0.8,4c-0.4,1.3-1.4,2.2-3.3,2.5
		c-0.8,0.2-1.5,0.4-2.2,0.4c-1.2,0-2.3-0.3-3.3-0.9c-2.5-1.3-4.3-3-5.4-5c-0.6-0.7-0.9-1.9-0.9-3.7v-2.7v-6.1V378
		c0-0.7,0-1.6-0.1-2.9c0-1.3-0.1-2.3-0.1-2.9v-0.7c0.2-7,0.6-12.9,1.2-17.5c0.4-3.1,0.7-7.9,0.9-14.3c0.1-1.4,0.1-3.5,0.1-6.2
		c0-0.8,0-2.2-0.1-4c0-1.8-0.1-3.2-0.1-4.1V324c0-4.3,0.5-7.9,1.6-10.7c0.4-1.1,0.7-2.4,0.7-4.1c0-1.1,0.4-2.4,1.2-4.1
		c1-1.9,2.7-2.9,5.1-2.9c0.5,0,1.1,0.2,1.8,0.5c0.4,0.2,1.1,0.4,1.8,0.4c0.8,0,1.4-0.1,1.8-0.2c0.8-0.3,1.8-0.5,2.9-0.5
		c0.5,0,1.4,0.1,2.6,0.2c0.7,0.2,1.8,0.3,3.3,0.5C74.4,303.2,75.2,303.3,75.3,303.3L75.3,303.3z"/>
	<path class="st3" d="M115.7,309c1.2-0.2,5.5-0.5,12.8-0.7c7.3-0.2,12.6-0.4,15.7-0.4c1.8,0,3,0,3.6,0.1c0.8,0.2,1.9,0.2,3.3,0.2
		h2.9c2.6,0,4.7,0.8,6.2,2.4c0.9,0.9,1.3,3.7,1.3,8.4v0.6c-0.1,1.4-1,2.4-2.8,3c-0.8,0.3-1.8,0.5-2.9,0.5h-0.5c-0.3,0-0.7,0-1.4-0.1
		c-0.7,0-1.3-0.1-1.7-0.1c-1.1,0-5.4,0-12.8,0.1c-7.4,0-11.7,0.1-12.9,0.1c-2.3,0-3.8,0-4.6-0.1h-0.3c-1.3,0-2,0.7-2,2.1v1.2
		c0,4.7,0,8.3,0.1,10.7c0.2,2.8,0.3,4.8,0.3,6.1l-0.1-0.4c0,0.1,0,0.2-0.1,0.4c0,0.2-0.1,0.4-0.1,0.4c0,0.4,0.1,0.9,0.4,1.5
		s0.5,1.1,0.8,1.5l0.4,0.5c0.1,0,0.2,0,0.4-0.1c0.2,0,0.3-0.1,0.4-0.1c0.7-0.2,2.2-0.2,4.6-0.2c3,0,7.8,0.3,14.5,0.9
		c6.7,0.6,10.4,1.2,11.1,1.7c0.5,0.7,0.8,2.5,0.9,5.5s0.2,4.7,0.3,5.1c0.1,0.3,0.1,0.8,0.1,1.4c0,1.2-0.7,2-2.2,2.6
		c-1.1,0.4-2,0.6-2.9,0.6H148c-0.2,0.1-1.4,0.1-3.8,0.1c-2.5,0-6.5-0.1-12.2-0.2s-8.7-0.2-9.1-0.2h-0.3c-1,0.1-1.6,0.3-2,0.6
		c-0.4,0.3-0.5,0.8-0.5,1.6v0.6c0.1,1.2,0.1,3,0.1,5.5v5.5v2.5v0.1c0,0.9-0.1,1.7-0.4,2.5v0.7c0,0.6,0.3,1.1,1.1,1.6
		c0.2,0,0.4,0,0.8,0.1c0.3,0,0.7,0.1,0.9,0.1c0.9,0,5,0,12.5-0.1s11.7-0.1,12.8-0.1c2.4,0,3.9,0.1,4.7,0.4c0.4,0.2,1.3,0.2,2.6,0.2
		c1.3,0,2.1,0.1,2.4,0.2c1.1,0.3,1.9,1.4,2.6,3.2c0.7,1.8,1.3,3.9,1.8,6.3s0.9,3.9,1.2,4.6c0.1,0.2,0.1,0.4,0.1,0.7
		c0,0.6-0.2,1.2-0.7,1.7c-1.1,1.4-2.4,2.2-4.1,2.5c-1.8,0.2-7.9,0.6-18.4,1s-16.5,0.7-17.9,0.9H122c-0.2,0.1-0.4,0.1-0.7,0.1h-0.5
		c-0.4,0.2-1.1,0.2-1.8,0.2c-0.4,0-0.8,0-1.4-0.1c-0.6,0-1.1-0.1-1.3-0.1c-0.1,0-0.2,0-0.4-0.1c-0.2,0-0.3-0.1-0.4-0.1H115
		c-2.4,0-4.3-1.4-5.7-4.2c-1.8-3.6-2.7-7.4-2.8-11.3c0-1.2-0.1-3.1-0.3-6c-0.2-2.8-0.3-5-0.3-6.6V370c0-1.7,0-2.9,0.1-3.6
		c0-1.1,0-2.7,0.1-4.7c0.1-2.1,0.1-3.6,0.1-4.6c0-1.7,0-2.9-0.1-3.7c-0.4-9.9-0.7-15.4-0.9-16.5c-0.3-2-0.4-4-0.4-6.1
		c0-1.5,0.1-3.7,0.3-6.7c0-1.2,0.3-2.3,0.9-3.1c0.3-0.4,0.4-0.8,0.4-1.1V319c0-0.4,0-0.7,0.1-0.9V318v-0.7c0-0.4,0.1-0.7,0.4-1
		c0.1-0.5,0.7-1.5,2-3.1C110.9,311,113.1,309.6,115.7,309L115.7,309z"/>
	<path class="st3" d="M174.1,395.6c-1.4-1.5-2.9-4.3-4.3-8.4c-1.1-3.3-1.7-5.9-1.7-7.8c0-0.5,0.1-1.9,0.3-4.2V375
		c0-0.1,0-0.4-0.1-0.9c0-0.5-0.1-0.9-0.1-1.2c0-2.2,0.4-3.8,1.2-5c0.9-1.2,2.2-2.4,4.1-3.4c0.3-0.2,0.7-0.4,1.2-0.4
		c2.6-0.2,4.4-0.4,5.4-0.4c2.9,0,4.5,0.6,4.7,1.7v1.4c0,2.6-0.2,5-0.7,7.2c-0.3,1.7-0.4,3.1-0.4,4.3c0,4,1.3,7,3.9,9.2
		c1.3,1.2,2.6,1.9,3.9,2.4c0.1,0.1,0.3,0.1,0.5,0.1c1.1,0,2.5-0.7,3.9-2c1.5-1.3,2.3-2.5,2.5-3.5c0.2-0.8,0.4-2,0.7-3.5
		c0.3-1.5,0.5-2.9,0.7-4.2c0.2-1.2,0.4-2.4,0.6-3.5c0.2-1.3,0.3-2.3,0.3-2.9c0-2-0.4-4.5-1.2-7.5c-0.1-0.4-0.3-1-0.5-1.9
		c-0.3-0.8-0.5-1.6-0.7-2.2c-0.2-0.7-0.3-1.3-0.4-1.9c-0.5-2.2-2-4.2-4.4-6.1s-5-3.5-7.8-4.8c-2.8-1.3-5.5-3.3-8.2-5.8
		c-2.7-2.6-4.5-5.5-5.4-8.7c-0.6-2-0.9-4.4-0.9-7.3c0-6.9,1.3-12.1,3.9-15.7c2.4-3.2,5-5.8,7.8-7.8c1.8-1.3,4.2-2,7-2
		c3.4,0,7,0.9,10.6,2.8c3.6,1.9,6.5,3.8,8.5,5.9c0.2,0.1,0.4,0.3,0.7,0.7c1.7,3.7,2.7,7,3.2,9.9v1.1c0.3,0.2,0.4,0.5,0.4,0.9v0.4
		c0.2,0.6,0.3,1.3,0.3,2.2c0,0.2,0,0.6-0.1,1.2c0,0.7-0.1,1.2-0.1,1.7v1c-0.1,0.7-0.5,1.2-1.1,1.7c-0.7,0.5-1.3,0.7-1.9,0.9
		c-0.6,0.1-1.5,0.3-2.7,0.4c-1.2,0.2-2,0.3-2.4,0.4c-0.3,0.1-0.6,0.1-0.9,0.1c-1.1,0-2.1-0.5-2.9-1.5c-1.3-1.7-2.1-3.1-2.4-4.5
		c-0.2-0.8-0.3-1.3-0.3-1.5c0-0.3,0.1-0.8,0.3-1.3c0.2-0.5,0.3-1,0.3-1.4c0-0.5,0-1-0.1-1.4c-0.4-1.3-0.7-2.4-1.2-3.4
		c-1.6-3-3.5-4.5-5.8-4.5c-0.4,0-0.8,0-1.1,0.1c-0.1,0.2-0.3,0.4-0.7,0.4c-0.9,1.2-1.8,2.3-2.8,3.2c-2,2.1-3,5.3-3,9.6
		c0,2.1,0.4,3.7,1.2,5c1.1,1.8,2.5,3.2,4.2,4.2c0.7,0.4,1.4,0.9,2.2,1.4c0.8,0.5,1.4,1,1.8,1.4c0.4,0.4,1.1,1,2,1.9
		c0.9,0.8,1.5,1.4,1.8,1.6c1.6,1.3,2.5,2.1,2.9,2.2c0.8,0.4,1.4,0.9,2,1.5c1.9,2.2,4,4.4,6.2,6.6c2.7,2.8,4.2,6.2,4.5,10.2
		c0.1,1,0.3,2.6,0.6,4.8c0.3,2.2,0.5,3.9,0.6,5.2v1.9c0,4.4-0.4,8.8-1.2,13.2c-1.1,6.2-3.5,10.8-7.3,13.7c-3.8,2.9-8.2,4.5-13.1,4.8
		c-0.2,0-0.4,0-0.7,0.1c-0.3,0-0.4,0.1-0.5,0.1C185.4,403.9,179.5,401.2,174.1,395.6L174.1,395.6z"/>
	<path class="st3" d="M247.6,399.1c-0.3,0.2-0.7,0.2-1.3,0.2c-0.5,0-1.3-0.2-2.2-0.5c-0.9-0.3-1.6-0.5-2-0.5h-0.4
		c-0.3,0-0.8,0-1.5,0.1s-1.3,0.1-1.6,0.1c-1,0-1.8-0.2-2.5-0.7c-0.9-0.8-1.3-2.4-1.3-4.7c0-0.6,0-1.2,0.1-1.8c0-0.6,0.1-1.2,0.3-1.9
		c0.1-0.6,0.2-1.1,0.2-1.4c0.2-1.4,0.4-3.5,0.7-6.3c0.3-2.8,0.5-4.9,0.7-6.3c0.9-7.2,1.7-12.7,2.4-16.5c0.2-3.5,0.3-6.1,0.3-8v-1.2
		v-0.5c0-2.1,0.2-5.1,0.5-9.1c0.2-2,0.3-3.4,0.3-4.2v-0.1v-0.4c0-0.4,0.1-0.7,0.4-0.9v-0.4l0.4-2.2c0.3-1,0.5-1.8,0.5-2.4v-0.2
		l-0.1-0.2c-0.1-1.2-0.8-1.9-2.1-1.9h-0.1h-0.8c-1.8,0-4.8-0.2-8.9-0.5c-4.1-0.3-6.7-0.5-7.8-0.6c-0.4,0-0.8-0.1-1.1-0.3
		c-0.3-0.2-0.5-0.4-0.7-0.6c-0.1-0.2-0.3-0.5-0.5-0.9c-0.2-0.5-0.4-0.8-0.5-1.1c-0.4-0.7-0.7-1.4-0.7-2.1c0-0.3,0.1-0.8,0.3-1.4
		c0.2-0.6,0.3-1.2,0.4-1.7c0.2-1.2,0.5-2.2,0.9-2.7c0.2-0.2,0.3-0.5,0.4-0.8c0.1-0.3,0.2-0.5,0.2-0.7s0.2-0.3,0.3-0.5
		c0.2-0.2,0.4-0.3,0.8-0.4c1.6-0.4,3.9-0.6,6.8-0.6h1.7c0.6,0.1,1.5,0.1,2.6,0.1c2.5,0,6.2-0.4,11.3-1.2c0.8-0.2,1.9-0.2,3.3-0.2
		c0.6,0,3.6,0.4,8.9,1.1c0.3,0.1,0.9,0.1,1.6,0.1c0.3,0,0.9,0,1.7-0.1c0.8,0,1.4-0.1,1.7-0.1c1.1,0,2,0.1,2.8,0.4
		c0.2,0.1,0.7,0.1,1.4,0.1c0.8,0,1.5,0,2.2,0.1s1.1,0.2,1.1,0.5c1.1,0,1.7,0.8,1.7,2.4c0,0.2,0,0.6-0.1,1s-0.1,0.7-0.1,1
		c0,7.7-1.6,11.6-4.7,11.7c-3.3-0.3-5.5-0.7-6.4-1c-0.5-0.2-1.3-0.4-2.4-0.6s-1.8-0.4-2.1-0.4c-0.9-0.2-1.4-0.2-1.7-0.2
		c-1.1,0-1.7,0.4-1.8,1.2c-0.3,2-0.4,4-0.4,6.1v3.4c0,1.6,0,2.8-0.1,3.6c0.1,0.9,0.1,2.3,0.1,4.2c0,1.1,0,2.7-0.1,4.8
		c0,2.2-0.1,3.8-0.1,4.8c0.2,3.6,0.3,6.3,0.3,8.1c0,1.2,0,3.1-0.1,5.5c0,2.4-0.1,4.2-0.1,5.5v1.7c0,5.1,0.1,8.8,0.3,11.3
		c0,0.3,0,0.8,0.1,1.5c0,0.7,0.1,1.1,0.1,1.4c0,0.6,0,1.5-0.1,2.8c0,1.3-0.1,2.2-0.1,2.8l-0.4,0.7
		C249.7,397.8,248.9,398.8,247.6,399.1L247.6,399.1z"/>
	<path class="st3" d="M308,353.6c0.2-3.1,0.3-5.5,0.3-7.1v-2.9c0-2-0.4-5.9-1.2-11.7c-0.7-4.9-1.8-9.2-3.4-12.9
		c-0.8-2.1-2.2-3.5-4.2-4.2c-0.5-0.2-1.1-0.4-1.6-0.4c-0.7,0-1.3,0.2-1.8,0.6c-0.4,0.2-0.9,0.6-1.5,1.1c-0.7,0.5-1.2,0.8-1.5,1.1
		c-0.7,0.5-1.3,1.1-1.8,1.7c-1.8,2.7-2.9,4.6-3,6c0,0.1-0.1,0.3-0.3,0.6c-0.2,0.4-0.4,1-0.7,1.8s-0.5,1.4-0.7,1.8
		c-0.5,1.2-1.1,4.2-1.7,8.8c-0.5,4.1-1.2,7.9-2.1,11.3c-1,3.6-1.4,7.2-1.4,10.6v0.2c0,2.7,0,4.6,0.1,6c0.2,2.9,0.7,5.6,1.6,8.2
		c0.2,0.6,0.4,1,0.8,1.4c1.7,1.9,3.8,3.2,6.3,3.9c1.3,0.3,2.7,0.5,4.2,0.5c2.8,0,5.5-0.7,8.2-2.2c1.1-0.7,1.8-1.6,2.1-2.7
		c1.3-5.5,2.1-8.9,2.2-10.2c0.2-1.3,0.3-2.3,0.5-2.9C307.5,360.9,307.8,358.1,308,353.6L308,353.6z M318.5,329.3
		c0.2,3.8,0.3,6.7,0.3,8.7v2.5v0.5c0,0.6,0,1.4,0.1,2.5c0,1.1,0.1,2,0.1,2.5c0,0.2,0,0.4-0.1,0.6c0,0.2-0.1,0.5-0.1,0.6
		c-0.2,3.3-0.4,5.8-0.5,7.5c0,0.3-0.1,0.7-0.3,1c-0.3,0.5-0.7,2.3-1.4,5.5c-0.5,2.3-1,4.1-1.4,5.3c-0.4,1.1-0.7,3.8-1.2,8.1
		c0,0.2,0,0.6-0.1,1.1s-0.2,0.8-0.3,0.9v0.9v0.6c0.2,0.7,0.3,1.1,0.3,1.4c0,0.7-0.1,1.4-0.4,2.1c-0.3,0.8-0.5,2-0.9,3.7
		c-0.3,1.6-0.5,2.8-0.7,3.4c-0.9,2.7-2.2,4.4-4.1,5.2c-1.8,0.7-3.2,1.1-4.2,1.1h-0.4c-5.6-0.2-9.5-0.6-11.7-1.2
		c-1.5-0.5-3.7-1.3-6.7-2.5c-1.8-0.7-3.7-2.2-5.8-4.5c-3.5-3.7-5.9-7.3-7.2-10.8c-0.4-0.8-0.8-2.9-1.4-6.3c-0.3-1.6-0.6-4.2-0.9-8
		c-0.4-3.1-0.5-5.5-0.5-7c0-0.2,0-0.6,0.1-1.2c0-0.5,0.1-0.9,0.1-1.2c0-0.2,0-0.4,0.1-0.8c0-0.4,0.1-0.6,0.1-0.8v-0.5
		c0-0.1,0-0.2-0.1-0.4c0-0.2-0.1-0.3-0.1-0.4c0-1.6,0.5-4.3,1.4-8.1c0.3-0.7,0.6-1.9,1-3.4s0.7-2.7,0.9-3.5c0.5-2.2,1.3-4.1,2.4-6
		c0.2-0.3,0.5-1.2,0.9-2.6c0.6-2.7,1.5-5,2.6-6.8c0.3-0.4,0.8-1.6,1.6-3.5c1.3-3.4,3.3-6.2,5.9-8.4c1.1-1,2.9-1.9,5.4-2.6
		c1.6-0.6,3.5-1,5.8-1.2h0.9c1.2,0,2.5,0.2,3.8,0.7c3.2,1.2,5.2,2.1,5.9,2.5c4.9,2.7,7.8,5.8,8.6,9.2c0.1,0.2,0.2,0.8,0.2,1.6
		c0,0.8,0.2,1.3,0.3,1.7s0.2,1,0.5,1.8c0.2,0.8,0.4,1.4,0.6,1.8C318,324,318.3,326.2,318.5,329.3L318.5,329.3z"/>
	<path class="st3" d="M356.7,356.2c0.6,1.3,1.2,3.4,1.7,6.2c0.4,1.6,0.5,3.4,0.5,5.3c0,2.5-0.4,6.1-1.3,10.9
		c-0.7,3.6-1.9,6.8-3.7,9.8c-0.4,1.1-1,2.1-1.8,3c-0.2,0.6-0.4,1.1-0.8,1.5c-3.3,4.1-6.6,7.5-9.7,10.1c-0.9,0.7-1.4,1.2-1.6,1.7
		c-0.1,0.2-0.4,0.6-1.1,1c-1.4,1.2-2.2,1.8-2.4,2c-0.4,0.5-0.8,0.7-1.3,0.7c-0.6,0-1.1,0-1.3-0.1c-0.3-0.1-0.9-0.3-1.9-0.6
		c-1-0.3-1.8-0.5-2.4-0.6c-0.3,0-0.5,0-0.7-0.1c-0.3-0.2-0.9-0.4-1.8-0.6c-0.8-0.2-1.5-0.5-2.1-0.8s-1-0.8-1.2-1.4
		c-1.1-3-1.7-4.8-1.7-5.5c0-1.6-0.4-3.1-1.2-4.6c0-0.1-0.1-0.2-0.2-0.5c-0.1-0.2-0.2-0.4-0.2-0.5c0-0.4,0.2-0.7,0.7-1
		c0.8-2.2,2.9-3.5,6.2-4.1c1.4-0.2,2.5-0.8,3.4-1.6c3.4-3.1,5.9-6.2,7.5-9.1c1.6-2.8,2.5-5.1,2.8-6.7v-0.2v-0.9
		c0-1.2,0.2-2.9,0.5-5.2c0.4-2.3,0.5-4.1,0.5-5.2c0-0.2,0-0.4-0.1-0.6c0-0.2-0.1-0.4-0.1-0.5c0-0.9-0.3-1.7-0.9-2.4
		c-1.1-1.1-1.8-1.9-2.4-2.4c-4.9-4.1-8.2-7.1-9.9-9.1c-1.1-1.4-1.8-2.4-2.1-3c-1.9-3.9-2.9-7.5-2.9-10.9v-1c0.1-3,0.5-6.5,1.3-10.6
		c0.3-1.1,0.7-2.1,1.2-3.1c2.4-4.9,5.8-9,10.3-12.4c2.6-2,5.5-3.4,8.6-4.1c0.3-0.1,0.8-0.1,1.4-0.1c1.1,0,1.9,0.8,2.2,2.5
		c0,0.2,0.1,0.4,0.3,0.7c0.3,0.5,0.4,1,0.4,1.6c0,0.7-0.4,1.7-1.1,2.9c-2.5,3.9-4.9,7-7.4,9.2c-1.8,1.7-3.2,3.8-4.2,6.3
		c-0.4,1.2-0.7,2.4-0.7,3.4c0,2.2,0.9,4.2,2.6,6.1c0.6,0.7,1.3,1.3,2,2c0.7,0.7,1.6,1.5,2.5,2.3s1.6,1.5,2.2,2
		c4,3.8,6.7,6.8,7.9,9.1C354.2,348.6,355.3,351.7,356.7,356.2L356.7,356.2z"/>
	<path class="st3" d="M-146.3,455.6c0.1,0.8,0.4,1.2,1.1,1.2c0.1,0,0.1,0,0.2,0c0.1,0,0.1,0,0.2,0c2.1-0.3,4.1-1.1,6.1-2.2
		c0.6-0.3,1-0.7,1.3-1.2c1.1-1.8,1.9-3.2,2.4-4.1c0.8-1.3,1.3-2.9,1.6-4.7v-0.7c0-0.5-0.1-1.4-0.2-2.5c-0.1-1.8-0.9-3.1-2.3-3.8
		c-1.3-0.6-2.7-0.9-3.9-0.9c-0.5,0-0.9,0-1.2,0.1h-1.1h-0.7c-0.8,0.1-1.8,0.2-3.1,0.4c-0.7,0.1-1.1,0.5-1.1,1.2v0.2
		c0,0.4,0,1,0.1,1.7c0.1,0.7,0.1,1.4,0.1,2s0,1.2,0,1.7v0.3v0.2c0,0.5,0,1.2,0.1,2.2c0.1,0.9,0.1,1.6,0.1,2.1v1.1c0,0.1,0,0.2,0,0.3
		c0,0.2,0,0.3,0,0.3c0,0.2,0,0.3,0,0.5c0,0.1,0.1,0.3,0.1,0.5c0.1,0.2,0.1,0.4,0.1,0.5v0.5v0.3c-0.1,0.2-0.1,0.5-0.1,0.9
		C-146.5,454-146.4,454.7-146.3,455.6L-146.3,455.6z M-144.4,462.9c-0.1-0.1-0.3-0.1-0.4-0.1c-0.5,0-0.8,0.3-0.8,1v1.3
		c0,0.8,0,1.4,0.1,1.8c0.3,2.1,0.4,4,0.4,5.6v0.4v0.7v2c0,1.7-0.1,3-0.2,3.9c-0.1,0.8-0.2,1.4-0.2,1.9v1.5c0,0.1,0,0.1,0,0.3
		c0,0.1,0,0.2,0,0.3c0,0.2,0,0.6,0,1c0,0.5,0,0.8,0,0.9v0.7v0.2c0,0.4,0,0.7-0.1,0.9c-0.2,0.6-0.3,1-0.5,1.2c-0.2,0.2-0.5,0.3-1,0.3
		h-0.5h-0.8c-0.7,0-1.2,0-1.5,0.1c-0.4,0.1-0.8,0.2-0.9,0.2c-0.7,0-1.4-0.2-2-0.6c-1-0.6-1.7-1.1-2.2-1.5c-0.3-0.3-0.6-0.8-0.7-1.6
		v-0.8c0-0.3,0-0.7,0-1.1s0.1-0.8,0.1-1.3c0.1-0.5,0.1-0.8,0.1-1c0.1-0.3,0.1-0.8,0.1-1.5c0-1.2,0-2-0.1-2.6s-0.1-1.5-0.1-2.7
		l0.3-7.5v-1.7c0-0.8-0.1-1.4-0.2-1.9c0-0.1,0-0.1,0-0.3c0-0.1,0-0.2,0-0.3c0-0.1,0-0.2,0.1-0.4v-1.8c0-1.1-0.1-2.8-0.3-5.1
		c0-0.1,0-0.3,0-0.5s0-0.4,0-0.5c0-0.6,0.1-1.5,0.3-2.7l0.5-3.6c0.1-0.9,0.2-1.6,0.3-1.9c0.4-1.3,0.6-3.3,0.8-6
		c0.1-2.4,0.2-4.2,0.2-5.4c0-1,0.4-2,1.1-2.8c0.5-0.6,1.1-0.9,1.9-0.9c0.3,0,0.6,0,0.8,0.1c0.6,0.1,1,0.2,1.3,0.2s0.8-0.1,1.5-0.2
		c1.2-0.3,2.9-0.5,5.1-0.6c1,0,1.8,0,2.3-0.1c0.2-0.1,0.6-0.1,1-0.1c1,0,2,0.2,2.9,0.5c0.3,0.1,0.7,0.2,1.3,0.3
		c1.9,0.2,3.7,1.4,5.3,3.4c2.1,2.8,3.5,4.9,4.3,6.6c0.9,2.1,1.3,3.9,1.3,5.4v0.3c0,2-0.2,3.7-0.7,5.1c-0.4,1.3-1.3,2.6-2.8,4
		c-0.1,0.1-0.3,0.2-0.5,0.3c-0.2,0.2-0.3,0.3-0.4,0.4c-1.3,1.6-3.1,2.8-5.4,3.6c-2,0.9-3.4,1.5-4,1.9c-1,0.6-2.2,0.9-3.7,0.9
		l-0.2-0.1h-0.2c-0.3,0.1-0.7,0.1-1.2,0.1C-143.4,463.1-144,463-144.4,462.9L-144.4,462.9z"/>
	<path class="st3" d="M-104.9,480.2c0.1,0,0.4,0.1,0.7,0.1c0.6,0,1.1-0.3,1.5-1c1.3-2.2,2-5.1,2.1-8.5c0-0.4,0-1,0.1-1.7
		c0-0.7,0.1-1.4,0.1-1.9c0-0.6,0-1.1,0-1.7v-0.7l-0.2-11.2c-0.3-5.4-0.4-8.2-0.4-8.2c-0.4-3.2-1.1-5.9-2.1-8.1
		c-0.7-1.4-1.9-2.5-3.6-3.4c-0.2-0.1-0.5-0.2-0.9-0.2s-0.8,0.1-1.2,0.2c-0.5,0.2-0.9,0.3-1.2,0.3h-0.1l-0.1-0.1l-0.1-0.1h-0.1
		c0,0.2-0.1,0.2-0.2,0.2v0.1c0,0,0,0,0,0.1c-0.4,0.8-1.7,4.2-4,10.3c-0.6,1.6-0.9,3.6-1,5.9c-0.1,2.1-0.1,3.6-0.1,4.6
		c0,1.2,0.1,2.5,0.2,3.7c0,0,0,0.1,0,0.2s0,0.1,0,0.2c0,0.3-0.1,0.6-0.3,0.8l-0.1-0.1v0.2c0.2,0.7,0.5,2.2,0.8,4.6
		c0.5,3.1,1.3,5.9,2.3,8.2l0.1-0.1c0,0,0.1,0.1,0.2,0.2c0.2,0.3,0.6,1,1.2,1.9c0.6,0.9,1,1.7,1.3,2.2v0.1
		C-108,478.8-106.4,479.7-104.9,480.2L-104.9,480.2z M-102.5,486.3c-0.4,0.4-1.1,0.7-2,1c-1,0.2-1.8,0.4-2.6,0.4
		c-0.5,0-1.2-0.1-2-0.4c0,0-0.1,0-0.2-0.1c-0.1,0-0.2-0.1-0.2-0.1c-0.7-0.2-1.6-0.6-2.5-1.3c-0.7-0.3-1.7-1.2-3-2.7
		c-3.6-4.1-5.7-8.8-6.3-14.2c-0.2-1.4-0.4-2.5-0.7-3.2c-0.2-0.7-0.5-2.2-0.7-4.5c-0.1-1.2-0.2-2.5-0.2-3.9c0-3.2,0.5-6.9,1.4-11.2
		c0.2-0.8,0.4-1.4,0.5-1.6c2.9-6.2,4.7-10,5.4-11.2c0.1-0.2,1.2-1.6,3.1-4.1c0.2-0.2,0.4-0.4,0.6-0.5c0.2-0.2,0.5-0.3,0.9-0.4
		s0.6-0.2,0.8-0.3c0.1-0.1,0.3-0.2,0.6-0.2h0.1c0,0,0.1-0.1,0.3-0.1h0.1c0.1,0,0.2,0,0.3-0.2c1-0.6,2-1,3.1-1c1.3,0,2.6,0.5,3.9,1.4
		c2.2,1.4,3.8,3.5,4.7,6.1c1.7,4.2,2.6,8.2,2.7,12.1c0,0.8,0,2,0,3.6s0,2.8,0,3.6c0.1,0.3,0.1,0.5,0.1,0.6s0,0.2,0,0.4
		c0,0.1,0,0.3,0,0.3c0,1.3,0,3.3,0,5.9s0,4.6,0,5.9c0,1.8-0.4,4.8-1.1,9.1c-0.3,2.1-0.7,3.6-0.9,4.3c-0.6,1.4-1.4,2.5-2.3,3.2
		c0,0-0.1,0.1-0.3,0.2c-0.1,0.1-0.2,0.1-0.3,0.2c-0.3,0.5-0.8,1-1.5,1.6C-101.8,485.6-102.3,486-102.5,486.3L-102.5,486.3z"/>
	<path class="st3" d="M-86.5,453.9c0.3,4.5,0.5,7.5,0.5,8.8v0.5v0.4c0,2,0.3,4.5,0.8,7.6c0.5,3.3,0.9,5.8,1.2,7.4
		c0.2,1.2,0.8,2.9,1.7,5.1c0.6,1.5,1.7,2.3,3.2,2.3c0,0,0.1,0,0.3-0.1c0.8-0.1,1.3-0.4,1.5-1c1.3-3.1,1.9-5.2,2-6.2
		c0-0.6,0.1-1.5,0.2-2.8c0.1-1.3,0.2-2.2,0.2-2.8c0.2-1.7,0.4-3,0.5-3.7c0.1-0.6,0.2-1.6,0.3-2.8c0.1-1.2,0.1-2,0.1-2.3
		c0.2-2.6,0.3-4.6,0.3-5.9c0-1.1,0-1.9-0.1-2.5c0-1-0.2-2.5-0.4-4.6c-0.2-2-0.3-3.6-0.4-4.6c0-0.9-0.1-2.3-0.1-4.1
		c0-2.5,0.2-4.9,0.5-7.2c0.2-1.8,0.4-2.9,0.6-3.3c0.5-1.3,1.5-2.1,2.8-2.3c1.6-0.2,2.6-0.5,2.9-0.7c0.1,0,0.2-0.1,0.4-0.1
		c0.5,0,0.8,0.3,1.1,0.8c0.2,0.4,0.3,0.9,0.4,1.4c0.1,0.9,0.3,2.1,0.5,3.6c0.2,1.6,0.4,2.6,0.5,3.2c0.6,4.5,1.1,7.7,1.4,9.5
		c0.4,2.4,0.7,4,0.7,4.6v1.6c0,1-0.1,1.8-0.2,2.3c-0.3,1.2-0.5,2.6-0.5,4v0.9v1c0,1.7-0.1,4.4-0.4,7.9c0,0.6-0.1,1.8-0.2,3.4
		c-0.1,1.6-0.2,2.9-0.3,3.8c-0.4,3.3-0.9,5.7-1.5,7.3c-0.8,2.3-2,4.1-3.5,5.2c-0.6,0.5-1.4,0.8-2.3,1c0,0-0.5,0.1-1.4,0.2
		c-0.9,0.2-1.6,0.2-2,0.2h-0.4h-0.1c-0.3,0-0.7,0.2-1.1,0.6c-0.9,0.9-2,1.4-3.3,1.4h-0.6c-2.8-0.2-4.9-1.8-6.5-4.7
		c-0.1-0.2-0.8-1.8-1.8-4.9c-0.5-1.5-1.1-3.5-1.6-6.1c-0.1-0.6-0.2-1.4-0.3-2.5s-0.2-1.8-0.3-2.1c-0.2-1.6-0.4-4-0.4-7.3
		c0-1.1-0.1-2.7-0.2-4.9c-0.1-2.2-0.2-3.8-0.2-4.9c0-0.1,0-0.2,0-0.4c0-0.2,0-0.3,0-0.4c0.1-4.4,0.2-7.7,0.3-10c0-0.2,0-0.3,0-0.6
		c0-0.2,0-0.5,0-0.6v-0.2c0-0.9,0-1.6,0.1-2c0.2-1.6,0.3-2.8,0.3-3.6c0-0.1,0-0.3,0-0.5s0-0.3,0-0.4v-0.2c0-1.3,0.7-2.9,2.2-4.8
		c0.2-0.3,0.5-0.4,0.7-0.4c0.3,0,0.6,0.1,0.8,0.4c0.3,0.3,0.4,0.8,0.4,1.5v0.9v1.1c0,0.5,0,1.2-0.1,2.2c0,1-0.1,1.7-0.1,2.2
		c0,0.7,0,1.3,0.1,1.7c0,0.2,0.1,0.5,0.1,1c0,0.2,0,0.4,0,0.7c0,0.3,0,0.5,0,0.7v1C-86.9,446.9-86.7,449.9-86.5,453.9L-86.5,453.9z"
		/>
	<path class="st3" d="M-40.1,447.2c1.7-1.2,2.9-2.1,3.6-2.8c1-0.9,1.5-1.8,1.5-2.8c0-0.3-0.1-0.7-0.2-1.1c-0.1-0.3-0.2-0.7-0.3-1.3
		c-0.1-0.6-0.2-1.1-0.3-1.5c-0.1-0.5-0.3-0.8-0.5-1.2c-1.2-1.8-2.7-3.1-4.6-3.8c-1.6-0.5-3.3-0.8-5.2-0.8c-1.1,0-1.9,0-2.5,0.1
		c-0.8,0.1-1.2,0.6-1.2,1.5v0.4c0,0.3,0.1,0.9,0.1,1.6c0,0.4,0,1,0,1.9s0,1.5,0,1.9c0,0.8,0,2-0.1,3.6s-0.1,2.8-0.1,3.6v0.4v1.7v1.1
		c0,0.6,0.2,0.8,0.6,0.8c0,0,0.2,0,0.5-0.1c0.1,0,0.2-0.1,0.4-0.3c0.2-0.1,0.4-0.2,0.5-0.3c0.2-0.1,0.4-0.1,0.5-0.1
		c0.5-0.1,1-0.3,1.4-0.6c0.1-0.2,0.6-0.3,1.2-0.4C-42.5,448.3-40.9,447.8-40.1,447.2L-40.1,447.2z M-30.3,475
		c2.7,3.5,4.4,6.2,5.1,8.1c0.2,0.5,0.4,1,0.6,1.6c0.1,0.4,0.1,0.6,0.1,0.7c0,0.3-0.2,0.7-0.7,1c-1,0.6-2.1,0.9-3.2,0.9
		c-0.5,0-1.3-0.1-2.3-0.4c-1.9-0.7-3.2-1.5-3.9-2.2c-0.1-0.2-0.9-0.8-2.4-2.1c-0.7-0.6-1.1-1.1-1.3-1.6c0-0.1-0.1-0.3-0.3-0.5
		c-0.1-0.2-0.2-0.4-0.3-0.6s-0.2-0.3-0.3-0.5c-0.6-0.8-1.7-2.7-3.1-5.8c-0.3-0.7-0.5-1.2-0.6-1.5c0,0-0.1-0.2-0.1-0.3l-0.1-0.2
		c-0.3-0.4-0.4-0.7-0.4-0.9v-0.1c-0.4-0.5-0.8-1.4-1.2-2.5c-0.7-1.1-1.1-1.7-1.2-1.9c-0.2-0.3-0.6-1-1.2-2c-0.5-1-1-1.9-1.5-2.7
		c-0.5-0.8-0.9-1.4-1.4-1.8c-0.1,0-0.3,0.2-0.3,0.6c-0.1,0.4-0.1,0.9-0.2,1.5l-0.1,0.9c-0.3,5.2-0.5,8.6-0.5,10.2v0.6v0.3
		c0,0.7,0,1.8-0.1,3.1c-0.1,1.3-0.1,2.2-0.1,2.7c-0.1,1.9-0.1,3.3-0.1,4.3v1.3c0,0.6,0,1.2,0.1,1.8c0.1,0.6,0.1,1.2,0.1,1.7v0.4
		c0,0.4-0.2,1-0.5,1.8c-0.4,0.8-0.7,1.2-1,1.2c-0.2,0-0.5,0.1-0.8,0.1h-0.1h-0.8c-0.2,0-0.5,0-0.9,0s-0.8,0-1,0
		c-0.3,0-0.7-0.1-1.3-0.2c-0.5-0.1-0.8-0.2-1-0.3c-0.8-0.3-1.2-1.3-1.2-3c0-0.3,0-0.6,0-1.2c0-0.5,0-0.9,0-1.2v-0.1
		c-0.2-0.4-0.3-0.7-0.3-1v-0.1c0-0.1,0.1-0.2,0.1-0.2c0.1-0.8,0.2-1.6,0.2-2.4v-2c0-0.9,0.2-2.5,0.4-4.6c0.3-2.7,0.5-4.8,0.6-6.4
		c0.2-2.7,0.4-4.4,0.4-4.9c0-0.7,0.1-1.8,0.3-3.2c0.1-1.4,0.2-2.4,0.2-3.1c0.1-2.8,0.2-4.5,0.3-5s0.2-1.2,0.2-2.1s0.1-1.6,0.1-1.9
		c0.3-2.9,0.5-5.4,0.5-7.5c0-1.1,0.1-2.7,0.3-4.8c0.2-2.1,0.3-3.6,0.3-4.6c0.1-1.6,0.3-2.9,0.7-3.9c0.2-0.5,0.5-0.9,0.9-1.2
		c1-0.5,1.8-0.8,2.5-0.8c0,0,0.1,0,0.3,0c0.1,0,0.2,0,0.3,0c0.2,0,0.6,0.1,1.1,0.1c0.3,0,0.8,0,1.5-0.2c0.8-0.1,1.9-0.1,3.5-0.1
		s2.7,0.1,3.5,0.1c1.4,0.1,2.4,0.2,3.1,0.4c1.7,0.4,3.8,1.5,6.3,3.2c0.2,0.1,0.6,0.3,1.2,0.7c2.2,1.8,3.7,3.8,4.7,6
		c0.1,0.2,0.4,0.8,0.8,1.8c0.5,1,0.8,1.8,1,2.4c0.3,0.9,0.4,1.8,0.4,2.7c0,1.5-0.4,2.9-1.1,4c-0.9,1.4-1.9,2.6-3.1,3.4
		c-0.6,0.4-1.5,1.1-2.5,2.2c-0.3,0.4-1.1,0.9-2.4,1.6c-0.3,0.2-0.8,0.4-1.5,0.7c-0.6,0.3-1.1,0.6-1.5,0.8c-0.5,0.3-0.9,0.5-1.2,0.8
		c-0.1,0.2-0.4,0.3-0.8,0.4c-0.4,0.2-0.6,0.3-0.6,0.5v0.2v0.1c2.1,3.2,3.5,5.9,4.4,7.9c0.9,2.2,2.2,4.4,3.7,6.7
		C-30.8,473.8-30.6,474.3-30.3,475L-30.3,475z"/>
	<path class="st4" d="M16.9,426.7H16c-0.9,0-1.5,0.2-1.8,0.6s-0.5,1.1-0.7,2.1c-0.4,3-0.6,6.4-0.6,10.3v2.9c0,1.1,0.1,3.1,0.4,5.9
		c0.2,2.8,0.4,5,0.4,6.6v1.3v1.3c0,1.9,0.2,4.7,0.6,8.1c0.4,3.5,0.6,5.8,0.7,7c0.8,9.8,1.2,17.2,1.3,22v3.5c0,2,0,3.6,0.1,4.7
		c0.1,0.7,0.3,2.7,0.6,5.8c0.3,3.2,0.4,5.6,0.4,7.4c0,0.2,0,0.5-0.1,1s-0.1,0.8-0.1,1.1v0.3v0.1l0.1,0.3c0.2,1,0.6,1.5,1.3,1.5
		c0.5,0,0.8-0.1,1-0.3c0.3-0.2,1.2-0.7,2.6-1.7c1.4-0.9,2.5-1.7,3.2-2.4c0.7-0.6,2.9-2.6,6.5-5.8c1.9-1.6,3.1-3.1,3.7-4.5
		c0.4-0.9,1.1-2.7,2.2-5.4c1.1-2.6,1.9-4.7,2.4-6.2c0.2-0.6,0.3-0.9,0.3-1.1c0.3-1.6,0.7-3.9,1.3-7.1c0.5-3.2,1-5.5,1.3-7.1
		c0.9-4.8,1.3-9.7,1.3-14.6c-0.1-0.6-0.1-1.6-0.1-2.8v-3.9c0-1.1-0.1-2-0.1-2.5l-1.3-12.9c-0.4-3.3-1.7-6.2-3.8-8.6
		c-2.2-2.4-4.7-3.9-7.5-4.3l-8.9-1.7c-0.4-0.1-1.3-0.3-2.7-0.5C18.6,427,17.6,426.8,16.9,426.7L16.9,426.7z M2.8,418.1
		c1-1.7,2.5-2.5,4.4-2.5c1.1,0,2.1,0.3,3.1,1c1.2,0.7,3,1.2,5.5,1.4c0.3,0,0.7,0,1.2,0.1c0.5,0,0.9,0.1,1.2,0.1c0.7,0,1.7,0,2.9-0.1
		c1.3,0,2.3-0.1,3-0.1c1.1,0,2.7,0.1,4.9,0.3c4.9,0.6,8.9,1.5,11.9,2.9c1.6,0.7,3.1,1.9,4.7,3.3c4.1,3.9,6.8,8.8,8,14.6
		c1.2,5.6,1.8,9.8,1.8,12.7v1.1c0,0.4,0,1-0.1,1.7c-0.1,0.8-0.1,1.4-0.1,1.7c0,0.4,0,0.9,0.1,1.5c0,0.6,0.1,1.1,0.1,1.5
		c0,0.7,0,1.9-0.1,3.4s-0.1,2.7-0.1,3.4c0,2.7-0.4,7.9-1.3,15.6c-0.5,4.9-0.8,7.7-1,8.4c-1.3,5-2.9,9.6-5,13.6
		c-2.7,5.1-6,9.5-10.2,13.2c-3,2.7-6.3,5.2-10,7.5c-1,0.6-1.8,1.3-2.5,2.1c-2.2,2.6-6,4.4-11.4,5.4c-0.2,0.1-0.5,0.2-1,0.3
		c-0.4,0.1-0.8,0.1-1,0.1c-1,0.3-2,0.4-3.1,0.4c-2.1,0-4.4-0.6-6.9-1.9c-0.2-0.1-0.4-0.2-0.7-0.3s-0.5-0.2-0.6-0.3
		c-3.4-1.4-5.3-4.4-5.5-8.9c0-0.1,0-0.3-0.1-0.5s-0.1-0.4-0.1-0.5c0-1.8,0.2-3.3,0.6-4.7c0.3-0.9,0.4-1.9,0.4-2.9
		c0-0.4-0.1-1.1-0.3-2.2v-1.3c0-0.2,0-0.5,0.1-1c0-0.5,0.1-0.8,0.1-1c0.1-0.9,0.1-2.4,0.1-4.3c0-1.7-0.1-2.9-0.3-3.8
		c-0.1-0.6-0.1-1.4-0.1-2.5c0-1,0.1-2.6,0.3-4.6c0.1-1.2,0.2-3.2,0.2-5.9c0-2.7,0.2-4.8,0.4-6.2v-0.4c0-0.4-0.1-0.9-0.2-1.6
		c-0.1-0.7-0.2-1.2-0.2-1.6s0-1-0.1-1.9s-0.1-1.6-0.1-2c0-3.1,0.2-7.8,0.6-14.3l0.9-14.2c0.5-6,1.2-11.1,2.2-15.2
		c0.2-0.6,0.4-1.7,0.7-3.1c0.2-1.4,0.4-2.4,0.5-3.1C0.7,421.7,1.5,420.1,2.8,418.1L2.8,418.1z"/>
	<path class="st4" d="M85.8,420.7c0.9-0.1,2.3-0.1,4.1-0.1c3,0,5.9,0.3,8.7,1l4.1,0.8c2,0.4,3.3,0.7,4.1,1c0.7,0.3,1.4,0.8,2.1,1.5
		c0.6,0.7,1,1.7,1,3c0,0.5-0.1,1.3-0.3,2.6c-0.3,1.7-0.7,2.7-1.1,3.2s-1.2,0.7-2.3,0.7H105h-1.3c-1.1,0.1-2.7,0.1-4.7,0.1
		c-2.2,0-3.8-0.1-4.9-0.3c-6.2-0.9-9.9-1.4-11.1-1.4h-0.7c-1.2,0-3,0.3-5.6,0.8c-1.3,0.3-1.9,1.1-1.9,2.5v0.3c0.4,5.1,0.7,8.8,1,11
		c0.3,2.3,0.8,6.1,1.6,11.5c0.8,5.3,1.3,9.4,1.6,12.3c0,0.4,0.3,4.6,0.9,12.7c0.1,1.4,0.9,2.2,2.4,2.5c0.5,0.1,1.2,0.1,2.2,0.1
		c2.4,0,4.4-0.4,6-1.1c1.6-0.6,2.8-0.8,3.5-0.8c1.1,0,2,0.2,2.7,0.7c3,2,4.6,4.1,4.7,6.1v0.6v1.3c0,0.8,0,1.4,0.1,1.8v0.3
		c0,0.5-0.2,0.8-0.5,1.1c-0.3,0.3-0.9,0.6-1.8,1c-0.8,0.4-1.4,0.6-1.5,0.7c-2.3,1.4-5.2,2.6-8.7,3.6c-1.6,0.4-2.7,0.6-3.4,0.6
		c-0.9,0-1.6-0.1-2.1-0.3c-0.2-0.1-0.5-0.1-1-0.1c-0.2,0-0.6,0.1-1.2,0.3l-0.4,1.3c0,0.6-0.1,1.6-0.1,2.8c-0.1,1.2-0.2,2.3-0.2,3.3
		c-0.1,1-0.1,1.9-0.1,2.7c0,2.4,0.1,4.2,0.3,5.4c0.1,1,0.3,1.7,0.7,2c0.3,0.3,1,0.5,2,0.5h0.1c1.9,0,4.6-0.3,8.1-0.8
		c5.5-0.8,8.4-1.3,8.7-1.3c1.8-0.2,3.1-0.6,4.1-1.3c0.8-0.5,1.5-0.7,2.1-0.7c0.4,0,1.6,0.4,3.7,1.1c0.7,0.3,1,0.8,1,1.5
		c0,0.2-0.1,0.5-0.3,0.8c-0.4,0.7-0.7,1.9-0.8,3.3c-0.1,1.5-0.3,2.5-0.4,2.9l-0.1,0.1c0.2,0.6,0.3,1,0.3,1.3c0,0.6-0.1,1.1-0.4,1.5
		c-0.2,0.5-0.6,1-1.2,1.7c-0.5,0.7-0.9,1.1-1,1.3c-1.8,2.6-4.4,4.3-8,5c-0.8,0.1-2,0.4-3.6,1s-2.8,0.9-3.6,1c-0.2,0-0.5,0.2-0.9,0.6
		c-0.4,0.5-0.9,0.8-1.5,1c-0.6,0.2-1.1,0.4-1.4,0.5c-0.3,0.1-0.9,0.2-1.8,0.3c-0.9,0.1-1.5,0.1-1.5,0.1c-0.5,0.1-1.3,0.1-2.4,0.1
		s-2,0.1-2.7,0.3c-0.1,0-0.2,0-0.3,0.1c-0.1,0-0.2,0.1-0.3,0.1c-0.3,0-0.7-0.1-1.3-0.3c-1.8-0.5-3.3-0.7-4.7-0.7h-0.1
		c-0.3,0-0.9,0-1.9,0.1s-1.7,0.1-2.2,0.1c-1.6,0-2.6-0.3-3-0.8c-0.6-1.2-0.9-2.6-0.9-4.3c0-0.6,0-1.4,0.1-2.6s0.1-2.1,0.1-2.8
		c0-0.3-0.1-0.6-0.2-1.1s-0.2-0.8-0.2-1l-0.4-16.7v-2.4v-3.1c0-2.9-0.2-5.5-0.6-7.8c-0.1-0.3-0.1-0.7-0.1-1.4c0-0.3,0-0.7,0.1-1.3
		c0-0.6,0.1-1,0.1-1.3v-0.7c-0.2-1.8-0.4-4.5-0.7-8.2c-0.3-3.7-0.5-6.5-0.6-8.4V477c0-0.4,0-0.9,0.1-1.5s0.1-1.1,0.1-1.4V474
		l-0.1-0.3c-0.2-1.9-0.3-4.9-0.3-8.8v-2.6v-4v-2.1c0-0.3,0-0.7-0.1-1.3c-0.1-0.6-0.1-1-0.1-1.3c0-0.6,0-1.5,0.1-2.8
		c0-1.3,0.1-2.2,0.1-2.8l0.1-0.1c0-0.1,0-0.2,0-0.3c0-1.1-0.3-2.1-1-3.1c-0.5-0.6-0.7-1.4-0.7-2.5v-0.3v-1.9v-5.6
		c0-0.4-0.1-1.3-0.1-2.8c-0.1-1.5-0.1-2.6-0.1-3.5c0-2.3,0.2-3.9,0.7-4.7c0.7-1.3,2.1-1.9,4.3-1.9c0.3,0,0.7,0,1.3,0.1
		c0.6,0,1,0.1,1.3,0.1c0.8,0,1.4,0,1.8-0.1c0.8-0.1,2.2-0.2,4.1-0.4c2-0.2,3.5-0.4,4.6-0.6c0.1,0,0.2,0,0.4-0.1
		c0.1,0,0.3-0.1,0.4-0.1s0.3,0.1,0.7,0.3c0.9,0.4,1.9,0.6,2.9,0.6C83.7,421,84.6,420.9,85.8,420.7L85.8,420.7z"/>
	<path class="st4" d="M149.1,522.7v-1.8c0-3-0.4-6.5-1.3-10.7c-1.4-6.3-2.5-11-3.2-14.2c-1-4.1-1.9-7.1-2.8-9.1
		c-0.5-1-1-2.6-1.5-4.7s-0.8-3.4-1-4c-0.2-0.7-0.7-2.7-1.6-5.8c-0.9-3.1-1.6-5.5-2.2-7l-0.1-0.3c-0.1-0.1-0.1-0.3-0.1-0.6
		c-0.3-0.5-0.5-0.7-0.7-0.8h-0.1c-0.5,0.1-0.7,0.4-0.7,1v0.3v0.4l-0.4,1.7c0.2,0.7,0.3,1.3,0.3,1.7c0,0.2,0,0.5-0.1,0.8
		c-0.1,0.4-0.1,0.6-0.1,0.8v1.1c0,1.6,0.1,2.8,0.4,3.6c0.2,0.6,0.3,1.3,0.3,2.4v2.1v0.8c0.1,1.4,0.1,3.5,0.1,6.3
		c0,1.5,0,3.8-0.1,6.8c-0.1,3.1-0.1,5.4-0.1,7v1.7v5.2v9.3c0,1.5-0.1,3.7-0.3,6.7c0,0.3,0,0.7-0.1,1.3c-0.1,0.6-0.1,1-0.1,1.3
		c0,0.7,0.1,1.8,0.3,3.1v0.7c0,1.6-0.5,3-1.4,4.3s-2.1,2.2-3.6,2.6c-0.3,0.1-0.7,0.1-1.3,0.1H126c-1.6,0-3.2-0.3-4.9-0.8
		c-0.9-0.1-1.5-0.6-1.9-1.7c-1.1-2.5-1.6-4.7-1.6-6.7v-1c0-1.4,0.1-3.5,0.2-6.2s0.2-4.8,0.2-6.2v-1.3v-1.7c0-1.6,0-3.2,0.1-4.9
		c0.1-1.7,0.2-3.6,0.4-5.8c0.1-2.1,0.3-3.8,0.4-5c0.3-4.2,0.4-6.3,0.4-6.4c0-1.5,0.1-3.6,0.4-6.3c0.3-2.7,0.4-4.7,0.4-5.9
		c0.1-3.2,0.3-7.7,0.5-13.6s0.4-9.8,0.5-11.6v-0.8c0-1.3-0.2-2.2-0.6-2.8c-0.4-0.6-0.6-1.4-0.6-2.4s-0.1-2.6-0.3-4.6v-1.4
		c0-2.7,0.4-5.3,1.3-7.8c0.1-0.2,0.2-0.4,0.3-0.8c0.1-0.3,0.2-0.6,0.3-0.8c0.5-2.6,2.2-4.7,5.2-6.3c0.7-0.4,1.3-0.6,1.8-0.6
		c0.7,0,1.3,0.3,1.9,1c1.4,1.5,2.8,2.5,4.1,3.1c1.3,0.6,2.2,1.8,2.7,3.5c0.7,2,1.2,3.8,1.6,5.3c0.8,2.8,2,6.9,3.5,12.3
		c1.6,5.4,2.8,9.5,3.5,12.2c0.8,2.4,1.9,6.1,3.2,11c1.4,4.9,2.5,8.6,3.2,11.1c1.1,3.7,2,7.1,2.7,10.3c0,0.3,0.1,0.6,0.3,1
		c0.2,0.7,0.6,1.1,1.2,1.1s1-0.3,1.2-1c1.1-2.2,1.9-4.3,2.5-6.1c0.7-1.9,1.9-4.5,3.5-7.5c2.1-3.5,4.2-8.4,6.3-14.6
		c0.4-1.2,1.2-3,2.4-5.4c2.1-4.5,4-10,5.8-16.7c1.2-4.8,1.9-7.8,2.1-8.9c0.3-2,0.6-4.9,1-8.5c0.5-3.6,1.3-6.6,2.5-9.1
		c0.2-0.6,0.7-0.8,1.5-0.8h0.1c0.2,0.1,0.3,0.1,0.4,0.1c1.2,0.3,2.2,0.7,3,1.4c0.4,0.1,0.9,0.2,1.6,0.4c0.7,0.2,1.2,0.3,1.6,0.4
		c1.6,0.4,2.5,1.3,2.8,2.8c0.2,1,0.6,2.8,1.3,5.3c0.6,2.5,1,4.5,1.1,5.8c0.2,1.3,0.3,2.2,0.3,2.8c0.2,7.2,0.4,12.6,0.6,16
		c0.1,0.8,0.2,2.1,0.2,3.7s0.1,3.1,0.2,4.5c0.1,1.3,0.2,2.6,0.4,3.7c0.1,0.5,0.1,1.3,0.1,2.4v2c0,0.8,0,1.4,0.1,1.8
		c0.2,1.3,0.4,3.4,0.5,6.4s0.4,5.2,0.7,6.8c0.4,2.2,0.8,6.2,1.3,11.9c0.5,5.7,1.1,10.1,1.8,13.2c0.2,1.1,0.3,2,0.3,2.8v1.8
		c0,1.4,0.1,2.4,0.3,3.1c0.4,1.2,0.7,2.7,1,4.5c0.7,1.2,1.1,2.6,1.3,4.2c0.4,2.5,0.9,6.3,1.5,11.3v1c0,1.9-0.9,3.3-2.7,4
		c-1,0.4-1.8,1.1-2.4,2.1c-0.9,1.2-2.1,1.8-3.7,1.8h-1c-1.7-0.3-3.3-0.8-5-1.7c-1.3-0.6-2-1.5-2.1-2.5c0-0.4-0.2-1.5-0.5-3.3
		c-0.3-1.9-0.5-3.3-0.5-4.3v-1.4c0.3-1.9,0.4-2.9,0.4-3.1c0.1-0.3,0.1-0.7,0.1-1.3c0-0.4-0.1-0.6-0.1-0.8c-0.2-0.5-0.3-1.2-0.3-2.2
		c0-0.5,0.1-1.3,0.3-2.4c0.1-0.2,0.1-0.5,0.1-0.8c0-0.3-0.1-0.8-0.3-1.5c-0.4-1.2-0.8-3-1.2-5.5c-0.4-2.5-0.8-4.3-1.2-5.5
		c-0.1-0.4-0.2-1.1-0.3-2.2c-0.1-1.1-0.2-1.8-0.4-2.3c-0.5-0.5-0.8-1.6-1-3.5c-0.1-1.5-0.4-3.6-1-6.3c-0.5-2.7-0.9-4.6-1-5.8
		c-0.1-1.1-0.2-2.8-0.4-5.1c-0.1-2.3-0.3-4-0.4-5.1c-0.1-1-0.2-2.9-0.2-5.8c-0.1-2.8-0.2-5-0.5-6.5c0-0.1,0-0.3-0.1-0.5
		s-0.1-0.4-0.1-0.5c0-0.5,0.1-1.3,0.3-2.4c-0.8-0.4-1.2-0.6-1.3-0.6c-0.2,0-0.4,0.3-0.7,1c-0.7,2.3-1.9,5.1-3.7,8.2
		c-3.3,6.1-5.5,10.9-6.5,14.3c-0.1,0.5-0.4,1.1-0.9,2s-0.8,1.4-0.9,1.6c-3.7,9.2-6.1,15.9-7.1,20.2c-0.8,3.2-1.2,5.6-1.2,7.4
		c0,1.8,0.2,3.3,0.7,4.6c0.2,0.6,0.3,1,0.3,1.3c0,0.8-0.4,1.6-1.3,2.4c-0.8,0.6-1.2,1.2-1.3,1.8c-0.5,1.6-1.4,2.4-2.8,2.5l-2.2,2.5
		c-0.7,0.6-1.3,1-1.9,1c-0.7,0-1.4-0.5-2.2-1.5c-0.2-0.2-0.4-0.9-0.6-2.1c-0.3-1.5-0.4-3.1-0.4-4.9c0-0.2,0-0.4,0.1-0.8
		C149,523.1,149.1,522.8,149.1,522.7L149.1,522.7z"/>
	<path class="st4" d="M231.1,491.3c-0.1,0.3-0.1,0.7-0.1,1.1c0.1,1.1,0.7,2,1.7,2.5c0.2,0.2,0.4,0.3,0.5,0.2h0.3
		c0.1,0,0.3,0,0.8,0.2c0.4,0.1,0.7,0.2,0.8,0.2l2.9-0.2l2.1-0.2c0.2,0,0.3,0,0.5,0.1l2.6-0.6c1.2-0.2,1.8-0.5,2-1
		c0-0.2-0.2-0.8-0.5-1.9c-1.6-4.2-3.5-10.4-5.6-18.9c-1.5-5.8-2.5-10.2-3-13.2c0-0.4-0.3-0.7-0.7-0.9c-0.2,0.2-0.4,1-0.5,2.3
		c-0.2,3-0.7,7.3-1.5,12.9s-1.2,9.7-1.4,12.2c-0.1,0.6-0.2,1.4-0.4,2.6C231.3,489.9,231.2,490.8,231.1,491.3L231.1,491.3z
		 M211.7,529.5c-0.7-1.2-1.1-2.4-1.2-3.7c-0.1-1.8,0.4-3.4,1.5-5c0.5-0.8,0.9-1.8,1.2-3.2c0.3-2.8,0.9-6.8,1.8-12.1
		c0.9-5.2,1.6-9,1.9-11.2c0.2-1.7,0.7-4.1,1.5-7.2c0.7-3.1,1.2-5.2,1.4-6.5c1-6.4,1.6-10.7,1.7-13c0-0.6,0.2-1.3,0.5-2.3
		s0.5-1.6,0.6-1.9c1.5-8.1,2.7-14.2,3.5-18.1c2.3-11.1,4.3-18.4,6-22.1c0.8-1.8,2.3-2.8,4.5-3c0.1,0,0.3,0,0.6,0.1
		c1.3,0.2,2,0.9,2.1,2.2v0.3c0.1,1.6,0,2.9-0.3,4.1c-0.1,0.8-0.2,1.3-0.2,1.7c0.1,0.7,0.3,1.4,0.6,1.9c2,4,3.6,9.3,4.9,15.8
		c0.7,3.6,2,9.3,3.8,17.2c0.6,2.3,2.4,8.3,5.4,18.2c2.7,8.7,4.1,13.4,4.3,14.1c0.3,1,0.9,2.4,1.8,4.2c0.9,1.8,1.4,2.8,1.5,3
		c0.4,0.8,0.6,1.5,0.6,2.2c0,0.3,0,0.8-0.2,1.5c-0.2,0.4-0.2,0.9-0.2,1.7c0,0.6,0.1,1,0.3,1.2c3.3,11,5.2,17.2,5.7,18.4
		c0.1,0.3,0.3,0.7,0.4,1.2s0.3,1,0.4,1.4s0.3,0.8,0.4,1.2c0.1,0.2,0.2,0.5,0.2,1c0.1,0.6-0.1,1.1-0.3,1.4c-1.2,1.6-2.7,2.4-4.5,2.6
		c-1.6,0.1-2.9-0.3-4-1.2c-2.4-2.3-3.9-4.7-4.6-7.2c-0.4-1.4-1-3.4-1.9-6.1c-0.9-2.7-1.5-4.8-1.8-6.2c-0.1-0.4-0.2-0.9-0.3-1.7
		l-0.6-1.6c-1.1-0.8-2.9-1.4-5.6-1.5c-2.6-0.2-6.4-0.4-11.6-0.5c-0.7,0-1.9-0.3-3.5-0.7c-0.3-0.1-0.7-0.1-1-0.1
		c-0.9,0.1-1.4,0.7-1.6,1.9c-0.3,2.9-0.5,4.4-0.5,4.5v0.1v0.3c0,0.8-0.4,4.3-1.2,10.6l-0.3,1.7c-0.3,1.6-1.2,2.5-2.7,2.7
		c-0.5,0.1-1.3,0.4-2.6,0.9c-1.2,0.4-1.8,0.6-1.9,0.6c-2.8,0.2-4.9-0.5-6.3-2.2c-0.1-0.1-0.2-0.2-0.2-0.4c0-0.2-0.1-0.4-0.1-0.5
		C211.8,529.9,211.7,529.7,211.7,529.5L211.7,529.5z"/>
	<path class="st4" d="M286.4,501.9c0.4,2.2,0.8,5.4,1.2,9.5v1.3c0,1.6-0.3,2.9-0.9,3.9c-0.2,0.4-0.4,1-0.6,1.9c-0.6,2-1.9,2.9-4,2.9
		H282c-0.2,0-0.5,0-1-0.1c-0.4,0-0.8-0.1-1-0.1c-0.1,0-0.2,0-0.4,0.1c-0.1,0-0.3,0.1-0.4,0.1h-0.7c-1.7,0-2.9-0.8-3.5-2.5
		c-0.4-0.9-0.6-1.7-0.6-2.2v-0.3c-0.9-1.6-1.8-3.9-2.7-6.8c-0.3-0.8-0.4-1.6-0.4-2.4v-0.6c0.1-0.7,0.1-1.9,0.1-3.3
		c0-1.2-0.2-4.5-0.7-9.7c-0.2-3.3-0.3-5.8-0.3-7.4c0-3.5,0-6.2,0.1-7.9c0.1-1.6,0.2-4,0.4-7.2s0.3-5.7,0.4-7.4v-0.3l-0.4-2.9
		c-0.2-0.2-0.3-0.5-0.3-1v-0.3c0-1.2,0-3.1-0.1-5.6c-0.1-2.6-0.1-4.4-0.1-5.6v-3.6c0-0.1-0.1-0.1-0.1-0.1c-0.1,0-0.1,0-0.1-0.1v-0.1
		v-1.3c0-1,0-2.6-0.1-4.7s-0.1-3.7-0.1-4.7c0-1.9,0-3.2,0.1-4.2c0.1-1.2,0.7-2.3,1.8-3.3c2.1-1.8,4.1-2.6,6.2-2.6h0.3
		c2.4,0.1,3.7,1.2,4.1,3.3c0.3,1.5,0.4,3.1,0.4,4.7c0.2,11.7,0.3,20.5,0.3,26.5c0,1.1,0,2,0.1,2.5c1,3.8,1.5,7.9,1.5,12.3
		c0,2.7,0.1,6.6,0.3,11.8c0.1,1.2,0.1,3.1,0.1,5.6s0,4.7,0.1,6.7C285.8,498.3,286,500.1,286.4,501.9L286.4,501.9z"/>
	<path class="st4" d="M322.1,475.4c-1.2-2.4-2.2-4.2-3.1-5.3c-1-1.2-2.6-3.9-4.9-7.9c-0.1-0.2-0.2-0.4-0.4-0.7
		c-0.1-0.3-0.3-0.5-0.4-0.7c-0.2-0.4-0.4-0.6-0.7-0.6l-0.1,0.1c-0.3,0.1-0.5,0.4-0.7,0.8c0,0.1,0,0.2-0.1,0.3
		c-0.1,0.1-0.1,0.2-0.1,0.3v0.8c0,0.5,0,1.2-0.1,2.2s-0.1,1.8-0.1,2.2c0,0.7,0.1,1.5,0.3,2.6v0.7c0,0.3-0.1,0.7-0.1,1.3
		c-0.1,0.6-0.1,1-0.1,1.4v0.7c0,1.9,0.2,7.9,0.7,18c0.1,1.8,0.1,4.5,0.1,8.1c0,1.5,0.1,3.6,0.3,6.4s0.3,4.9,0.3,6.4
		c0,0.6,0,1.6,0.1,2.9c0,1.3,0.1,2.3,0.1,2.9c0,2.5-0.2,4.7-0.6,6.7v0.6v0.6v0.1c0,2.3-1.2,3.5-3.5,3.5h-1c-0.4,0-1.2-0.1-2.3-0.3
		c-1.1-0.2-2-0.3-2.6-0.3H303h-0.1c-1.5,0-2.6-0.8-3.2-2.5c-1.2-2.5-1.8-4.8-1.8-6.8v-2.2v-4.5v-2.6c0-1.6-0.2-6.7-0.7-15.3
		c-0.1-1.4-0.1-3.5-0.1-6.4v-0.4v-1c0-2-0.1-4.9-0.3-8.8s-0.3-6.8-0.3-8.6c0-0.5,0-1.2,0.1-2.1c0-0.9,0.1-1.6,0.1-2.1
		c0.1-1.4,0.2-3.5,0.4-6.2s0.3-4.8,0.3-6.2c0.1-3,0.4-7.4,1-13.4c0.1-0.8,0.2-1.7,0.4-2.6c0.1-0.9,0.3-2,0.5-3.1s0.3-2,0.4-2.6
		c0.3-0.9,0.5-1.5,0.7-1.7c2.6-1.7,4.6-2.6,6.2-2.8h0.9c2.1,0,3.8,0.6,5.2,1.8c0.6,0.6,1.1,1.4,1.6,2.5c0.4,1,1.2,3.1,2.5,6.2
		s2.3,5.5,3.1,7.2c4.6,10.2,8.1,16.8,10.5,19.9c0.6,0.8,1.7,3.1,3.4,6.8c2.6,5.8,4.8,11.6,6.6,17.3c0,0.3,0.1,0.5,0.3,0.7
		c0.2,0.3,0.4,0.4,0.7,0.4s0.5-0.1,0.7-0.4c0.2-0.6,0.3-1,0.3-1.4c0.5-2.8,0.9-8.4,1.3-16.7c0.1-0.8,0.2-2,0.4-3.6s0.3-2.7,0.3-3.5
		c0.5-8.4,0.7-13.3,0.7-14.9v-0.1v-0.1c0-1.4,0.2-5.2,0.7-11.4v-2.6c0-1.2-0.1-3.1-0.1-5.6c-0.1-2.6-0.1-4.2-0.1-5.1v-0.6
		c0-1.2,0.2-2,0.7-2.4c0.4-0.4,1.4-0.6,2.9-0.6s2.6-0.2,3.4-0.3c0.2-0.1,0.5-0.1,1-0.1c1.4,0,2.6,0.4,3.8,1.3c1.1,0.8,1.8,1.9,2,3.1
		c0.6,3.4,0.9,7,0.9,10.6v3.8c0,0.2,0,0.4-0.1,0.7c-0.1,0.3-0.1,0.5-0.1,0.6c0,0.5,0,1.1,0.1,1.8c0,0.7,0.1,1.3,0.1,1.8
		c0.1,1.2,0.1,3,0.1,5.3c0,3.4-0.1,8.6-0.3,15.5v0.3c0,0.5,0,1.2,0.1,2.2c0,1,0.1,1.7,0.1,2.2c0,0.1,0,0.3-0.1,0.6
		c-0.1,0.3-0.1,0.5-0.1,0.6c-0.1,1.1-0.2,2.8-0.2,5c-0.1,2.2-0.1,3.9-0.2,5c0,0.6-0.1,1.4-0.1,2.5c-0.1,1.1-0.2,2.1-0.2,3
		c-0.1,0.9-0.1,1.7-0.1,2.4c0,1.5,0,2.6,0.1,3.2c0,0.1,0,0.3,0.1,0.6c0,0.3,0.1,0.5,0.1,0.6c0,0.8-0.1,2.2-0.3,4
		c-0.1,0.9-0.1,2.4-0.1,4.5v4.5c0,2.3-0.1,4.6-0.4,6.8c-0.6,4.2-1.7,7-3.4,8.4c-0.1,0.1-0.4,0.7-0.9,1.8c-0.6,1.6-1.7,2.6-3.4,2.9
		c-0.3,0.1-0.7,0.2-1.1,0.3c-0.4,0.1-0.9,0.3-1.3,0.3c-0.4,0.1-0.8,0.1-1.2,0.1c-0.7,0-1.2-0.1-1.6-0.3c-3.3-1.6-5.5-3.2-6.5-5
		c-3.6-6.6-7.1-15.4-10.3-26.3C326.5,486.7,324.3,480.3,322.1,475.4L322.1,475.4z"/>
	<path class="st3" d="M-40.5,516.3c4.9,1.2,7.9,3.3,9.1,6.5c0.4,1.7,0.6,2.6,0.6,2.7c0,0.6-0.4,1.1-1.2,1.4c-0.8,0.3-2.4,0.7-5,1.3
		c-4.9,0.9-9.9,1.6-14.9,1.9c-4.1,0.3-10.2,0.5-18.4,0.5c-5.1,0-12.5-0.1-22.3-0.3l-22.8-0.5h-9.7c-3.5,0-7-0.2-10.5-0.5
		c-4.1-0.3-8.2-1.1-12.3-2.2c-5.1-1.6-7.6-3.6-7.6-6.1v-1c0.4-2.4,1.4-4.6,2.9-6.5c1.8-2,4.4-3,7.9-3h1.5h0.9
		c6.2,0.5,11.9,0.8,17,0.8c5.1,0,8.9-0.1,11.4-0.2c1.6-0.1,4.1-0.2,7.6-0.3c3.5-0.1,6-0.2,7.6-0.2l11.1-0.2h1.2h0.6
		c1.8-0.4,3.8-0.6,6.1-0.6c2.9,0,7.5,0.5,13.8,1.6c3.1,0.4,7.6,1.2,13.5,2.2C-49,514.4-45,515.3-40.5,516.3L-40.5,516.3z"/>
</g>
</svg>
