<?xml version="1.0" encoding="utf-8"?>
<!-- Generator: Adobe Illustrator 18.1.1, SVG Export Plug-In . SVG Version: 6.00 Build 0)  -->
<svg version="1.1" id="Layer_1" xmlns="http://www.w3.org/2000/svg" xmlns:xlink="http://www.w3.org/1999/xlink" x="0px" y="0px"
	 viewBox="0 0 792 612" enable-background="new 0 0 792 612" xml:space="preserve">
<g>
	<path fill="#ffffff" d="M144.6,218.3c2.1-1.7,3.6-3.1,4.6-4.1c1.2-1.3,1.8-2.5,1.7-3.8c0-0.4-0.2-0.9-0.4-1.4
		c-0.2-0.4-0.3-0.9-0.5-1.7c-0.2-0.7-0.3-1.4-0.5-2c-0.2-0.6-0.5-1.1-0.9-1.5c-1.7-2.3-3.9-3.8-6.5-4.5c-2.2-0.5-4.5-0.7-7-0.5
		c-1.5,0.1-2.6,0.3-3.3,0.5c-1.1,0.3-1.6,1-1.5,2.1l0,0.5c0.1,0.5,0.2,1.2,0.3,2.1c0,0.5,0.1,1.4,0.2,2.5c0.1,1.2,0.1,2,0.2,2.5
		c0.1,1,0.1,2.6,0.2,4.6c0,2.1,0.1,3.6,0.2,4.6l0,0.5l0.2,2.2l0.1,1.5c0.1,0.7,0.3,1.1,0.9,1c0.1,0,0.3-0.1,0.7-0.2
		c0.1-0.1,0.3-0.2,0.6-0.4c0.2-0.2,0.5-0.3,0.7-0.4c0.2-0.1,0.5-0.2,0.7-0.2c0.7-0.2,1.3-0.5,1.8-0.9c0.2-0.2,0.7-0.4,1.6-0.6
		C141.5,219.9,143.5,219.1,144.6,218.3L144.6,218.3z M160.5,253.4c3.9,4.3,6.5,7.7,7.7,10c0.4,0.6,0.7,1.3,0.9,2
		c0.2,0.5,0.3,0.8,0.3,0.9c0,0.5-0.3,0.9-0.9,1.3c-1.3,0.9-2.7,1.4-4.2,1.5c-0.7,0.1-1.7-0.1-3.1-0.3c-2.6-0.8-4.4-1.6-5.4-2.5
		c-0.1-0.2-1.3-1-3.4-2.5c-1-0.7-1.6-1.3-1.9-1.9c-0.1-0.1-0.2-0.3-0.4-0.6c-0.2-0.3-0.4-0.5-0.5-0.7c-0.1-0.2-0.3-0.4-0.4-0.6
		c-0.9-1-2.5-3.4-4.7-7.2c-0.5-0.9-0.8-1.6-0.9-1.9c-0.1-0.1-0.1-0.2-0.2-0.4l-0.1-0.3c-0.4-0.5-0.7-0.9-0.7-1.1l0-0.1
		c-0.6-0.7-1.2-1.7-1.9-3.1c-1-1.4-1.6-2.2-1.8-2.4c-0.4-0.4-0.9-1.3-1.8-2.5c-0.8-1.2-1.6-2.4-2.3-3.4c-0.7-1-1.4-1.7-2-2.2
		c-0.2,0-0.3,0.3-0.4,0.8c-0.1,0.5-0.1,1.2-0.1,2l0,1.2c0.1,6.9,0.2,11.3,0.4,13.3l0.1,0.8l0,0.4c0.1,1,0.1,2.3,0.1,4.1
		c0,1.7,0,2.9,0.1,3.5c0.1,2.5,0.1,4.4,0.2,5.7l0.1,1.8c0.1,0.8,0.2,1.6,0.4,2.4c0.2,0.8,0.3,1.5,0.4,2.2l0,0.5
		c0,0.5-0.1,1.3-0.6,2.3c-0.4,1-0.8,1.6-1.2,1.7c-0.3,0.1-0.6,0.1-1.1,0.2l-0.2,0l-1.1,0.1c-0.3,0-0.7,0.1-1.3,0.1
		c-0.6,0.1-1,0.1-1.4,0.2c-0.4,0-1,0-1.8-0.1c-0.7-0.1-1.1-0.2-1.4-0.3c-1.1-0.4-1.7-1.6-1.9-3.8c0-0.3-0.1-0.8-0.1-1.5
		c0-0.7,0-1.2-0.1-1.5l0-0.1c-0.3-0.5-0.5-0.9-0.5-1.2l0-0.2c0.1-0.1,0.1-0.2,0.1-0.3c0.1-1.1,0.1-2.1,0-3.1l-0.2-2.6
		c0-1.2,0-3.3,0-6.1c0.1-3.5,0.2-6.3,0.1-8.4c0-3.6,0-5.8,0-6.5c0-1,0-2.4,0-4.2c0-1.8,0-3.2-0.1-4.1c-0.1-3.7-0.1-5.8-0.1-6.6
		c0.1-0.7,0.1-1.6,0-2.8c-0.1-1.2-0.1-2,0-2.5c0.2-3.8,0.1-7.1-0.1-9.8c-0.1-1.4-0.1-3.5-0.1-6.3c0-2.8,0-4.7-0.1-6
		c0-2.1,0.1-3.8,0.5-5.1c0.3-0.7,0.6-1.3,1-1.7c1.2-0.8,2.4-1.3,3.3-1.3c0.1,0,0.2,0,0.4,0c0.2,0,0.3,0,0.4,0c0.3,0,0.8,0,1.5,0
		c0.5,0,1.1-0.2,2-0.4c1-0.2,2.6-0.4,4.7-0.6c2.1-0.2,3.6-0.2,4.7-0.2c1.8,0,3.2,0,4.1,0.2c2.3,0.3,5.3,1.5,8.8,3.5
		c0.3,0,0.8,0.3,1.6,0.9c3.1,2.2,5.4,4.6,6.9,7.3c0.2,0.3,0.6,1,1.3,2.3c0.7,1.3,1.2,2.3,1.6,3.1c0.5,1.1,0.8,2.3,0.9,3.5
		c0.2,2-0.2,3.8-1,5.4c-1,2-2.3,3.5-3.8,4.7c-0.8,0.6-1.9,1.7-3.2,3.2c-0.4,0.6-1.4,1.4-3.1,2.4c-0.4,0.2-1.1,0.6-1.9,1.1
		c-0.8,0.5-1.4,0.9-1.9,1.2c-0.6,0.4-1.1,0.8-1.5,1.2c-0.2,0.2-0.5,0.4-1,0.7c-0.5,0.2-0.7,0.5-0.7,0.7l0,0.3l0,0.1
		c3.1,4,5.3,7.3,6.7,9.9c1.5,2.8,3.3,5.6,5.7,8.4C159.7,251.9,160.1,252.6,160.5,253.4L160.5,253.4z"/>
	<path fill="#ffffff" d="M203.4,257.4c2.9,1.8,5.2,3.7,6.8,5.7c0.6,0.7,0.9,1.3,0.9,1.9c0,0.4-0.2,1-0.6,1.8c-1.2,2.2-3.2,3.5-6,3.8
		c-5.9,0.7-10.8,1-14.9,1c-2,0-4.4,0.2-7.1,0.5h-0.5H181c-3.3,0-6.1-1.6-8.2-4.8c-0.2-0.3-0.6-0.8-1.1-1.5c-1-1.2-1.6-2.7-1.6-4.5
		c0-1,0.1-1.9,0.4-2.6c0.3-1,0.4-1.8,0.4-2.3v-0.6c-0.1-0.3-0.1-0.7-0.1-1.2c0-0.8,0.1-2,0.4-3.7c0.2-1.5,0.4-3.8,0.5-6.9
		c0.4-6.7,0.6-11.6,0.7-15v-1.8V225v-1.7c0-0.7,0-1.7,0.1-3.1c0.1-1.3,0.1-2.3,0.1-3v-0.7c0-0.3,0-0.5-0.1-0.6
		c-0.4-0.8-0.6-2.1-0.6-3.8v-3c-0.4-1.2-0.6-2.5-0.6-3.8c0-0.8,0-1.4,0.1-1.9c0.2-1.8,0.3-2.7,0.3-2.7c0-1.4-0.2-2.5-0.5-3.5
		c-0.1-0.5-0.2-0.9-0.2-1.3c0-1.7,1-2.9,2.9-3.6c1.4-0.5,2.5-0.7,3.3-0.7c0.8,0,1.8,0.2,2.9,0.5c0.7,0.2,1.7,0.3,3.1,0.3
		c1.3,0,2.2,0.1,2.7,0.1c1,0,2.4,0,4.2,0c1.8,0,3.2,0,4.2,0h1.1h0.4h0.4c1.4,0,2.7,0.5,3.7,1.5c0.5,0.5,1.4,1,2.6,1.7
		c1.2,0.7,1.9,1,2.2,1.2c1,0.6,1.7,1.4,2.1,2.3c0.2,0.6,0.3,1.1,0.3,1.6c0,1-0.3,1.8-1,2.5c-0.7,0.7-1.5,1.1-2.6,1.1
		c-0.5,0.1-1.1,0.1-2.1,0.1c-0.1,0-0.3,0-0.6,0c-0.3,0-0.5,0-0.6,0c-0.7-0.1-1.6-0.1-2.9-0.1h-2.3c-1.6,0-2.7-0.1-3.5-0.2
		c-4.6-0.6-7.6-1.1-8.8-1.5c-0.1,0-0.3,0-0.5-0.1c-0.2-0.1-0.4-0.1-0.5-0.1c-0.2,0-0.3,0-0.4,0c-0.5,0-0.8,0.1-1.1,0.3
		c0,0.2-0.1,0.3-0.2,0.3c0,0.1,0,0.2,0,0.3c0,0.2,0,0.3,0,0.3c0,0.3,0.1,0.9,0.2,1.7c0.1,1.1,0.2,2.7,0.3,4.9
		c0.1,2.2,0.1,3.5,0.1,3.9c0.1,0.3,0.3,1.3,0.5,2.8c0.3,1.8,0.5,3.2,0.8,4c0.5,1.4,0.7,3,0.9,4.6c0.1,0.9,0.5,1.6,1.1,2.2
		c0.8,0,2.4,0.2,4.8,0.7c2,0.3,3.1,0.5,3.4,0.5c1.2,0,2.4-0.2,3.4-0.6c0.4-0.1,0.7-0.2,1-0.2c0.4,0,0.7,0.1,1,0.4
		c0.1,0.1,0.7,0.5,1.9,1.4c1.1,0.9,1.9,1.6,2.4,2.2c0.8,1,1.3,1.8,1.3,2.3c0,0.1-0.1,0.4-0.2,0.8c-0.6,1.3-1.7,2.2-3.2,2.5
		c-1.4,0.3-3,0.5-4.9,0.5h-2.4c-0.7,0-1.8,0-3.3-0.1c-1.5-0.1-2.6-0.1-3.3-0.1h-0.1c-0.9,0-1.4,0.5-1.4,1.4l0.1,0.1v0.1
		c0.1,1,0.1,2.6,0.1,4.8v5.2v3.4v0.3c0,0.3,0,0.6,0,1.1c0,0.5,0,0.8,0,1.1c0,1.1,0.5,1.8,1.6,2c1.2,0.2,2.3,0.3,3.5,0.3
		c0.7,0,1.7-0.1,3.1-0.2c1.4-0.1,2.5-0.2,3.3-0.2c0.1,0,0.3,0,0.6,0c0.3,0,0.5,0,0.6,0c0.4-0.2,1-0.3,1.9-0.3h0.7
		c0.5,0,0.8,0,1.1-0.1c0.4-0.2,0.8-0.3,1.2-0.3C202.3,256.9,202.8,257.1,203.4,257.4L203.4,257.4z"/>
	<path fill="#ffffff" d="M239.7,234.2c0.5,1,0.9,2.7,1.3,4.9c0.3,1.2,0.4,2.6,0.4,4.2c0,2-0.3,4.8-1,8.6c-0.5,2.8-1.4,5.4-2.7,7.7
		c-0.3,0.8-0.7,1.6-1.4,2.3c-0.1,0.5-0.3,0.8-0.6,1.2c-2.5,3.3-4.9,5.9-7.2,7.9c-0.7,0.5-1,1-1.2,1.4c-0.1,0.2-0.3,0.5-0.8,0.8
		c-1,0.9-1.6,1.4-1.8,1.6c-0.3,0.4-0.6,0.6-1,0.6c-0.5,0-0.8,0-1-0.1c-0.2-0.1-0.7-0.2-1.4-0.5c-0.8-0.3-1.4-0.4-1.8-0.5
		c-0.2,0-0.4,0-0.5-0.1c-0.3-0.1-0.7-0.3-1.3-0.5c-0.6-0.2-1.1-0.4-1.6-0.6c-0.4-0.2-0.7-0.6-0.9-1.1c-0.8-2.3-1.3-3.8-1.3-4.3
		c0-1.2-0.3-2.4-0.9-3.6c0-0.1,0-0.2-0.1-0.4c-0.1-0.2-0.1-0.3-0.1-0.4c0-0.3,0.2-0.6,0.5-0.8c0.6-1.7,2.1-2.8,4.6-3.2
		c1-0.2,1.9-0.6,2.5-1.3c2.5-2.5,4.4-4.9,5.6-7.1c1.2-2.2,1.9-4,2.1-5.3v-0.2v-0.7c0-0.9,0.1-2.3,0.4-4.1c0.3-1.8,0.4-3.2,0.4-4.1
		c0-0.1,0-0.3,0-0.5c0-0.2,0-0.3,0-0.4c0-0.7-0.2-1.3-0.7-1.9c-0.8-0.8-1.4-1.5-1.8-1.9c-3.7-3.2-6.1-5.6-7.3-7.1
		c-0.8-1.1-1.4-1.9-1.6-2.3c-1.4-3.1-2.2-5.9-2.2-8.6V213c0.1-2.3,0.4-5.1,1-8.3c0.2-0.8,0.5-1.7,0.9-2.4c1.8-3.8,4.3-7.1,7.6-9.8
		c2-1.6,4.1-2.6,6.4-3.2c0.3-0.1,0.6-0.1,1.1-0.1c0.8,0,1.4,0.7,1.7,2c0,0.1,0.1,0.3,0.2,0.6c0.2,0.4,0.3,0.8,0.3,1.3
		c0,0.6-0.3,1.3-0.8,2.3c-1.8,3.1-3.7,5.5-5.5,7.2c-1.4,1.3-2.4,3-3.1,5c-0.3,1-0.5,1.9-0.5,2.6c0,1.7,0.7,3.3,2,4.8
		c0.5,0.5,1,1.1,1.5,1.6c0.6,0.6,1.2,1.2,1.9,1.8c0.7,0.7,1.2,1.2,1.6,1.6c3,3,5,5.4,5.9,7.1C237.9,228.2,238.7,230.6,239.7,234.2
		L239.7,234.2z"/>
	<path fill="#ffffff" d="M259,193.9c0.2-0.1,3.2-0.5,9.1-1.3c1.7-0.2,3.6-0.7,5.6-1.4c0.1-0.1,0.3-0.1,0.8-0.1c2.7,0,4.6,0.3,5.8,1
		c0.9,0.5,1.5,1.8,1.8,3.9c0.3,2.1,0.5,3.3,0.6,3.7c0.3,0.8,0.5,1.7,0.5,2.5c0,1-0.1,1.9-0.4,2.6c-0.2,0.7-0.7,1.1-1.6,1.3
		c-0.7,0.1-1.7,0.3-2.8,0.4c-1.2,0.2-2.4,0.5-3.6,0.9c-1.2,0.4-2.5,0.7-3.7,0.7c-1.3,0.1-3.4,0.2-6.4,0.5c-0.8,0.1-1.3,0.2-1.5,0.4
		c-0.2,0.2-0.3,0.7-0.3,1.5v0.2c0,1.1,0,2.8,0,5.2c0,2.3,0,4.1,0,5.2v0.2v0.1c0.2,0.9,0.3,1.8,0.3,2.5c0,0.5,0,1.3-0.1,2.3
		c-0.1,1-0.1,1.8-0.1,2.3v0.9c0.1,0.8,0.1,2.1,0.1,3.8c0,1.8,0.1,3.1,0.2,4.1c0.4,0.5,0.6,1.1,0.6,1.9v0.8c-0.1,0.9-0.2,2.2-0.4,3.8
		c-0.2,1.6-0.4,2.8-0.4,3.5c-0.1,4.9-0.4,8.1-0.7,9.5c-0.3,3.8-0.6,6.5-0.9,8.2c-0.1,0.3-0.2,0.8-0.4,1.5c-0.2,0.7-0.3,1.4-0.3,1.8
		v0.2v0.1c0,0.5-0.4,1-1.1,1.5c-0.4,0.3-1,0.9-1.9,1.9c-0.8,1-1.6,1.5-2.5,1.5c-0.7,0-1.5-0.4-2.4-1.2c-0.3-0.3-0.4-0.5-0.4-0.8
		c0-0.2,0-0.4,0.1-0.5c0.4-0.8,0.6-2,0.6-3.3c0-0.7,0.4-3.6,1.1-8.8c0.1-0.8,0.2-1.9,0.2-3.4v-2.8v-0.1v-0.9c0-2.7-0.1-6.8-0.2-12.3
		c0-1.1-0.1-2.8-0.2-5c-0.2-2.2-0.3-3.9-0.3-5c0-2-0.2-3.7-0.5-5.2v-0.5c0.1-0.9,0.1-2.3,0.2-4.1c0.1-1.8,0.1-3.2,0.1-4.1
		c0-0.3,0-0.4,0.1-0.5c0-0.1,0-0.1,0-0.2c0-0.1,0-0.2,0-0.2v-5.2v-0.1c0-0.9-0.4-1.5-1.1-1.8c-3.2-1.4-6.5-2.3-10-2.7
		c-0.6-0.1-1.8-0.4-3.7-1.1c-0.9-0.3-1.4-0.9-1.6-2.1c0-0.5,0-0.8-0.1-1c0-0.1,0-0.2,0-0.3c0-0.1,0-0.2,0-0.3c0-0.6,0.2-1.3,0.7-2.2
		c0.5-0.9,0.8-1.4,0.8-1.5c0.4-1,1.6-1.7,3.7-2c0.5-0.1,1.4-0.1,2.6-0.2c1.2-0.1,2.2-0.2,2.8-0.3h0.4c0.4,0,0.7,0.1,0.9,0.2
		c0.9,0.6,2.1,0.9,3.4,0.9c0.5,0,1.3-0.1,2.4-0.2c1.4-0.2,2.1-0.3,2.2-0.3h0.5C257.7,194.3,258.2,194.1,259,193.9L259,193.9z"/>
	<path fill="#ffffff" d="M290.7,244.4C290.7,244.4,290.7,244.5,290.7,244.4c-0.1,0.1-0.1,0.1-0.1,0.2c0,0.7,0.5,1,1.5,1h0.1
		c3.5-0.7,5.6-1.2,6.3-1.4c0.7-0.2,1.1-0.6,1.1-1.3c0-0.3,0-0.5-0.1-0.7c-1-4.4-1.6-6.9-1.9-7.6c-0.8-2.8-1.3-5.2-1.7-7.2
		c-0.2-1.6-0.6-3.9-1.1-7c-0.1-0.5-0.3-0.7-0.6-0.7c-0.3,0-0.5,0.2-0.6,0.7c-0.1,0.3-0.1,0.7-0.2,1.2c-0.1,0.5-0.2,1-0.2,1.4
		c-0.1,0.4-0.1,0.8-0.1,1.2c-0.1,1.4-0.4,4.7-1,9.9C291.4,239.5,290.9,242.9,290.7,244.4L290.7,244.4z M301.3,251.9
		c-0.3-0.8-0.8-1.2-1.4-1.2h-0.7c-5,0.8-7.9,1.3-8.6,1.4c-1,0.1-1.5,0.8-1.7,2.2c-0.3,5.3-0.9,10.5-1.9,15.4
		c-0.1,0.3-0.2,0.8-0.5,1.5c-0.3,0.7-0.9,1.1-1.8,1.1h-0.5c-1.6-0.1-3.3-1.2-5.1-3.1c-2-2-3.5-4.2-4.6-6.5c-0.5-0.9-0.7-1.7-0.7-2.3
		c0-0.1,0-0.1,0-0.2c0-0.1,0-0.1,0-0.2c0-0.1,0-0.2,0-0.3c0-0.1,0-0.2,0-0.3c0-0.7,0.2-1.3,0.6-1.8c1.2-1.4,1.9-3.3,2.2-5.6
		c0.3-2.2,1.8-8.1,4.3-17.6c0.3-1,0.7-3,1.3-5.8c0.6-2.8,1.2-5,1.6-6.6c0.3-1.1,0.6-2.3,0.9-3.6c0.3-1.3,0.6-2.7,0.9-4.2
		c0.3-1.5,0.6-2.7,0.8-3.5c1.1-4.6,2.6-8.7,4.6-12.4c0.7-1.4,1.7-2.1,3-2.1c1.5,0,2.6,0.8,3.3,2.3c0.7,1.4,1.2,2.8,1.4,4.2
		c0.7,4.8,1.5,8.7,2.4,11.7c0.8,2.5,1.4,5.1,1.8,7.7c0.1,0.9,1,4.5,2.5,10.7c1.5,6.7,2.4,11,2.7,13c0.3,2,1,4.6,2,8
		c1,3.4,1.6,5.6,1.9,6.8c0.1,0.3,0.3,0.9,0.4,1.9c0,0.1,0,0.2,0,0.3c0,0.1,0,0.2,0,0.3c0,1.4-0.7,2.1-2.2,2.1H310
		c-0.5-0.1-1.2-0.4-2-0.7c-0.8-0.3-1.4-0.6-1.7-0.7c-0.7-0.2-1.1-0.7-1.4-1.6c-0.5-1.4-0.9-2.5-1.1-3.3
		C303.7,258.1,302.9,255.8,301.3,251.9L301.3,251.9z"/>
	<path fill="#ffffff" d="M371.5,226.8c0.1,1.2,0.4,1.8,1.1,1.8c0.3,0,0.6,0,0.8-0.1c0.7-0.2,1.7-0.5,3-0.8c1.3-0.4,2.5-0.7,3.6-1
		c1.1-0.3,2.1-0.6,3.1-0.8c0.5-0.1,1-0.4,1.5-1c1.2-1.4,2.1-2.6,2.6-3.6c0.9-1.6,1.4-2.8,1.5-3.8c0.1-0.8,0.2-3.3,0.4-7.4v-0.3
		c0-1.9-0.7-3.4-2.2-4.4c-2.7-1.9-5.3-3.3-7.6-4.1c-1.5-0.6-3.4-0.9-5.6-0.9h-0.1c-0.8,0-1.3,0.1-1.6,0.4c-0.3,0.3-0.5,0.9-0.5,1.7
		c-0.3,3.4-0.5,6.4-0.5,9v1.4c0,0.3,0,0.8,0,1.6c0,0.7,0,1.2,0,1.6c0,0.7,0,1.2,0.1,1.6C370.9,217.6,371.1,220.7,371.5,226.8
		L371.5,226.8z M370.6,274.3c-0.5,0.8-1.1,1.3-1.9,1.3c-0.1,0-0.5-0.1-1-0.2c-0.3-0.1-0.8-0.1-1.5-0.1h-0.4h-0.1
		c-1.4,0-2.3-0.7-2.5-2.1c-0.3-1.2-0.5-3.1-0.6-5.6c-0.1-2.1-0.2-5.2-0.2-9.4c0-1.2,0-3,0-5.3c0-2.4,0-4.2,0-5.3v-0.9
		c0-0.8,0-1.9,0-3.5c0-1.5,0-2.7,0-3.5v-1.2c0-2.4,0-6,0.1-10.8c0.1-4.8,0.1-8.4,0.1-10.8c0-5.5,0.2-10.7,0.7-15.6l0.3-3.2
		c0.1-1.3,0.7-2.5,2-3.6c1.2-1.1,2.4-1.8,3.5-2.2c0.1,0,0.1,0,0.2,0c0.1,0,0.2,0,0.2,0c0.1,0,0.2,0,0.4,0.1c0.3,0.1,0.7,0.2,1.2,0.2
		c0.7,0,1.4-0.3,2.3-0.8c0.8-0.5,2-0.7,3.3-0.7c0.6,0,1.4,0,2.5-0.1c1.1-0.1,2-0.1,2.5-0.1h0.7c0.5-0.1,0.7-0.1,0.7,0
		c7,0.8,11.9,3.9,14.8,9.3c1.4,2.6,2.1,5.1,2.1,7.4c0,1.6-0.2,3.1-0.7,4.5c-1.6,5.1-3.7,9.7-6.3,13.9c-1.6,2.5-3.6,4.6-6,6.2
		c-0.2,0.1-0.5,0.3-0.8,0.6c-0.4,0.3-0.6,0.5-0.7,0.6c-0.8,0.7-1.8,1.1-2.8,1.3c-1,0.1-2.5,0.5-4.5,1c-0.7,0.2-1,0.6-1,1.1
		c0,0.2,0.1,0.5,0.2,0.9c0.1,0.1,0.2,0.4,0.4,0.7c0.2,0.4,0.3,0.7,0.3,0.9c0.2,0.5,0.6,1.2,1.3,2.2c0.7,1,1.1,1.8,1.4,2.3
		c1.4,1.8,2.5,3.6,3.4,5.3c0.8,0.8,1.4,1.7,1.8,2.5l0.3,0.3c0.8,1.2,2,3.1,3.7,5.5c1.7,2.4,3.2,4.6,4.5,6.6c1.3,2,2.4,3.9,3.4,5.8
		c0.3,0.7,0.5,1.3,0.5,1.9c0,1.3-0.7,2.2-2.2,2.7c-0.3,0.1-0.6,0.2-0.9,0.3c-0.3,0.1-0.7,0.2-1.1,0.3c-0.4,0.1-0.7,0.2-0.9,0.2
		c-0.2,0.1-0.5,0.1-0.8,0.1c-0.7,0-1.5-0.4-2.3-1.1c-1.5-1.4-2.9-3.1-4.1-4.9c-2.3-2.6-3.6-4.2-4-4.8c-0.6-0.8-1.5-2.1-2.7-3.7
		c-1.2-1.6-2.1-2.8-2.7-3.6c-0.3-0.4-0.7-1-1.3-1.8c-0.6-0.8-1-1.4-1.3-1.8c-0.3-0.3-0.6-0.5-0.7-0.5h-0.2c-0.2,0.1-0.4,0.4-0.5,0.9
		l-0.1,0.2c0,0.1,0,0.2,0,0.3c0,0.1,0,0.1,0,0.1c0,0,0,0,0,0.1c0.1,0.9,0.1,2.4,0.2,4.6c0.1,2.2,0.2,3.8,0.3,4.9
		c0.1,0.4,0.1,0.9,0.1,1.7c0,1.4-0.4,2.6-1.2,3.6c-0.3,0.4-0.4,0.7-0.4,1.1C371.8,271.3,371.4,272.6,370.6,274.3L370.6,274.3z"/>
	<path fill="#ffffff" d="M422,243.9c1.1-0.6,2-0.9,2.6-1.1c0.7-0.1,1-0.6,1-1.3v-0.3c0-0.2-0.1-0.6-0.2-1.1
		c-0.1-0.5-0.2-0.9-0.2-1.3v-0.4V238c0-0.8,0-1.4-0.1-1.8c-0.4-2.7-0.7-4.7-0.8-5.8c-0.7-8-1.4-13.6-2-16.7
		c-0.1-0.3-0.2-0.8-0.3-1.6c-0.2-0.7-0.3-1.3-0.3-1.7c-0.1-0.6-0.3-0.9-0.6-0.9H421c-0.2,0-0.4,0.3-0.5,0.9c0,0.3-0.1,0.8-0.2,1.5
		c-0.1,0.7-0.2,1.2-0.2,1.5c-0.2,1.9-0.6,4.5-1.2,7.9c-0.6,3.4-0.9,5.6-1.1,6.6c-0.1,0.6-0.2,1.4-0.4,2.5c-0.2,1.1-0.4,2.1-0.5,2.9
		c-0.1,0.9-0.2,1.7-0.3,2.5c0,0.1,0,0.1,0,0.2c0,0.1,0,0.2,0,0.2c0,0.1,0,0.4,0,0.7c0,0.3,0,0.6,0,0.7c0,0.4-0.1,0.8-0.2,1.4
		c-0.1,0.7-0.2,1.6-0.3,2.8c-0.1,1.2-0.1,2.1-0.2,2.6v0.4c0,0.7,0.3,1,0.9,1c0.1,0,0.1,0,0.2,0c0.1,0,0.1,0,0.2,0
		c1.2-0.4,2-0.7,2.5-0.9C420.2,244.9,420.9,244.5,422,243.9L422,243.9z M433.2,246.2c0.2,1.8,0.7,4.2,1.5,7.4
		c0.8,3.2,1.3,5.5,1.5,6.8c0.1,0.7,0.2,1.2,0.2,1.6c0,0.8-0.4,1.3-1.2,1.7c-0.2,0.1-0.3,0.5-0.3,1c-0.1,0.8-0.4,2.1-0.9,3.8
		c-0.3,0.9-0.9,1.4-1.8,1.4H432c-0.8,0-1.5-0.4-2-1.3c-0.7-1.4-1.1-3-1.5-4.8c-0.8-5.2-1.4-8.7-1.7-10.8c-0.1-0.9-0.5-1.4-1.2-1.4
		c-0.3,0-0.6,0.1-0.8,0.2c-3,1.5-5,2.3-6,2.4c-0.3,0-0.7,0.1-1.3,0.2c-0.6,0.1-1.1,0.2-1.4,0.3c-1,0.2-1.7,0.8-2,2
		c-1.8,7.4-2.9,11.7-3.5,13.1c-0.1,0.3-0.2,0.4-0.4,0.4c-0.1,0-0.2,0-0.5-0.1c-0.3-0.1-0.5-0.1-0.7-0.1c-0.1,0-0.3,0.1-0.6,0.2
		c-1.7,0.3-2.9,0.4-3.5,0.4c-1.3,0-2.4-0.3-3.2-1c-0.5-0.4-0.7-0.8-0.7-1.4V268c0-1.4-0.1-2.6-0.4-3.6c-0.1-0.2-0.1-0.5-0.1-0.9
		c0-0.2,0.1-0.6,0.2-1.1c0.1-0.5,0.7-3.1,1.6-8c0.3-1.4,0.7-3.6,1.3-6.5c0.6-2.9,1-5.1,1.4-6.5c0.3-1.6,0.9-3.8,1.8-6.7
		c0.9-2.9,1.5-5,1.8-6.4c0.4-1.8,1.1-4.3,2.1-7.7c1-3.4,1.7-5.8,2.1-7.4c1.2-5.6,2.2-9.8,3-12.4c0.7-2.2,1.6-4.3,2.7-6.4
		c0.4-0.7,0.9-1,1.5-1c0.2,0,0.4,0,0.5,0.1c0.1,0.1,0.4,0.1,1,0.2c0.6,0.1,1.1,0.3,1.4,0.5c0.9,0.7,1.5,1.8,1.9,3.2
		c1.6,6.8,2.5,10.5,2.6,11c0.1,0.3,0.4,1.9,0.9,4.7s1.1,5.3,1.6,7.4c0,0.2,0.1,0.8,0.3,1.7c0.2,0.9,0.3,1.7,0.3,2.2
		c0,0.1,0,0.2,0,0.3c0,0.1,0,0.2,0,0.3c0,0.1,0.1,1.5,0.3,4c0.2,2.5,0.4,4.5,0.5,5.8c0.1,1.2,0.4,3.1,0.8,5.6
		C432.8,243.1,433,244.9,433.2,246.2L433.2,246.2z"/>
	<path fill="#ffffff" d="M492.1,221.3c-0.1,0.5-0.1,1.1-0.1,2c0,0.8,0,1.6-0.1,2.3c-0.1,0.7-0.2,1.3-0.5,1.9c-0.1,0.4-0.2,0.7-0.2,1
		c0,0.1,0,0.3,0,0.5c0,0.2,0,0.4,0,0.5v1.1c0,2.2-0.1,4-0.4,5.7c-0.1,0.3-0.1,0.8-0.1,1.6c0,0.8,0.1,1.4,0.2,1.8
		c0.1,0.2,0.1,0.5,0.1,0.9c0,0.2,0,0.5,0,1c0,0.5,0,0.8,0,1.1c0,0.3,0,0.8,0,1.4c0,0.6,0,1.1,0,1.4c0,3.2,0.1,6.4,0.3,9.7
		c0,0.1,0,0.2,0,0.3c0,0.1,0,0.2,0,0.3v0.4c-0.1,1.2-0.2,2.1-0.2,2.8c0,1.1,0.1,2.7,0.3,4.7c0.2,2.1,0.3,3.5,0.3,4.5
		c0,0.3,0.1,0.6,0.2,1.1c0.1,0.5,0.2,0.8,0.2,0.9c0.1,0.3,0.1,0.8,0.1,1.6c0,1.8-0.7,3.1-2.2,4.1c-1.6,1.2-2.4,2-2.6,2.2
		c-0.4,0.5-0.9,0.7-1.6,0.7c-0.1,0-0.1,0-0.2,0c-0.1,0-0.2,0-0.2,0c-1.8-0.2-3.3-0.7-4.3-1.6c-0.2-0.2-0.6-0.5-1.2-0.8
		c-0.6-0.4-1-0.7-1.3-0.9c-1-0.7-2.3-1.9-3.8-3.7c-0.4-0.5-0.8-1.3-1.4-2.4c-1.9-3.7-3.8-8.1-5.7-13.2c-0.3-0.7-0.5-1.7-0.6-3.1
		c-0.2-0.8-0.3-1.3-0.3-1.4c-0.7-1.6-1.6-4.5-2.5-8.5c-0.3-1-0.7-2.4-1.4-4.2c-2.3-6.1-4.2-10.3-5.5-12.6c-0.3-0.5-0.5-1.1-0.7-1.9
		c-0.5-1.4-1-2.9-1.7-4.5c-0.1-0.1-0.3-0.1-0.5-0.1c-0.5,0-0.7,0.3-0.7,0.9v0.7c0,0.8,0.1,1.7,0.3,2.6c0.1,0.5,0.1,1.1,0.1,1.7
		c0,0.6,0.1,1.2,0.1,1.9c0,0.7,0,1.2,0,1.6c0,0.5,0,1.3,0,2.3c0,1,0.1,1.9,0.1,2.7c0,0.8,0.1,1.6,0.1,2.3c0.1,1.7,0.3,4.1,0.4,7.3
		c0.2,3.2,0.3,5.3,0.3,6.3c0.1,2,0.3,4.9,0.4,8.5c0.1,3.7,0.2,6.2,0.3,7.6l0.6,9.7v0.7c0,0.5,0,0.8-0.1,1c-0.3,1-0.8,1.6-1.8,1.7
		c-0.9,0.1-1.7,0.4-2.3,0.9c-0.5,0.5-1.1,0.7-1.8,0.7c-0.5,0-1.1-0.2-1.9-0.7c-0.5-0.3-1-0.9-1.7-1.7c-0.5-0.7-1-1.2-1.4-1.5
		c-1-0.9-2.3-2.7-3.6-5.4c-0.2-0.4-0.3-0.8-0.3-1.3c0-0.5,0.2-0.9,0.5-1.5v-0.1c0-0.4,0.1-0.7,0.3-1c0.7-1,1-2.4,1-4.1v-1.1
		c-0.1-1.4-0.1-3.6-0.1-6.4v-0.6c0-0.7,0-1.6,0.1-2.9c0.1-1.3,0.1-2.3,0.1-2.9v-4.5c0-0.4,0-1,0-1.9c0-0.9,0-1.5,0-2v-0.4
		c0-0.5,0-1.3,0.1-2.3c0.1-1,0.1-1.8,0.1-2.3v-0.7c-0.1-0.9-0.1-2.3-0.1-4.1V226v-0.4v-0.8c0-1.9,0.1-4.8,0.2-8.7v-2.3
		c0-1.4-0.1-2.4-0.2-3.1c0-0.1,0-0.2,0-0.3c0-0.2,0-0.3,0-0.3c0-0.2,0-0.5,0-0.8c0-0.3,0-0.6,0-0.7v-0.3c-0.1-1.6-0.4-2.9-0.9-3.9
		c-0.1-0.3-0.2-0.5-0.2-0.7v-0.1c0.1-2.9,0.5-5.1,1.2-6.8c1-2.4,3-3.6,5.8-3.6c0.8,0,1.6,0.1,2.3,0.4c0.2,0.1,0.4,0.1,0.6,0.2
		s0.5,0.2,0.7,0.4c0.3,0.2,0.5,0.3,0.6,0.3c0.6,0.3,1,0.9,1.3,1.8c2.2,6.9,3.8,11.4,4.7,13.4c0.5,1.2,1.7,4.4,3.6,9.6
		c0.2,0.6,0.6,1.5,1.1,2.6c0.2,0.3,1.8,4.2,4.8,11.5c0.3,0.7,0.7,1.8,1.3,3.2c0.6,1.4,1.1,2.5,1.4,3.2c0.5,1.2,1.2,2.8,2.1,4.8
		c0.9,2.1,1.5,3.4,1.8,4c0.3,0.8,0.6,1.4,0.7,1.6c0.1,0.4,0.3,0.6,0.6,0.6h0.2c0.3-0.1,0.4-0.4,0.4-0.9c0-0.2,0-0.5,0.1-0.8
		c0.1-0.4,0.1-0.7,0.1-1c0-0.3,0-0.6,0-0.8V247c0-0.1,0-0.2,0-0.5c0-0.3,0-0.5,0-0.6c0-0.5,0-1.3,0.1-2.4c0.1-1.1,0.1-1.9,0.1-2.4
		c0.1-1.2,0.2-2.9,0.5-5.3c0.1-0.8,0.2-2,0.5-3.6c0.3-1.6,0.4-2.9,0.5-3.7c0.1-1.6,0.5-4.2,1-7.7c0.6-3.5,0.9-6.3,0.9-8.2
		c0.1-0.9,0.2-2.2,0.5-3.9c0.3-1.7,0.4-3,0.5-3.9c0.1-2,0.2-3.4,0.2-4.4c0-1.3-0.2-2.8-0.5-4.4c-0.3-0.5-0.4-1-0.4-1.6
		c0-0.4,0.1-1,0.2-1.8c0.1-0.9,0.8-1.4,2.1-1.6h0.8c0.3,0,0.8,0,1.6,0c0.7,0,1.3,0,1.7,0h0.5h0.4c1,0,1.7,0.2,2.1,0.6
		c0.4,0.4,0.8,1.2,1.1,2.4c0.2,0.5,0.3,1,0.3,1.6v1.4v0.8c0,0.3,0.1,0.9,0.3,2.1c0.1,0.5,0.2,1.3,0.2,2.4v0.8
		c-0.1,1.4-0.1,3.6-0.1,6.5c0,0.3-0.1,0.6-0.2,1c-0.3,1-0.5,2.2-0.6,3.4c-0.1,1.2-0.2,2.6-0.3,4.1
		C492.2,219.4,492.1,220.6,492.1,221.3L492.1,221.3z"/>
	<path fill="#ffffff" d="M541.3,206.4c-0.3,0.4-1.1,0.6-2.5,0.6c-0.7,0-1,0-1.2-0.1c-1.2-0.3-2.7-0.4-4.4-0.4h-1.8h-1
		c-0.5,0.3-0.9,0.4-1.1,0.4c-0.2,0-0.4-0.1-0.7-0.2c-0.3-0.1-0.6-0.1-1.1-0.1h-0.1c-0.9,0-1.4,0.5-1.4,1.4c-0.1,1.2-0.1,3.1-0.1,5.7
		v1.3v3c0,1.8,0,3.1-0.1,3.9c-0.1,0.8-0.1,2.1-0.2,3.8c-0.1,1.7-0.2,3-0.2,3.8c0,6.8-0.1,12-0.4,15.4c-0.2,2.9-0.3,5.7-0.3,8.5
		c0,1.2,0.1,3.2,0.2,5.8c0.1,0.5,0.1,1.3,0.1,2.3c0,0.8-0.2,3.1-0.5,7c-0.1,0.8-0.5,1.5-1.1,1.9l-2.9,1.8c-0.8,0.1-1.7,0.2-2.4,0.2
		c-1.1,0-1.8-0.2-2-0.5c-0.5-1-0.7-3.2-0.7-6.7c0-1.4,0-3.4,0.1-6c0.1-2.5,0.1-4.1,0.1-4.7V254c0-0.2,0-0.5,0-0.9c0-0.4,0-0.7,0-0.9
		c0-1,0-2.5,0.1-4.3c0.1-1.8,0.1-3.2,0.1-4.1c0-1.7-0.1-3-0.2-4c-0.1-1-0.2-2.5-0.2-4.6c0-2.9-0.1-5.1-0.2-6.6
		c-0.1-1.4-0.2-2.6-0.2-3.4c0-0.8,0-2.1,0.1-3.8c0.1-1.7,0.1-3,0.1-3.8c0-1.4,0-2.5-0.1-3.1c-0.1-0.6-0.1-1.5-0.1-2.6
		c0-0.8,0.1-2,0.2-3.5V208c0-0.8-0.4-1.3-1.2-1.4c-0.7-0.1-1.6-0.1-2.8-0.1h-1.6c-2,0-3.5-0.1-4.5-0.4c-0.2-0.1-0.7-0.1-1.4-0.1
		h-2.2c-1.1,0-1.8,0-2-0.1c-1.2-0.5-1.8-2-1.8-4.5c0-0.2,0-0.4,0-0.7c0-0.3,0-0.5,0-0.6v-0.2c0-0.3,0-0.8-0.1-1.3
		c-0.1-0.6-0.1-1-0.1-1.2c0-0.8,0.3-1.4,0.9-1.7c1.2-0.5,3.3-0.9,6.4-1.3c1.2-0.1,3.1-0.2,5.7-0.3c2.5-0.1,4.4-0.2,5.7-0.3
		c0.4-0.1,2-0.3,4.9-0.6c2.9-0.3,5.1-0.5,6.6-0.6h1.5h2.9h0.6c2.2,0,3.9,0,5-0.1l0.2-0.1h0.2c0.4,0,0.9,0.1,1.6,0.2
		c1.6,0.4,2.6,1.4,3,3c0.2,0.8,0.3,1.8,0.3,2.7c0,1-0.2,2.2-0.5,3.3C541.8,204.7,541.3,206.3,541.3,206.4L541.3,206.4z"/>
	<path fill="#ffffff" d="M135.5,309.5c-0.1,0-0.3,0-0.5,0c-0.2,0-0.4,0-0.5,0h-1.7h-1.5h-0.9c-0.9,0-1.3,0.3-1.3,1v0.4
		c0.4,1.6,0.7,4.4,0.8,8.3c0.1,2.7,0.4,4.9,0.8,6.7c0.1,0.5,0.3,0.9,0.4,1.1c0.2,0.2,0.5,0.3,1,0.3h0.3h0.2c1.7,0,3.5,0.7,5.5,2
		c0.9,0.6,1.6,1.6,2,2.9c0.1,0.3,0.2,0.5,0.2,0.7c0,0.6-0.3,1.1-0.9,1.6c-0.9,0.7-2,1.1-3.1,1.1c-0.1,0-0.2,0-0.3,0
		c-0.2,0-0.3,0-0.4,0c-0.3,0-0.7,0-1.3-0.1c-0.6-0.1-1-0.1-1.3-0.1h-0.4c-0.9,0-1.4,0.4-1.4,1.3v0.3c0.1,0.4,0.1,1.1,0.1,2.1
		c0,1,0.1,1.9,0.1,2.6c0.1,0.7,0.2,1.4,0.4,2c0.2,0.9,0.3,1.8,0.3,2.9v1.9c0,2-0.2,3.7-0.5,5.1c-0.1,0.4-0.2,1.1-0.2,2
		c0,0.3,0,0.7,0,1.3c0,0.6,0,1,0,1.3v0.2c0,1.3-0.7,2.6-2.1,3.9c-0.6,0.6-1.6,1.2-3.1,1.7c-1.4,0.5-2.2,0.9-2.5,1.1
		c-0.1,0.1-0.3,0.1-0.5,0.1c-0.5,0-0.9-0.2-1.2-0.7c-0.6-0.7-0.9-1.4-0.9-2.1c0-0.1,0-0.2,0-0.3c0-0.1,0-0.2,0-0.3
		c0.2-1.3,0.3-2.6,0.3-3.8c0-1.4,0-2.5-0.1-3.3c0-0.2,0-0.5,0-0.9c0-0.4,0-0.7,0-0.9c0-0.6,0-1.5,0.1-2.6c0.1-1.1,0.1-2,0.1-2.5
		c0-0.2,0-0.4,0-0.8c0-0.4,0-0.6,0-0.8v-2.4v-2.3c0-1.3,0-2.3-0.1-2.9c0-0.1,0-0.1,0-0.3c0-0.1,0-0.2,0-0.3c0-0.3,0-0.8,0.1-1.4
		c0.1-0.6,0.1-1.1,0.1-1.4V335v-0.3v-0.4c0-0.7-0.1-1.2-0.2-1.6c-0.1-0.1-0.1-0.3-0.1-0.7c0-0.3,0-0.5,0.1-0.6
		c0.2-0.6,0.3-1.5,0.3-2.8v-2v-0.2v-0.6v-0.5c0.2-0.9,0.3-1.5,0.3-1.8c0-0.8-0.2-1.5-0.5-2.1c-0.1-0.1-0.1-0.3-0.1-0.5v-0.3
		c0.1-0.5,0.2-1.3,0.2-2.3v-0.9c0-0.7,0-1.3,0.1-1.6v-0.6c0-0.8-0.1-1.5-0.4-2c-0.3-0.7-0.4-1.5-0.4-2.5c0-0.2,0-0.5,0-1
		c0-0.4,0-0.8,0-1c0-0.2,0-0.5,0-0.8c0-0.3,0-0.6,0-0.7c0-0.3-0.1-0.7-0.2-1.1v-0.3c0-0.7,0.3-1.4,0.8-2.1c0.5-0.7,1.1-1.1,1.8-1.3
		c0.7-0.2,1.6-0.3,2.6-0.3h0.4c0.5,0.1,1.1,0.1,2,0.1c2,0,3.9-0.2,5.5-0.6c0.5-0.1,0.8-0.2,1.1-0.2c0.5,0,1.1,0.1,1.8,0.4
		c0.6,0.3,1.6,0.6,3,1.1c0.9,0.2,1.5,0.7,2.1,1.5c0.5,0.8,0.8,1.6,0.8,2.5c0,0.3,0,0.6-0.1,0.7c-0.2,0.6-0.6,1-1.4,1.3
		c-0.4,0.2-1.3,0.3-2.7,0.4c-0.3,0-0.8,0-1.4,0.1C136.2,309.5,135.8,309.5,135.5,309.5L135.5,309.5z"/>
	<path fill="#ffffff" d="M168.8,331.1c0.1-2.1,0.2-3.6,0.2-4.7v-1.9c0-1.3-0.3-3.9-0.8-7.7c-0.5-3.2-1.2-6-2.2-8.5
		c-0.5-1.4-1.4-2.3-2.7-2.8c-0.3-0.2-0.7-0.2-1-0.2c-0.5,0-0.9,0.1-1.2,0.4c-0.2,0.2-0.6,0.4-1,0.7c-0.4,0.3-0.8,0.5-1,0.7
		c-0.5,0.3-0.9,0.7-1.2,1.1c-1.2,1.7-1.8,3.1-2,3.9c0,0.1-0.1,0.2-0.2,0.4c-0.1,0.3-0.3,0.7-0.5,1.2c-0.2,0.5-0.4,0.9-0.5,1.2
		c-0.3,0.8-0.7,2.8-1.1,5.8c-0.3,2.7-0.8,5.2-1.4,7.4c-0.6,2.4-0.9,4.7-0.9,6.9v0.2c0,1.7,0,3.1,0.1,3.9c0.1,1.9,0.5,3.7,1,5.4
		c0.1,0.4,0.3,0.7,0.5,0.9c1.1,1.3,2.4,2.1,4.1,2.5c0.9,0.2,1.8,0.3,2.7,0.3c1.8,0,3.6-0.5,5.3-1.5c0.7-0.4,1.2-1,1.4-1.8
		c0.9-3.6,1.3-5.9,1.4-6.7c0.1-0.9,0.2-1.5,0.3-1.9C168.5,335.8,168.7,334,168.8,331.1L168.8,331.1z M175.6,315
		c0.1,2.5,0.2,4.4,0.2,5.7v1.6v0.3c0,0.4,0,0.9,0,1.7c0,0.7,0,1.3,0,1.7c0,0.1,0,0.2,0,0.4c0,0.2,0,0.3,0,0.4
		c-0.1,2.2-0.2,3.8-0.3,4.9c0,0.2-0.1,0.4-0.2,0.7c-0.2,0.3-0.5,1.5-0.9,3.6c-0.3,1.5-0.7,2.7-0.9,3.5c-0.2,0.7-0.5,2.5-0.8,5.3
		c0,0.2,0,0.4-0.1,0.7c-0.1,0.3-0.1,0.5-0.2,0.6v0.6v0.4c0.1,0.4,0.2,0.7,0.2,0.9c0,0.4-0.1,0.9-0.3,1.4c-0.2,0.5-0.4,1.3-0.6,2.4
		c-0.2,1.1-0.4,1.8-0.5,2.2c-0.6,1.7-1.4,2.9-2.6,3.4c-1.1,0.5-2,0.7-2.7,0.7h-0.3c-3.6-0.1-6.2-0.4-7.6-0.8c-1-0.3-2.4-0.9-4.3-1.6
		c-1.1-0.4-2.4-1.4-3.7-2.9c-2.3-2.5-3.8-4.8-4.7-7.1c-0.2-0.5-0.5-1.9-0.9-4.2c-0.2-1-0.4-2.8-0.6-5.2c-0.2-2.1-0.3-3.6-0.3-4.6
		c0-0.2,0-0.4,0-0.8c0-0.4,0-0.6,0-0.8c0-0.1,0-0.3,0-0.5c0-0.2,0-0.4,0-0.5v-0.3c0-0.1,0-0.1,0-0.2c0-0.1,0-0.2,0-0.2
		c0-1,0.3-2.8,0.9-5.3c0.2-0.5,0.4-1.2,0.6-2.2c0.3-1,0.4-1.8,0.6-2.3c0.3-1.4,0.9-2.7,1.5-3.9c0.1-0.2,0.3-0.8,0.6-1.7
		c0.4-1.8,1-3.3,1.7-4.5c0.2-0.3,0.5-1,1-2.3c0.9-2.2,2.1-4.1,3.8-5.6c0.7-0.7,1.9-1.2,3.5-1.7c1-0.4,2.3-0.7,3.7-0.8h0.6
		c0.8,0,1.6,0.2,2.5,0.5c2.1,0.8,3.4,1.4,3.8,1.6c3.2,1.8,5,3.8,5.5,6c0.1,0.2,0.1,0.5,0.1,1c0,0.5,0.1,0.9,0.2,1.1
		c0.1,0.3,0.2,0.7,0.3,1.2c0.1,0.5,0.3,0.9,0.4,1.2C175.3,311.5,175.5,313,175.6,315L175.6,315z"/>
	<path fill="#ffffff" d="M187.8,327.6c0.1,1,0.4,1.5,0.9,1.5c0.3,0,0.5,0,0.7-0.1c0.6-0.2,1.5-0.4,2.6-0.7c1.1-0.3,2.2-0.6,3.1-0.8
		c0.9-0.2,1.8-0.5,2.7-0.7c0.5-0.1,0.9-0.3,1.3-0.8c1.1-1.2,1.8-2.2,2.3-3c0.8-1.3,1.2-2.4,1.3-3.2c0.1-0.7,0.2-2.7,0.3-6.2v-0.2
		c0-1.6-0.6-2.8-1.9-3.7c-2.4-1.6-4.6-2.7-6.6-3.4c-1.3-0.5-2.9-0.7-4.9-0.7h-0.1c-0.7,0-1.1,0.1-1.4,0.4c-0.3,0.2-0.4,0.7-0.5,1.4
		c-0.3,2.8-0.4,5.3-0.4,7.5v1.1c0,0.3,0,0.7,0,1.3c0,0.6,0,1,0,1.3c0,0.6,0,1,0.1,1.3C187.3,320,187.4,322.6,187.8,327.6
		L187.8,327.6z M186.9,367.3c-0.4,0.7-0.9,1.1-1.6,1.1c-0.1,0-0.4-0.1-0.9-0.2c-0.3-0.1-0.7-0.1-1.3-0.1h-0.3h-0.1
		c-1.2,0-2-0.6-2.2-1.7c-0.2-1-0.4-2.6-0.5-4.7c-0.1-1.7-0.2-4.4-0.2-7.8c0-1,0-2.5,0-4.5c0-2,0-3.5,0-4.5v-0.7c0-0.7,0-1.6,0-2.9
		c0-1.3,0-2.2,0-2.9v-1c0-2,0-5,0.1-9c0.1-4,0.1-7,0.1-9c0-4.6,0.2-9,0.6-13l0.3-2.7c0.1-1.1,0.6-2.1,1.7-3c1.1-0.9,2.1-1.5,3.1-1.8
		c0.1,0,0.1,0,0.2,0c0.1,0,0.2,0,0.2,0c0.1,0,0.2,0,0.3,0.1c0.2,0.1,0.6,0.2,1,0.2c0.6,0,1.2-0.2,2-0.7c0.7-0.4,1.7-0.6,2.9-0.6
		c0.5,0,1.2,0,2.2-0.1c1-0.1,1.7-0.1,2.2-0.1h0.6c0.4-0.1,0.6-0.1,0.6,0c6.1,0.7,10.4,3.2,12.9,7.8c1.2,2.2,1.8,4.2,1.8,6.2
		c0,1.3-0.2,2.6-0.6,3.8c-1.4,4.3-3.2,8.1-5.4,11.6c-1.4,2.1-3.1,3.8-5.2,5.1c-0.2,0.1-0.4,0.3-0.7,0.5c-0.3,0.2-0.5,0.4-0.6,0.5
		c-0.7,0.5-1.6,0.9-2.5,1.1c-0.9,0.1-2.2,0.4-3.9,0.8c-0.6,0.2-0.9,0.5-0.9,0.9c0,0.2,0.1,0.4,0.2,0.7c0.1,0.1,0.2,0.3,0.3,0.6
		c0.2,0.3,0.3,0.6,0.3,0.8c0.2,0.4,0.5,1,1.1,1.8c0.6,0.8,1,1.5,1.2,2c1.2,1.5,2.2,3,3,4.4c0.7,0.7,1.2,1.4,1.5,2.1l0.3,0.2
		c0.7,1,1.8,2.6,3.2,4.6c1.5,2,2.8,3.9,3.9,5.5c1.1,1.7,2.1,3.3,2.9,4.9c0.3,0.5,0.4,1.1,0.4,1.6c0,1.1-0.6,1.9-1.9,2.3
		c-0.2,0.1-0.5,0.2-0.8,0.3c-0.3,0.1-0.6,0.2-1,0.2c-0.4,0.1-0.6,0.1-0.8,0.2c-0.2,0.1-0.4,0.1-0.7,0.1c-0.6,0-1.3-0.3-2-0.9
		c-1.3-1.2-2.5-2.6-3.6-4.1c-2-2.2-3.1-3.5-3.5-4c-0.5-0.7-1.3-1.7-2.3-3.1c-1.1-1.4-1.8-2.4-2.3-3c-0.2-0.3-0.6-0.8-1.1-1.5
		c-0.5-0.7-0.9-1.1-1.1-1.5c-0.3-0.3-0.5-0.4-0.6-0.4h-0.2c-0.2,0.1-0.3,0.4-0.4,0.7l-0.1,0.2c0,0.1,0,0.2,0,0.2s0,0.1,0,0.1
		c0,0,0,0,0,0.1c0.1,0.8,0.1,2,0.2,3.8c0.1,1.8,0.2,3.2,0.3,4.1c0.1,0.3,0.1,0.8,0.1,1.4c0,1.2-0.3,2.2-1,3
		c-0.2,0.3-0.3,0.6-0.3,0.9C188,364.8,187.7,365.8,186.9,367.3L186.9,367.3z"/>
	<path fill="#ffffff" d="M236,311.6c1.1-1.6,2.6-3,4.4-4.2c6.6-4.5,11.8-7.2,15.6-8.1c2.3-0.5,4.7-0.8,7-0.8c2.6,0,4.9,0.3,7,1
		c1.3,0.3,2.1,1,2.5,2c0.3,0.2,0.5,0.6,0.7,1.2c0,0.1,0,0.2,0.1,0.4c0,0.2,0.1,0.3,0.1,0.4c0,1.3-0.3,2.8-1,4.4
		c-0.7,1.6-1.6,2.7-2.7,3.3c-5.6,2.7-9.2,4.3-10.7,4.9c-6.2,2.8-10.4,7.2-12.8,13.1c-1.1,3.1-1.7,4.9-1.8,5.5l-0.4,1.2
		c-2.3,4.4-4,10.2-5.1,17.4c0,0.2,0,0.3-0.1,0.5c0,0.2-0.1,0.3-0.1,0.5c0,0.1,0,0.2,0.1,0.5c0,0.2,0.1,0.4,0.1,0.5
		c0,0.8-0.2,1.5-0.5,2.2v1.2c0.3,0.3,0.4,0.6,0.4,0.9v0.1c-0.1,0.1-0.1,0.2-0.1,0.3c0.6,2.4,1.8,5.4,3.6,8.8
		c1.4,2.8,3.8,5.6,7.2,8.3c2.8,2.2,6.9,3.6,12.5,4.4c2.1,0.3,3.7,0.9,4.8,1.7c1.3,1,2,2.6,2,4.8c0,1.6-0.5,3-1.6,4
		c-0.3,0.3-0.8,0.5-1.3,0.5h-0.3c-1.9-0.2-3.3-0.3-4.2-0.3c-1.6,0-3.6,0.2-6.2,0.5h-0.8c-1,0-2.3-0.3-3.6-0.9c-0.4-0.3-1.1-0.6-2-1
		c-0.9-0.4-1.6-0.7-2.1-0.8c-1,0-2.3-0.7-4.2-2c-1-0.9-2.2-1.6-3.5-2.3c-1.2-0.5-2.3-1.5-3.4-2.9c-3.5-4.9-5.6-8.6-6.2-11.3
		c-2.7-7.5-4.3-12.5-4.8-15.2c-0.3-1.9-0.5-3.4-0.5-4.6c0-1.1,0.1-2.8,0.3-5.1c0.1-1,0.2-2.4,0.5-4.2c0.2-1.9,0.4-3.2,0.5-4.1
		c0.5-6.8,2.6-13.6,6.4-20.4C232,317,233.5,314.9,236,311.6L236,311.6z"/>
	<path fill="#ffffff" d="M326.9,398c0,0.1,0,0.2,0.1,0.4v0.3c0,1.5-0.8,3-2.5,4.7c-0.4,0.4-0.9,0.7-1.4,0.7c-0.9,0-1.6-0.5-2.1-1.6
		c-1.4-2.7-2.2-4.6-2.5-5.7c-1.1-4.4-1.7-7-1.8-7.8c-0.5-3.6-0.9-7.5-1.2-11.4c-0.2-1.6-0.3-2.7-0.3-3.4v-0.3v-0.1
		c0-0.4-0.4-1.3-1.2-2.5c-1.2-0.1-3-0.1-5.3-0.1c-1.6,0-3.9,0.1-7,0.1c-3.1,0.1-5.5,0.1-7,0.1c-1.3,0-2,0.7-2.2,2.2
		c-0.3,2.3-0.9,3.8-1.6,4.7c-0.3,0.7-0.5,2.3-0.6,4.9c0,0.9-0.1,2.4-0.3,4.6c-0.2,2.2-0.3,3.8-0.3,4.9l0,0.3v0.1
		c0,3.1-1.6,5.5-4.8,7c-0.7,0.3-1.3,0.4-1.7,0.4c-1,0-1.9-0.3-2.5-1c-0.7-0.7-1-1.6-1-2.7l0-0.7c0-2.1,0.2-4.4,0.6-7
		c0.3-1.6,0.6-3,0.6-4c0.1-0.4,0.1-1.1,0.1-2c0-1.5-0.3-2.9-0.8-4.4c-0.8-2.3-1.2-4.9-1.2-7.9c0-0.2,0-0.5,0.1-1
		c0-0.5,0.1-0.9,0.1-1.2c0.3-5.5,0.4-10.9,0.4-16.3l0-8.8l0-1.4l0-8.3c0-0.3,0-0.6,0.1-1c0-0.4,0.1-0.8,0.1-1c0-2.2-0.2-5.4-0.5-9.8
		c-0.1-0.7-0.1-1.7-0.1-3.1c0-1.5,0-2.6,0.1-3.3c0.3-2.4,0.5-4.3,0.5-5.7v-0.3c0-0.1,0-0.2-0.1-0.4c0-1.9,0.3-3.8,0.8-5.6
		c0.2-0.7,0.3-1.2,0.3-1.4l0-0.9c0-0.1,0-0.2-0.1-0.5c0-0.2-0.1-0.4-0.1-0.5c0-1,0.3-2.4,0.8-4.3c0.9-3.2,2.9-5.3,5.7-6.3
		c0.4-0.2,1-0.3,1.8-0.3c2.3,0,3.6,1.1,4.2,3.2c0,0.1,0.1,1,0.4,2.6c0.3,2,0.7,3.6,0.9,4.9c0.2,0.8,0.3,2,0.3,3.6l0,1.2
		c0,1.1,0,2,0.1,2.5c0.1,0.4,0.1,1.1,0.1,2.1c0,1.6-0.3,4-0.8,7.3c-1.3,9.3-1.9,15.8-1.9,19.5l0,1.6c0,0.5,0,1.3,0.1,2.5
		c0,1.1,0.1,2,0.1,2.5c0,0.9,0,2.3-0.1,4.2c0,1.9-0.1,3.3-0.1,4.2c0.3,0.5,0.4,1.1,0.4,1.7l0,0.7l0,0.8c0.2,1,0.4,1.7,0.8,2.1h0.4
		c2.3,0,5-0.3,8.2-0.9c0.1,0,0.5-0.1,1.2-0.2c0.7-0.1,1.3-0.2,1.8-0.2c1-0.3,2.9-0.6,5.9-0.8l2.7-0.4c1.3-0.3,1.9-1,1.9-2.3l0-0.9
		c0-0.5,0-1.3-0.1-2.3c0-1-0.1-1.8-0.1-2.3c0-0.3,0-0.7,0.1-1.2c0-0.5,0.1-0.9,0.1-1.2l0-0.7v-0.3l0-1.2c0.2-1.4,0.3-2.5,0.3-3.3
		c0-1,0-1.6-0.1-2.1l0-1c0-0.1,0.1-1.4,0.4-4c0-0.1,0-0.3,0.1-0.5c0-0.3,0.1-0.4,0.1-0.5l0-1.6c0-1.1,0.1-2,0.4-2.6
		c0-0.1,0-0.3-0.1-0.7c0-0.3,0-0.5,0.1-0.7c0-2.1,0.1-5.2,0.2-9.4c0.3-5.1,0.6-8.8,0.9-11.1c0.2-2.1,0.9-5.2,2.1-9.4
		c0.3-1.1,1.2-2.3,2.6-3.4c1-0.7,1.8-1,2.5-1c1.2,0,2.1,0.9,2.6,2.7c0.3,1.4,0.5,2.4,0.5,3l0,0.4c-0.4,8.2-0.6,13.2-0.6,15
		c0,1.4-0.1,3.4-0.2,6.1c-0.1,2.7-0.2,4.7-0.2,6l0,2.1c0,0.3,0,0.9,0.1,1.6c0,0.7,0.1,1.2,0.1,1.6c0,2-0.1,5-0.3,9
		c-0.2,4-0.3,7-0.3,9l0,1c0,2.2,0.1,5.5,0.3,10c0,1,0.3,2.1,0.9,3.1c0.5,1,0.8,2,0.8,3c0,1-0.2,1.9-0.6,2.5
		c-0.3,0.4-0.4,1.2-0.4,2.2l0,0.5c-0.6,5.3-0.9,9.8-0.9,13.7l0,2.3c0.1,1,0.2,2.9,0.2,5.9C326.6,394.2,326.7,396.4,326.9,398
		L326.9,398z"/>
	<path fill="#ffffff" d="M360.6,361.5c1.5-0.8,2.6-1.3,3.5-1.4c0.9-0.2,1.3-0.7,1.3-1.7V358c0-0.3-0.1-0.7-0.3-1.4
		c-0.2-0.7-0.3-1.3-0.3-1.7v-0.5v-0.7c0-1,0-1.8-0.1-2.3c-0.5-3.6-0.9-6.2-1-7.7c-1-10.7-1.8-18.1-2.6-22.3
		c-0.1-0.4-0.2-1.1-0.5-2.1c-0.2-1-0.4-1.7-0.5-2.2c-0.2-0.8-0.4-1.2-0.8-1.2h-0.1c-0.3,0-0.5,0.4-0.7,1.2c0,0.4-0.1,1.1-0.3,2
		c-0.2,0.9-0.3,1.6-0.3,2c-0.3,2.5-0.8,6-1.6,10.5c-0.8,4.5-1.3,7.4-1.4,8.7c-0.1,0.8-0.3,1.9-0.5,3.3c-0.3,1.4-0.5,2.7-0.7,3.9
		c-0.2,1.2-0.3,2.3-0.4,3.3c0,0.1,0,0.2-0.1,0.3c0,0.1-0.1,0.2-0.1,0.3c0,0.2,0,0.5,0.1,0.9c0,0.4,0.1,0.7,0.1,0.9
		c0,0.5-0.1,1.1-0.3,1.8c-0.2,0.9-0.3,2.1-0.4,3.7c-0.1,1.6-0.2,2.8-0.3,3.4v0.5c0,0.9,0.4,1.3,1.2,1.3c0.1,0,0.2,0,0.3-0.1
		c0.1,0,0.2-0.1,0.3-0.1c1.6-0.5,2.7-0.9,3.4-1.2C358.2,362.8,359.1,362.3,360.6,361.5L360.6,361.5z M375.5,364.5
		c0.3,2.3,0.9,5.6,2,9.9c1,4.3,1.7,7.3,2,9.1c0.2,0.9,0.3,1.6,0.3,2.1c0,1-0.5,1.8-1.6,2.2c-0.3,0.2-0.4,0.6-0.4,1.3
		c-0.1,1.1-0.5,2.8-1.2,5.1c-0.4,1.2-1.2,1.8-2.3,1.8h-0.3c-1.1,0-2-0.6-2.6-1.7c-0.9-1.9-1.5-4-2-6.4c-1.1-6.9-1.9-11.6-2.2-14.3
		c-0.2-1.2-0.7-1.8-1.6-1.8c-0.4,0-0.8,0.1-1,0.3c-4,2-6.6,3.1-7.9,3.3c-0.3,0-0.9,0.1-1.8,0.3c-0.8,0.2-1.5,0.3-1.9,0.4
		c-1.4,0.3-2.3,1.1-2.6,2.6c-2.3,9.8-3.9,15.6-4.7,17.4c-0.1,0.3-0.3,0.5-0.5,0.5c-0.1,0-0.3-0.1-0.7-0.2c-0.3-0.1-0.7-0.2-0.9-0.2
		c-0.2,0-0.4,0.1-0.8,0.3c-2.3,0.3-3.8,0.5-4.7,0.5c-1.7,0-3.2-0.4-4.3-1.3c-0.6-0.5-0.9-1.1-0.9-1.8v-0.3c0-1.8-0.2-3.4-0.5-4.8
		c-0.1-0.3-0.1-0.7-0.1-1.2c0-0.3,0.1-0.7,0.3-1.4c0.2-0.6,0.9-4.2,2.1-10.7c0.3-1.9,0.9-4.8,1.7-8.7c0.8-3.9,1.4-6.7,1.8-8.7
		c0.4-2.1,1.2-5,2.4-8.8c1.2-3.8,2-6.6,2.4-8.5c0.5-2.3,1.5-5.7,2.8-10.2c1.3-4.5,2.3-7.7,2.8-9.8c1.6-7.5,2.9-13,4-16.5
		c0.9-2.9,2.1-5.8,3.6-8.5c0.5-0.9,1.2-1.3,2-1.3c0.3,0,0.5,0,0.7,0.1c0.1,0.1,0.5,0.2,1.4,0.3c0.8,0.1,1.5,0.4,1.9,0.7
		c1.2,1,2,2.4,2.5,4.3c2.2,9.1,3.3,14,3.5,14.6c0.1,0.4,0.5,2.5,1.2,6.3c0.7,3.8,1.5,7,2.1,9.8c0,0.3,0.1,1,0.5,2.3
		c0.3,1.3,0.5,2.2,0.5,2.9c0,0.1,0,0.2-0.1,0.4c0,0.2-0.1,0.3-0.1,0.4c0,0.2,0.1,2,0.5,5.3c0.3,3.4,0.5,5.9,0.7,7.7
		c0.2,1.6,0.5,4.1,1,7.4C374.9,360.4,375.3,362.9,375.5,364.5L375.5,364.5z"/>
	<path fill="#ffffff" d="M451.8,329.5c-0.1,0.6-0.1,1.4-0.1,2.4c0,1.1,0,2-0.1,2.9c-0.1,0.9-0.3,1.6-0.7,2.4
		c-0.2,0.5-0.3,0.9-0.3,1.2c0,0.2,0,0.4,0.1,0.7c0,0.3,0.1,0.5,0.1,0.7v1.3c0,2.7-0.2,5-0.5,7c-0.1,0.4-0.1,1.1-0.1,1.9
		c0,1,0.1,1.7,0.3,2.2c0.1,0.2,0.1,0.6,0.1,1.1c0,0.2,0,0.6-0.1,1.2c0,0.6-0.1,1-0.1,1.3c0,0.4,0,1-0.1,1.8c0,0.8-0.1,1.4-0.1,1.8
		c0,4,0.1,8,0.4,12c0,0.1,0,0.2,0.1,0.4c0,0.2,0.1,0.3,0.1,0.4v0.5c-0.2,1.5-0.3,2.6-0.3,3.5c0,1.4,0.1,3.3,0.4,5.9
		c0.3,2.6,0.4,4.4,0.4,5.5c0,0.3,0.1,0.8,0.3,1.4c0.2,0.6,0.3,1,0.3,1.2c0.1,0.4,0.1,1.1,0.1,1.9c0,2.2-1,3.9-2.9,5.1
		c-2.1,1.5-3.3,2.4-3.5,2.7c-0.5,0.6-1.2,0.9-2.1,0.9c-0.1,0-0.2,0-0.3-0.1c-0.1,0-0.2-0.1-0.3-0.1c-2.4-0.2-4.3-0.9-5.7-1.9
		c-0.3-0.2-0.8-0.6-1.6-1c-0.8-0.4-1.3-0.8-1.7-1.2c-1.3-0.8-3-2.4-5.1-4.6c-0.5-0.6-1.1-1.6-1.8-3c-2.5-4.6-5-10.1-7.5-16.4
		c-0.3-0.8-0.6-2.1-0.8-3.9c-0.3-1.1-0.4-1.6-0.4-1.7c-1-2-2.1-5.5-3.4-10.6c-0.3-1.2-1-3-1.8-5.2c-3.1-7.6-5.6-12.8-7.3-15.7
		c-0.3-0.6-0.7-1.3-0.9-2.3c-0.6-1.7-1.3-3.6-2.2-5.6c-0.2-0.1-0.4-0.1-0.7-0.1c-0.6,0-0.9,0.4-0.9,1.1v0.9c0,1.1,0.1,2.1,0.4,3.3
		c0.1,0.6,0.1,1.3,0.2,2.1c0,0.7,0.1,1.5,0.1,2.4c0,0.9,0.1,1.5,0.1,2c0,0.6,0,1.6,0.1,2.9c0,1.3,0.1,2.4,0.1,3.4c0,1,0.1,2,0.2,2.9
		c0.2,2.1,0.4,5.1,0.6,9.1c0.2,3.9,0.4,6.5,0.5,7.8c0.2,2.5,0.3,6,0.5,10.6c0.2,4.5,0.3,7.7,0.4,9.5l0.8,12v0.9c0,0.6,0,1-0.1,1.2
		c-0.3,1.3-1.1,2-2.3,2.1c-1.2,0.1-2.3,0.4-3.1,1.1c-0.7,0.6-1.5,0.9-2.3,0.9c-0.7,0-1.5-0.3-2.5-0.9c-0.6-0.4-1.3-1.1-2.2-2.1
		c-0.7-0.9-1.3-1.5-1.8-1.8c-1.4-1.1-3-3.4-4.8-6.7c-0.3-0.5-0.4-1-0.4-1.6c0-0.6,0.2-1.2,0.7-1.8v-0.1c0-0.5,0.1-0.9,0.4-1.2
		c0.9-1.3,1.3-3,1.3-5.1v-1.3c-0.1-1.8-0.1-4.4-0.1-7.9v-0.7c0-0.8,0-2,0.1-3.6c0.1-1.6,0.1-2.8,0.1-3.6V359c0-0.5,0-1.3-0.1-2.4
		c0-1.1-0.1-1.9-0.1-2.5v-0.5c0-0.6,0.1-1.6,0.2-2.9c0.1-1.3,0.2-2.3,0.2-2.9V347c-0.1-1.1-0.1-2.8-0.1-5.1v-6.6v-0.5v-1
		c0-2.3,0.1-6,0.3-10.8v-2.9c0-1.7-0.1-3-0.3-3.9c0-0.1,0-0.2-0.1-0.4c0-0.2-0.1-0.3-0.1-0.4c0-0.2,0-0.6,0.1-1
		c0-0.4,0.1-0.7,0.1-0.9v-0.4c-0.2-1.9-0.6-3.6-1.2-4.9c-0.2-0.3-0.3-0.6-0.3-0.9v-0.1c0.2-3.6,0.7-6.4,1.6-8.4
		c1.4-3,3.9-4.5,7.7-4.5c1.1,0,2.2,0.2,3.1,0.5c0.3,0.1,0.5,0.2,0.8,0.3c0.3,0.1,0.6,0.3,1,0.5c0.3,0.2,0.6,0.3,0.8,0.4
		c0.8,0.4,1.3,1.1,1.7,2.2c2.9,8.6,5,14.1,6.2,16.6c0.7,1.5,2.3,5.4,4.8,11.9c0.3,0.7,0.7,1.8,1.4,3.3c0.3,0.4,2.4,5.2,6.4,14.3
		c0.3,0.9,0.9,2.2,1.8,4c0.8,1.8,1.5,3.1,1.9,4c0.6,1.5,1.5,3.5,2.8,6c1.3,2.6,2.1,4.2,2.4,4.9c0.4,1.1,0.7,1.7,0.9,1.9
		c0.2,0.5,0.4,0.7,0.8,0.7h0.3c0.3-0.1,0.5-0.4,0.5-1.1c0-0.2,0-0.6,0.1-1c0.1-0.4,0.1-0.9,0.2-1.2c0-0.4,0.1-0.7,0.1-1v-0.5
		c0-0.1,0-0.3-0.1-0.6c0-0.3-0.1-0.6-0.1-0.7c0-0.6,0.1-1.7,0.2-3c0.1-1.4,0.2-2.4,0.2-3c0.1-1.5,0.3-3.6,0.7-6.6
		c0.1-1,0.3-2.5,0.7-4.5c0.3-2,0.6-3.6,0.7-4.6c0.2-2,0.6-5.2,1.4-9.6c0.7-4.4,1.1-7.8,1.2-10.2c0.1-1.1,0.3-2.8,0.7-4.9
		c0.3-2.1,0.6-3.7,0.7-4.9c0.2-2.4,0.3-4.3,0.3-5.5c0-1.6-0.2-3.4-0.7-5.5c-0.3-0.6-0.5-1.2-0.5-1.9c0-0.5,0.1-1.2,0.3-2.2
		c0.2-1.1,1.1-1.8,2.7-1.9h1c0.4,0,1.1,0,2.1,0.1c1,0,1.7,0.1,2.2,0.1h0.7h0.5c1.3,0,2.2,0.2,2.8,0.7c0.6,0.5,1.1,1.5,1.5,3
		c0.3,0.6,0.4,1.3,0.4,1.9v1.7v1c0,0.3,0.1,1.2,0.4,2.6c0.2,0.6,0.3,1.7,0.3,3v1c-0.1,1.8-0.1,4.5-0.1,8c0,0.3-0.1,0.7-0.3,1.2
		c-0.3,1.3-0.6,2.7-0.8,4.2c-0.2,1.5-0.3,3.2-0.5,5C452,327.1,451.9,328.5,451.8,329.5L451.8,329.5z"/>
	<g>
		<defs>
			<rect id="SVGID_1_" x="120.1" y="189.1" width="458.9" height="246.1"/>
		</defs>
		<clipPath id="SVGID_2_">
			<use xlink:href="#SVGID_1_"  overflow="visible"/>
		</clipPath>
		<path clip-path="url(#SVGID_2_)" fill="#ffffff" d="M506.2,396.7c-1.5,1.4-3.6,2.5-6.5,3.3c-3.8,1-6.9,1.4-9.4,1.4h-2
			c-3.6-0.3-7.3-1.3-11.2-2.9c-2.6-1-5.7-3.4-9.2-7c-2.1-2.1-3.9-5.3-5.6-9.8c-0.1-0.2-0.1-0.4-0.1-0.8c-0.3-0.3-0.5-0.7-0.5-0.9
			l0.1-0.3v-0.3c-0.6-1.4-0.9-2.3-0.9-2.6v-0.3c-0.3-0.3-0.4-0.6-0.4-1v-0.4c-0.1-0.1-0.1-0.2-0.1-0.4l0.1-0.1v-0.1
			c-1.5-4.9-2.2-9.7-2.2-14.4c0-0.3,0-0.7,0.1-1.4c0-0.7,0.1-1.2,0.1-1.4c0.2-2.4,0.3-4.3,0.3-5.6c0-0.8-0.1-2-0.3-3.8v-1.3
			c0-1.4,0.3-3.3,0.8-5.7c1.4-6.7,3.7-14.1,6.9-22.4c0.4-1.1,1-2.3,1.7-3.6c0.7-1.3,1.5-2.6,2.5-4.1c1-1.5,1.6-2.6,2.1-3.4
			c1.3-2.3,2.2-3.7,2.6-4c0.4-0.3,0.9-1,1.5-2c0.6-1,1-1.7,1.2-2c2.6-3,5.2-5.2,7.7-6.4c1.9-0.9,3.7-1.3,5.3-1.3
			c1.1,0,2.4,0.2,3.9,0.7c1.4,0.3,2.3,0.5,2.9,0.5c0.4,0,0.8,0,1-0.1c0.1,0,0.2,0,0.4-0.1c0.2,0,0.3-0.1,0.4-0.1
			c0.7,0,1.3,0.3,1.7,1c0.2,0.3,0.3,0.6,0.3,1c0,0.4-0.2,1-0.5,1.7c-0.7,1.7-1.9,2.6-3.5,2.6c-2.9,0-5.9,1.7-8.7,5.2
			c-3,3.7-5.4,7.4-7.2,11.1c-2.5,6.8-4.6,15.1-6.2,25c0,0.7,0,1.8-0.1,3.2c-0.1,1.4-0.2,2.5-0.3,3.2c-0.2,3.5-0.3,6-0.3,7.7
			c0,4.4,0.3,8.4,1,12c0.6,3.8,1.6,7,2.9,9.5c2.3,4.5,6.2,7.5,11.6,8.8c0.7,0.2,1.4,0.3,2.1,0.4c0.7,0.1,1.5,0.2,2.4,0.2
			c0.9,0,1.6,0.1,2.1,0.2h0.4c1.2,0,2.4-0.4,3.5-1.3c0.8-0.5,1.2-1.3,1.3-2.2c0.2-0.9,0.3-2.2,0.3-3.9c0.1-1.1,0.2-2.8,0.3-5
			c0.1-2.2,0.2-3.9,0.3-5v-0.5c0-0.4-0.1-0.9-0.3-1.4c-0.3-1.1-0.8-1.7-1.7-1.7h-0.1c-0.3,0-0.7,0-1.2,0.1c-0.5,0-0.9,0.1-1,0.1
			c-0.4,0-1.1,0-1.9-0.1c-0.8,0-1.5-0.1-1.9-0.1c-1.7,0-3.3,0.2-4.7,0.5c-0.3,0.1-0.6,0.1-1,0.1c-1.2,0-2.5-0.5-3.8-1.6
			c-1-0.8-2-1.6-2.9-2.5c-0.5-0.5-0.8-1.2-0.8-2c0-0.4,0-0.8,0.1-1c0.9-3.2,2.8-4.9,5.7-5.2c5.2-0.3,9.2-0.7,11.8-1.2
			c3.3-0.5,6-0.8,8.1-0.8h1c0.9,0,2.3,0.2,4.2,0.5c1.9,0.3,3.1,1.5,3.5,3.4c0.2,0.9,0.3,1.6,0.3,2.1v0.3c0,0.1,0,0.2-0.1,0.4
			c0,0.2-0.1,0.3-0.1,0.4c0,0.3,0,0.6,0.1,0.7c0.5,1.2,0.8,2.8,0.8,4.7c0,0.6,0,1.5-0.1,2.7c-0.1,1.2-0.1,2.1-0.1,2.7
			c0,2.3-0.1,5.8-0.3,10.3v0.8v0.3c0.3,1,0.5,2,0.5,3.1c0,0.6-0.1,1.6-0.3,2.9c-0.2,1.3-0.3,2.3-0.3,2.9c0,1.1-0.6,2-1.7,2.5
			C511.2,392.8,508.4,394.6,506.2,396.7L506.2,396.7z"/>
		<path clip-path="url(#SVGID_2_)" fill="#ffffff" d="M530.7,294.2c1.2-0.3,5.4-0.6,12.7-0.9c7.2-0.4,12.4-0.5,15.5-0.6
			c1.8,0,3,0,3.5,0.1c0.8,0.2,1.9,0.2,3.3,0.2l2.9,0c2.6,0,4.6,0.8,6.1,2.4c0.9,0.9,1.3,3.9,1.4,8.8l0,0.7c-0.1,1.5-1,2.5-2.7,3.2
			c-0.8,0.4-1.7,0.5-2.9,0.6l-0.5,0c-0.3,0-0.7,0-1.4,0c-0.7,0-1.3,0-1.7,0c-1.1,0-5.3,0.1-12.6,0.2c-7.3,0.1-11.5,0.2-12.8,0.2
			c-2.3,0-3.8,0-4.6-0.1l-0.3,0c-1.3,0-1.9,0.8-1.9,2.2l0,1.3c0.1,4.9,0.2,8.7,0.3,11.2c0.2,2.9,0.3,5.1,0.3,6.4l-0.1-0.4
			c0,0.1,0,0.2-0.1,0.5c0,0.2-0.1,0.4-0.1,0.5c0,0.4,0.1,1,0.4,1.6c0.3,0.6,0.5,1.1,0.8,1.6l0.4,0.5c0.1,0,0.2,0,0.4-0.1
			c0.2,0,0.3-0.1,0.4-0.1c0.7-0.2,2.2-0.3,4.6-0.3c2.9,0,7.7,0.2,14.4,0.7c6.6,0.5,10.3,1.1,11,1.7c0.5,0.7,0.9,2.6,1,5.7
			c0.1,3.1,0.2,4.9,0.3,5.3c0.1,0.3,0.1,0.8,0.1,1.4c0,1.2-0.7,2.1-2.2,2.8c-1,0.4-2,0.7-2.9,0.7l-0.5,0c-0.2,0.1-1.4,0.1-3.8,0.2
			c-2.4,0-6.5,0-12.1,0c-5.6-0.1-8.6-0.1-9-0.1l-0.3,0c-1,0.1-1.6,0.3-1.9,0.6c-0.3,0.3-0.5,0.9-0.5,1.6l0,0.7
			c0.1,1.2,0.2,3.1,0.2,5.7l0.1,5.7l0,2.6l0,0.1c0,1-0.1,1.8-0.4,2.6l0,0.8c0,0.6,0.4,1.2,1.1,1.7c0.2,0,0.4,0,0.8,0.1
			c0.3,0,0.7,0.1,0.9,0.1c0.9,0,5-0.1,12.4-0.3c7.4-0.2,11.6-0.3,12.6-0.3c2.3,0,3.9,0.1,4.7,0.3c0.4,0.2,1.3,0.2,2.5,0.2
			c1.3,0,2.1,0.1,2.4,0.2c1,0.3,1.9,1.5,2.6,3.4c0.7,1.9,1.3,4.1,1.8,6.6c0.6,2.5,1,4.1,1.2,4.8c0.1,0.2,0.1,0.4,0.1,0.8
			c0,0.6-0.2,1.2-0.6,1.8c-1,1.5-2.4,2.4-4,2.7c-1.7,0.3-7.8,0.7-18.2,1.3c-10.4,0.6-16.3,0.9-17.7,1.1l-0.3,0
			c-0.2,0.1-0.4,0.1-0.6,0.1l-0.5,0c-0.4,0.2-1,0.3-1.8,0.3c-0.3,0-0.8,0-1.4,0c-0.6,0-1-0.1-1.3,0c-0.1,0-0.2,0-0.4-0.1
			c-0.2,0-0.3-0.1-0.4-0.1l-0.5,0c-2.3,0-4.2-1.4-5.6-4.4c-1.8-3.8-2.7-7.7-2.9-11.8c0-1.2-0.2-3.3-0.4-6.2
			c-0.3-2.9-0.4-5.2-0.4-6.9l-0.1-9.6c0-1.7,0-3,0.1-3.8c0-1.1,0-2.8,0.1-4.9c0.1-2.2,0.1-3.8,0.1-4.8c0-1.7-0.1-3-0.2-3.9
			c-0.6-10.3-0.9-16.1-1.1-17.3c-0.3-2.1-0.4-4.2-0.5-6.4c0-1.6,0-3.9,0.2-7c0-1.3,0.3-2.4,0.9-3.3c0.3-0.4,0.4-0.8,0.4-1.2l0-0.9
			c0-0.4,0-0.7,0.1-0.9l0-0.1l0-0.8c0-0.4,0.1-0.8,0.4-1c0.1-0.5,0.7-1.6,1.9-3.3C526,296.3,528.2,294.8,530.7,294.2L530.7,294.2z"
			/>
	</g>
	<path fill="#ffffff" d="M323.2,224.1c0.4,5.8,0.7,9.5,0.7,11.3v0.7v0.6c0,2.5,0.3,5.8,1,9.7c0.6,4.2,1.2,7.3,1.6,9.4
		c0.3,1.5,1,3.7,2.2,6.5c0.8,2,2.2,3,4.2,3c0.1,0,0.2,0,0.4-0.1c1-0.1,1.7-0.6,2-1.3c1.7-4,2.5-6.6,2.6-7.9c0.1-0.8,0.2-2,0.3-3.6
		c0.1-1.7,0.2-2.9,0.3-3.6c0.3-2.2,0.5-3.8,0.7-4.7c0.1-0.8,0.2-2,0.3-3.6c0.1-1.6,0.1-2.6,0.1-3c0.3-3.3,0.4-5.8,0.4-7.5
		c0-1.4,0-2.4-0.1-3.1c-0.1-1.3-0.2-3.2-0.5-5.8c-0.3-2.6-0.4-4.5-0.5-5.8c-0.1-1.1-0.1-2.9-0.1-5.2c0-3.2,0.2-6.3,0.7-9.2
		c0.3-2.4,0.6-3.8,0.8-4.2c0.7-1.7,1.9-2.7,3.7-3c2.1-0.3,3.4-0.6,3.8-0.9c0.1-0.1,0.3-0.1,0.5-0.1c0.6,0,1.1,0.3,1.4,1
		c0.3,0.6,0.4,1.2,0.6,1.8c0.1,1.1,0.3,2.6,0.7,4.6c0.3,2,0.5,3.4,0.7,4.1c0.8,5.8,1.4,9.8,1.8,12.1c0.6,3.1,0.9,5.1,1,5.9v2
		c0,1.3-0.1,2.3-0.3,3c-0.4,1.6-0.7,3.3-0.7,5.1v1.1v1.3c0,2.2-0.2,5.6-0.6,10c-0.1,0.8-0.2,2.3-0.3,4.4c-0.1,2.1-0.3,3.7-0.4,4.9
		c-0.5,4.2-1.1,7.3-1.9,9.3c-1.1,3-2.6,5.2-4.6,6.7c-0.8,0.6-1.8,1-3,1.2c-0.1,0-0.7,0.1-1.9,0.3c-1.2,0.2-2.1,0.3-2.6,0.3h-0.5
		h-0.1c-0.4,0-0.9,0.3-1.4,0.8c-1.1,1.2-2.6,1.8-4.4,1.8h-0.8c-3.6-0.3-6.5-2.3-8.5-6c-0.2-0.3-1-2.4-2.4-6.3
		c-0.7-1.9-1.4-4.5-2.1-7.8c-0.1-0.8-0.3-1.8-0.4-3.2c-0.2-1.4-0.3-2.3-0.3-2.7c-0.3-2-0.5-5.1-0.5-9.3c0-1.4-0.1-3.5-0.3-6.3
		c-0.2-2.8-0.3-4.9-0.3-6.3c0-0.1,0-0.3,0-0.5c0-0.2,0-0.4,0-0.5c0.1-5.6,0.3-9.9,0.4-12.8c0-0.2,0-0.4,0-0.8c0-0.3,0-0.6,0-0.8
		v-0.3c0-1.1,0-2,0.1-2.6c0.3-2,0.4-3.6,0.4-4.6c0-0.1,0-0.3,0-0.6c0-0.3,0-0.4,0-0.6v-0.3c0-1.7,1-3.7,2.9-6.1
		c0.3-0.4,0.6-0.6,1-0.6c0.4,0,0.7,0.2,1,0.6c0.4,0.4,0.6,1.1,0.6,1.9v1.1v1.4c0,0.6,0,1.6-0.1,2.8c-0.1,1.2-0.1,2.2-0.1,2.8
		c0,1,0,1.7,0.1,2.2c0.1,0.3,0.1,0.7,0.1,1.3c0,0.2,0,0.5,0,0.9c0,0.4,0,0.7,0,1v1.2C322.6,215.2,322.8,219,323.2,224.1L323.2,224.1
		z"/>
	<path fill="#ffffff" d="M558.2,196.7c0.7-0.2,1.4-0.3,2-0.3c0.2,0,0.6,0,1.2-0.1c0.6,0,1-0.1,1.4-0.1c1.8,0,2.9,0.2,3.5,0.7
		c0.7,0.5,2.4,1.9,5,4.1c0.5,0.4,0.9,1,1.3,1.7c0.4,0.7,0.7,1.3,0.9,1.8c0.2,0.5,0.5,1.3,0.8,2.3c0.3,1,0.5,1.6,0.6,1.8
		c0.5,1.4,0.7,2.7,0.7,4.1c0,0.7-0.1,1.3-0.3,1.7c-0.3,0.5-1.2,1.1-2.6,1.7c-0.4,0.2-0.9,0.4-1.5,0.5c-0.6,0.1-1.1,0.2-1.4,0.4h-0.3
		c-0.5,0-1.4-0.4-2.5-1.2c-1-0.7-1.6-2.1-1.6-4.2c-0.1-1.3-0.5-2.5-1.4-3.6c-0.8-1.1-1.8-1.8-2.8-2.1c-0.7-0.1-1.2-0.2-1.4-0.2
		c-2.4,0-4.3,1.5-5.7,4.6c-0.5,0.9-0.7,1.9-0.7,2.7c0,1.8,1,3.5,3,5c2,1.5,4.4,3.1,7.1,4.7c2.7,1.6,4.7,3.1,5.7,4.4
		c3,3.8,4.7,7.3,5.2,10.7c0.5,3.7,1,6.1,1.5,7.4c0.7,1.8,1,3.1,1.1,4c0,0.3,0.1,0.7,0.2,1c0.1,0.3,0.2,0.9,0.4,1.6
		c0.1,0.7,0.3,1.4,0.4,2c0.1,0.3,0.1,0.9,0.1,1.6c0,2.6-0.7,4.9-2.2,7c-1.9,2.6-3.5,4.1-4.7,4.6c-0.7,0.3-1.3,0.5-1.6,0.8
		c-0.3,0.3-0.5,0.7-0.7,1.3c-0.3,1-1.2,1.7-2.8,2.1c-0.7,0.2-1.4,0.3-2.2,0.3h-0.1h-0.3c-0.7,0-1.9,0-3.6,0.1h-0.2
		c-1.9,0-4-0.5-6.4-1.6c-2.4-1-4.4-2.7-6-4.8c-3.4-4.3-5.3-8.4-5.8-12.4c-0.1-0.9-0.3-1.8-0.5-2.6c-0.2-0.8-0.3-1.6-0.5-2.3
		c-0.2-0.7-0.3-1.3-0.4-1.5c-0.2-1-0.3-1.9-0.3-2.7c0-0.1,0-0.3,0.1-0.6c0-0.3,0.1-0.4,0.1-0.5c0-0.8,0.3-1.6,1-2.3
		c1.3-1.4,2.6-2.4,4-3c0.5-0.3,1.1-0.4,1.6-0.4c0.5,0,1,0.3,1.5,0.9c0.9,1.3,1.5,2.5,1.5,3.6c0.1,1.2,0.4,2.7,1,4.6
		c0.7,2.2,1.1,3.8,1.4,4.9c0.4,1.6,1,2.9,1.8,4c0.7,0.9,1.4,2,1.8,3.1c0.6,1.5,2.1,2.3,4.5,2.4c0.2,0,0.4,0,0.7,0.1
		c0.3,0,0.4,0.1,0.5,0.1c0.4,0,1-0.1,1.7-0.3c0.8-0.3,1.4-1.2,1.7-2.8c0.1-0.2,0.1-0.4,0.1-0.6s0-0.4,0-0.5c0-0.1,0-0.2,0.1-0.3
		c0-0.1,0.1-0.1,0.1-0.2c0.1-0.1,0.1-0.2,0.2-0.4c0-0.2,0.1-0.3,0.1-0.4c0-0.1,0-0.3,0.1-0.5c0.1-0.2,0.1-0.3,0.1-0.4
		c0-0.1,0-0.2,0-0.4c0-0.2,0-0.3,0.1-0.5l0.1-0.2c0-0.1,0-0.2,0-0.3v-0.1c0-0.3,0-0.6,0.1-0.8c0.1-0.2,0.1-0.5,0.2-1
		c0-0.5,0.1-0.8,0.1-0.9c0.1-0.3,0.1-0.7,0.1-1.4c0-0.1,0-0.3-0.1-0.4c0-0.1-0.1-0.2-0.1-0.3c0-0.1,0-0.3-0.1-0.5
		c0-0.2,0-0.4-0.1-0.5c-0.1-0.1-0.1-0.2-0.1-0.5c0-0.3,0-0.5,0-0.7c-0.1-0.6-0.3-1.8-0.4-3.7c-0.1-0.7-0.4-1.5-0.9-2.3
		c-0.5-0.8-1.3-1.7-2.3-2.7c-1-1-1.7-1.8-2.2-2.4c-1.2-1.5-3.2-3.3-6.1-5.4c-2.9-2.1-4.9-3.7-5.9-4.8c-2.4-2.7-3.7-6.1-3.7-10.1
		c0-3,0.7-5.9,2.1-8.7c1-2,2.3-3.8,4-5.4C551.1,199,553.8,197.9,558.2,196.7L558.2,196.7z"/>
	<g>
		<defs>
			<rect id="SVGID_3_" x="120.1" y="189.1" width="458.9" height="246.1"/>
		</defs>
		<clipPath id="SVGID_4_">
			<use xlink:href="#SVGID_3_"  overflow="visible"/>
		</clipPath>
		<path clip-path="url(#SVGID_4_)" fill="#ffffff" d="M201.7,387.8c3.5,0.9,5.6,2.5,6.4,4.8c0.3,1.3,0.4,1.9,0.4,2
			c0,0.5-0.3,0.8-0.8,1.1c-0.6,0.2-1.7,0.5-3.5,0.9c-3.5,0.7-7,1.2-10.6,1.4c-2.9,0.2-7.3,0.4-13.1,0.4c-3.6,0-8.8-0.1-15.8-0.2
			l-16.2-0.4h-6.8c-2.5,0-5-0.1-7.5-0.4c-2.9-0.2-5.8-0.8-8.7-1.7c-3.6-1.2-5.4-2.7-5.4-4.6v-0.7c0.3-1.8,1-3.4,2.1-4.8
			c1.2-1.5,3.1-2.2,5.6-2.2h1h0.6c4.4,0.4,8.4,0.6,12,0.6c3.6,0,6.3,0,8.1-0.1c1.1-0.1,2.9-0.2,5.4-0.2c2.5-0.1,4.3-0.1,5.4-0.1
			l7.9-0.1h0.8h0.4c1.2-0.3,2.7-0.5,4.4-0.5c2.1,0,5.3,0.4,9.7,1.2c2.2,0.3,5.4,0.9,9.5,1.7C195.7,386.4,198.5,387.1,201.7,387.8
			L201.7,387.8z"/>
	</g>
</g>
<path fill="#ffffff" d="M411.8,188.9c4.2-2.9,21.8-25.6,24.5-30.6c2.7-5,17-23.6,17-23.6l13.4-21.7c0,0,15.2-21.7,25.1,7.7
	c4.9,14.5,25,40.5,27.3,46.2c2.3,5.8,8.1,10.6,10.4,15.2c1.4,2.8,11,0.7,19.3,3c4.1,1.1,7.5,0,5.8-3.2
	c-6.8-13.1-11.2-22.5-19.7-33.8s-28.6-39.6-31.2-46c-2.6-6.4-13.2-29.3-28.3-25.1c-15.1,4.1-28.2,19-34.8,31
	c-6.6,12-27.6,43-33,51.2c-5.4,8.2-12,16.2-13.7,21c-0.7,2,3.6,1.9,11.3,5.3C408,186.7,410.4,189.9,411.8,188.9z"/>
<path fill="#ffffff" d="M131.2,421.7c0-0.2,0.2-0.3,0.4-0.3h0.5l7.4,7.1h0v-6.6c0-0.2,0.1-0.4,0.4-0.4h2.2c0.2,0,0.4,0.2,0.4,0.4
	v12.5c0,0.2-0.2,0.3-0.4,0.3h-0.3c-0.1,0-0.2-0.1-0.2-0.1l-7.3-7.4h0v6.9c0,0.2-0.1,0.4-0.4,0.4h-2.2c-0.2,0-0.4-0.2-0.4-0.4
	L131.2,421.7L131.2,421.7z"/>
<path fill="#ffffff" d="M152.4,421.9c0-0.2,0.2-0.4,0.4-0.4h2.2c0.2,0,0.4,0.2,0.4,0.4v12.3c0,0.2-0.2,0.4-0.4,0.4h-2.2
	c-0.2,0-0.4-0.2-0.4-0.4V421.9L152.4,421.9z"/>
<path fill="#ffffff" d="M159.7,421.7c0-0.2,0.2-0.3,0.4-0.3h0.5l7.4,7.1h0v-6.6c0-0.2,0.1-0.4,0.4-0.4h2.2c0.2,0,0.4,0.2,0.4,0.4
	v12.5c0,0.2-0.2,0.3-0.4,0.3h-0.3c-0.1,0-0.2-0.1-0.2-0.1l-7.3-7.4h0v6.9c0,0.2-0.1,0.4-0.4,0.4h-2.2c-0.2,0-0.4-0.2-0.4-0.4
	L159.7,421.7L159.7,421.7z"/>
<path fill="#ffffff" d="M175.3,421.9c0-0.2,0.2-0.4,0.4-0.4h2.2c0.2,0,0.4,0.2,0.4,0.4v12.3c0,0.2-0.2,0.4-0.4,0.4h-2.2
	c-0.2,0-0.4-0.2-0.4-0.4V421.9L175.3,421.9z"/>
<path fill="#ffffff" d="M184.1,424.3h-2.7c-0.2,0-0.4-0.2-0.4-0.4v-2c0-0.2,0.1-0.4,0.4-0.4h8.2c0.2,0,0.4,0.2,0.4,0.4v2
	c0,0.2-0.1,0.4-0.4,0.4H187v9.9c0,0.2-0.2,0.4-0.4,0.4h-2.2c-0.2,0-0.4-0.2-0.4-0.4V424.3L184.1,424.3z"/>
<path fill="#ffffff" d="M193,421.9c0-0.2,0.2-0.4,0.4-0.4h2.2c0.2,0,0.4,0.2,0.4,0.4v12.3c0,0.2-0.2,0.4-0.4,0.4h-2.2
	c-0.2,0-0.4-0.2-0.4-0.4V421.9L193,421.9z"/>
<path fill="#ffffff" d="M206.3,430.1l-1.4-3.1h0l-1.4,3.1H206.3L206.3,430.1z M198.7,434.1l5.8-12.5c0.1-0.1,0.2-0.2,0.3-0.2h0.2
	c0.1,0,0.3,0.1,0.3,0.2l5.8,12.5c0.1,0.2,0,0.5-0.3,0.5h-2.1c-0.3,0-0.5-0.1-0.6-0.5l-0.7-1.5h-5l-0.7,1.5c-0.1,0.2-0.3,0.4-0.7,0.4
	h-2C198.7,434.6,198.6,434.3,198.7,434.1L198.7,434.1z"/>
<path fill="#ffffff" d="M214.7,424.3h-2.7c-0.2,0-0.4-0.2-0.4-0.4v-2c0-0.2,0.1-0.4,0.4-0.4h8.2c0.2,0,0.4,0.2,0.4,0.4v2
	c0,0.2-0.1,0.4-0.4,0.4h-2.7v9.9c0,0.2-0.2,0.4-0.4,0.4h-2.2c-0.2,0-0.4-0.2-0.4-0.4V424.3L214.7,424.3z"/>
<path fill="#ffffff" d="M223.6,421.9c0-0.2,0.2-0.4,0.4-0.4h2.2c0.2,0,0.4,0.2,0.4,0.4v12.3c0,0.2-0.2,0.4-0.4,0.4h-2.2
	c-0.2,0-0.4-0.2-0.4-0.4V421.9L223.6,421.9z"/>
<path fill="#ffffff" d="M229.3,422.1c-0.1-0.2,0-0.5,0.3-0.5h2.5c0.1,0,0.3,0.1,0.3,0.2l3.1,6.8h0.1l3.1-6.8c0-0.1,0.2-0.2,0.3-0.2
	h2.5c0.3,0,0.4,0.2,0.3,0.5l-5.8,12.5c-0.1,0.1-0.2,0.2-0.3,0.2h-0.2c-0.1,0-0.3-0.1-0.3-0.2L229.3,422.1L229.3,422.1z"/>
<path fill="#ffffff" d="M244.5,421.9c0-0.2,0.1-0.4,0.4-0.4h7.7c0.2,0,0.4,0.2,0.4,0.4v2c0,0.2-0.1,0.4-0.4,0.4h-5.1v2.3h4.2
	c0.2,0,0.4,0.2,0.4,0.4v2c0,0.2-0.2,0.4-0.4,0.4h-4.2v2.5h5.1c0.2,0,0.4,0.2,0.4,0.4v2c0,0.2-0.1,0.4-0.4,0.4h-7.7
	c-0.2,0-0.4-0.2-0.4-0.4V421.9L244.5,421.9z"/>
<path fill="#ffffff" d="M267.9,431.8c2,0,3.7-1.7,3.7-3.7c0-2-1.7-3.7-3.7-3.7c-2,0-3.7,1.7-3.7,3.7
	C264.3,430.1,265.9,431.8,267.9,431.8L267.9,431.8z M267.9,421.4c3.7,0,6.7,3,6.7,6.7c0,3.7-3,6.7-6.7,6.7c-3.7,0-6.7-2.9-6.7-6.7
	C261.3,424.4,264.2,421.4,267.9,421.4L267.9,421.4z"/>
<path fill="#ffffff" d="M278.1,421.9c0-0.2,0.1-0.4,0.4-0.4h7.7c0.2,0,0.4,0.2,0.4,0.4v2c0,0.2-0.1,0.4-0.4,0.4H281v2.7h4.2
	c0.2,0,0.4,0.2,0.4,0.4v2c0,0.2-0.2,0.4-0.4,0.4H281v4.5c0,0.2-0.2,0.4-0.4,0.4h-2.2c-0.2,0-0.4-0.2-0.4-0.4V421.9L278.1,421.9z"/>
<path fill="#ffffff" d="M301.2,421.4c1.9,0,3.2,0.6,4.5,1.7c0.2,0.1,0.2,0.4,0,0.5l-1.4,1.5c-0.1,0.1-0.3,0.1-0.5,0
	c-0.7-0.6-1.6-0.9-2.5-0.9c-2.1,0-3.6,1.7-3.6,3.8c0,2.1,1.6,3.8,3.7,3.8c0.9,0,1.8-0.3,2.5-0.9c0.1-0.1,0.4-0.1,0.5,0l1.4,1.5
	c0.1,0.1,0.1,0.4,0,0.5c-1.3,1.2-2.9,1.8-4.5,1.8c-3.7,0-6.7-2.9-6.7-6.7C294.5,424.4,297.5,421.4,301.2,421.4L301.2,421.4z"/>
<path fill="#ffffff" d="M314.6,431.8c2,0,3.7-1.7,3.7-3.7c0-2-1.7-3.7-3.7-3.7c-2,0-3.7,1.7-3.7,3.7
	C310.9,430.1,312.6,431.8,314.6,431.8L314.6,431.8z M314.6,421.4c3.7,0,6.7,3,6.7,6.7c0,3.7-3,6.7-6.7,6.7c-3.7,0-6.7-2.9-6.7-6.7
	C307.9,424.4,310.9,421.4,314.6,421.4L314.6,421.4z"/>
<path fill="#ffffff" d="M325.9,421.7c0-0.2,0.2-0.3,0.3-0.3h0.3c0.1,0,0.3,0.1,0.3,0.2l4.3,8h0l4.3-8c0.1-0.1,0.2-0.2,0.3-0.2h0.3
	c0.1,0,0.3,0.1,0.3,0.3l2.1,12.5c0,0.2-0.1,0.4-0.4,0.4H336c-0.2,0-0.3-0.1-0.4-0.3l-0.8-5.7h0l-3.1,6c-0.1,0.1-0.2,0.2-0.3,0.2H331
	c-0.1,0-0.3-0.1-0.3-0.2l-3.1-6h0l-0.8,5.7c0,0.1-0.2,0.3-0.4,0.3h-2.2c-0.2,0-0.4-0.2-0.4-0.4L325.9,421.7L325.9,421.7z"/>
<path fill="#ffffff" d="M343.4,421.7c0-0.2,0.2-0.3,0.3-0.3h0.3c0.1,0,0.3,0.1,0.3,0.2l4.3,8h0l4.3-8c0.1-0.1,0.2-0.2,0.3-0.2h0.3
	c0.1,0,0.3,0.1,0.3,0.3l2.1,12.5c0,0.2-0.1,0.4-0.4,0.4h-2.2c-0.2,0-0.3-0.1-0.4-0.3l-0.8-5.7h0l-3.1,6c-0.1,0.1-0.2,0.2-0.3,0.2
	h-0.3c-0.1,0-0.3-0.1-0.3-0.2l-3.1-6h0l-0.8,5.7c0,0.1-0.2,0.3-0.4,0.3h-2.2c-0.2,0-0.4-0.2-0.4-0.4L343.4,421.7L343.4,421.7z"/>
<path fill="#ffffff" d="M359.3,421.9c0-0.2,0.2-0.4,0.4-0.4h2.3c0.2,0,0.4,0.2,0.4,0.4v7.5c0,1.3,1,2.3,2.3,2.3c1.3,0,2.3-1,2.3-2.3
	v-7.5c0-0.2,0.1-0.4,0.4-0.4h2.3c0.2,0,0.4,0.2,0.4,0.4v7.7c0,2.8-2.4,5.2-5.3,5.2c-2.9,0-5.3-2.3-5.3-5.2V421.9L359.3,421.9z"/>
<path fill="#ffffff" d="M374.1,421.7c0-0.2,0.2-0.3,0.4-0.3h0.5l7.4,7.1h0v-6.6c0-0.2,0.1-0.4,0.4-0.4h2.2c0.2,0,0.4,0.2,0.4,0.4
	v12.5c0,0.2-0.2,0.3-0.4,0.3h-0.3c-0.1,0-0.2-0.1-0.2-0.1l-7.3-7.4h0v6.9c0,0.2-0.1,0.4-0.4,0.4h-2.2c-0.2,0-0.4-0.2-0.4-0.4
	L374.1,421.7L374.1,421.7z"/>
<path fill="#ffffff" d="M389.7,421.9c0-0.2,0.2-0.4,0.4-0.4h2.2c0.2,0,0.4,0.2,0.4,0.4v12.3c0,0.2-0.2,0.4-0.4,0.4H390
	c-0.2,0-0.4-0.2-0.4-0.4V421.9L389.7,421.9z"/>
<path fill="#ffffff" d="M398.5,424.3h-2.7c-0.2,0-0.4-0.2-0.4-0.4v-2c0-0.2,0.1-0.4,0.4-0.4h8.2c0.2,0,0.4,0.2,0.4,0.4v2
	c0,0.2-0.1,0.4-0.4,0.4h-2.7v9.9c0,0.2-0.2,0.4-0.4,0.4h-2.2c-0.2,0-0.4-0.2-0.4-0.4V424.3L398.5,424.3z"/>
<path fill="#ffffff" d="M410.6,428.3l-4.1-6.2c-0.1-0.2,0-0.5,0.3-0.5h2.4c0.1,0,0.2,0.1,0.3,0.2l2.6,3.8l2.6-3.8
	c0.1-0.1,0.1-0.2,0.3-0.2h2.4c0.3,0,0.4,0.3,0.3,0.5l-4.2,6.2v5.9c0,0.2-0.2,0.4-0.4,0.4H411c-0.2,0-0.4-0.2-0.4-0.4V428.3
	L410.6,428.3z"/>
<path fill="#ffffff" d="M426.1,421.9c0-0.2,0.1-0.4,0.4-0.4h7.7c0.2,0,0.4,0.2,0.4,0.4v2c0,0.2-0.1,0.4-0.4,0.4H429v2.7h4.2
	c0.2,0,0.4,0.2,0.4,0.4v2c0,0.2-0.2,0.4-0.4,0.4H429v4.5c0,0.2-0.2,0.4-0.4,0.4h-2.2c-0.2,0-0.4-0.2-0.4-0.4V421.9L426.1,421.9z"/>
<path fill="#ffffff" d="M443.2,431.8c2,0,3.7-1.7,3.7-3.7c0-2-1.7-3.7-3.7-3.7c-2,0-3.7,1.7-3.7,3.7
	C439.5,430.1,441.2,431.8,443.2,431.8L443.2,431.8z M443.2,421.4c3.7,0,6.7,3,6.7,6.7c0,3.7-3,6.7-6.7,6.7c-3.7,0-6.7-2.9-6.7-6.7
	C436.6,424.4,439.5,421.4,443.2,421.4L443.2,421.4z"/>
<path fill="#ffffff" d="M459.2,431.8c2,0,3.7-1.7,3.7-3.7c0-2-1.7-3.7-3.7-3.7c-2,0-3.7,1.7-3.7,3.7
	C455.5,430.1,457.2,431.8,459.2,431.8L459.2,431.8z M459.2,421.4c3.7,0,6.7,3,6.7,6.7c0,3.7-3,6.7-6.7,6.7c-3.7,0-6.7-2.9-6.7-6.7
	C452.6,424.4,455.5,421.4,459.2,421.4L459.2,421.4z"/>
<path fill="#ffffff" d="M474.1,431.8c2.1,0,3.6-1.6,3.6-3.8c0-2.1-1.5-3.7-3.6-3.7h-1.8v7.5H474.1L474.1,431.8z M469.4,421.9
	c0-0.2,0.1-0.4,0.3-0.4h4.5c3.6,0,6.5,2.9,6.5,6.5c0,3.6-2.9,6.5-6.5,6.5h-4.5c-0.2,0-0.3-0.2-0.3-0.4V421.9L469.4,421.9z"/>
<path fill="#ffffff" d="M495.7,421.4c1.9,0,3.2,0.6,4.5,1.7c0.2,0.1,0.2,0.4,0,0.5l-1.4,1.5c-0.1,0.1-0.3,0.1-0.5,0
	c-0.7-0.6-1.6-0.9-2.5-0.9c-2.1,0-3.6,1.7-3.6,3.8c0,2.1,1.6,3.8,3.7,3.8c0.9,0,1.8-0.3,2.5-0.9c0.1-0.1,0.4-0.1,0.5,0l1.4,1.5
	c0.1,0.1,0.1,0.4,0,0.5c-1.3,1.2-2.9,1.8-4.5,1.8c-3.7,0-6.7-2.9-6.7-6.7C489,424.4,492,421.4,495.7,421.4L495.7,421.4z"/>
<path fill="#ffffff" d="M503.5,421.9c0-0.2,0.1-0.4,0.4-0.4h7.7c0.2,0,0.4,0.2,0.4,0.4v2c0,0.2-0.1,0.4-0.4,0.4h-5.1v2.3h4.2
	c0.2,0,0.4,0.2,0.4,0.4v2c0,0.2-0.2,0.4-0.4,0.4h-4.2v2.5h5.1c0.2,0,0.4,0.2,0.4,0.4v2c0,0.2-0.1,0.4-0.4,0.4h-7.7
	c-0.2,0-0.4-0.2-0.4-0.4V421.9L503.5,421.9z"/>
<path fill="#ffffff" d="M515.7,421.7c0-0.2,0.2-0.3,0.4-0.3h0.5l7.4,7.1h0v-6.6c0-0.2,0.1-0.4,0.4-0.4h2.2c0.2,0,0.4,0.2,0.4,0.4
	v12.5c0,0.2-0.2,0.3-0.4,0.3h-0.3c-0.1,0-0.2-0.1-0.2-0.1l-7.3-7.4h0v6.9c0,0.2-0.1,0.4-0.4,0.4h-2.2c-0.2,0-0.4-0.2-0.4-0.4
	L515.7,421.7L515.7,421.7z"/>
<path fill="#ffffff" d="M532.8,424.3h-2.7c-0.2,0-0.4-0.2-0.4-0.4v-2c0-0.2,0.1-0.4,0.4-0.4h8.2c0.2,0,0.4,0.2,0.4,0.4v2
	c0,0.2-0.1,0.4-0.4,0.4h-2.7v9.9c0,0.2-0.2,0.4-0.4,0.4h-2.2c-0.2,0-0.4-0.2-0.4-0.4V424.3L532.8,424.3z"/>
<path fill="#ffffff" d="M547.4,427.1c0.8,0,1.4-0.7,1.4-1.5c0-0.8-0.6-1.4-1.4-1.4h-2.7v2.9H547.4L547.4,427.1z M541.7,421.9
	c0-0.2,0.1-0.4,0.4-0.4h5.5c2.2,0,4,1.8,4,4c0,1.7-1.1,3.1-2.7,3.7l2.5,4.7c0.1,0.2,0,0.5-0.3,0.5h-2.5c-0.1,0-0.3-0.1-0.3-0.2
	l-2.5-4.9h-1.3v4.7c0,0.2-0.2,0.4-0.4,0.4h-2.2c-0.2,0-0.4-0.2-0.4-0.4V421.9L541.7,421.9z"/>
<path fill="#ffffff" d="M555.3,421.9c0-0.2,0.1-0.4,0.4-0.4h7.7c0.2,0,0.4,0.2,0.4,0.4v2c0,0.2-0.1,0.4-0.4,0.4h-5.1v2.3h4.2
	c0.2,0,0.4,0.2,0.4,0.4v2c0,0.2-0.2,0.4-0.4,0.4h-4.2v2.5h5.1c0.2,0,0.4,0.2,0.4,0.4v2c0,0.2-0.1,0.4-0.4,0.4h-7.7
	c-0.2,0-0.4-0.2-0.4-0.4V421.9L555.3,421.9z"/>
<path fill="#ffffff" d="M566.9,432.8l0.9-1.5c0.1-0.2,0.5-0.2,0.6-0.1c0.1,0,1.4,1,2.6,1c0.7,0,1.3-0.5,1.3-1.1
	c0-0.8-0.6-1.4-1.9-1.9c-1.6-0.6-3.6-1.9-3.6-4.1c0-1.8,1.4-3.7,4.3-3.7c1.9,0,3.4,1,4,1.4c0.2,0.1,0.2,0.5,0.1,0.6l-0.9,1.4
	c-0.1,0.2-0.5,0.4-0.6,0.2c-0.2-0.1-1.5-1.1-2.7-1.1c-0.7,0-1.2,0.4-1.2,0.9c0,0.7,0.6,1.2,2,1.8c1.4,0.6,3.7,1.7,3.7,4.2
	c0,1.9-1.7,3.8-4.4,3.8c-2.4,0-3.7-1-4.2-1.4C566.8,433.1,566.7,433.1,566.9,432.8L566.9,432.8z"/>
<path fill="#ffffff" d="M590.4,421.4c1.9,0,3.2,0.6,4.5,1.7c0.2,0.1,0.2,0.4,0,0.5l-1.4,1.5c-0.1,0.1-0.3,0.1-0.5,0
	c-0.7-0.6-1.6-0.9-2.5-0.9c-2.1,0-3.6,1.7-3.6,3.8c0,2.1,1.6,3.8,3.7,3.8c0.9,0,1.8-0.3,2.5-0.9c0.1-0.1,0.4-0.1,0.5,0l1.4,1.5
	c0.1,0.1,0.1,0.4,0,0.5c-1.3,1.2-2.9,1.8-4.5,1.8c-3.7,0-6.7-2.9-6.7-6.7C583.7,424.4,586.7,421.4,590.4,421.4L590.4,421.4z"/>
<path fill="#ffffff" d="M604.6,430.1l-1.4-3.1h0l-1.4,3.1H604.6L604.6,430.1z M597,434.1l5.8-12.5c0.1-0.1,0.2-0.2,0.3-0.2h0.2
	c0.1,0,0.3,0.1,0.3,0.2l5.8,12.5c0.1,0.2,0,0.5-0.3,0.5h-2.1c-0.3,0-0.5-0.1-0.6-0.5l-0.7-1.5h-5l-0.7,1.5c-0.1,0.2-0.3,0.4-0.7,0.4
	h-2C597.1,434.6,596.9,434.3,597,434.1L597,434.1z"/>
<path fill="#ffffff" d="M612.2,421.7c0-0.2,0.2-0.3,0.4-0.3h0.5l7.4,7.1h0v-6.6c0-0.2,0.1-0.4,0.4-0.4h2.2c0.2,0,0.4,0.2,0.4,0.4
	v12.5c0,0.2-0.2,0.3-0.4,0.3h-0.3c-0.1,0-0.2-0.1-0.2-0.1l-7.3-7.4h0v6.9c0,0.2-0.1,0.4-0.4,0.4h-2.2c-0.2,0-0.4-0.2-0.4-0.4
	L612.2,421.7L612.2,421.7z"/>
<path fill="#ffffff" d="M633.8,430.1l-1.4-3.1h0l-1.4,3.1H633.8L633.8,430.1z M626.2,434.1l5.8-12.5c0.1-0.1,0.2-0.2,0.3-0.2h0.2
	c0.1,0,0.3,0.1,0.3,0.2l5.8,12.5c0.1,0.2,0,0.5-0.3,0.5h-2.1c-0.3,0-0.5-0.1-0.6-0.5l-0.7-1.5h-5l-0.7,1.5c-0.1,0.2-0.3,0.4-0.7,0.4
	h-2C626.2,434.6,626.1,434.3,626.2,434.1L626.2,434.1z"/>
<path fill="#ffffff" d="M646.1,431.8c2.1,0,3.6-1.6,3.6-3.8c0-2.1-1.5-3.7-3.6-3.7h-1.8v7.5H646.1L646.1,431.8z M641.4,421.9
	c0-0.2,0.1-0.4,0.3-0.4h4.5c3.6,0,6.5,2.9,6.5,6.5c0,3.6-2.9,6.5-6.5,6.5h-4.5c-0.2,0-0.3-0.2-0.3-0.4V421.9L641.4,421.9z"/>
<path fill="#ffffff" d="M661.7,430.1l-1.4-3.1h0l-1.4,3.1H661.7L661.7,430.1z M654.1,434.1l5.8-12.5c0.1-0.1,0.2-0.2,0.3-0.2h0.2
	c0.1,0,0.3,0.1,0.3,0.2l5.8,12.5c0.1,0.2,0,0.5-0.3,0.5h-2.1c-0.3,0-0.5-0.1-0.6-0.5l-0.7-1.5h-5l-0.7,1.5c-0.1,0.2-0.3,0.4-0.7,0.4
	h-2C654.1,434.6,654,434.3,654.1,434.1L654.1,434.1z"/>
<path fill="#ffffff" d="M124,430.1l-1.4-3.1h0l-1.4,3.1H124L124,430.1z M116.4,434.1l5.8-12.5c0.1-0.1,0.2-0.2,0.3-0.2h0.2
	c0.1,0,0.3,0.1,0.3,0.2l5.8,12.5c0.1,0.2,0,0.5-0.3,0.5h-2.1c-0.3,0-0.5-0.1-0.6-0.5l-0.7-1.5h-5l-0.7,1.5c-0.1,0.2-0.3,0.4-0.7,0.4
	h-2C116.4,434.6,116.3,434.3,116.4,434.1L116.4,434.1z"/>
<path fill="#ffffff" d="M587.7,277.2c-2.4,5.2,8.8,19.7,14.2,27.7s12.1,25.2,14.8,29c2.7,3.8,15.7,27.5,16.7,33.9
	c0.9,5.6-29.5,5.1-40.2,5.1s3.4,21.3,12.9,20.1c9.5-1.1,25.6-0.8,30.7-1.5c4.9-0.6,12.6,1.3,15.8,1.4c4.2,0.2,15.1-0.2,14-7
	c-1.1-6.3,1-7-1-13.1c-2-6.1-9.4-17.8-17.3-26.4c-7.9-8.6-25.8-46.1-28.9-51.4s-23-57.8-26.8-46.3
	C592.3,249.5,595.8,259.5,587.7,277.2z"/>
</svg>
